<svg width="489" height="600" viewBox="0 0 489 600" fill="none" xmlns="http://www.w3.org/2000/svg">
<path d="M427.903 142.156C426.307 143.735 424.71 145.314 423.151 146.857C425.014 153.592 430.836 155.472 433.975 160.559C429.661 163.51 426.653 158.024 422.335 159.397C422.825 161.441 423.628 163.263 423.583 165.056C423.543 166.724 422.431 168.317 422.096 170.026C421.692 172.091 421.489 174.238 421.416 176.359C421.308 179.538 421.388 182.726 421.388 187.575C422.715 189.263 425.086 192.112 427.281 195.137C428.467 196.772 430.506 199.098 430.176 200.44C428.613 206.779 433.34 211.129 433.359 216.809L433.486 216.653C430.901 218.592 429.354 220.813 430.833 224.776C431.776 227.302 432.079 230.157 432.693 232.976C430.041 234.947 427.949 236.446 425.907 238.034C423.077 240.235 422.585 243.062 424.595 246.293C421.091 248.366 417.894 250.679 414.442 252.2C409.178 254.52 405.509 258.412 403.537 265.159C407.645 269.545 409.545 275.551 410.798 282.663C408.705 284.499 406.652 286.685 404.305 288.278C399.211 291.736 397.797 297.011 399.093 303.179C399.922 307.122 400.677 310.812 400.017 314.929C399.697 316.925 400.171 319.283 400.794 321.258C401.834 324.558 401.808 327.573 400.477 330.728C399.811 332.304 398.799 334.413 399.206 335.755C401.223 342.404 397.489 344.875 393.652 347.618C388.96 350.973 383.315 352.907 380.559 359.267C377.065 360.618 373.571 361.969 370.078 363.32L370.137 363.453C368.817 363.454 367.497 363.454 366.177 363.455L366.234 363.318C362.508 363.802 358.934 364.627 356.462 369.228C358.391 371.711 360.109 374.218 362.084 376.407C367.532 382.444 369.563 389.515 367.413 398.103C366.895 400.174 365.988 402.595 366.455 404.438C368.366 411.972 365.352 416.836 360.86 421.371C358.712 423.54 358.642 426.978 357.735 429.948C354.849 439.396 357.542 448.589 357.521 457.839C357.509 463.017 356.419 467.029 353.407 470.538C352.676 471.712 351.947 472.885 351.218 474.059C351.155 478.131 348.904 480.737 346.568 483.148C341.904 487.964 337.186 492.713 332.38 497.334C310.267 518.595 288.143 539.841 265.946 560.981C263.15 563.644 260.599 566.102 261.607 570.136C257.657 572.591 254.036 574.471 250.757 576.966C245.265 581.146 239.891 585.415 233.278 586.907C231.168 587.383 229.165 588.531 227.126 589.415C221.584 591.82 216.15 593.934 209.934 593.102C205.026 592.444 200.046 593.702 195.931 597.76C194.864 598.813 193.206 599.043 191.022 600C190.851 596.822 190.725 594.494 190.632 592.754C192.864 589.31 197.776 592.918 198.319 586.642C195.949 585.543 193.502 583.926 190.882 583.305C186.928 582.369 183.419 581.688 180.188 577.808C178.074 575.269 173.528 575.496 170.063 574.524C165.538 573.256 165.143 572.984 165.716 568.445C166.614 561.336 165.709 553.88 169.197 547.205C170.168 545.345 169.458 542.265 169.49 539.744C169.629 529.025 170.887 518.657 176.527 509.728C177.346 508.431 178.462 507.393 180.697 504.749C179.717 512.848 173.508 516.412 174.679 523.082C177.731 524.359 179.188 522.257 180.007 519.928C183.181 510.906 187.414 502.341 188.84 492.545C189.025 491.963 189.21 491.38 189.395 490.797C189.258 491.426 189.121 492.055 188.984 492.684C187.572 494.07 186.13 495.417 184.755 496.851C182.751 498.94 180.492 499.627 177.889 498.844C180.078 491.025 182.356 486.298 185.834 482.276C187.401 480.465 188.989 478.369 191.429 479.103C195.86 480.435 198.474 477.321 201.012 474.062C202.562 472.073 204.762 470.428 204.915 466.525C198.898 467.782 195.654 477.003 188.271 472.727C189.525 468.037 192.355 464.415 195.912 462.733C200.606 460.514 203.221 456.205 206.224 452.115C209.174 448.094 212.077 444.026 215.487 439.304C210.31 437.194 205.83 436.901 201.236 437.467C198.822 437.765 196.396 438.138 193.978 438.117C187.784 438.062 181.59 437.885 175.4 437.612C166.458 437.216 157.52 436.687 148.579 436.229C147.029 436.149 145.41 435.78 143.937 436.157C139.368 437.326 135.54 435.348 131.419 433.381C125.412 430.514 119.059 428.648 112.854 426.349C110.565 425.5 108.281 424.635 105.952 423.762C106.111 420.076 109.598 416.996 106.082 414.023C106.749 408.851 101.278 410.02 100.165 405.668C102.009 403.945 104.041 402.047 106.478 399.769C104.881 396.096 103.238 392.317 101.317 387.898C103.009 386.663 104.412 385.453 105.953 384.57C107.298 383.798 108.796 383.396 111.431 382.354C109.199 380.401 107.842 379.213 106.313 377.875C106.612 374.674 106.933 371.233 107.263 367.686C110.085 365.188 113.231 367.146 116.216 366.83C117.273 366.718 118.638 365.777 119.173 364.73C120.184 362.752 118.94 361.063 117.503 360.367C114.953 359.134 112.258 358.277 109.582 357.449C107.597 356.835 105.546 356.515 103.28 356.009C103.901 349.813 108.788 347.635 110.638 342.227C107.874 341.35 105.281 340.626 102.742 339.696C100.316 338.807 99.7158 335.474 101.716 333.697C103.688 331.943 105.887 330.543 107.951 328.926C108.915 328.171 109.794 327.269 111.416 325.792C108.148 323.694 105.548 322.024 102.455 320.038C103.068 317.425 103.696 314.749 104.383 311.819C103.793 311.264 103.188 310.293 102.41 310.028C97.0551 308.213 91.6447 306.623 86.298 304.778C84.8671 304.285 83.5951 303.159 81.7715 302.026C82.131 299.804 82.5934 297.767 82.7688 295.697C83.2395 290.147 84.7467 284.971 82.548 278.954C80.6552 273.775 81.3449 267.347 86.9315 264.056C80.4013 257.349 80.4013 257.349 83.007 248.642C79.8084 243.191 76.3053 237.494 77.8047 229.934C77.929 229.306 77.6428 228.48 77.3763 227.845C74.6297 221.306 74.4678 214.542 76.6473 207.525C72.9772 205.24 69.5452 206.28 66.255 206.105C62.5382 205.908 58.7943 206.029 55.1079 205.538C50.7498 204.958 47.4038 202.781 47.1412 196.761C47.0648 195.013 46.3803 193.301 46.0462 191.877C42.4249 189.894 39.1809 188.119 34.8808 185.766C38.3577 183.537 40.6834 182.046 43.8815 179.995C40.6144 178.076 38.2203 176.669 35.8235 175.259C35.8881 174.969 35.9548 174.682 36.0216 174.395C35.9954 174.726 35.9692 175.056 35.9431 175.387C33.5459 171.399 33.2004 167.556 35.8471 163.343C37.6662 160.448 38.9144 157.061 40.6882 153.323C36.197 146.29 34.404 137.97 34.6287 129.162C34.6749 127.339 36.4229 125.576 37.675 123.248C37.0638 122.391 36.2908 121.405 35.6124 120.337C33.4709 116.969 33.6885 114.936 36.8487 113.765C44.2322 111.03 51.6528 108.35 59.1816 106.26C71.5738 102.82 84.0435 99.7508 96.5237 96.7713C100.496 95.823 104.321 94.9088 107.945 92.4958C110.29 90.9341 113.206 90.3568 115.936 89.8164C132.157 86.6063 148.393 83.5063 164.635 80.442C168.268 79.7566 171.898 79.1879 176.166 76.8077C174.648 75.1413 173.768 73.3363 172.661 73.1175C169.308 72.4548 165.861 72.4911 162.464 72.0975C159.075 71.7048 155.705 71.1038 152.323 70.6268C149.784 70.2686 148.863 68.9517 148.955 65.6856C148.996 64.2206 146.786 62.6681 145.211 60.6636C150.866 56.1574 157.065 58.6586 162.569 56.9248C168.25 55.1358 174.123 54.1704 179.923 52.921C185.661 51.6857 191.482 50.8593 197.266 48.5241C196.306 44.4455 193.903 44.4255 191.977 44.6955C189.243 45.0786 186.622 46.5231 183.888 46.9529C182.314 47.2005 180.613 46.3427 178.896 45.2354C188.119 40.8964 195.534 33.9446 202.983 26.9814C205.37 24.751 208.368 23.4218 211.09 21.6824C216.214 21.5632 221.164 20.3825 225.99 18.4478C220.704 17.4834 215.613 17.6751 211.195 21.8209C208.231 22.4324 205.241 22.9108 202.308 23.6835C196.688 25.1634 191.117 26.9592 185.262 26.2821L185.367 26.4197C186.956 25.3058 188.433 23.7276 190.154 23.1493C207.186 17.4235 224.306 12.2801 242.118 10.9058C250.152 10.286 258.127 8.62394 266.127 7.4192C267.051 7.2803 267.965 6.87098 268.882 6.87971C283.236 7.02168 297.298 3.5473 311.53 2.18666C319.579 1.41696 327.624 0.174698 335.682 0.0361943C358.149 -0.349922 380.332 2.31857 402.012 9.71117C408.271 11.8454 414.616 13.8002 421.031 15.0988C428.786 16.6687 433.614 22.5023 437.968 29.328C439.951 32.4372 440.424 35.9051 438.643 39.3485C442.874 43.4728 449.013 44.7252 449.823 51.142C450.479 56.3274 449.332 61.8259 448.925 68.1012C450.45 67.7526 451.764 67.452 453.079 67.1493C453.329 67.7356 453.874 68.3969 453.783 68.9009C452.848 74.0947 449.231 76.6212 445.772 78.9049C441.598 81.6611 439.306 85.4191 439.099 91.7677C440.498 91.8943 441.914 92.0227 443.991 92.2105C443.724 97.3977 446.007 101.479 448.832 105.401C450.186 107.28 451.834 110.015 451.604 112.098C450.959 117.968 454.055 122.461 455 127.139C454.059 130.339 452.429 128.967 451 128.989C448.52 129.027 447.096 131.027 446.214 133.477C443.828 140.106 439.274 142.279 433.554 142.179L433.622 142.335C431.682 140.152 429.742 140.308 427.802 142.333L427.903 142.156ZM130.401 378.618C131.972 378.379 133.684 378.63 134.817 377.798C135.904 377.001 137.068 374.982 136.933 373.681C136.815 372.548 135.033 371.145 133.802 370.816C132.49 370.467 130.961 371.239 129.503 371.527C129.503 373.12 129.402 374.157 129.531 375.155C129.661 376.168 130.018 377.142 130.401 378.618ZM119.744 321.989C120.394 321.424 121.077 320.831 121.76 320.237C121.158 319.645 120.555 319.053 119.953 318.461C119.44 319.18 118.885 319.87 118.475 320.662C118.428 320.752 119.193 321.421 119.744 321.989ZM128.226 361.803C127.249 361.932 126.453 361.947 125.72 362.21C125.578 362.26 125.687 363.274 125.68 363.843C126.227 363.771 126.853 363.867 127.294 363.576C127.661 363.334 127.812 362.638 128.226 361.803ZM174.868 57.8006C174.982 58.0754 175.118 58.5961 175.206 58.5853C175.751 58.5166 176.286 58.3292 176.824 58.1811C176.711 57.9052 176.576 57.3822 176.489 57.3927C175.942 57.4613 175.407 57.6487 174.868 57.8006Z" fill="#6C59FF"/>
<path d="M149.329 277.513C149.329 277.513 144.471 271.918 134.644 274.066C124.817 276.214 102.036 273.184 102.036 273.184L87.0469 292.759L88.6821 305.103C112.024 307.043 141.666 303.836 150.291 289.136" fill="#98D517"/>
<path d="M149.057 277.754C145.834 275.686 142.019 275.044 138.3 275.477C136.36 275.702 134.452 276.327 132.496 276.615C126.324 277.529 120.088 277.321 113.9 276.904C109.812 276.583 105.788 276.15 101.732 275.445L103.832 274.579C99.6 280.335 93.4439 288.543 89.0353 294.314L89.5322 292.454C90.0933 296.574 90.6063 300.679 90.943 304.831C90.943 304.831 88.8589 302.843 88.875 302.859C106.766 304.045 137.851 304.141 149.971 288.992C150.195 288.639 150.788 288.976 150.596 289.36C146.893 297.296 138.284 301.496 130.3 303.949C116.786 307.957 102.47 308.582 88.4902 307.412C87.368 307.396 86.5183 306.498 86.4222 305.44C86.0374 303.404 85.7168 301.352 85.4122 299.3C85.1236 297.248 84.819 295.196 84.5625 293.128C84.4663 292.454 84.6587 291.781 85.0595 291.268C89.5483 285.513 95.7043 277.417 100.225 271.822C100.754 271.149 101.54 270.892 102.325 270.956C109.331 271.517 119.222 272.431 126.148 272.495C128.585 272.511 130.989 272.511 133.346 272.175C134.885 271.982 136.568 271.71 138.139 271.758C142.564 271.806 147.149 273.682 149.586 277.305C149.81 277.641 149.377 278.01 149.057 277.754Z" fill="#402DD4"/>
<path d="M69.0922 248.384C69.0922 248.384 80.218 239.406 81.0837 235.014C81.9494 230.621 78.695 228.345 69.2685 228.649C59.8581 228.954 53.2692 218.309 48.9888 219.062C44.7084 219.816 43.8428 222.782 45.013 229.803C45.013 229.803 42.8648 232.561 34.5285 231.695C26.1922 230.829 26.9938 236.312 28.4847 239.823C29.9756 243.334 43.442 247.582 45.7665 253.69C48.0911 259.798 44.8207 278.379 36.7248 284.999C28.629 291.62 -4.87665 315.956 4.35743 354.704C13.5915 393.452 64.0904 391.656 88.0253 382.406C111.96 373.156 132.496 328.06 94.9027 298.819C57.3091 269.577 69.0922 248.384 69.0922 248.384Z" fill="#F580F7"/>
<path d="M56.3313 390.454C44.8047 390.454 33.1499 388.37 23.7234 383.416C12.277 377.388 4.93463 367.93 1.92073 355.297C-7.20113 317.03 23.5791 292.342 33.6949 284.23C34.24 283.797 34.721 283.412 35.1378 283.06C42.4 277.112 45.3979 259.782 43.41 254.588C42.4 251.927 37.6707 249.185 33.8873 247.005C30.1039 244.825 27.1221 243.093 26.1602 240.817C24.6212 237.178 24.6532 233.988 26.2403 231.839C27.8435 229.675 30.7131 228.793 34.7851 229.21C38.9051 229.643 41.1656 229.082 42.2717 228.633C41.6305 224.225 41.4221 217.876 48.54 216.61C51.4577 216.097 54.135 218.165 57.229 220.569C60.7078 223.263 64.6355 226.293 69.1884 226.164C75.9537 225.94 80.1058 227.014 82.222 229.499C83.1518 230.589 84.1297 232.529 83.5526 235.527C82.6388 240.208 74.3185 247.39 71.1122 250.003C70.5511 251.302 69.0121 255.742 70.4549 262.604C72.0741 270.267 77.9095 282.418 96.4578 296.831C112.826 309.56 120.345 326.777 117.619 345.342C115.022 363.024 103.239 379.232 88.9551 384.763C79.8653 388.258 68.1624 390.454 56.3313 390.454ZM32.8934 234.132C31.3704 234.132 30.5528 234.453 30.2963 234.821C29.9115 235.334 29.9276 236.777 30.8093 238.845C31.2582 239.647 34.3683 241.458 36.4203 242.645C41.1335 245.37 46.472 248.464 48.1232 252.792C50.9127 260.103 47.1292 279.741 38.328 286.939C37.8952 287.292 37.3982 287.693 36.8531 288.142C27.3465 295.757 -1.55808 318.938 6.82633 354.111C9.48754 365.269 15.9642 373.637 26.064 378.943C43.8428 388.29 70.2465 386.574 87.1436 380.05C99.6 375.224 110.325 360.315 112.65 344.588C115.102 327.9 108.257 312.349 93.3798 300.79C54.5197 270.571 66.3669 248.111 66.896 247.165C67.0563 246.877 67.2647 246.636 67.5212 246.428C72.523 242.388 78.1981 236.697 78.6149 234.533C78.8554 233.282 78.5187 232.881 78.3905 232.737C77.9255 232.192 76.13 230.958 69.3488 231.166C62.9843 231.358 57.8863 227.415 54.151 224.513C52.5799 223.295 50.1752 221.451 49.4217 221.531C47.7384 221.836 46.2796 222.092 47.498 229.371C47.6102 230.06 47.4338 230.781 47.001 231.326C46.504 231.968 43.5382 235.126 34.2881 234.18C33.7751 234.164 33.3102 234.132 32.8934 234.132Z" fill="#402DD4"/>
<path d="M57.3254 255.71C57.3254 255.71 55.6581 252.921 50.6563 252.344C45.6545 251.767 41.2298 250.949 39.8992 255.053C38.5686 259.157 41.1016 262.588 41.1016 262.588C41.1016 262.588 36.8693 263.79 37.6548 268.792C38.4404 273.794 40.5084 274.146 40.5084 274.146C40.5084 274.146 36.9815 276.214 38.5526 280.415C40.1237 284.615 49.1333 283.268 51.2334 282.803C54.9207 281.986 56.4276 276.503 52.3877 274.178C52.3877 274.178 56.652 273.072 57.2933 269.561C58.143 264.928 55.0329 263.293 55.0329 263.293C55.0329 263.293 60.7881 259.333 57.3254 255.71Z" fill="#EFEFEF"/>
<path d="M45.7029 285.929C41.9355 285.929 37.6071 285.047 36.1963 281.312C35.0741 278.33 35.7634 275.926 36.9017 274.242C36.1803 273.136 35.539 271.533 35.1703 269.192C34.5932 265.457 36.068 263.02 37.7834 261.61C37.0941 259.814 36.565 257.185 37.5109 254.283C39.3865 248.448 45.2861 249.169 50.0314 249.73L50.9452 249.843C56.2516 250.468 58.6402 253.193 59.2975 254.139C60.8526 255.87 61.0449 257.634 60.9167 258.836C60.7243 260.68 59.6983 262.251 58.6723 263.405C59.6662 264.928 60.3235 267.124 59.7785 270.026C59.3777 272.238 58.015 273.858 56.5241 274.948C57.1974 276.246 57.4699 277.737 57.2295 279.276C56.7806 282.242 54.5843 284.647 51.7788 285.272C51.2177 285.4 48.6366 285.929 45.7029 285.929ZM46.3762 273.633L41.7912 276.326C41.3103 276.631 40.2041 277.609 40.9255 279.549C41.4866 281.072 46.7449 281.232 50.7047 280.35C51.6185 280.142 52.1475 279.26 52.2597 278.507C52.3559 277.881 52.2437 277 51.1536 276.374L46.3762 273.633ZM41.3103 271.741L47.6908 272.832L51.7788 271.773C51.7948 271.773 54.5041 270.972 54.8408 269.128C55.3057 266.563 54.0713 265.649 53.8148 265.489L49.7428 263.662L53.6224 261.241C54.5202 260.616 55.8187 259.237 55.9149 258.339C55.9309 258.211 55.947 257.938 55.4981 257.473L55.2576 257.217L55.1775 257.057C54.9851 256.8 53.7026 255.261 50.368 254.876L49.4382 254.764C44.0677 254.123 42.8012 254.315 42.3042 255.87C41.4065 258.66 43.0738 261.065 43.1539 261.177L45.2059 264.078L41.8073 265.072C41.2141 265.265 39.7713 266.018 40.156 268.471C40.5087 270.667 41.0859 271.501 41.3103 271.741Z" fill="#402DD4"/>
<path d="M38.1523 261.369C43.7954 263.694 49.8873 263.037 55.2899 260.375L54.841 266.227C51.4424 263.518 46.8414 263.277 42.8976 264.704C41.6151 265.217 40.3005 265.922 39.2745 267.141L38.1523 261.369Z" fill="#402DD4"/>
<path d="M39.1143 271.309C43.8595 273.425 48.9896 273.665 53.783 271.309L52.5486 277.048C49.9194 273.152 44.1 273.425 40.8937 276.327C40.6693 276.535 40.4128 276.792 40.2845 277.064L39.1143 271.309Z" fill="#402DD4"/>
<path d="M68.7401 261.273C68.7562 261.257 68.7562 261.257 68.7401 261.273C68.7562 261.257 68.7562 261.273 68.7401 261.289C68.692 261.882 67.8744 271.822 77.3009 278.715L89.3084 292.39L94.9354 298.803C102.486 288.831 111.528 263.935 95.0797 265.874C94.4064 265.938 93.6689 266.067 92.8994 266.243C92.8994 266.243 92.2101 265.105 91.0719 263.534C89.8695 261.866 88.1541 259.718 86.1823 257.859C82.3347 254.252 78.872 246.813 71.6739 247.037C64.4758 247.262 60.3236 253.642 55.7226 255.871C53.2057 261.722 63.7704 267.061 68.7401 261.273Z" fill="#EFEFEF"/>
<path d="M94.919 301.32C94.2296 301.32 93.5563 301.031 93.0914 300.534L75.6653 282.018C69.0604 277.08 67.0084 270.283 66.4152 265.778C63.257 266.836 59.7141 266.179 57.0529 264.528C53.3656 262.235 51.9068 258.356 53.3977 254.893C53.6382 254.348 54.071 253.899 54.6161 253.626C55.9146 252.985 57.3254 251.831 58.8163 250.612C62.0066 247.983 65.9823 244.729 71.5773 244.553C78.1181 244.36 82.0137 249.089 85.1238 252.905C86.0857 254.091 87.0155 255.213 87.8812 256.047C90.6226 258.612 92.867 261.69 94.0693 263.486C100.45 262.54 103.56 264.977 105.067 267.317C110.229 275.333 102.63 292.807 96.9229 300.342C96.474 300.935 95.7847 301.288 95.0472 301.336C95.0152 301.32 94.9671 301.32 94.919 301.32ZM71.2567 261.498C71.2086 261.963 70.4551 271.966 78.8395 278.106C78.9678 278.202 79.08 278.299 79.1922 278.411L94.6465 294.827C99.8887 286.603 103.656 274.371 100.867 270.026C99.7445 268.295 97.2596 267.846 93.4602 268.712C92.4021 268.952 91.3119 268.487 90.7508 267.558C90.7188 267.51 88.0095 263.037 84.4826 259.718C83.3604 258.66 82.3344 257.41 81.2603 256.095C78.5349 252.745 75.9539 249.586 72.0102 249.586C71.93 249.586 71.8498 249.586 71.7697 249.586C67.8901 249.715 64.9243 252.151 62.0386 254.508C60.6439 255.646 59.3133 256.752 57.8865 257.602C57.8224 258.949 59.2492 259.959 59.7461 260.263C61.4775 261.337 64.796 262.059 66.8641 259.638C67.5855 258.804 68.7558 258.532 69.7658 258.949C70.7437 259.366 71.3529 260.408 71.2567 261.498Z" fill="#402DD4"/>
<path d="M95.2718 265.441C96.0573 270.411 94.7427 275.637 92.0174 279.805C91.809 280.158 91.2319 279.885 91.3601 279.5C91.9533 277.336 92.1937 275.124 92.0174 272.912C91.8731 271.068 91.4884 269.272 90.767 267.589C90.6708 267.381 90.5585 267.108 90.4784 267.028C89.5325 265.906 89.6608 264.239 90.783 263.293C92.2258 261.994 94.6786 262.828 95.0794 264.704C95.0954 264.736 95.2718 265.441 95.2718 265.441Z" fill="#402DD4"/>
<path d="M47.4499 229.178L49.6943 246.155C49.7584 246.556 49.1492 246.732 49.005 246.332L42.5924 230.46C42.0634 229.162 42.6886 227.687 43.9871 227.158C45.4941 226.517 47.2575 227.559 47.4499 229.178Z" fill="#402DD4"/>
<path d="M61.477 269.85C66.0139 280.799 69.7011 292.47 73.8533 303.596C73.9495 303.836 73.5968 304.045 73.4365 303.836C71.4165 301.512 69.7332 298.915 68.3064 296.221C65.4528 290.819 63.4168 285.015 62.1504 279.052C61.974 278.426 60.1785 268.359 61.477 269.85Z" fill="#402DD4"/>
<path d="M55.6424 274.194C55.434 281.489 53.5262 288.542 50.865 295.292C49.9352 297.52 48.9092 299.732 47.5465 301.8C47.4664 301.913 47.3221 301.945 47.2099 301.865C47.1297 301.816 47.0977 301.72 47.0977 301.64C47.3381 299.187 47.787 296.831 48.2679 294.49C48.781 292.15 49.342 289.841 49.9993 287.532C51.346 282.899 52.869 278.363 55.1614 274.066C55.2897 273.858 55.6424 273.954 55.6424 274.194Z" fill="#402DD4"/>
<path d="M63.4329 236.905C62.0542 243.574 58.7357 249.762 55.9623 255.918C55.8821 256.143 55.5294 256.11 55.4813 255.87C54.7439 252.295 55.7539 248.64 57.0845 245.369C58.4952 242.099 60.3228 239.069 63.0161 236.664C63.1924 236.504 63.481 236.68 63.4329 236.905Z" fill="#402DD4"/>
<path d="M86.0376 340.468C86.5186 355.249 77.6372 366.247 62.8562 366.712C48.0753 367.193 35.6991 355.586 35.2341 340.805C34.7532 326.024 46.3599 313.648 61.1409 313.183C75.9218 312.718 85.5567 325.687 86.0376 340.468Z" fill="#ED56F0"/>
<path d="M64.7963 360.62C64.3314 360.155 63.9787 359.401 63.7383 358.311C63.5779 357.686 63.1772 357.381 62.5038 357.381C60.2274 357.509 58.2716 357.349 56.6203 356.916C54.9691 356.467 53.6705 355.794 52.7247 354.88C51.7788 353.967 51.2017 352.892 50.9933 351.642C50.849 350.744 50.8971 349.846 51.1696 348.965C51.4422 348.083 51.9071 347.33 52.6125 346.688C53.3018 346.063 54.1996 345.646 55.2897 345.47C56.2356 345.31 57.0532 345.294 57.6944 345.438C58.3517 345.582 58.9449 345.887 59.4739 346.384C60.0029 346.865 60.5801 347.586 61.1893 348.532C61.8466 349.574 62.568 350.279 63.3375 350.648C64.107 351.017 65.0849 351.113 66.2552 350.921C67.5698 350.696 68.4835 350.183 69.0286 349.382C69.5737 348.564 69.75 347.618 69.5737 346.528C69.4294 345.662 69.0126 344.941 68.3393 344.364C67.6659 343.787 66.8644 343.338 65.9506 342.985C65.0368 342.632 63.6902 342.2 61.9267 341.67C59.522 340.981 57.5341 340.308 55.9791 339.634C54.424 338.961 53.0133 337.983 51.7468 336.669C50.4963 335.37 49.6948 333.671 49.3421 331.571C48.9092 329.006 49.3741 326.809 50.7368 324.998C52.0834 323.186 54.0232 321.808 56.5241 320.894C57.1333 320.685 57.3898 320.285 57.2936 319.659C57.1333 318.73 57.2295 317.976 57.5341 317.431C57.8547 316.886 58.4639 316.533 59.3457 316.389C60.7725 316.148 61.7504 316.934 62.2794 318.746C62.3756 319.082 62.5038 319.323 62.6962 319.483C62.8886 319.627 63.1451 319.707 63.4818 319.707C65.3414 319.691 66.9285 319.964 68.2431 320.509C69.5737 321.054 70.5837 321.759 71.3051 322.625C72.0265 323.491 72.4593 324.405 72.6196 325.367C72.796 326.393 72.6998 327.29 72.3792 328.092C72.0425 328.893 71.5295 329.535 70.8562 330.032C70.1668 330.529 69.3653 330.833 68.4675 330.994C67.0728 331.218 65.9826 331.074 65.1811 330.529C64.3795 329.984 63.6902 329.086 63.1291 327.835C62.7603 326.89 62.2954 326.232 61.7343 325.88C61.1732 325.527 60.3717 325.431 59.3296 325.607C58.2395 325.783 57.3898 326.216 56.7967 326.906C56.2035 327.595 55.9791 328.413 56.1394 329.358C56.3157 330.384 56.7806 331.234 57.5501 331.907C58.3196 332.581 59.2495 333.126 60.2915 333.543C61.3496 333.959 62.7924 334.424 64.636 334.969C67.0407 335.643 69.0126 336.316 70.5837 336.973C72.1387 337.647 73.5495 338.625 74.7839 339.907C76.0183 341.206 76.8199 342.905 77.1565 345.005C77.5894 347.586 77.1405 349.846 75.8259 351.754C74.5113 353.662 72.3952 355.105 69.4935 356.083C68.8683 356.291 68.5958 356.724 68.708 357.397C68.9004 358.6 68.8683 359.481 68.5958 360.042C68.3232 360.587 67.698 360.956 66.7201 361.117C65.9185 361.229 65.2612 361.068 64.7963 360.62Z" fill="#FBCCFC"/>
<g opacity="0.7">
<path d="M18.0329 371.04C-4.79583 334.553 19.0909 305.6 37.4469 290.05C31.6435 310.105 3.97334 322.866 18.0329 371.04Z" fill="#EFEFEF"/>
</g>
<path d="M266.295 420.962C266.295 420.962 260.219 413.315 259.305 382.134C258.391 350.937 293.051 380.755 293.051 380.755C293.051 380.755 292.378 402.269 297.876 418.83C303.359 435.39 270.783 430.051 270.783 430.051" fill="#98D517"/>
<path d="M281.381 433.402C276.01 433.402 271.377 432.697 270.367 432.536C269.004 432.312 268.075 431.013 268.283 429.651C268.507 428.288 269.806 427.342 271.169 427.567C278.511 428.769 291.496 429.106 295.039 424.938C295.424 424.473 296.626 423.078 295.472 419.599C290.599 404.898 290.454 386.767 290.502 381.893C283.336 375.978 270.976 368.299 265.429 370.944C262.207 372.483 261.678 377.837 261.806 382.054C262.672 411.471 268.219 419.359 268.283 419.439C269.149 420.529 268.956 422.084 267.866 422.95C266.776 423.815 265.189 423.623 264.323 422.533C263.65 421.683 257.702 413.347 256.788 382.214C256.548 373.894 258.728 368.587 263.281 366.407C273.878 361.357 292.587 377.036 294.687 378.847C295.264 379.344 295.584 380.066 295.568 380.835C295.568 381.044 294.975 402.109 300.266 418.028C301.949 423.126 300.442 426.38 298.887 428.208C295.312 432.392 287.825 433.402 281.381 433.402Z" fill="#402DD4"/>
<path d="M234.039 380.755C234.039 380.755 236.861 397.7 242.857 413.09C248.852 428.481 242.937 432.552 241.863 432.552C240.789 432.552 215.122 429.122 214.337 428.336C213.551 427.551 208.453 417.259 208.453 417.259C208.453 417.259 200.566 395.472 198.979 379.489C197.392 363.505 234.039 380.755 234.039 380.755Z" fill="#98D517"/>
<path d="M241.863 435.053C240.901 435.053 232.228 433.867 227.627 433.209C213.663 431.205 213.263 430.805 212.557 430.083C212.269 429.795 211.483 429.009 206.209 418.332C206.161 418.252 206.129 418.156 206.096 418.076C205.776 417.178 198.081 395.808 196.478 379.697C196.045 375.4 197.904 373.124 199.54 371.969C207.844 366.118 230.641 376.346 235.113 378.446C235.867 378.799 236.38 379.488 236.524 380.306C236.556 380.466 239.378 397.187 245.197 412.144C249.574 423.398 248.051 429.298 246.015 432.28C244.86 434.011 243.257 435.053 241.863 435.053ZM215.94 426.22C219.755 427.133 237.758 429.602 241.414 429.987C242.199 429.218 244.973 425.482 240.516 413.988C235.402 400.842 232.596 386.799 231.811 382.486C221.727 377.917 206.642 373.14 202.457 376.106C202.137 376.33 201.271 376.939 201.495 379.232C202.97 394.077 210.136 414.437 210.794 416.264C212.701 420.16 215.01 424.649 215.94 426.22Z" fill="#402DD4"/>
<path d="M304.017 428.048C324.12 418.589 344.704 436.031 338.003 457.594C337.089 460.527 334.332 462.483 331.254 462.483H273.99C270.447 462.483 267.321 460.094 266.455 456.664C263.104 443.245 263.104 419.07 263.104 419.07C274.07 427.214 297.235 424.296 298.838 415.078C298.871 415.078 304.017 413.395 304.017 428.048Z" fill="#EFEFEF"/>
<path d="M331.27 465H274.006C269.261 465 265.173 461.826 264.035 457.273C260.652 443.71 260.62 420.064 260.62 419.07C260.62 418.124 261.149 417.242 261.999 416.826C262.848 416.393 263.874 416.489 264.628 417.05C271.393 422.084 283.705 422.356 290.968 419.455C294.142 418.188 296.066 416.473 296.386 414.629C296.546 413.715 297.204 412.962 298.085 412.673C298.438 412.561 300.33 412.048 302.35 413.507C304.69 415.206 306.037 418.781 306.422 424.392C315.752 421.314 325.595 423.094 332.809 429.378C340.873 436.384 343.775 447.494 340.408 458.347C339.174 462.339 335.503 465 331.27 465ZM265.718 423.479C265.894 431.013 266.536 446.484 268.924 456.054C269.501 458.363 271.586 459.966 274.022 459.966H331.286C333.274 459.966 335.054 458.684 335.631 456.856C338.436 447.798 336.16 438.949 329.523 433.178C322.934 427.438 313.572 426.348 305.107 430.324C304.338 430.693 303.424 430.629 302.686 430.164C301.965 429.699 301.516 428.897 301.516 428.048C301.516 422.549 300.763 419.872 300.137 418.621C298.727 420.882 296.226 422.773 292.843 424.136C285.437 427.086 274.135 427.374 265.718 423.479Z" fill="#402DD4"/>
<path d="M304.867 430.421C298.551 432.408 292.683 436.32 288.611 441.562C287.169 443.342 286.094 445.378 285.084 447.462C284.924 447.879 284.267 447.67 284.411 447.221C286.303 440.152 290.936 434.044 296.739 429.635C298.791 428.112 300.843 426.749 303.184 425.659C306.518 424.345 308.314 429.33 304.867 430.421Z" fill="#402DD4"/>
<path d="M193.08 462.483C176.183 449.049 183.605 429.539 207.203 429.539C207.203 429.539 206.081 426.621 205.119 421.395C204.157 416.152 208.438 417.243 208.438 417.243C210.714 425.483 241.927 424.473 242.841 413.09C242.841 413.09 246.416 411.776 249.526 422.324C252.636 432.873 258.375 455.926 251.819 462.499H193.08V462.483Z" fill="#EFEFEF"/>
<path d="M251.834 465H193.079C192.518 465 191.957 464.808 191.508 464.455C182.964 457.658 179.517 448.84 182.306 440.857C185.016 433.114 193.112 428.032 203.837 427.166C203.468 425.787 203.051 424.008 202.65 421.843C202.169 419.23 202.65 417.242 204.045 415.928C206.017 414.084 208.758 414.71 209.063 414.79C209.944 415.014 210.634 415.687 210.874 416.553C211.403 418.493 217.8 420.785 226.585 419.952C234.408 419.214 240.067 416.297 240.356 412.866C240.436 411.888 241.077 411.038 241.991 410.702C242.376 410.557 243.755 410.173 245.502 411.054C248.147 412.385 250.247 415.832 251.963 421.571C256.58 437.17 260.604 457.241 253.614 464.247C253.133 464.743 252.492 465 251.834 465ZM193.977 459.982H250.648C253.774 455.221 252.46 441.017 247.137 423.03C246.111 419.583 245.117 417.707 244.38 416.697C241.687 421.779 234.104 424.312 227.066 424.97C219.611 425.675 211.131 424.521 207.556 420.593C207.572 420.705 207.588 420.818 207.604 420.946C208.502 425.851 209.544 428.625 209.56 428.657C209.848 429.426 209.752 430.308 209.287 430.981C208.822 431.671 208.037 432.072 207.219 432.072C197.039 432.072 189.328 436.079 187.068 442.524C185.08 448.199 187.661 454.66 193.977 459.982Z" fill="#402DD4"/>
<path d="M207.058 427.038C217.11 427.374 227.194 430.677 235.161 436.865C237.823 438.837 240.051 441.306 242.135 443.79C242.408 444.111 241.927 444.592 241.606 444.287C234.937 437.458 225.879 433.45 216.485 432.296C213.519 431.959 210.249 431.767 207.299 432.071C203.804 432.312 203.532 427.15 207.058 427.038Z" fill="#402DD4"/>
<path d="M370.674 368.668L320.111 380.483L315.029 380.755L289.491 382.134L166.643 368.668C142.067 272.591 167.589 150.032 210.056 52.7531C210.056 52.7531 268.282 46.3886 340.952 58.8289C362.707 62.5482 385.76 67.9508 408.941 75.71C408.941 75.71 412.564 105.785 426.159 126.866C388.229 187.497 347.012 255.646 370.674 368.668Z" fill="#98D517"/>
<path d="M289.492 384.651C289.396 384.651 289.316 384.651 289.219 384.635L166.371 371.152C165.329 371.04 164.463 370.287 164.207 369.277C152.52 323.651 151.349 270.315 160.712 210.758C168.952 158.32 185.224 103.332 207.748 51.7269C208.117 50.8933 208.886 50.3322 209.784 50.236C210.778 50.1238 309.804 39.8316 409.743 73.3052C410.657 73.6097 411.33 74.4273 411.443 75.3892C411.475 75.6778 415.162 105.143 428.276 125.487C428.805 126.305 428.805 127.363 428.292 128.181C391.275 187.352 349.337 254.412 373.144 368.138C373.416 369.469 372.583 370.8 371.252 371.104L320.673 382.919C320.529 382.951 320.384 382.967 320.24 382.983L289.636 384.651C289.588 384.651 289.54 384.651 289.492 384.651ZM168.647 366.343L289.556 379.601L319.743 377.966L367.709 366.76C357.577 316.678 359.276 271.052 372.919 227.351C385.247 187.801 406.152 154.087 423.194 126.834C411.731 108.205 407.595 83.9981 406.665 77.5695C314.87 47.2221 224.228 53.9713 211.772 55.0775C163.71 165.838 147.646 281.922 168.647 366.343Z" fill="#402DD4"/>
<path d="M338.035 63.6222C352.094 67.1491 369.52 71.9425 383.628 75.6297L398.794 79.7337C399.707 79.9742 400.156 81.0804 399.659 81.882C396.902 86.7715 394 91.5489 391.179 96.3743C347.429 168.756 321.298 248.368 314.805 332.773C314.789 332.934 314.645 333.062 314.484 333.046C314.324 333.03 314.212 332.901 314.212 332.741C314.436 327.787 314.629 320.798 315.046 315.972C319.679 243.126 342.636 171.85 379.668 109.055C385.311 99.3722 391.339 89.8977 397.126 80.4071L397.992 82.5553C384.574 78.5795 366.266 72.9525 352.88 68.8645C347.862 67.3415 342.876 65.7544 337.874 64.1993C337.714 64.1513 337.634 63.9749 337.682 63.8306C337.714 63.6703 337.874 63.5901 338.035 63.6222Z" fill="#402DD4"/>
<path d="M414.024 93.6169C406.217 105.4 398.858 117.504 391.74 129.736C391.564 130.04 391.035 129.816 391.211 129.463C394.241 123.051 397.351 116.67 400.558 110.338C403.78 103.989 407.018 97.6889 410.465 91.4367C411.924 88.9518 415.579 91.1641 414.024 93.6169Z" fill="#402DD4"/>
<path d="M416.316 105.833C409.55 115.387 402.865 125.038 396.661 134.978C396.485 135.282 395.972 135.026 396.132 134.689C398.713 129.399 401.439 124.189 404.228 119.01C407.017 113.832 409.871 108.686 412.773 103.556C413.35 102.546 414.632 102.193 415.642 102.771C416.733 103.38 417.053 104.823 416.316 105.833Z" fill="#402DD4"/>
<path d="M339.718 374.792C338.884 359.85 338.884 344.909 339.445 329.984C339.445 329.824 339.59 329.695 339.75 329.695C339.91 329.695 340.039 329.824 340.039 329.984C340.343 337.422 340.824 344.845 341.449 352.252C342.091 359.626 342.86 367.065 343.886 374.375C344.223 377.212 339.991 377.661 339.718 374.792Z" fill="#402DD4"/>
<path d="M331.606 375.946C331.783 369.004 332.087 362.095 332.504 355.185C332.921 348.276 333.466 341.382 334.284 334.505C334.3 334.344 334.46 334.216 334.62 334.248C334.781 334.264 334.893 334.408 334.877 334.553C334.652 341.446 334.717 348.34 334.893 355.217C335.085 362.111 335.374 369.004 335.791 375.866C335.887 378.751 331.622 378.831 331.606 375.946Z" fill="#402DD4"/>
<path d="M372.198 179.978C362.659 212.714 354.579 245.867 350.7 279.757C350.379 283.156 350.026 286.939 349.609 290.322C349.593 290.53 349.401 290.675 349.209 290.659C349.032 290.643 348.904 290.498 348.888 290.322C348.712 287.949 348.583 285.577 348.471 283.204C347.589 257.025 352.607 230.862 360.703 206.045C363.733 197.035 367.18 188.154 371.524 179.689C371.62 179.513 371.829 179.449 372.005 179.529C372.182 179.625 372.262 179.818 372.198 179.978Z" fill="#402DD4"/>
<path d="M203.563 38.5168C203.563 38.5168 289.283 38.7734 366.266 50.2518C366.266 50.2518 367.131 65.4816 378.898 81.4649C382.682 86.611 382.874 93.5526 379.251 98.8109C334.7 163.562 309.082 287.18 314.757 382.823C247.152 386.222 183.235 385.115 124.112 378.158C108.128 277.593 134.564 91.9976 203.563 38.5168Z" fill="#98D517"/>
<g opacity="0.7">
<path d="M210.489 42.958C230.063 43.2947 300.73 45.0261 346.515 53.2341L212.589 46.549C208.597 46.3567 204.766 48.04 202.185 51.0859C168.663 90.8598 158.916 123.917 142.5 166.352C151.349 118.113 179.212 68.3998 201.159 46.6933C203.644 44.2405 207.01 42.8939 210.489 42.958Z" fill="#EFEFEF"/>
</g>
<path d="M366.266 91.5006C319.582 164.043 298.373 250.676 296.802 348.195C283.287 338.336 269.308 353.822 277.917 364.162C226.632 365.541 160.134 354.688 160.134 354.688C161.497 325.735 136.76 331.891 136.76 331.891C121.515 265.393 155.261 119.283 196.782 68.1429C207.122 76.7357 230.031 71.3011 228.989 55.0132C259.417 55.9751 321.602 58.9248 354.691 67.3894L366.266 91.5006Z" fill="#BEF941"/>
<path d="M243.177 387.2C200.518 387.2 161.08 385.019 123.839 380.643C122.717 380.514 121.82 379.649 121.643 378.543C113.451 327.05 116.465 254.877 129.515 190.19C144.52 115.708 170.282 61.1372 202.025 36.529C202.473 36.1924 203.002 36 203.58 36C204.445 36 290.358 36.3848 366.651 47.751C367.837 47.9274 368.719 48.9053 368.799 50.0916C368.815 50.2359 369.809 64.8244 380.951 79.9581C385.392 85.9859 385.552 94.1138 381.352 100.222C338.933 161.878 311.407 283.3 317.306 382.647C317.338 383.32 317.114 383.977 316.665 384.474C316.216 384.971 315.591 385.276 314.918 385.308C289.973 386.574 266.102 387.2 243.177 387.2ZM126.324 375.865C181.376 382.214 243.85 383.737 312.128 380.418C309.627 333.543 314.437 279.789 325.739 228.681C337.602 174.992 355.878 128.373 377.2 97.3681C380.181 93.0397 380.053 87.2363 376.895 82.9399C367.228 69.8262 364.647 57.2736 363.99 52.4482C292.682 42.0118 213.583 41.098 204.445 41.0338C137.13 94.2901 111.223 276.663 126.324 375.865Z" fill="#402DD4"/>
<path d="M268.731 366.808C219.354 366.808 160.359 357.285 159.733 357.173C158.467 356.965 157.569 355.842 157.633 354.576C158.034 346.256 156.19 340.356 152.199 337.054C146.347 332.228 137.466 334.328 137.369 334.344C136.712 334.505 136.023 334.392 135.446 334.04C134.869 333.687 134.468 333.126 134.308 332.469C127.093 300.999 130.348 249.121 143.029 193.717C155.661 138.489 175.027 90.9557 194.826 66.572C195.243 66.043 195.868 65.7223 196.541 65.6582C197.215 65.5941 197.872 65.8025 198.401 66.2353C203.371 70.3714 212.22 70.9005 218.985 67.4537C221.983 65.9307 226.937 62.3077 226.472 55.2057C226.424 54.5004 226.68 53.795 227.177 53.298C227.674 52.785 228.364 52.5125 229.069 52.5285C262.142 53.5705 322.5 56.5844 355.316 64.9849C356.038 65.1612 356.647 65.6582 356.967 66.3315L368.526 90.4588C368.911 91.2443 368.847 92.1741 368.366 92.9116C323.526 162.568 300.938 246.107 299.303 348.292C299.287 349.237 298.757 350.087 297.908 350.504C297.074 350.921 296.064 350.841 295.311 350.279C289.01 345.695 283.335 347.73 280.402 350.873C277.676 353.774 276.458 358.52 279.856 362.608C280.466 363.345 280.61 364.371 280.209 365.253C279.808 366.135 278.943 366.712 277.981 366.728C274.967 366.76 271.873 366.808 268.731 366.808ZM162.715 352.54C174.194 354.303 229.005 362.335 273.62 361.726C271.809 356.932 272.867 351.482 276.73 347.362C280.69 343.146 287.343 340.837 294.365 343.883C295.423 295.628 301.419 250.548 312.176 209.812C323.622 166.464 340.856 126.594 363.38 91.3084L352.928 69.5218C321.169 61.6824 264.402 58.7006 231.474 57.5944C230.961 63.6863 227.338 68.8004 221.262 71.8944C213.535 75.8221 203.884 75.5977 197.279 71.5578C178.442 95.8934 160.086 141.679 147.934 194.807C135.718 248.176 132.32 298.033 138.7 329.006C142.484 328.573 149.714 328.509 155.341 333.126C160.262 337.166 162.731 343.691 162.715 352.54Z" fill="#402DD4"/>
<path d="M257.093 128.597C271.772 128.597 283.673 119.101 283.673 107.388C283.673 95.674 271.772 86.1782 257.093 86.1782C242.413 86.1782 230.513 95.674 230.513 107.388C230.513 119.101 242.413 128.597 257.093 128.597Z" fill="#98D517"/>
<path d="M210.057 332.741C224.736 332.741 236.637 323.245 236.637 311.531C236.637 299.818 224.736 290.322 210.057 290.322C195.377 290.322 183.477 299.818 183.477 311.531C183.477 323.245 195.377 332.741 210.057 332.741Z" fill="#98D517"/>
<path d="M274.807 113.223C274.278 113.415 273.54 113.415 272.627 113.191C272.082 113.079 271.697 113.287 271.456 113.816C270.719 115.644 269.869 117.102 268.923 118.225C267.961 119.347 266.968 120.116 265.893 120.517C264.835 120.918 263.777 120.966 262.735 120.677C261.982 120.453 261.308 120.084 260.715 119.555C260.122 119.026 259.705 118.369 259.481 117.599C259.24 116.83 259.256 115.98 259.513 115.066C259.737 114.265 260.026 113.64 260.379 113.175C260.731 112.71 261.196 112.373 261.773 112.133C262.35 111.892 263.12 111.716 264.098 111.588C265.156 111.459 265.974 111.155 266.551 110.69C267.128 110.225 267.545 109.504 267.833 108.51C268.154 107.403 268.09 106.49 267.657 105.768C267.224 105.047 266.535 104.55 265.621 104.293C264.883 104.085 264.178 104.133 263.489 104.454C262.799 104.774 262.142 105.223 261.533 105.816C260.924 106.409 260.09 107.291 259.016 108.461C257.589 110.081 256.323 111.379 255.233 112.357C254.126 113.335 252.844 114.072 251.353 114.569C249.878 115.066 248.243 115.066 246.479 114.569C244.315 113.96 242.776 112.774 241.862 111.059C240.949 109.327 240.596 107.323 240.788 105.031C240.852 104.47 240.628 104.133 240.115 103.973C239.329 103.748 238.784 103.412 238.464 102.963C238.159 102.514 238.095 101.905 238.319 101.167C238.656 99.9649 239.634 99.4839 241.237 99.7404C241.526 99.7885 241.766 99.7725 241.959 99.6763C242.151 99.5801 242.295 99.4038 242.423 99.1473C243.097 97.7044 243.898 96.5502 244.812 95.7326C245.726 94.8989 246.656 94.3699 247.602 94.1294C248.547 93.889 249.413 93.889 250.215 94.1134C251.08 94.3539 251.754 94.7547 252.251 95.3158C252.748 95.8769 253.068 96.5021 253.197 97.2235C253.325 97.9449 253.277 98.6823 253.068 99.4358C252.732 100.606 252.203 101.408 251.497 101.824C250.776 102.241 249.83 102.45 248.644 102.434C247.762 102.37 247.089 102.498 246.592 102.802C246.111 103.107 245.742 103.7 245.485 104.582C245.229 105.496 245.245 106.313 245.566 107.035C245.886 107.756 246.431 108.221 247.233 108.445C248.099 108.686 248.932 108.638 249.75 108.285C250.567 107.932 251.321 107.419 252.042 106.746C252.748 106.073 253.661 105.127 254.752 103.877C256.162 102.241 257.413 100.943 258.519 99.9809C259.625 99.003 260.908 98.2816 262.367 97.7846C263.825 97.3037 265.445 97.3036 267.224 97.8166C269.404 98.4419 270.991 99.6122 272.001 101.36C273.011 103.091 273.348 105.271 273.043 107.9C272.979 108.478 273.22 108.83 273.781 108.991C274.791 109.279 275.464 109.632 275.801 110.049C276.137 110.465 276.186 111.091 275.945 111.908C275.705 112.582 275.336 113.03 274.807 113.223Z" fill="#BEF941"/>
<path d="M287.52 143.33C282.807 141.775 278.735 147.354 283.095 151.201C283.993 151.987 285.099 152.5 286.254 152.789C289.925 153.718 291.64 154.921 293.147 157.181C293.596 157.854 294.638 157.582 294.702 156.796C295.007 152.628 293.452 148.588 289.62 144.693C289.043 144.084 288.322 143.587 287.52 143.33Z" fill="#402DD4"/>
<path d="M197.696 130.521C202.393 132.076 202.361 138.985 196.558 139.466C195.371 139.563 194.169 139.322 193.063 138.857C189.552 137.414 187.468 137.366 184.903 138.28C184.149 138.553 183.46 137.719 183.877 137.03C186.105 133.503 189.76 131.178 195.163 130.329C196.013 130.216 196.878 130.248 197.696 130.521Z" fill="#402DD4"/>
<path d="M232.18 256.224C262.46 256.224 287.007 231.677 287.007 201.396C287.007 171.116 262.46 146.569 232.18 146.569C201.9 146.569 177.353 171.116 177.353 201.396C177.353 231.677 201.9 256.224 232.18 256.224Z" fill="#98D517"/>
<path d="M172.703 261.53C172.703 261.53 176.182 276.391 182.723 279.709C189.28 283.012 204.686 265.906 204.686 265.906L226.392 268.247C226.392 268.247 234.007 285.625 242.295 286.378C250.6 287.132 264.387 272.158 264.387 272.158C264.387 272.158 201.111 251.462 172.703 261.53Z" fill="#EFEFEF"/>
<path d="M242.873 288.911C242.6 288.911 242.328 288.895 242.071 288.879C233.735 288.126 226.841 275.092 224.709 270.603L205.696 268.551C200.951 273.665 188.783 285.577 181.601 281.954C174.21 278.218 170.651 263.742 170.267 262.107C169.978 260.856 170.667 259.59 171.87 259.157C200.758 248.929 262.559 268.904 265.172 269.77C265.99 270.042 266.615 270.7 266.824 271.533C267.048 272.367 266.824 273.249 266.247 273.874C264.788 275.429 252.107 288.911 242.873 288.911ZM204.702 263.389C204.798 263.389 204.878 263.389 204.975 263.405L226.681 265.746C227.579 265.842 228.348 266.419 228.717 267.237C231.426 273.425 237.598 283.412 242.536 283.861C246.816 284.23 254.399 278.427 259.706 273.329C246.015 269.225 199.796 256.448 175.749 263.197C177.304 268.535 180.382 275.701 183.861 277.449C186.715 278.892 196.141 271.629 202.826 264.223C203.307 263.694 203.981 263.389 204.702 263.389Z" fill="#402DD4"/>
<path d="M219.964 275.493L232.084 347.362L210.617 368.651L186.683 349.189C186.683 349.189 198.001 298.386 209.399 272.639L219.964 275.493Z" fill="#F580F7"/>
<path d="M210.633 371.184C210.072 371.184 209.511 370.992 209.046 370.623L185.095 351.161C184.358 350.552 184.021 349.59 184.23 348.66C184.695 346.576 195.724 297.327 207.091 271.629C207.587 270.491 208.854 269.898 210.04 270.218L220.621 273.072C221.567 273.328 222.288 274.114 222.449 275.076L234.568 346.945C234.697 347.746 234.44 348.58 233.863 349.157L212.397 370.447C211.916 370.928 211.275 371.184 210.633 371.184ZM189.472 348.227L210.457 365.284L229.39 346.496L217.751 277.497L210.826 275.621C201.047 298.834 191.396 339.859 189.472 348.227Z" fill="#402DD4"/>
<path d="M204.686 265.906C204.686 265.906 202.377 273.922 208.373 277.593C213.856 280.96 222.08 280.431 226.392 268.247L204.686 265.906Z" fill="#F580F7"/>
<path d="M214.401 281.889C211.916 281.889 209.383 281.168 207.059 279.741C199.508 275.108 202.153 265.602 202.265 265.201C202.602 264.03 203.74 263.261 204.959 263.389L226.665 265.73C227.435 265.81 228.108 266.243 228.525 266.884C228.942 267.541 229.022 268.343 228.765 269.064C225.944 277.064 221.631 280.062 218.505 281.168C217.191 281.649 215.812 281.889 214.401 281.889ZM206.786 268.663C206.642 270.716 206.963 273.778 209.704 275.461C211.067 276.294 213.792 277.529 216.822 276.455C219.162 275.621 221.182 273.553 222.769 270.395L206.786 268.663Z" fill="#402DD4"/>
<path d="M381.335 221.852C380.902 223.359 380.485 224.914 380.084 226.501C376.59 239.951 373.592 255.87 371.876 265.618C371.588 267.237 371.347 268.696 371.123 269.93C370.658 272.703 368.317 274.771 365.528 274.916L315.301 277.561C314.131 277.625 312.945 277.593 311.775 277.465L118.725 256.608C118.725 253.626 118.805 250.58 118.949 247.502C120.248 220.986 126.628 191.585 130.123 177.108C131.502 171.401 132.431 168.002 132.431 168.002C229.389 168.002 314.388 185.108 332.503 189.02C334.828 189.517 337.056 190.398 339.108 191.617L378.625 215.039C380.966 216.433 382.088 219.239 381.335 221.852Z" fill="#EFEFEF"/>
<path d="M371.876 265.617C371.588 267.236 371.347 268.695 371.123 269.93C370.658 272.703 368.317 274.771 365.528 274.915L315.301 277.561C314.131 277.625 312.945 277.593 311.775 277.464L118.725 256.608C118.725 253.626 118.805 250.58 118.949 247.502C120.296 247.502 121.177 247.502 121.177 247.502L314.227 268.359C315.398 268.487 316.584 268.519 317.754 268.455L371.876 265.617Z" fill="#52AD9C"/>
<path d="M381.335 221.852C380.902 223.359 380.485 224.914 380.084 226.501C379.748 226.533 379.555 226.533 379.555 226.533L336.014 200.722C333.962 199.504 331.75 198.638 329.409 198.125C311.342 194.23 226.744 177.204 130.123 177.108C131.502 171.401 132.432 168.002 132.432 168.002C229.389 168.002 314.388 185.108 332.503 189.02C334.828 189.517 337.056 190.398 339.108 191.617L378.626 215.039C380.966 216.433 382.088 219.239 381.335 221.852Z" fill="#52AD9C"/>
<path d="M181.776 230.124C191.79 230.124 199.908 222.007 199.908 211.993C199.908 201.979 191.79 193.861 181.776 193.861C171.762 193.861 163.645 201.979 163.645 211.993C163.645 222.007 171.762 230.124 181.776 230.124Z" fill="#98D517"/>
<path d="M314.148 280.11C313.266 280.11 312.384 280.062 311.502 279.966L118.452 259.109C117.17 258.964 116.208 257.89 116.208 256.608C116.208 218.036 129.883 167.858 130.027 167.345C130.332 166.255 131.326 165.501 132.448 165.501C230.255 165.501 316.713 183.056 333.049 186.567C335.646 187.128 338.115 188.09 340.407 189.452L379.924 212.874C383.243 214.846 384.83 218.806 383.772 222.525C379.123 238.957 375.115 261.433 373.608 270.331C372.935 274.29 369.664 277.208 365.656 277.417L315.446 280.062C314.997 280.11 314.564 280.11 314.148 280.11ZM121.242 254.363L312.031 274.964C313.074 275.076 314.116 275.108 315.158 275.044L365.368 272.399C367.003 272.319 368.35 271.116 368.622 269.497C370.145 260.52 374.185 237.835 378.898 221.162C379.331 219.639 378.674 218.02 377.327 217.203L337.81 193.781C335.982 192.707 334.027 191.921 331.958 191.488C315.815 188.01 230.848 170.76 134.356 170.535C131.983 179.705 121.707 220.986 121.242 254.363Z" fill="#402DD4"/>
<path d="M177.785 233.218C177.448 232.657 177.288 231.824 177.336 230.718C177.336 230.076 177.015 229.675 176.374 229.515C174.146 229.082 172.286 228.441 170.795 227.607C169.304 226.774 168.214 225.796 167.525 224.674C166.835 223.551 166.547 222.365 166.643 221.115C166.723 220.201 166.996 219.351 167.477 218.566C167.958 217.78 168.599 217.155 169.432 216.722C170.266 216.289 171.228 216.113 172.318 216.209C173.28 216.289 174.066 216.482 174.659 216.77C175.252 217.059 175.749 217.508 176.15 218.117C176.55 218.726 176.919 219.56 177.288 220.634C177.673 221.804 178.186 222.67 178.843 223.231C179.5 223.776 180.414 224.113 181.6 224.209C182.931 224.321 183.941 224.048 184.678 223.391C185.4 222.734 185.817 221.852 185.913 220.762C185.993 219.88 185.768 219.079 185.255 218.373C184.742 217.652 184.085 217.011 183.284 216.45C182.482 215.888 181.296 215.135 179.709 214.173C177.544 212.907 175.797 211.768 174.45 210.726C173.104 209.684 171.981 208.386 171.084 206.815C170.186 205.244 169.833 203.4 170.01 201.284C170.234 198.687 171.228 196.683 172.991 195.256C174.755 193.829 176.967 192.98 179.612 192.707C180.254 192.659 180.606 192.322 180.654 191.713C180.735 190.767 181.007 190.062 181.44 189.613C181.873 189.164 182.562 188.972 183.444 189.052C184.887 189.18 185.64 190.174 185.704 192.05C185.704 192.402 185.784 192.675 185.929 192.867C186.073 193.06 186.314 193.204 186.634 193.284C188.43 193.733 189.905 194.39 191.043 195.24C192.197 196.09 192.999 197.036 193.496 198.046C193.977 199.072 194.185 200.049 194.089 201.027C193.993 202.053 193.688 202.919 193.175 203.608C192.662 204.298 192.005 204.795 191.219 205.099C190.434 205.404 189.584 205.516 188.67 205.436C187.259 205.308 186.233 204.891 185.592 204.17C184.951 203.448 184.518 202.406 184.262 201.059C184.149 200.049 183.845 199.296 183.396 198.815C182.931 198.334 182.177 198.046 181.135 197.949C180.029 197.853 179.115 198.062 178.362 198.575C177.608 199.088 177.208 199.825 177.112 200.787C177.015 201.813 177.272 202.759 177.849 203.608C178.442 204.458 179.18 205.212 180.109 205.869C181.023 206.526 182.322 207.344 183.957 208.322C186.121 209.572 187.869 210.71 189.215 211.736C190.562 212.778 191.684 214.061 192.55 215.632C193.431 217.187 193.768 219.031 193.592 221.163C193.367 223.776 192.373 225.844 190.626 227.367C188.879 228.89 186.474 229.772 183.428 229.996C182.771 230.044 182.402 230.397 182.354 231.07C182.242 232.289 181.985 233.138 181.584 233.603C181.183 234.068 180.494 234.26 179.5 234.18C178.715 234.1 178.121 233.78 177.785 233.218Z" fill="#402DD4"/>
<path d="M207.058 224.417C207.058 224.417 212.877 227.11 221.422 227.11C225.013 227.11 229.069 226.629 233.382 225.283C231.346 239.214 225.029 244.761 219.017 244.761C211.547 244.777 204.589 236.184 207.058 224.417ZM207.058 220.233C206.401 220.233 205.759 220.377 205.166 220.682C204.028 221.259 203.21 222.317 202.954 223.551C201.431 230.814 202.89 237.867 206.962 242.869C210.104 246.733 214.497 248.961 219.033 248.961C226.36 248.961 235.065 242.901 237.55 225.892C237.758 224.465 237.213 223.038 236.123 222.093C235.353 221.435 234.392 221.083 233.398 221.083C232.981 221.083 232.564 221.147 232.147 221.275C228.684 222.349 225.077 222.91 221.438 222.91C214.032 222.91 208.87 220.618 208.821 220.602C208.244 220.361 207.651 220.233 207.058 220.233Z" fill="#402DD4"/>
<path d="M205.744 231.294C208.469 233.362 211.692 235.014 215.074 235.735C216.18 236.681 209.976 235.527 209.623 235.35C207.796 234.869 206.113 234.26 204.381 233.41C203.756 233.09 203.499 232.336 203.82 231.711C204.173 230.99 205.135 230.781 205.744 231.294Z" fill="#402DD4"/>
<path d="M268.875 239.342C278.888 239.342 287.006 231.224 287.006 221.211C287.006 211.197 278.888 203.079 268.875 203.079C258.861 203.079 250.743 211.197 250.743 221.211C250.743 231.224 258.861 239.342 268.875 239.342Z" fill="#98D517"/>
<path d="M233.654 235.607C229.117 236.136 224.5 236.665 219.947 236.008C219.738 235.976 219.771 235.639 219.979 235.655C224.452 235.591 228.844 234.373 233.109 233.154C234.856 232.689 235.433 235.302 233.654 235.607Z" fill="#402DD4"/>
<path d="M183.627 241.169C184.052 238.073 180.109 234.975 174.819 234.249C169.53 233.524 164.898 235.446 164.473 238.542C164.048 241.638 167.992 244.737 173.281 245.462C178.57 246.188 183.202 244.266 183.627 241.169Z" fill="#BEF941"/>
<path d="M264.883 242.453C264.547 241.891 264.386 241.058 264.435 239.952C264.435 239.31 264.114 238.91 263.473 238.749C261.244 238.316 259.385 237.675 257.894 236.842C256.403 236.008 255.313 235.03 254.623 233.908C253.934 232.786 253.645 231.599 253.742 230.349C253.822 229.435 254.094 228.585 254.575 227.8C255.056 227.014 255.697 226.389 256.531 225.956C257.365 225.523 258.327 225.347 259.417 225.443C260.379 225.523 261.164 225.716 261.757 226.004C262.35 226.293 262.847 226.742 263.248 227.351C263.649 227.96 264.018 228.794 264.386 229.868C264.771 231.038 265.284 231.904 265.942 232.465C266.599 233.01 267.513 233.347 268.699 233.443C270.03 233.555 271.04 233.283 271.777 232.625C272.498 231.968 272.915 231.086 273.011 229.996C273.092 229.114 272.867 228.313 272.354 227.607C271.841 226.902 271.184 226.245 270.382 225.684C269.581 225.123 268.394 224.369 266.807 223.407C264.643 222.141 262.896 221.003 261.549 219.96C260.202 218.918 259.08 217.62 258.182 216.049C257.285 214.478 256.932 212.634 257.108 210.518C257.333 207.921 258.327 205.917 260.09 204.49C261.854 203.063 264.066 202.214 266.711 201.941C267.352 201.893 267.705 201.556 267.753 200.947C267.833 200.001 268.106 199.296 268.539 198.847C268.971 198.398 269.661 198.206 270.543 198.286C271.985 198.414 272.739 199.408 272.803 201.284C272.803 201.637 272.883 201.909 273.027 202.102C273.172 202.294 273.412 202.438 273.733 202.518C275.528 202.967 277.003 203.625 278.141 204.474C279.296 205.324 280.097 206.27 280.594 207.28C281.075 208.306 281.284 209.284 281.187 210.262C281.091 211.288 280.787 212.153 280.274 212.843C279.761 213.532 279.103 214.029 278.318 214.333C277.532 214.638 276.683 214.75 275.769 214.67C274.358 214.542 273.332 214.125 272.691 213.404C272.049 212.682 271.617 211.64 271.36 210.294C271.248 209.284 270.943 208.53 270.494 208.049C270.03 207.568 269.276 207.28 268.234 207.183C267.128 207.087 266.214 207.296 265.461 207.809C264.707 208.322 264.306 209.059 264.21 210.021C264.114 211.047 264.37 211.993 264.948 212.843C265.541 213.692 266.278 214.446 267.208 215.103C268.122 215.76 269.42 216.578 271.056 217.556C273.22 218.806 274.967 219.944 276.314 220.97C277.66 222.012 278.783 223.295 279.648 224.866C280.53 226.421 280.867 228.265 280.69 230.397C280.466 233.01 279.472 235.078 277.725 236.601C275.977 238.124 273.572 239.006 270.526 239.23C269.869 239.278 269.5 239.631 269.452 240.304C269.34 241.523 269.084 242.372 268.683 242.837C268.282 243.302 267.593 243.495 266.599 243.414C265.813 243.318 265.236 242.998 264.883 242.453Z" fill="#402DD4"/>
<path d="M270.72 250.395C271.145 247.299 267.201 244.2 261.912 243.475C256.623 242.749 251.991 244.671 251.566 247.768C251.141 250.864 255.085 253.962 260.374 254.688C265.663 255.413 270.295 253.491 270.72 250.395Z" fill="#BEF941"/>
<path d="M366.266 107.724C365.497 91.3079 345.426 88.4062 326.749 84.5106L355.541 54.564L368.014 79.1882C375.26 90.6987 370.515 99.1473 366.266 107.724Z" fill="#98D517"/>
<path d="M355.797 54.8209C347.381 65.8665 338.083 76.1747 328.56 86.2425L327.262 82.0582C335.438 83.7255 343.694 85.2325 351.533 88.4387C357.384 90.8274 363.685 94.9154 365.817 101.296C366.522 103.38 366.779 105.576 366.619 107.692C366.603 107.885 366.426 108.045 366.234 108.029C366.057 108.013 365.929 107.885 365.897 107.725C364.647 99.0836 357.641 94.8032 350.042 92.4145C342.331 89.9297 334.187 88.6952 326.203 86.9478C324.328 86.5951 323.574 84.0942 324.937 82.7797C332.183 75.3251 339.622 68.0628 347.349 61.1213C349.946 58.8127 352.543 56.5203 355.252 54.3239C355.589 54.0674 356.054 54.4843 355.797 54.8209Z" fill="#402DD4"/>
<path d="M334.924 197.372C332.968 215.632 328.72 233.459 323.799 251.094C322.083 256.945 320.304 262.796 318.107 268.536C317.979 268.904 317.354 268.792 317.402 268.375C319.037 250.084 323.125 232.161 328.223 214.542C329.987 208.691 331.878 202.871 334.219 197.18C334.363 196.827 334.972 196.956 334.924 197.372Z" fill="#402DD4"/>
<path d="M400.894 315.7L399.259 328.044C375.917 329.984 346.291 326.793 337.65 312.076C336.063 307.62 335.021 303.339 338.612 300.454C338.612 300.454 343.47 294.859 353.297 297.007C363.124 299.155 385.905 296.125 385.905 296.125L400.894 315.7Z" fill="#98D517"/>
<path d="M338.34 300.214C341.418 295.629 347.75 293.993 353.105 294.907L354.596 295.1C358.908 295.661 363.349 295.404 367.725 295.212C371.926 295.003 381.609 294.17 385.921 293.881C386.643 293.881 387.3 294.234 387.733 294.747C390.298 297.969 392.847 301.191 395.364 304.43L402.898 314.177C403.315 314.722 403.475 315.395 403.395 316.036C403.139 318.088 402.834 320.141 402.546 322.209C402.225 324.261 401.92 326.313 401.536 328.349C401.423 329.439 400.542 330.32 399.468 330.32C383.003 331.603 364.904 330.801 349.722 323.764C344.656 321.279 339.751 317.511 337.378 312.269C337.218 311.884 337.731 311.564 338.003 311.9C350.123 327.05 381.192 326.954 399.099 325.768C399.115 325.768 397.031 327.739 397.031 327.739C397.368 323.603 397.881 319.483 398.442 315.363L398.939 317.223C394.498 311.435 388.406 303.292 384.142 297.488L386.242 298.354C382.186 299.059 378.146 299.508 374.074 299.813C366.876 300.262 359.453 300.582 352.367 298.883C351.566 298.658 350.492 298.498 349.674 298.386C345.955 297.953 342.139 298.594 338.917 300.662C338.596 300.967 338.099 300.566 338.34 300.214Z" fill="#402DD4"/>
<path d="M417.102 271.71C417.102 271.71 405.687 263.101 404.693 258.74C403.683 254.38 406.874 252.007 416.3 252.007C425.727 252.007 431.963 241.154 436.259 241.779C440.572 242.404 441.518 245.338 440.572 252.392C440.572 252.392 442.8 255.069 451.104 253.947C459.409 252.825 458.783 258.308 457.405 261.867C456.026 265.425 442.704 270.107 440.572 276.279C438.439 282.451 442.303 300.919 450.607 307.283C458.912 313.648 493.171 336.893 485.187 375.914C477.203 414.918 426.672 414.758 402.449 406.277C378.226 397.797 356.247 353.374 392.91 322.946C429.542 292.503 417.102 271.71 417.102 271.71Z" fill="#F580F7"/>
<path d="M431.289 413.331C420.532 413.331 410 411.567 401.615 408.634C387.171 403.568 374.875 387.761 371.701 370.158C368.382 351.706 375.34 334.248 391.291 320.99C409.375 305.985 414.809 293.641 416.188 285.946C417.422 279.036 415.739 274.659 415.13 273.377C411.859 270.86 403.299 263.95 402.241 259.301C401.551 256.32 402.481 254.364 403.379 253.241C405.415 250.676 409.519 249.49 416.3 249.49C420.837 249.49 424.669 246.316 428.067 243.51C431.097 241.01 433.694 238.861 436.628 239.278C443.794 240.32 443.778 246.669 443.281 251.093C444.387 251.51 446.664 251.991 450.784 251.446C454.84 250.901 457.741 251.686 459.409 253.803C461.06 255.903 461.188 259.093 459.777 262.78C458.88 265.089 455.962 266.9 452.259 269.209C448.539 271.517 443.906 274.403 442.976 277.096C441.165 282.354 444.708 299.572 452.162 305.279C452.595 305.6 453.092 305.985 453.637 306.402C464.01 314.177 495.559 337.871 487.672 376.411C485.059 389.14 478.037 398.839 466.783 405.219C456.651 410.942 443.81 413.331 431.289 413.331ZM435.842 244.248C435.041 244.248 432.764 246.124 431.257 247.374C427.618 250.388 422.633 254.508 416.284 254.508C409.503 254.508 407.739 255.807 407.307 256.368C407.178 256.528 406.858 256.929 407.146 258.179C407.643 260.327 413.479 265.826 418.625 269.706C418.881 269.898 419.106 270.139 419.266 270.427C419.827 271.357 432.38 293.432 394.513 324.87C380.021 336.909 373.673 352.668 376.655 369.261C379.476 384.907 390.666 399.464 403.283 403.872C420.372 409.852 446.824 410.734 464.298 400.826C474.238 395.183 480.442 386.639 482.734 375.385C489.98 339.971 460.338 317.72 450.607 310.409C450.03 309.977 449.533 309.592 449.084 309.255C440.059 302.33 435.65 282.835 438.199 275.429C439.706 271.052 444.948 267.782 449.581 264.912C451.601 263.662 454.647 261.754 455.08 260.921C455.882 258.852 455.85 257.41 455.449 256.913C455.096 256.464 453.862 256.111 451.457 256.432C442.255 257.682 439.177 254.62 438.648 253.995C438.199 253.45 437.991 252.745 438.087 252.055C439.065 244.729 437.606 244.52 435.907 244.28C435.874 244.264 435.858 244.248 435.842 244.248Z" fill="#402DD4"/>
<path d="M429.093 278.651C429.093 278.651 430.664 275.814 435.65 275.076C440.636 274.339 445.028 273.377 446.487 277.449C447.946 281.521 445.525 285.032 445.525 285.032C445.525 285.032 449.79 286.106 449.165 291.124C448.539 296.141 446.487 296.558 446.487 296.558C446.487 296.558 450.078 298.514 448.636 302.762C447.193 307.011 438.151 305.953 436.035 305.552C432.316 304.862 430.632 299.412 434.592 296.975C434.592 296.975 430.296 295.997 429.542 292.518C428.548 287.917 431.594 286.17 431.594 286.17C431.594 286.17 425.743 282.386 429.093 278.651Z" fill="#EFEFEF"/>
<path d="M440.86 308.502C438.279 308.502 436.099 308.117 435.554 308.021C432.733 307.492 430.456 305.152 429.911 302.202C429.622 300.663 429.847 299.172 430.472 297.857C428.949 296.815 427.538 295.244 427.057 293.048C426.432 290.162 427.025 287.95 427.955 286.395C426.897 285.289 425.807 283.734 425.567 281.906C425.406 280.72 425.534 278.94 427.041 277.161C427.683 276.199 429.975 273.393 435.249 272.592L436.163 272.448C440.876 271.726 446.76 270.828 448.828 276.6C449.854 279.469 449.421 282.098 448.78 283.926C450.543 285.289 452.098 287.677 451.634 291.429C451.345 293.769 450.752 295.404 450.062 296.527C451.249 298.162 452.002 300.551 450.992 303.564C449.646 307.62 444.804 308.502 440.86 308.502ZM440.604 296.222L435.907 299.108C434.833 299.765 434.753 300.647 434.865 301.272C435.009 302.009 435.57 302.891 436.484 303.067C440.46 303.821 445.734 303.436 446.231 301.945C446.888 299.989 445.75 299.044 445.221 298.739L440.604 296.222ZM441.534 276.936C440.492 276.936 439.033 277.113 436.949 277.417L436.019 277.562C432.476 278.091 431.306 279.854 431.29 279.87L431.145 280.111L430.953 280.319C430.52 280.8 430.552 281.072 430.568 281.201C430.681 282.098 432.027 283.429 432.957 284.038L436.644 286.459L432.829 288.335C432.636 288.463 431.434 289.409 431.979 291.958C432.38 293.769 435.105 294.491 435.121 294.507L439.161 295.42L445.574 294.154C445.782 293.897 446.343 293.048 446.632 290.803C446.968 288.078 445.093 287.517 444.884 287.469L441.373 286.587L443.425 283.605C443.474 283.525 445.077 281.056 444.083 278.299C443.778 277.353 443.169 276.936 441.534 276.936Z" fill="#402DD4"/>
<path d="M447.513 289.488C443.537 285.497 436.163 285.497 431.93 289.088L431.289 283.252C435.409 285.192 439.593 285.689 443.986 285.08C445.413 284.839 446.791 284.471 448.443 283.701L447.513 289.488Z" fill="#402DD4"/>
<path d="M446.792 299.443C443.842 295.852 437.157 295.612 434.544 299.812L433.133 294.121C436.82 295.804 440.219 295.884 444.002 295.067C445.317 294.762 446.535 294.265 447.802 293.656C447.786 293.656 446.792 299.443 446.792 299.443Z" fill="#402DD4"/>
<path d="M417.855 284.567C417.839 284.551 417.839 284.567 417.855 284.583C417.919 285.176 419.057 295.084 409.855 302.282L398.297 316.341L392.878 322.93C385.007 313.199 375.179 288.623 391.692 290.018C392.365 290.066 393.103 290.162 393.888 290.322C393.888 290.322 394.529 289.168 395.619 287.549C396.774 285.85 398.409 283.637 400.333 281.73C404.052 277.994 407.29 270.459 414.488 270.459C421.686 270.459 426.047 276.696 430.712 278.78C433.405 284.519 423.001 290.21 417.855 284.567Z" fill="#EFEFEF"/>
<path d="M392.894 325.446C392.878 325.446 392.862 325.446 392.846 325.446C392.109 325.43 391.403 325.094 390.939 324.517C384.991 317.174 376.831 299.941 381.737 291.765C383.163 289.376 386.209 286.843 392.606 287.58C393.76 285.753 395.892 282.611 398.553 279.949C399.403 279.1 400.285 277.945 401.215 276.727C404.196 272.815 407.916 267.942 414.489 267.942C420.068 267.942 424.156 271.084 427.426 273.601C428.965 274.771 430.408 275.893 431.722 276.487C432.267 276.727 432.716 277.16 432.973 277.705C434.576 281.12 433.245 285.031 429.638 287.452C427.041 289.183 423.514 289.953 420.324 289.007C419.875 293.528 418.048 300.389 411.603 305.535L394.786 324.597C394.305 325.142 393.616 325.446 392.894 325.446ZM390.393 292.47C388.261 292.47 386.802 293.095 386.049 294.346C383.388 298.77 387.556 310.874 393.055 318.922L407.964 302.025C408.06 301.912 408.172 301.8 408.301 301.704C416.493 295.291 415.386 285.288 415.338 284.871C415.21 283.781 415.787 282.739 416.781 282.274C417.775 281.825 418.945 282.05 419.683 282.867C421.831 285.224 425.117 284.39 426.817 283.268C427.298 282.947 428.692 281.889 428.596 280.543C427.137 279.741 425.775 278.683 424.348 277.593C421.398 275.316 418.352 272.976 414.473 272.976C410.385 272.976 407.868 276.278 405.206 279.773C404.164 281.136 403.187 282.418 402.096 283.508C398.682 286.923 396.101 291.492 396.085 291.54C395.556 292.486 394.481 292.999 393.407 292.791C392.285 292.582 391.291 292.47 390.393 292.47Z" fill="#402DD4"/>
<path d="M396.293 291.059C394.529 294.923 394.593 299.492 395.828 303.532C395.892 303.724 395.78 303.949 395.587 303.997C395.427 304.045 395.267 303.981 395.187 303.852C392.429 299.925 391.002 295.003 391.387 290.194C391.387 289.889 391.547 289.232 391.611 288.895C391.9 287.452 393.295 286.522 394.722 286.811C396.661 287.132 397.527 289.568 396.293 291.059Z" fill="#402DD4"/>
<path d="M443.025 252.937L437.125 269.001C436.997 269.386 436.372 269.257 436.42 268.841L438.119 251.799C438.263 250.404 439.498 249.394 440.892 249.523C442.512 249.683 443.602 251.414 443.025 252.937Z" fill="#402DD4"/>
<path d="M425.855 292.999C425.791 302.185 423.322 311.227 419.394 319.483C418.047 322.225 416.46 324.886 414.504 327.258C414.344 327.467 413.991 327.274 414.088 327.034C416.797 318.778 419.667 309.688 422.344 301.448C423.274 298.61 424.236 295.757 425.374 292.919C425.47 292.679 425.871 292.743 425.855 292.999Z" fill="#402DD4"/>
<path d="M431.834 296.943C435.409 303.259 437.574 310.153 439.385 317.127C439.946 319.451 440.459 321.792 440.78 324.228C440.812 324.469 440.475 324.613 440.331 324.405C436.275 318.329 433.967 311.355 432.347 304.285C431.851 301.929 431.45 299.54 431.354 297.071C431.354 296.831 431.706 296.719 431.834 296.943Z" fill="#402DD4"/>
<path d="M422.793 259.798C427.715 264.079 431.915 272.126 430.937 278.763C430.905 279.004 430.552 279.036 430.456 278.828C428.244 274.419 425.727 269.658 423.948 265.073C423.338 263.47 422.761 261.834 422.376 260.071C422.328 259.814 422.617 259.638 422.793 259.798Z" fill="#402DD4"/>
<path d="M453.91 364.291C453.91 379.088 444.692 389.781 429.895 389.781C415.098 389.781 403.106 377.79 403.106 362.993C403.106 348.196 415.098 336.204 429.895 336.204C444.692 336.204 453.91 349.494 453.91 364.291Z" fill="#ED56F0"/>
<path d="M432.026 383.753C431.578 383.288 431.241 382.502 431.048 381.412C430.92 380.787 430.519 380.466 429.846 380.45C427.57 380.514 425.614 380.29 423.995 379.793C422.359 379.296 421.093 378.574 420.179 377.629C419.265 376.683 418.72 375.593 418.56 374.342C418.448 373.428 418.528 372.547 418.817 371.665C419.105 370.783 419.618 370.046 420.323 369.437C421.029 368.827 421.943 368.459 423.033 368.314C423.995 368.186 424.796 368.202 425.437 368.363C426.079 368.523 426.672 368.859 427.185 369.356C427.698 369.869 428.259 370.607 428.836 371.569C429.461 372.627 430.151 373.364 430.92 373.765C431.674 374.166 432.652 374.278 433.822 374.118C435.136 373.941 436.082 373.46 436.643 372.659C437.205 371.857 437.413 370.912 437.269 369.821C437.156 368.956 436.772 368.218 436.098 367.625C435.441 367.032 434.656 366.551 433.758 366.166C432.86 365.781 431.529 365.301 429.782 364.723C427.393 363.954 425.437 363.216 423.898 362.495C422.359 361.774 420.981 360.748 419.762 359.401C418.544 358.054 417.807 356.339 417.518 354.223C417.181 351.642 417.71 349.462 419.121 347.698C420.532 345.935 422.504 344.62 425.037 343.786C425.662 343.594 425.918 343.193 425.838 342.584C425.71 341.638 425.822 340.901 426.159 340.356C426.496 339.811 427.105 339.49 428.003 339.362C429.445 339.169 430.391 339.987 430.856 341.798C430.936 342.135 431.065 342.392 431.257 342.536C431.449 342.696 431.706 342.776 432.026 342.792C433.886 342.841 435.457 343.161 436.756 343.738C438.054 344.331 439.064 345.069 439.754 345.951C440.443 346.848 440.86 347.762 440.988 348.724C441.116 349.75 441.02 350.664 440.651 351.449C440.299 352.235 439.77 352.86 439.064 353.325C438.359 353.79 437.557 354.079 436.643 354.207C435.233 354.399 434.143 354.207 433.373 353.63C432.587 353.069 431.93 352.139 431.401 350.872C431.064 349.91 430.616 349.237 430.071 348.868C429.509 348.5 428.724 348.387 427.682 348.516C426.592 348.66 425.726 349.061 425.117 349.734C424.508 350.391 424.251 351.209 424.379 352.171C424.508 353.197 424.957 354.063 425.71 354.768C426.463 355.473 427.361 356.05 428.403 356.483C429.445 356.932 430.872 357.445 432.7 358.038C435.072 358.792 437.044 359.513 438.583 360.235C440.122 360.956 441.485 361.982 442.687 363.313C443.874 364.643 444.627 366.375 444.9 368.491C445.236 371.088 444.723 373.332 443.345 375.192C441.966 377.068 439.818 378.43 436.884 379.312C436.243 379.504 435.97 379.937 436.066 380.594C436.227 381.813 436.163 382.695 435.874 383.24C435.585 383.785 434.944 384.121 433.966 384.25C433.133 384.394 432.491 384.218 432.026 383.753Z" fill="#FBCCFC"/>
<g opacity="0.7">
<path d="M416.06 305.439C416.06 305.439 408.734 316.341 400.221 322.93C391.692 329.519 378.242 342.6 377.713 361.325C377.713 361.325 378.178 374.535 382.907 382.134C382.907 382.134 376.703 356.147 392.51 340.34C408.333 324.517 413.206 311.596 416.06 305.439Z" fill="#EFEFEF"/>
</g>
<path d="M350.716 420.561L378.995 409.74C378.995 409.74 391.772 441.514 414.312 446.243L386.867 459.197C373.32 459.213 354.98 440.664 350.716 420.561Z" fill="#98D517"/>
<path d="M378.995 409.756C378.995 409.756 391.772 441.53 414.312 446.259L386.867 459.213C373.32 459.213 354.98 440.664 350.716 420.561L378.995 409.756ZM378.995 404.722C378.402 404.722 377.793 404.834 377.2 405.059L348.92 415.88C346.612 416.762 345.281 419.198 345.794 421.619C350.443 443.534 370.402 464.263 386.867 464.263C387.604 464.263 388.341 464.102 389.015 463.782L416.46 450.828C418.416 449.898 419.555 447.83 419.314 445.698C419.058 443.55 417.47 441.803 415.354 441.354C395.748 437.234 383.788 408.185 383.66 407.88C382.875 405.908 380.983 404.722 378.995 404.722Z" fill="#402DD4"/>
<path d="M359.453 423.399L372.182 418.156C372.182 418.156 374.298 422.773 379.172 420.866C379.172 420.866 388.037 436.127 396.967 441.241C396.967 441.241 394.514 446.564 399.211 446.564L387.893 452.976C387.893 452.976 383.388 449.337 379.749 452.976C379.749 452.976 365.401 444.784 359.453 430.677C363.301 429.731 362.515 424.889 359.453 423.399Z" fill="#A6E828"/>
<path d="M380.079 439.604C381.801 438.24 381.908 435.509 380.319 433.504C378.73 431.498 376.046 430.978 374.325 432.341C372.604 433.705 372.497 436.436 374.086 438.441C375.675 440.447 378.358 440.967 380.079 439.604Z" fill="#98D517"/>
<path d="M386.017 445.153C387.292 445.153 388.325 444.392 388.325 443.454C388.325 442.515 387.292 441.754 386.017 441.754C384.742 441.754 383.708 442.515 383.708 443.454C383.708 444.392 384.742 445.153 386.017 445.153Z" fill="#98D517"/>
<path d="M370.771 428.433C372.072 428.433 373.127 427.564 373.127 426.493C373.127 425.422 372.072 424.553 370.771 424.553C369.469 424.553 368.414 425.422 368.414 426.493C368.414 427.564 369.469 428.433 370.771 428.433Z" fill="#98D517"/>
<path d="M69.253 118.77L97.5645 129.495C97.5645 129.495 85.9898 161.718 99.6646 180.251L70.5516 171.674C60.4358 162.68 59.0731 136.613 69.253 118.77Z" fill="#98D517"/>
<path d="M69.2521 118.77L97.5636 129.495C97.5636 129.495 85.9889 161.718 99.6637 180.251L70.5507 171.674C60.4349 162.68 59.0722 136.613 69.2521 118.77ZM69.2521 113.736C67.4887 113.736 65.7894 114.666 64.8756 116.269C53.7819 135.731 54.904 164.492 67.2162 175.425C67.7773 175.922 68.4345 176.291 69.1399 176.499L98.2529 185.076C98.7178 185.22 99.1988 185.284 99.6797 185.284C101.299 185.284 102.838 184.499 103.8 183.136C105.034 181.373 105.002 179 103.72 177.269C91.8083 161.141 102.197 131.499 102.309 131.211C103.239 128.629 101.924 125.776 99.3591 124.814L71.0477 114.089C70.4385 113.849 69.8453 113.736 69.2521 113.736Z" fill="#402DD4"/>
<path d="M73.886 126.69L86.8714 131.243C86.8714 131.243 85.3805 136.1 90.2861 137.912C90.2861 137.912 86.7592 155.21 90.0296 164.973C90.0296 164.973 84.6591 167.313 88.17 170.44L75.4571 167.698C75.4571 167.698 74.5112 161.975 69.3651 162.28C69.3651 162.28 64.0908 146.617 69.0285 132.141C72.5714 133.984 75.1845 129.848 73.886 126.69Z" fill="#A6E828"/>
<path d="M82.7514 148.122C82.8981 145.567 81.2399 143.394 79.0477 143.268C76.8554 143.142 74.9593 145.111 74.8126 147.666C74.6658 150.221 76.3241 152.394 78.5163 152.519C80.7086 152.645 82.6047 150.677 82.7514 148.122Z" fill="#98D517"/>
<path d="M82.1262 160.869C81.501 161.574 80.2185 161.446 79.2727 160.596C78.3268 159.746 78.0543 158.496 78.6795 157.791C79.3047 157.085 80.5872 157.213 81.5331 158.063C82.4789 158.913 82.7515 160.163 82.1262 160.869Z" fill="#98D517"/>
<path d="M82.0453 138.104C81.3399 138.906 79.9772 138.842 78.9993 137.992C78.0374 137.126 77.813 135.78 78.5344 134.978C79.2398 134.177 80.6025 134.241 81.5804 135.09C82.5583 135.956 82.7667 137.303 82.0453 138.104Z" fill="#98D517"/>
<path d="M473.949 171.321L444.034 175.954C444.034 175.954 448.699 209.877 431.481 225.171L461.733 222.814C473.484 216.097 480.217 190.88 473.949 171.321Z" fill="#98D517"/>
<path d="M473.949 171.321C480.217 190.88 473.484 216.097 461.733 222.814L431.482 225.171C448.7 209.877 444.034 175.954 444.034 175.954L473.949 171.321ZM473.949 166.287C473.693 166.287 473.436 166.303 473.18 166.351L443.265 170.985C440.556 171.401 438.68 173.918 439.049 176.644C439.097 176.948 443.121 208.097 428.131 221.419C426.512 222.862 425.999 225.155 426.849 227.159C427.65 229.018 429.478 230.221 431.482 230.221C431.61 230.221 431.738 230.221 431.883 230.205L462.134 227.848C462.871 227.784 463.593 227.575 464.234 227.207C478.534 219.047 485.588 191.152 478.758 169.814C478.069 167.666 476.113 166.287 473.949 166.287Z" fill="#402DD4"/>
<path d="M467.761 178.103L454.118 179.866C454.118 179.866 454.567 184.932 449.389 185.685C449.389 185.685 449.26 203.336 444.034 212.217C444.034 212.217 448.812 215.616 444.724 217.957L457.725 217.908C457.725 217.908 459.841 212.506 464.811 213.869C464.811 213.869 473.211 199.633 471.384 184.451C467.552 185.509 465.837 180.924 467.761 178.103Z" fill="#A6E828"/>
<path d="M462.536 198.46C462.921 195.931 461.473 193.612 459.303 193.282C457.132 192.952 455.06 194.735 454.675 197.264C454.29 199.794 455.738 202.112 457.909 202.443C460.08 202.773 462.151 200.99 462.536 198.46Z" fill="#98D517"/>
<path d="M455.475 210.186C456.582 209.554 457.103 208.381 456.637 207.566C456.172 206.751 454.897 206.603 453.79 207.235C452.683 207.867 452.163 209.041 452.628 209.856C453.094 210.671 454.368 210.819 455.475 210.186Z" fill="#98D517"/>
<path d="M457.421 187.577C457.95 188.507 459.297 188.731 460.419 188.09C461.541 187.449 462.022 186.166 461.493 185.252C460.964 184.339 459.617 184.098 458.495 184.739C457.373 185.381 456.892 186.663 457.421 187.577Z" fill="#98D517"/>
</svg>
