<svg width="656" height="566" viewBox="0 0 656 566" fill="none" xmlns="http://www.w3.org/2000/svg">
<path d="M201.21 54.7806C202.523 56.8121 202.154 60.2162 205.494 60.6734C206.054 60.7502 206.434 62.5201 206.444 63.579C206.466 66.0947 207.511 67.8625 208.814 69.5224C209.098 69.3906 209.381 69.2586 209.664 69.1265C209.183 67.539 208.703 65.9517 208.22 64.3602C211.668 62.9509 213.156 63.6275 214.36 67.6396C215.238 70.567 215.591 73.7347 216.435 76.6806C216.932 78.4128 217.645 80.2045 218.757 81.4793C223.016 86.3592 227.47 91.0471 231.877 95.78C232.217 96.1456 232.757 96.3057 233.596 96.7854C234.389 91.2702 229.177 90.6232 227.893 86.7367C228.861 86.1823 229.789 85.6508 231.17 84.8595C231.326 89.9283 234.904 92.0582 237.138 95.6246C236.35 95.8 235.665 95.9525 234.967 96.1075C236.06 99.7452 242.734 108.47 246.57 111.139C246.62 107.692 243.725 106.814 242.556 104.662C241.391 102.518 240.002 100.53 238.968 98.258C245.48 102.809 249.825 109.558 255.172 115.884C255.241 113.389 255.295 111.438 255.348 109.486C257.468 111.522 259.7 113.645 261.906 115.795C263.337 117.188 264.986 117.775 267.181 117.268C273.91 115.715 280.424 115.742 286.913 116.813C289.872 117.302 292.648 117.848 295.43 118.913C298.379 120.042 301.858 120.198 305.183 120.284C314.778 120.534 323.866 122.291 332.316 126.052C335.35 127.402 339.057 127.697 341.088 131.707C339.98 131.592 338.966 131.485 337.534 131.335C338.276 134 339.723 134.495 341.082 134.92C345.476 136.297 349.921 137.541 354.334 138.867C355.241 139.139 356.146 139.461 356.964 139.91C358.806 140.923 360.131 142.807 362.8 142.35C364.097 142.129 363.648 144.142 364.153 144.618C365.474 145.866 367.278 146.565 368.924 147.502C371.571 142.264 367.018 141.981 365.274 139.935C365.78 138.858 366.202 137.96 366.645 137.015C362.678 134.29 357.732 133.777 354.218 130.715C358.596 131.086 362.086 133.376 365.909 134.924C378.06 139.846 388.218 147.794 398.46 155.638C403.787 159.719 409.41 163.404 414.74 167.48C418.65 170.47 422.301 173.806 425.831 177.292C422.346 174.821 418.861 172.35 415.375 169.879C416.179 172.318 419.146 173.004 419.165 176.015C416.979 176.808 416.979 176.808 414.137 176.337C414.855 177.099 415.514 177.931 416.299 178.611C420.243 182.032 424.312 185.308 428.147 188.854C430.101 190.66 431.697 192.89 433.382 194.995C438.577 201.487 444.995 206.574 451.272 211.828C453.534 213.721 455.759 215.669 457.886 217.722C466.501 226.038 474.772 234.763 483.742 242.649C492.197 250.083 498.815 259.096 505.21 268.406C507.903 272.326 510.127 276.865 513.605 279.85C518.116 283.722 520.969 289.134 525.529 292.85C525.737 293.018 526.079 293.192 526.085 293.413C526.196 297.269 528.865 299.614 530.113 302.789C532.101 307.849 534.021 312.948 535.946 318.043C537.527 322.229 539.138 326.4 540.591 330.65C541.022 331.912 542.552 333.231 540.475 334.936C540.303 335.077 540.539 336.035 540.764 336.501C542.63 340.367 544.481 344.195 544.993 348.794C545.143 350.144 546.625 351.138 547.713 352.583C546.1 354.209 546.117 356.244 546.73 358.347C547.084 359.564 547.14 360.916 547.476 362.143C549.012 367.732 547.625 373.57 546.211 379.306C545.761 381.131 543.885 382.773 542.631 384.541C542.124 387.254 541.561 390.268 540.997 393.283C540.754 393.341 540.51 393.398 540.267 393.456C539.091 390.206 537.915 386.956 536.739 383.707C536.471 383.819 536.202 383.931 535.934 384.043C536.209 386.106 536.701 388.136 536.714 390.24C536.74 394.485 536.449 398.778 536.4 403.037C536.372 405.622 535.516 408.151 536.114 410.886C536.573 412.985 534.622 415.937 533.936 418.538C532.535 423.854 531.074 429.174 529.998 434.52C529.197 438.499 527.87 442.277 525.152 445.302C523.292 447.372 520.688 448.716 518.138 449.923C518.048 450.049 517.919 450.167 517.874 450.304C515.022 459.082 508.533 464.388 501.241 468.759C499.361 469.886 497.105 470.268 495.003 470.776C486.406 472.853 478.041 472.405 469.672 471.923C452.946 470.962 436.577 468.577 420.371 465.527C411.337 463.826 402.241 462.305 393.315 460.274C384.171 458.193 375.214 455.552 366.151 453.223C357.98 451.123 349.735 449.228 341.601 447.028C333.192 444.754 324.782 442.451 316.542 439.753C300.934 434.643 285.42 429.3 269.927 423.914C266.222 422.627 262.752 420.794 259.173 419.211C254.624 417.199 250.212 414.864 245.496 413.243C236.073 410.003 227.816 404.677 219.037 400.293C214.356 397.954 209.855 395.286 205.057 392.648C205.534 391.853 205.888 391.263 206.377 390.446C204.117 388.843 201.933 387.081 199.541 385.652C196.436 383.796 193.148 382.237 189.983 380.476C189.306 380.098 188.82 379.398 188.243 378.851C186.703 377.388 185.371 375.589 183.578 374.532C178.724 371.671 173.657 369.154 168.706 366.447C164.23 363.999 159.88 361.326 155.313 359.048C152.334 357.562 149.075 356.583 145.92 355.425C144.913 355.056 143.657 355.096 142.825 354.511C138.387 351.386 133.741 348.474 129.775 344.788C126.983 342.193 125.185 338.429 125.261 333.955C125.295 331.999 124.701 330.622 123.358 329.548C121.784 328.29 120.199 327.036 118.743 325.641C117.781 324.719 116.351 323.672 116.319 322.471C116.213 318.483 113.33 316.532 110.831 316.058C105.194 314.99 102.339 310.608 98.5908 307.308C94.6629 303.85 90.9778 300.076 87.429 296.193C84.0093 292.452 80.8996 288.394 78.2473 283.854C87.6208 291.253 96.9944 298.652 106.368 306.05C105.92 302.45 103.21 301.117 101.229 299.1C99.9173 297.764 98.4496 296.591 97.1929 295.202C94.9399 292.712 92.7903 290.256 89.8198 288.459C86.1028 286.211 82.9783 282.996 79.8812 278.652C81.7341 279.234 82.7822 279.563 84.6181 280.139C83.0729 277.326 81.9186 275.226 80.4117 272.483C84.2871 275.23 87.5513 277.558 90.8298 279.865C94.0142 282.107 97.1877 284.367 100.42 286.54C101.481 287.253 102.564 288.316 104.437 286.868C104.417 285.75 104.395 284.507 104.37 283.129C105.868 282.71 107.329 282.301 109.185 281.782C108.744 280.695 108.517 279.946 108.159 279.287C106.968 277.1 107.23 275.623 109.45 274.657C112.026 273.537 114.765 273.069 116.358 269.966C116.599 269.496 118.271 269.318 119.088 269.537C120.922 270.026 122.637 270.847 124.398 271.536C128.418 273.108 132.391 274.788 136.485 276.186C137.622 276.574 139.114 276.127 140.823 276.044C140.599 274.4 140.454 273.335 140.288 272.121C140.856 272.158 141.295 272.079 141.621 272.223C147.294 274.74 153.028 277.144 158.6 279.849C169.502 285.141 180.535 290.231 191.074 296.141C196.952 299.436 202.773 302.556 209.373 304.396C211.481 304.984 213.115 306.813 215.011 308.006C215.906 308.568 216.835 309.21 217.871 309.397C220.574 309.887 222.948 311.041 225.452 311.952C232.186 314.401 238.297 317.945 244.751 320.867C247.697 322.201 250.905 322.743 254.734 322.358C254.078 319.087 251.924 317.331 250.035 315.407C247.31 312.633 244.379 310.074 241.757 307.198C235.484 300.317 230.21 292.525 224.783 284.89C222.119 281.143 220.146 276.821 217.662 272.914C214.145 267.382 210.415 262.017 206.832 256.536C202.77 250.322 199.576 243.594 198.088 235.876C197.929 235.057 197.438 234.361 197.177 233.571C196.083 230.274 193.56 227.732 193.588 223.836C193.59 223.429 193.352 223.019 193.128 222.689C188.469 215.819 186.179 207.695 184.343 199.315C184.042 197.943 183.429 196.682 182.903 195.403C182.645 194.776 181.811 194.039 181.991 193.672C183.321 190.962 181.133 189.926 180.578 188.098C178.993 182.878 175.12 179.709 171.975 175.91C167.508 170.513 162.87 165.273 158.157 160.117C154.425 156.034 150.292 152.352 146.663 148.172C143.056 144.018 139.85 139.469 136.476 135.086C135.318 133.582 134.125 132.105 133.044 130.537C130.348 126.621 127.699 122.664 125.052 118.708C124.755 118.263 124.384 117.735 124.399 117.203C124.491 113.718 124.496 110.224 124.923 106.727C125.11 105.189 124.947 104.174 123.985 103.288C123.195 102.559 122.379 101.84 121.71 100.992C120.425 99.3631 118.39 98.3048 118.878 95.3411C119.026 94.4428 117.793 93.5215 117.25 92.5703C116.018 90.413 116.285 88.4783 117.907 87.5092C119.517 86.548 121.814 87.3115 122.712 89.1364C122.946 89.6129 123.09 90.1477 123.376 90.9316C124.374 90.3895 125.222 89.9294 126.361 89.3114C125.27 86.8686 124.275 84.6411 123.228 82.2959C125.609 80.8979 126.717 81.4311 127.463 83.6442C128.148 85.6752 129.338 87.4554 130.932 88.9678C130.689 87.5745 130.446 86.1805 130.152 84.4936C132.41 83.026 133.771 80.9783 133.113 78.4183C136.431 75.3984 139.019 78.9314 142.084 77.6643C142.072 75.1187 142.061 72.5427 142.046 69.4299C143.225 70.0921 144.065 70.5632 145.689 71.4748C145.204 69.1954 144.877 67.6567 144.469 65.7387C146.198 65.0144 148.012 64.254 150.474 63.2221C150.659 62.4857 151.056 60.9085 151.457 59.315C152.838 59.9655 154.126 60.9021 155.61 61.1947C157.908 61.6483 159.338 59.8513 158.418 57.6771C157.738 56.0693 156.655 54.6592 155.572 53.329C153.835 51.1971 153.922 49.2395 156.247 46.3099C158.003 48.1976 159.757 50.0818 161.511 51.9662C161.685 51.8529 161.859 51.7393 162.033 51.6261C161.721 50.1655 161.409 48.7057 161.093 47.2257C164.2 45.6637 163.281 49.3123 164.744 49.8002C166.195 50.2848 167.595 50.8931 169.498 51.634C169.842 51.3727 171.149 50.8514 171.374 50.1154C171.933 48.2896 172.062 46.3621 172.236 44.4818C172.332 43.4451 172.17 42.4205 172.085 40.4801C176.225 42.8332 176.42 48.8482 181.91 48.2574C182.009 47.293 182.137 46.5815 182.137 45.8889C182.136 45.3236 181.981 44.7816 181.818 43.7383C184.039 44.5802 184.197 40.474 186.154 41.6659C187.264 42.3426 187.779 44.019 188.445 45.3229C190 48.3675 189.971 48.3866 193.367 47.1822C193.62 49.0924 193.875 51.0129 194.107 52.7648C195.515 53.0364 196.554 53.2369 197.595 53.4321L197.697 53.333C197.771 56.7997 198.076 56.9165 201.311 54.7129L201.21 54.7806ZM198.715 343.04C199.998 343.653 201.281 344.266 202.564 344.879C201.765 343.068 200.559 342.232 198.709 343.094C197.52 341.059 197.52 341.059 194.864 341.122C196.485 341.929 197.6 342.484 198.715 343.04ZM187.471 340.166C187.337 340.456 187.203 340.746 187.069 341.036C194.425 346.248 202.996 349.295 210.832 353.652C211.043 353.278 211.254 352.906 211.464 352.532C203.467 348.41 195.469 344.288 187.471 340.166ZM385.781 154.854C387.943 158.654 393.557 162.761 396.906 163.268C396.965 162.533 397.314 161.435 397.029 161.236C393.721 158.92 390.816 155.898 385.781 154.854ZM183.056 339.106C179.657 334.833 175.708 331.448 170.115 330.595C170.975 331.887 171.959 333.028 173.2 333.753C176.425 335.635 179.763 337.334 183.056 339.106ZM508.583 456.237C505.278 458.043 503.686 459.904 502.255 463.427C504.917 461.579 507.408 460.092 508.583 456.237ZM393.134 154.186C395.31 156.422 397.276 158.927 400.716 159.172C398.758 156.659 396.156 155.083 393.134 154.186ZM302.491 339.785C302.235 340.071 301.979 340.358 301.723 340.644C303.691 342.133 305.707 343.545 307.845 344.765C308.022 344.496 308.199 344.227 308.376 343.958C306.414 342.567 304.452 341.176 302.491 339.785ZM265.245 296.771C266.928 298.279 268.61 299.788 270.293 301.296C269.102 299.253 269.222 295.835 265.245 296.771ZM249.854 113.812C249.612 114.063 249.37 114.315 249.128 114.566C250.609 116.118 252.09 117.669 253.571 119.221C253.824 118.956 254.077 118.691 254.33 118.427C252.838 116.889 251.345 115.35 249.854 113.812ZM159.736 158.825C159.895 158.659 160.054 158.493 160.213 158.327C158.908 156.855 157.603 155.382 156.298 153.909C156.109 154.103 155.919 154.296 155.73 154.49C157.065 155.935 158.401 157.38 159.736 158.825ZM209.043 345.356C208.243 345.594 207.755 345.739 207.267 345.884C207.323 346.232 207.268 346.782 207.461 346.878C207.752 347.023 208.278 346.971 208.588 346.769C208.803 346.63 208.821 346.098 209.043 345.356ZM211.252 347.573C211.134 347.804 211.015 348.035 210.897 348.266C211.489 348.536 212.082 348.806 212.674 349.076C212.79 348.843 212.906 348.61 213.022 348.377C212.432 348.109 211.842 347.841 211.252 347.573ZM181.245 333.628C181.115 333.849 180.984 334.069 180.853 334.29C181.838 334.889 182.822 335.488 183.806 336.087C183.964 335.821 184.122 335.554 184.28 335.287C183.269 334.734 182.257 334.181 181.245 333.628ZM519.586 437.929C519.872 438.198 520.157 438.468 520.442 438.736C521.06 437.864 521.679 436.991 522.297 436.119C522.109 435.948 521.922 435.777 521.734 435.605C521.018 436.38 520.302 437.155 519.586 437.929ZM521.076 444.007C521.205 444.036 521.334 444.065 521.464 444.094C521.84 443.562 522.217 443.031 522.594 442.5C522.524 442.449 522.454 442.398 522.384 442.347C521.948 442.901 521.512 443.454 521.076 444.007Z" fill="#6C59FF"/>
<path fill-rule="evenodd" clip-rule="evenodd" d="M481.268 237.576C515.68 237.576 543.576 209.679 543.576 175.268C543.576 140.856 515.68 112.96 481.268 112.96C446.856 112.96 418.96 140.856 418.96 175.268C418.96 209.679 446.856 237.576 481.268 237.576ZM481.268 247.446C521.131 247.446 553.446 215.131 553.446 175.268C553.446 135.405 521.131 103.09 481.268 103.09C441.405 103.09 409.09 135.405 409.09 175.268C409.09 215.131 441.405 247.446 481.268 247.446Z" fill="#4633DC"/>
<path d="M542.527 191.722C533.456 225.575 498.659 245.665 464.806 236.594C430.952 227.523 410.862 192.726 419.933 158.873C429.004 125.019 463.801 104.929 497.655 114C531.508 123.071 551.598 157.868 542.527 191.722Z" fill="#BEF941"/>
<path fill-rule="evenodd" clip-rule="evenodd" d="M481.268 230.049C511.523 230.049 536.049 205.523 536.049 175.268C536.049 145.013 511.523 120.487 481.268 120.487C451.013 120.487 426.487 145.013 426.487 175.268C426.487 205.523 451.013 230.049 481.268 230.049ZM481.268 238.727C516.316 238.727 544.728 210.316 544.728 175.268C544.728 140.22 516.316 111.808 481.268 111.808C446.22 111.808 417.809 140.22 417.809 175.268C417.809 210.316 446.22 238.727 481.268 238.727Z" fill="#F1FFD3"/>
<path d="M490.411 196.697L481.169 194.22L480.239 197.693L470.667 195.129L471.597 191.655L451.529 186.278L453.896 177.443L492.382 187.756C493.218 187.98 493.735 187.726 493.93 186.995L494.6 184.497C494.807 183.725 494.492 183.227 493.656 183.003L465.138 175.362C461.353 174.347 458.655 172.797 457.044 170.711C455.478 168.637 455.081 166.158 455.853 163.274L456.915 159.313C457.687 156.429 459.298 154.466 461.747 153.425C464.251 152.354 467.351 152.314 471.048 153.304L481.148 156.011L482.095 152.477L491.667 155.042L490.72 158.576L508.544 163.351L506.176 172.186L469.077 162.246C468.725 162.151 468.389 162.17 468.071 162.303C467.796 162.447 467.616 162.681 467.529 163.006L466.859 165.504C466.772 165.829 466.811 166.123 466.977 166.385C467.187 166.659 467.468 166.843 467.82 166.937L496.338 174.579C500.034 175.569 502.677 177.148 504.266 179.315C505.899 181.494 506.329 184.026 505.557 186.91L504.479 190.932C503.706 193.816 502.101 195.758 499.663 196.759C497.28 197.732 494.196 197.711 490.411 196.697Z" fill="#F1FFD3"/>
<path d="M158.738 352.029C158.738 360.646 160.334 368.837 163.206 376.496C173.099 402.452 198.204 420.855 227.564 420.855C257.668 420.855 283.198 401.601 292.559 374.688C348.088 378.73 379.894 353.838 393.085 306.501C426.487 297.459 450.953 266.929 450.953 230.654C450.953 207.252 440.635 186.189 424.359 171.722C410.53 159.489 392.234 152.042 372.341 152.042C349.471 152.042 328.834 161.829 314.579 177.466C304.899 171.19 293.41 167.467 281.071 167.467C272.454 167.467 264.157 169.275 256.711 172.467C235.116 181.828 219.905 203.103 219.585 228.101C219.585 228.42 219.585 228.633 219.585 228.952C219.585 229.271 219.585 229.591 219.585 230.016C216.394 229.378 213.203 228.952 209.799 228.952C194.8 228.952 181.503 236.08 173.099 247.249C167.248 254.908 163.844 264.588 163.844 274.907C163.844 286.183 167.887 296.395 174.588 304.373C175.12 305.011 175.652 305.65 176.184 306.181C165.334 318.308 158.738 334.371 158.738 352.029Z" fill="#F580F7"/>
<g opacity="0.3">
<path d="M163.207 376.39C173.1 402.346 198.205 420.749 227.565 420.749C257.669 420.749 283.199 401.495 292.56 374.581C348.089 378.624 379.895 353.732 393.086 306.394C426.488 297.352 450.954 266.823 450.954 230.548C450.954 207.146 440.636 186.083 424.36 171.616C432.019 191.083 408.404 216.507 377.661 200.444C377.661 200.444 377.023 198.21 375.108 195.763C371.81 191.615 365.215 193.21 364.151 198.423C361.066 213.635 343.408 220.443 333.834 192.678L322.026 183.105C334.579 218.741 309.687 232.357 284.476 223.847C282.348 223.102 280.327 225.23 281.284 227.357C294.156 255.866 268.2 291.927 226.394 280.013C240.649 309.586 232.139 346.605 194.056 337.775C192.354 337.35 191.184 339.477 192.46 340.648C196.503 344.371 204.375 349.158 217.991 349.796C236.5 382.879 209.8 429.472 163.207 376.39Z" fill="#402DD4"/>
</g>
<path d="M225.969 356.497C220.225 356.497 214.587 355.859 209.055 354.688C206.821 354.263 205.438 352.029 205.97 349.795C206.396 347.561 208.63 346.178 210.864 346.71C215.863 347.774 220.969 348.306 226.075 348.306C265.754 348.306 297.986 316.074 297.986 276.396C297.986 258.312 291.284 241.079 279.051 227.782C277.561 226.08 277.668 223.527 279.263 222.037C280.965 220.548 283.518 220.655 285.008 222.25C298.624 237.036 306.177 256.291 306.177 276.396C305.964 320.648 270.115 356.497 225.969 356.497Z" fill="#402DD4"/>
<path d="M323.09 253.738C320.856 253.738 319.048 251.93 319.048 249.696C319.048 247.462 320.856 245.653 323.09 245.653C348.62 245.653 369.896 225.761 371.704 200.337C371.81 198.103 373.832 196.401 376.065 196.508C378.299 196.614 380.001 198.635 379.895 200.869C377.767 230.442 352.875 253.738 323.09 253.738Z" fill="#402DD4"/>
<path d="M239.159 243.526C238.202 243.526 237.351 243.207 236.5 242.569C231.394 238.313 225.224 235.335 218.735 233.952C216.501 233.527 215.118 231.293 215.544 229.059C215.969 226.825 218.203 225.442 220.437 225.867C228.202 227.57 235.542 231.08 241.712 236.186C243.414 237.675 243.733 240.228 242.244 241.93C241.499 242.994 240.329 243.526 239.159 243.526Z" fill="#402DD4"/>
<path d="M335.642 204.593C334.153 204.593 332.77 203.742 332.025 202.359C327.451 193.636 320.749 186.19 312.452 180.764C310.537 179.488 310.005 177.041 311.282 175.126C312.558 173.212 315.005 172.68 316.92 173.956C326.387 180.126 334.153 188.636 339.365 198.636C340.429 200.657 339.578 203.103 337.663 204.167C336.918 204.486 336.28 204.593 335.642 204.593Z" fill="#402DD4"/>
<path d="M227.564 424.897C187.354 424.897 154.696 392.24 154.696 352.03C154.696 335.328 160.441 319.159 170.865 306.288C163.738 297.459 159.802 286.396 159.802 274.907C159.802 247.355 182.248 224.91 209.799 224.91C211.714 224.91 213.629 225.017 215.543 225.229C217.458 190.763 246.073 163.425 280.965 163.425C292.56 163.425 303.942 166.51 313.835 172.254C329.259 156.829 350.428 148 372.342 148C417.977 148 454.996 185.125 454.996 230.654C454.996 267.141 430.955 299.267 396.276 309.798C381.916 358.518 347.875 381.815 295.219 378.943C284.369 406.494 257.562 424.897 227.564 424.897ZM209.905 232.995C186.822 232.995 168.1 251.823 168.1 274.907C168.1 285.544 172.142 295.65 179.376 303.416C180.865 305.011 180.865 307.352 179.482 308.947C168.844 320.755 163.1 336.073 163.1 352.03C163.1 387.665 192.141 416.706 227.777 416.706C255.328 416.706 279.901 399.26 288.943 373.305C289.581 371.603 291.283 370.433 293.092 370.539C344.578 374.262 376.171 352.881 389.468 305.33C389.894 303.948 390.958 302.884 392.34 302.458C424.679 293.629 447.23 264.057 447.23 230.548C447.23 189.487 413.828 156.085 372.767 156.085C352.024 156.085 332.025 164.808 317.984 180.126C316.601 181.615 314.367 181.828 312.771 180.764C303.516 174.701 292.666 171.509 281.497 171.509C249.903 171.509 224.053 197.252 224.053 228.952C224.053 229.272 224.053 229.591 224.053 229.91V230.016C224.053 231.293 223.522 232.463 222.564 233.207C221.607 233.952 220.33 234.271 219.16 234.058C215.863 233.314 212.884 232.995 209.905 232.995Z" fill="#402DD4"/>
<path d="M176.291 310.224C175.228 310.224 174.27 309.799 173.419 309.054C171.824 307.458 171.717 304.905 173.313 303.31C173.526 303.097 178.951 297.459 186.397 291.608C188.205 290.225 190.759 290.545 192.141 292.247C193.524 294.055 193.205 296.608 191.503 297.991C184.482 303.522 179.376 308.841 179.27 308.948C178.419 309.905 177.355 310.224 176.291 310.224Z" fill="#402DD4"/>
<path d="M381.384 435.003C380.745 435.003 380.213 434.896 379.575 434.577C377.554 433.62 376.703 431.173 377.66 429.152C380.533 423.195 382.235 416.919 382.979 410.536C383.192 408.302 385.213 406.707 387.447 406.919C389.681 407.132 391.277 409.153 391.064 411.387C390.213 418.727 388.192 425.961 385 432.662C384.362 434.152 382.979 435.003 381.384 435.003Z" fill="#402DD4"/>
<path d="M246.499 383.091C244.159 389.686 242.882 396.814 242.882 404.154C242.882 441.066 275.221 470.958 315.218 470.958C344.791 470.958 370.321 454.469 381.49 430.96C390.745 437.237 401.702 440.853 413.616 440.853C440.21 440.853 462.655 422.557 469.676 397.558C474.57 398.835 479.782 399.473 484.994 399.473C519.673 399.473 547.863 371.283 547.863 336.605C547.863 309.904 531.268 287.14 507.759 277.992C508.716 274.162 509.142 270.226 509.142 266.184C509.142 234.697 479.888 209.166 443.72 209.166C422.977 209.166 404.468 217.57 392.554 230.761C382.98 225.655 371.917 222.676 360.109 222.676C323.515 222.676 293.837 251.078 293.837 286.076C293.837 286.927 293.837 287.778 293.943 288.523C263.732 294.054 240.755 321.818 240.755 355.221C240.755 365.007 242.776 374.581 246.499 383.091Z" fill="#F580F7"/>
<g opacity="0.3">
<path d="M301.92 355.965C332.557 381.814 386.915 369.9 381.49 313.415L387.979 337.456C406.063 338.945 409.467 352.348 409.892 368.411L417.764 379.474C417.764 379.474 399.999 364.156 367.129 378.198C334.259 392.239 324.898 396.92 317.664 410.961L313.409 410.004C295.857 392.133 284.049 374.368 294.687 357.135C296.176 354.582 299.58 354.05 301.92 355.965Z" fill="#402DD4"/>
</g>
<g opacity="0.3">
<path d="M443.081 329.052C414.573 326.924 392.872 305.649 411.062 290.118C434.465 295.969 440.528 283.523 440.528 283.523C454.889 263.099 473.292 264.801 493.078 274.055C458.293 277.779 451.06 324.478 483.504 332.669C482.121 333.307 458.293 339.902 458.293 339.902L448.507 332.669" fill="#402DD4"/>
</g>
<g opacity="0.3">
<path d="M325.11 232.037C308.622 258.312 308.196 281.076 338.407 297.246C324.897 290.225 311.069 285.438 295.963 286.714C292.985 260.865 306.494 244.909 325.11 232.037Z" fill="#402DD4"/>
</g>
<g opacity="0.3">
<path d="M440.848 209.06C421.7 217.783 408.403 228.633 413.509 245.653L397.446 229.697L410.637 219.166L419.998 214.06" fill="#402DD4"/>
</g>
<g opacity="0.3">
<path d="M245.223 383.091C239.691 356.71 242.669 334.903 252.137 316.5C247.456 340.115 250.222 354.582 266.498 352.348L255.967 363.943" fill="#402DD4"/>
</g>
<g opacity="0.3">
<path d="M242.882 404.153C242.882 441.066 275.22 470.958 315.218 470.958C344.79 470.958 370.32 454.469 381.49 430.96C390.745 437.236 401.701 440.853 413.615 440.853C440.209 440.853 462.655 422.557 469.676 397.558C476.59 399.26 484.143 399.898 491.695 399.047C523.927 395.643 548.075 368.624 547.862 336.179C547.862 332.669 547.543 329.265 547.011 325.967C542.011 355.752 516.162 378.304 484.994 378.304C479.675 378.304 474.569 377.666 469.676 376.389C462.655 401.388 440.209 419.684 413.615 419.684C404.361 419.684 395.531 417.45 387.766 413.515C384.362 411.813 380.107 412.876 378.086 416.174C365.64 436.279 342.237 449.789 315.324 449.789C279.262 449.789 249.371 425.429 243.839 393.516C243.201 397.026 242.882 400.537 242.882 404.153Z" fill="#402DD4"/>
</g>
<path d="M246.498 387.239C246.073 387.239 245.541 387.133 245.115 387.027C242.988 386.282 241.924 383.942 242.669 381.814C247.349 368.836 255.966 357.348 267.561 348.838C269.369 347.455 271.922 347.88 273.305 349.689C274.688 351.497 274.262 354.05 272.454 355.433C262.135 363.092 254.476 373.091 250.434 384.58C249.796 386.176 248.2 387.239 246.498 387.239Z" fill="#402DD4"/>
<path d="M469.569 401.6C469.25 401.6 468.825 401.6 468.506 401.494C466.378 400.856 465.102 398.622 465.633 396.494C467.016 391.494 467.761 386.176 467.761 380.963C467.761 359.475 456.166 340.221 437.337 330.754C435.316 329.69 434.465 327.243 435.529 325.222C436.593 323.201 439.039 322.35 441.061 323.414C462.549 334.264 475.952 356.39 475.952 380.963C475.952 387.027 475.101 392.984 473.505 398.728C472.973 400.43 471.378 401.6 469.569 401.6Z" fill="#402DD4"/>
<path d="M507.759 282.034C507.227 282.034 506.801 281.928 506.269 281.715C501.376 279.8 496.27 278.524 490.951 277.992C488.717 277.779 487.122 275.758 487.334 273.524C487.547 271.29 489.568 269.694 491.802 269.907C497.866 270.545 503.716 271.928 509.248 274.162C511.375 275.013 512.439 277.354 511.588 279.481C510.95 280.97 509.354 282.034 507.759 282.034Z" fill="#402DD4"/>
<path d="M392.553 234.696C391.49 234.696 390.426 234.271 389.681 233.526C388.085 231.931 388.085 229.378 389.681 227.782C391.277 226.186 393.83 226.186 395.425 227.782C397.021 229.378 397.021 231.931 395.425 233.526C394.681 234.271 393.617 234.696 392.553 234.696Z" fill="#402DD4"/>
<path d="M413.509 252.355C412.232 252.355 411.062 251.823 410.318 250.759C405.105 244.058 398.297 238.313 390.744 234.165C388.723 233.101 387.979 230.654 389.042 228.633C390.106 226.612 392.553 225.867 394.574 226.931C403.19 231.612 410.849 238.101 416.807 245.76C418.189 247.568 417.87 250.121 416.062 251.504C415.211 252.142 414.36 252.355 413.509 252.355Z" fill="#402DD4"/>
<path d="M315.217 475C273.093 475 238.839 443.193 238.839 404.153C238.839 397.026 240.01 390.005 242.243 383.304C238.627 374.368 236.712 364.901 236.712 355.008C236.712 321.287 258.838 292.459 289.794 285.012C290.219 248.206 321.6 218.421 360.108 218.421C371.065 218.421 381.915 220.868 391.702 225.548C404.892 212.357 423.721 204.911 443.72 204.911C482.015 204.911 513.183 232.356 513.183 266.077C513.183 269.162 512.864 272.354 512.332 275.438C523.395 280.438 532.863 288.204 539.884 298.309C547.756 309.585 551.904 322.776 551.904 336.498C551.904 373.411 521.906 403.515 484.887 403.515C480.632 403.515 476.484 403.09 472.335 402.345C463.612 427.663 439.89 445.002 413.509 445.002C402.765 445.002 392.34 442.236 382.979 436.811C370.001 460.107 343.833 475 315.217 475ZM360.108 226.612C325.855 226.612 297.878 253.206 297.878 285.863C297.878 286.821 297.878 287.459 297.878 288.097C297.985 290.118 296.602 291.927 294.581 292.352C265.753 297.671 244.797 323.946 244.797 355.008C244.797 364.262 246.605 373.198 250.222 381.495C250.647 382.453 250.647 383.517 250.328 384.474C248.094 390.75 246.924 397.345 246.924 404.153C246.924 438.726 277.56 466.809 315.217 466.809C342.343 466.809 366.916 452.023 377.767 429.152C378.298 428.088 379.256 427.237 380.426 426.918C381.596 426.599 382.766 426.812 383.83 427.45C392.659 433.513 402.978 436.598 413.615 436.598C437.656 436.598 459.038 420.004 465.74 396.282C466.378 394.154 468.505 392.878 470.633 393.41C475.313 394.58 480.1 395.218 484.994 395.218C517.438 395.218 543.82 368.837 543.82 336.392C543.82 311.925 529.14 290.437 506.375 281.608C504.46 280.864 503.397 278.843 503.929 276.821C504.78 273.205 505.205 269.588 505.205 265.971C505.205 236.824 477.654 212.996 443.932 212.996C424.998 212.996 407.446 220.336 395.744 233.207C394.468 234.59 392.446 234.909 390.744 234.058C381.277 229.165 370.746 226.612 360.108 226.612Z" fill="#402DD4"/>
<path d="M350.428 311.181C349.364 311.181 348.3 310.756 347.449 309.905C336.067 297.99 320.962 291.395 305.005 291.395C301.495 291.395 297.984 291.714 294.687 292.352C292.453 292.778 290.325 291.289 289.9 289.055C289.474 286.821 290.964 284.693 293.197 284.268C297.027 283.523 301.069 283.204 305.005 283.204C323.302 283.204 340.428 290.65 353.406 304.267C355.002 305.862 354.896 308.522 353.3 310.011C352.449 310.862 351.385 311.181 350.428 311.181Z" fill="#402DD4"/>
<path d="M337.131 390.75C320.643 390.75 305.218 383.304 294.9 370.432C293.517 368.624 293.73 366.071 295.538 364.688C297.347 363.305 299.9 363.518 301.282 365.326C310.112 376.283 323.09 382.559 337.131 382.559C362.449 382.559 383.086 361.922 383.086 336.605C383.086 326.073 379.362 315.755 372.767 307.564C371.384 305.862 371.597 303.202 373.299 301.82C375.001 300.437 377.66 300.649 379.043 302.351C386.915 311.925 391.277 324.159 391.277 336.605C391.17 366.496 366.916 390.75 337.131 390.75Z" fill="#402DD4"/>
<path d="M315.005 415.536C312.771 415.536 310.963 413.728 310.963 411.494C310.963 401.388 313.516 391.282 318.303 382.453C319.367 380.432 321.813 379.687 323.834 380.751C325.856 381.815 326.6 384.262 325.536 386.283C321.388 393.942 319.154 402.665 319.154 411.494C319.047 413.728 317.239 415.536 315.005 415.536Z" fill="#402DD4"/>
<path d="M419.572 383.623C418.296 383.623 417.019 382.985 416.168 381.815C408.296 370.113 396.382 362.242 382.66 359.476C380.426 359.05 379.043 356.923 379.468 354.689C379.894 352.455 382.021 351.072 384.255 351.498C400.105 354.689 413.828 363.837 422.87 377.241C424.146 379.155 423.614 381.602 421.806 382.879C421.061 383.41 420.317 383.623 419.572 383.623Z" fill="#402DD4"/>
<path d="M458.186 346.391C456.91 346.391 455.633 345.753 454.782 344.583C453.506 342.775 453.931 340.222 455.846 338.945C465.526 332.243 476.909 328.733 488.716 328.733C496.056 328.733 503.29 330.116 510.098 332.775C512.225 333.626 513.183 335.967 512.438 338.094C511.587 340.222 509.247 341.179 507.119 340.434C501.269 338.094 494.993 336.924 488.716 336.924C478.504 336.924 468.824 340.009 460.42 345.753C459.782 346.072 459.037 346.391 458.186 346.391Z" fill="#402DD4"/>
<path d="M416.594 296.182C412.551 296.182 408.509 295.651 404.68 294.48C402.552 293.842 401.276 291.608 401.914 289.374C402.552 287.247 404.786 285.97 407.02 286.609C410.105 287.566 413.296 287.991 416.594 287.991C425.423 287.991 433.827 284.587 440.209 278.418C441.805 276.822 444.464 276.928 445.954 278.524C447.549 280.12 447.443 282.779 445.847 284.268C438.082 291.927 427.657 296.182 416.594 296.182Z" fill="#402DD4"/>
<g opacity="0.6">
<path d="M338.407 254.376C338.407 263.631 352.236 255.333 367.235 255.333C382.234 255.333 392.553 263.631 392.553 254.376C392.553 245.121 380.426 237.569 365.533 237.569C350.534 237.569 338.407 245.121 338.407 254.376Z" fill="white"/>
</g>
<g opacity="0.6">
<path d="M282.135 312.776C282.135 320.755 290.432 312.776 301.814 312.776C313.197 312.776 323.409 320.755 323.409 312.776C323.409 304.798 314.154 298.416 302.772 298.416C291.389 298.416 282.135 304.904 282.135 312.776Z" fill="white"/>
</g>
<g opacity="0.6">
<path d="M330.429 431.279C332.663 423.62 320.11 428.301 306.069 424.152C292.027 420.003 281.709 408.728 279.475 416.28C277.241 423.833 286.815 433.513 300.963 437.555C315.004 441.704 328.195 438.832 330.429 431.279Z" fill="white"/>
</g>
<g opacity="0.6">
<path d="M495.631 300.65C490.312 306.5 501.801 306.288 510.205 313.947C518.608 321.606 520.842 334.371 526.161 328.414C531.48 322.563 529.033 311.5 520.63 303.841C512.226 296.182 501.056 294.799 495.631 300.65Z" fill="white"/>
</g>
<g opacity="0.6">
<path d="M466.272 233.101C461.804 237.143 468.612 241.079 474.888 247.887C481.164 254.695 484.356 261.929 488.823 257.886C493.291 253.844 491.802 245.015 485.632 238.207C479.356 231.399 470.633 229.058 466.272 233.101Z" fill="white"/>
</g>
<g opacity="0.6">
<path d="M459.987 227.497C460.697 224.405 457.652 221.066 453.186 220.04C448.72 219.014 444.524 220.689 443.813 223.781C443.103 226.873 446.148 230.211 450.614 231.237C455.08 232.263 459.276 230.588 459.987 227.497Z" fill="white"/>
</g>
<g opacity="0.6">
<path d="M274.264 327.551C276.895 324.391 277.126 320.244 274.778 318.289C272.431 316.334 268.395 317.311 265.763 320.471C263.131 323.631 262.901 327.778 265.249 329.733C267.596 331.688 271.632 330.711 274.264 327.551Z" fill="white"/>
</g>
<g opacity="0.6">
<path d="M430.104 353.306C426.806 355.221 431.168 357.561 433.933 363.624C436.699 369.688 436.487 375.964 440.21 375.219C447.018 373.73 448.294 365.433 445.422 359.476C442.763 353.306 436.274 349.902 430.104 353.306Z" fill="white"/>
</g>
<path d="M241.712 292.14C240.861 292.14 240.01 291.927 239.265 291.289C234.691 287.885 229.266 286.076 223.628 286.076C222.032 286.076 220.437 286.183 218.947 286.502C216.714 286.927 214.586 285.438 214.161 283.204C213.735 280.97 215.224 278.843 217.458 278.417C219.479 278.098 221.5 277.885 223.628 277.885C231.074 277.885 238.201 280.226 244.159 284.694C245.967 286.076 246.392 288.629 245.01 290.438C244.159 291.608 242.988 292.14 241.712 292.14Z" fill="#402DD4"/>
<g opacity="0.3">
<path d="M163.951 274.907C163.951 286.182 167.993 296.395 174.695 304.373L191.077 294.054C193.205 292.778 192.992 289.586 190.864 288.523C165.334 275.438 173.312 247.249 173.312 247.249C167.355 254.908 163.951 264.482 163.951 274.907Z" fill="#402DD4"/>
</g>
<g opacity="0.3">
<path d="M219.586 227.995C227.777 230.229 236.287 235.335 242.031 239.165C244.052 240.547 246.605 238.526 245.861 236.186C235.968 207.464 244.478 188.849 258.945 173.53L256.818 172.36C235.117 181.721 219.905 203.103 219.586 227.995Z" fill="#402DD4"/>
</g>
<g opacity="0.6">
<path d="M263.838 189.381C263.838 195.976 272.029 191.721 282.135 191.721C292.24 191.721 300.431 195.976 300.431 189.381C300.431 182.785 292.24 177.36 282.135 177.36C272.029 177.36 263.838 182.785 263.838 189.381Z" fill="white"/>
</g>
<g opacity="0.6">
<path d="M191.503 256.398C191.503 262.993 199.694 258.738 209.8 258.738C219.905 258.738 228.096 262.993 228.096 256.398C228.096 249.802 219.905 244.377 209.8 244.377C199.694 244.377 191.503 249.696 191.503 256.398Z" fill="white"/>
</g>
<g opacity="0.6">
<path d="M208.629 383.091C212.565 377.772 203.523 376.283 195.439 370.219C187.354 364.156 183.312 355.752 179.376 361.071C175.44 366.39 178.738 375.645 186.822 381.708C194.907 387.771 204.694 388.41 208.629 383.091Z" fill="white"/>
</g>
<g opacity="0.6">
<path d="M369.15 171.935C367.236 178.317 377.873 177.041 389.362 180.445C400.957 183.849 409.041 190.763 410.956 184.381C412.871 177.998 404.999 170.02 393.51 166.616C381.915 163.212 371.065 165.552 369.15 171.935Z" fill="white"/>
</g>
<path d="M359.334 175.003C361.826 172.511 362.096 168.739 359.936 166.579C357.775 164.419 354.004 164.688 351.511 167.18C349.019 169.673 348.749 173.445 350.909 175.605C353.07 177.765 356.841 177.496 359.334 175.003Z" fill="white"/>
<g opacity="0.6">
<path d="M210.356 328.064C216.488 325.519 219.962 319.849 218.115 315.4C216.269 310.95 209.801 309.406 203.67 311.951C197.538 314.496 194.064 320.165 195.911 324.615C197.757 329.064 204.225 330.608 210.356 328.064Z" fill="white"/>
</g>
<path d="M254.387 183.988C261.316 214.284 242.373 244.46 212.078 251.388C181.783 258.317 151.607 239.374 144.678 209.079C137.75 178.783 156.692 148.607 186.987 141.679C217.283 134.75 247.459 153.693 254.387 183.988Z" fill="#F580F7" stroke="#FBCCFC" stroke-width="8"/>
<path fill-rule="evenodd" clip-rule="evenodd" d="M265.889 181.357C274.271 218.005 251.356 254.508 214.708 262.89C178.06 271.271 141.557 248.356 133.176 211.709C124.794 175.061 147.709 138.557 184.357 130.176C221.005 121.795 257.508 144.709 265.889 181.357ZM212.97 255.287C245.418 247.866 265.707 215.545 258.286 183.096C250.865 150.647 218.544 130.358 186.096 137.779C153.647 145.2 133.358 177.521 140.779 209.97C148.2 242.419 180.521 262.708 212.97 255.287Z" fill="#402DD4"/>
<path d="M207.744 212.05L216.054 227.757L220.594 190.598L207.744 212.05Z" fill="#FBCCFC"/>
<path d="M182.815 164.93L218.652 186.928L205.803 208.381L180.694 207.01" fill="#FBCCFC"/>
<path d="M182.815 164.93L195.085 188.123L180.694 207.01M182.636 210.68L207.744 212.05L216.054 227.757" fill="#FBCCFC"/>
<path d="M195.085 188.123L205.803 208.381L218.652 186.928" fill="#FBCCFC"/>
<path d="M180.694 207.01L195.085 188.123L205.803 208.381" fill="#FBCCFC"/>
<path fill-rule="evenodd" clip-rule="evenodd" d="M578.71 319.563C608.573 302.321 618.804 264.136 601.563 234.273C584.322 204.41 546.136 194.178 516.273 211.42C486.41 228.661 476.179 266.847 493.42 296.709C510.661 326.572 548.847 336.804 578.71 319.563ZM583.655 328.129C618.249 308.156 630.101 263.921 610.129 229.328C590.156 194.734 545.921 182.881 511.328 202.854C476.734 222.827 464.881 267.061 484.854 301.655C504.827 336.249 549.062 348.101 583.655 328.129Z" fill="#4633DC"/>
<path d="M608.897 249.077C617.987 283.001 597.855 317.87 563.932 326.96C530.008 336.049 495.139 315.918 486.049 281.994C476.96 248.071 497.091 213.202 531.015 204.112C564.938 195.022 599.807 215.154 608.897 249.077Z" fill="#FFC412"/>
<path fill-rule="evenodd" clip-rule="evenodd" d="M574.939 313.031C601.194 297.872 610.19 264.3 595.031 238.044C579.873 211.788 546.3 202.792 520.044 217.951C493.789 233.11 484.793 266.683 499.951 292.938C515.11 319.194 548.683 328.19 574.939 313.031ZM579.287 320.562C609.702 303.002 620.123 264.111 602.563 233.696C585.002 203.281 546.111 192.86 515.696 210.42C485.281 227.98 474.86 266.872 492.42 297.286C509.98 327.701 548.872 338.122 579.287 320.562Z" fill="#FFE8A1"/>
<path fill-rule="evenodd" clip-rule="evenodd" d="M533.986 242.161L539.657 240.641L538.126 234.926L549.467 231.887L550.998 237.602L556.182 236.213L567.603 242.867L571.169 256.175L568.744 260.413L572.963 262.871L576.529 276.179L569.965 287.652L564.781 289.041L566.312 294.756L554.971 297.795L553.44 292.079L547.769 293.599L549.301 299.314L537.96 302.353L536.428 296.638L530.758 298.157L527.695 286.726L533.365 285.207L525.708 256.63L520.038 258.15L516.975 246.719L522.645 245.199L521.114 239.484L532.455 236.445L533.986 242.161ZM544.706 282.168L562.205 277.479L563.919 274.483L562.89 270.644L559.907 268.906L542.409 273.595L544.706 282.168ZM539.346 262.164L537.049 253.591L554.547 248.903L557.53 250.641L558.559 254.479L556.845 257.476L539.346 262.164Z" fill="#FFE8A2"/>
</svg>
