<svg width="642" height="541" viewBox="0 0 642 541" fill="none" xmlns="http://www.w3.org/2000/svg">
<path d="M517.21 176.455C517.535 177.561 517.848 178.67 518.186 179.771C519.039 182.552 520.614 183.882 523.306 184.251C533.089 185.591 542.019 190.289 550.796 195.534C558.458 200.113 561.763 207.307 560.934 216.356C560.344 222.785 558.948 229.08 557.618 235.334C556.645 239.905 554.024 243.843 554.386 248.978C554.454 249.942 553.665 251.034 553.058 251.864C550.914 254.798 549.989 258.058 550.775 262.076C551.165 264.074 551.098 266.273 549.228 267.246C545.668 269.1 544.493 272.975 543.967 276.73C543.197 282.236 540.893 285.974 536.762 288.514C535.046 289.569 533.422 290.799 531.778 291.986C530.959 292.577 529.673 293.065 529.483 293.916C528.372 298.894 523.778 300.705 522.05 305.057L522.141 304.927C521.358 306.089 520.575 307.252 519.793 308.414L519.727 308.432C519.079 312.873 515.69 314.471 512.959 316.682C509.194 319.729 505.919 323.2 503.248 328.852C510.355 328.363 516.582 328.674 522.255 325.488C525.378 323.735 528.72 322.655 532.467 323.952C536.702 325.417 537.866 327.977 535.959 332.391C531.966 341.636 527.906 350.841 523.797 360.013C520.4 367.596 515.397 373.632 509.465 378.698C504.57 382.877 499.605 386.955 494.665 391.069C489.721 395.186 484.548 398.81 478.906 401.803C471.317 405.829 464.21 410.884 456.724 415.148C449.686 419.157 442.461 422.793 435.253 426.448C425.109 431.592 415.059 436.988 404.688 441.571C392.017 447.171 379.537 453.318 366.179 457.132C360.63 458.716 355.405 461.437 349.87 463.082C341.435 465.59 332.842 467.549 324.351 469.871C321.21 470.73 318.044 471.666 315.112 473.085C310.802 475.17 306.838 477.071 301.539 476.388C296.655 475.758 291.664 477.806 286.72 478.674C284.679 483.447 280.753 481.156 277.443 481.129C272.138 481.085 266.831 481.041 261.521 480.839C261.176 480.825 260.787 479.464 260.252 478.397C258.885 478.087 256.943 477.645 255.004 477.205C255.207 477.027 255.406 476.848 255.605 476.668C255.443 476.874 255.28 477.081 255.117 477.287C251.333 476.491 247.549 475.695 243.763 474.903C243.573 474.847 243.387 474.763 243.198 474.737C243.069 474.72 242.937 474.785 242.806 474.813C243.145 474.798 243.485 474.783 243.824 474.769C241.771 477.42 239.104 477.539 236.208 476.447C232.031 474.872 227.789 473.472 223.74 471.497C221.424 470.368 219.018 468.642 217.384 466.493C213.673 461.61 209.572 456.852 208.68 450.104C208.345 447.567 206.509 446.203 204.577 445.099C199.56 442.23 194.319 441.215 188.9 441.241C180.031 441.285 171.159 441.312 162.277 441.113C159.263 441.045 156.216 440.287 153.186 439.813C152.174 439.655 151.165 439.251 150.161 439.208C141.535 438.841 132.913 438.624 124.286 438.179C115.945 437.749 107.597 437.279 99.2572 436.487C93.4884 435.939 87.883 434.646 82.6063 430.834C78.9065 428.16 74.4922 426.88 70.5277 424.646C68.4893 423.498 66.2603 422.011 64.9331 420.016C57.2999 408.542 48.4751 398.738 37.4035 391.493C31.8482 387.857 27.9056 382.278 25.5406 375.454C24.5945 372.725 23.4559 370.068 22.4364 367.366C20.9633 363.462 20.4811 359.586 21.6069 355.595C22.2041 353.479 22.717 351.185 22.6341 348.951C22.4839 344.901 23.4599 341.78 26.3365 339.469C28.027 338.111 28.7328 336.111 28.3473 333.529C27.5843 328.418 29.3538 323.479 28.0089 318.203C27.3318 315.548 29.5558 313.575 32.1146 313.482C32.3673 313.472 32.6254 313.433 32.8737 313.483C35.5845 314.029 38.5993 315.593 40.9164 314.859C43.1821 314.142 45.2123 312.668 47.8087 312.341C49.6396 312.11 51.3428 310.604 52.9193 309.38C54.6625 308.028 56.2596 308.281 57.722 309.918C59.5693 311.985 61.2445 314.247 62.8997 316.308C66.962 316.262 70.7218 316.219 74.4813 316.175C79.5572 321.24 79.5572 321.24 81.0166 326.405C81.2548 326.571 81.5185 326.896 81.6942 326.855C83.1102 326.526 84.5098 326.129 86.3359 325.64C89.2796 329.892 90.6244 335.775 95.2678 339.735C96.4665 336.493 97.5493 333.565 98.6076 330.703C105.756 333.316 105.79 333.359 106.636 340.641C107.216 345.642 108.648 347.446 113.023 347.615C118.53 347.829 124.215 349.152 130.021 346.092C127.423 345.13 125.356 344.364 123.289 343.598C128.429 342.357 133.459 341.671 138.648 341.821C152.609 342.224 166.565 342.461 180.512 342.569C183.776 342.595 187.03 342.011 190.229 341.418C193.495 340.813 196.301 339.359 198.366 336.205C200.258 333.315 203.032 332.004 206.307 330.849C211.179 329.131 215.591 325.676 217.819 319.931L217.741 320.061C218.599 319.192 219.456 318.322 220.314 317.452L220.293 317.586C224.49 313.354 228.647 309.073 232.895 304.907C236.395 301.476 239.726 297.725 243.614 294.917C253.984 287.426 263.423 278.577 273.454 270.602C275.258 269.168 277.122 267.82 278.993 266.492C283.564 263.246 288.453 260.448 292.666 256.708C298.493 251.537 305.56 248.828 311.745 244.43C319.027 239.251 326.296 234.049 333.585 228.884C335.247 227.706 336.987 226.66 338.664 225.506C340.132 224.496 341.963 223.768 342.926 222.301C345.07 219.031 347.48 216.985 351.387 216.636C353.463 216.45 355.342 214.492 357.231 213.197C372.583 202.673 388.17 192.576 404.671 184.291C414.832 179.189 425.083 174.2 435.63 170.094C443.813 166.909 452.499 165.108 461.009 162.867C462.025 162.599 464.148 163.151 464.365 163.809C465.353 166.811 467.27 167.068 469.344 166.782C474.456 166.076 479.569 167.224 484.51 168.619C492.343 170.831 500.178 171.512 508.053 172.068C510.054 172.209 512.025 172.197 514.34 174.408C512.092 175.011 510.516 175.433 508.524 175.967C509.099 176.655 509.587 177.628 509.939 177.596C512.412 177.365 514.857 176.927 517.312 176.556L517.21 176.455ZM107.642 428.685C106.455 428.451 105.267 428.217 104.08 427.983C99.9735 424.868 95.8699 421.746 91.7583 418.639C90.2265 417.482 88.4787 415.941 86.847 417.241C84.5317 419.085 82.627 417.701 80.4762 416.658C74.9753 413.988 74.9587 414.04 69.8228 414.247C71.99 415.964 73.525 417.823 75.3418 418.509C84.1453 421.832 93.0204 424.859 101.885 427.922C102.581 428.163 103.389 427.882 104.148 427.838C105.331 428.076 106.514 428.315 107.697 428.553C108.293 428.843 108.882 429.157 109.49 429.399C109.586 429.437 109.767 429.146 109.908 429.008C109.154 428.9 108.399 428.791 107.642 428.685ZM231.807 460.174C232.619 460.614 233.43 461.053 234.242 461.493C234.309 461.226 234.376 460.958 234.443 460.691C233.544 460.561 232.645 460.431 231.747 460.301C227.695 457.295 227.161 457.067 222.938 456.584C225.608 459.168 228.254 461.371 231.807 460.174ZM246.431 446.661C246.743 450.307 248.377 451.703 252.108 452.165C249.578 449.712 248.004 448.186 246.431 446.661ZM267.953 474.262C269.834 475.376 271.793 477.671 273.779 474.642C271.641 474.503 269.797 474.382 267.953 474.262ZM247.487 467.095C246.362 464.87 245.045 463.995 242.827 465.841C244.716 466.349 246.101 466.722 247.487 467.095ZM75.3044 423.045C75.0022 422.69 74.7886 422.439 74.5748 422.188C74.5575 422.409 74.4545 422.732 74.5425 422.827C74.6765 422.971 74.9435 422.956 75.3044 423.045ZM239.699 468.782C239.772 468.991 239.846 469.198 239.919 469.406C240.167 469.227 240.416 469.048 240.664 468.868C240.505 468.727 240.346 468.487 240.187 468.473C240.025 468.459 239.861 468.67 239.699 468.782Z" fill="#6C59FF"/>
<path d="M280.067 281.726C280.067 281.726 277.17 261.049 286.333 258.637C295.497 256.237 303.442 264.133 303.442 264.133C303.442 264.133 300.781 245.234 313.14 242.038C325.499 238.843 335.77 253.415 335.77 253.415C335.77 253.415 343.889 218.352 366.021 222.691C388.153 227.043 391.609 254.173 391.609 254.173C391.609 254.173 407.437 240.347 417.447 249.66C427.443 258.973 419.461 277.785 419.461 277.785C419.461 277.785 427.965 272.103 435.14 282.821C442.314 293.539 431.708 316.106 431.708 316.106L280.067 281.726Z" fill="#98D517"/>
<path d="M370.583 281.726C370.583 281.726 373.48 261.049 364.317 258.637C355.153 256.237 347.208 264.133 347.208 264.133C347.208 264.133 349.869 245.234 337.51 242.038C325.151 238.843 314.88 253.415 314.88 253.415C314.88 253.415 306.761 218.352 284.629 222.691C262.497 227.043 259.041 254.173 259.041 254.173C259.041 254.173 243.213 240.347 233.203 249.66C223.207 258.973 231.189 277.785 231.189 277.785C231.189 277.785 222.684 272.103 215.51 282.821C208.336 293.539 218.942 316.106 218.942 316.106L370.583 281.726Z" fill="#BEF941"/>
<path d="M498.091 332.058C498.078 332.294 498.053 332.518 498.029 332.754C497.183 340.736 490.245 346.705 482.225 346.705H394.729L334.016 325.605C334.016 325.605 332.412 311.281 337.161 305.201C338.131 303.97 339.35 303.075 340.916 302.702C342.172 302.403 343.403 302.304 344.584 302.341C352.107 302.602 357.863 308.67 357.863 308.67C357.863 308.67 357.64 306.718 357.751 303.97C357.801 302.888 357.901 301.67 358.075 300.414C358.871 294.918 361.295 288.428 368.171 286.861C380.617 284.014 390.477 298.86 390.477 298.86C390.477 298.86 399.566 264.033 421.561 268.981C443.557 273.943 446.267 301.16 446.267 301.16C446.267 301.16 462.468 287.781 472.216 297.368C472.341 297.492 472.465 297.616 472.577 297.741C481.653 307.327 473.621 325.169 473.46 325.53C473.795 325.256 489.226 312.785 496.014 323.578C497.755 326.288 498.277 329.21 498.091 332.058Z" fill="#BEF941"/>
<path d="M167.79 334.718C167.802 334.955 167.827 335.178 167.852 335.415C168.697 343.397 175.635 349.365 183.655 349.365H271.151L331.865 328.265C331.865 328.265 333.469 313.942 328.719 307.862C327.749 306.631 326.531 305.735 324.964 305.362C323.708 305.064 322.477 304.964 321.296 305.002C313.774 305.263 308.017 311.331 308.017 311.331C308.017 311.331 308.241 309.378 308.129 306.631C308.079 305.549 307.98 304.33 307.806 303.075C307.01 297.579 304.585 291.088 297.709 289.522C285.263 286.675 275.403 301.52 275.403 301.52C275.403 301.52 266.314 266.694 244.319 271.642C222.324 276.603 219.613 303.821 219.613 303.821C219.613 303.821 203.412 290.442 193.664 300.028C193.54 300.153 193.416 300.277 193.304 300.401C184.227 309.988 192.259 327.83 192.421 328.191C192.085 327.917 176.655 315.446 169.866 326.239C168.125 328.949 167.603 331.871 167.79 334.718Z" fill="#98D517"/>
<path d="M423.291 337.939C423.278 338.126 423.266 338.312 423.253 338.499C422.781 343.198 418.665 346.692 413.94 346.692H310.691V348.06H280.353C280.353 348.06 275.727 334.557 283.436 332.244C291.145 329.932 298.866 334.557 298.866 334.557C298.866 334.557 294.627 322.21 305.034 319.127C315.453 316.043 325.86 324.908 325.86 324.908C325.86 324.908 327.825 311.405 337.137 305.189C339.226 303.796 341.676 302.764 344.56 302.341C345.94 302.13 347.42 302.068 348.999 302.155C352.282 302.354 355.179 303 357.728 303.958C370.447 308.745 374.463 321.054 374.463 321.054C374.463 321.054 386.81 310.635 396.459 316.043C406.02 321.402 401.171 334.358 401.096 334.557C401.37 334.333 413.132 324.61 420.381 331.088C422.694 333.14 423.403 335.564 423.291 337.939Z" fill="#ADCA41"/>
<path d="M154.573 347.426C152.77 353.68 142.873 358.852 127.38 358.852C111.888 358.852 94.7793 358.852 94.7793 347.177C94.7793 335.999 110.371 334.321 115.792 311.803C122.83 282.571 114.86 249.647 123.713 249.647C139.205 249.647 163.339 316.976 154.573 347.426Z" fill="#F580F7"/>
<path d="M123.227 327.109C124.806 321.303 125.95 313.954 123.687 308.148C122.27 304.517 120.231 302.254 117.781 300.601C117.309 304.343 116.675 308.098 115.78 311.791C110.358 334.321 94.7666 335.987 94.7666 347.165C94.7666 349.366 95.4007 351.131 96.4949 352.586C108.916 350.447 119.957 339.158 123.227 327.109Z" fill="#F580F7"/>
<path d="M123.712 249.647C116.475 249.647 120.467 271.63 118.328 295.614C132.043 302.577 143.183 315.483 142.201 331.523C141.579 341.706 137.215 352.238 129.108 358.827C143.593 358.454 152.844 353.456 154.572 347.438C163.338 316.976 139.204 249.647 123.712 249.647Z" fill="#ED56F0"/>
<path d="M208.672 271.916C207.826 275.584 205.551 278.779 202.07 281.49C196.4 285.929 187.472 289.137 176.071 291.288C169.68 292.494 162.506 293.352 154.685 293.911C147.361 294.446 139.453 294.695 131.11 294.695C119.336 294.695 108.357 294.011 98.5963 292.705C89.6564 291.524 81.7486 289.858 75.1214 287.744C62.6629 283.803 54.8296 278.357 53.636 271.904C52.8527 267.664 55.3021 261.111 60.1886 253.9C64.3787 247.708 70.3718 241.018 77.6455 234.901C85.7896 228.037 95.5376 221.883 106.193 217.904C114.101 214.932 122.531 213.154 131.148 213.154C143.047 213.154 154.511 216.81 164.818 222.33C172.577 226.471 179.664 231.693 185.806 237.201C193.291 243.94 199.334 251.114 203.338 257.356C207.366 263.635 209.356 268.969 208.672 271.916Z" fill="#543EFA"/>
<path d="M140.862 255.931C140.862 263.068 135.068 268.862 127.931 268.862C120.794 268.862 115 263.068 115 255.931C115 248.794 120.782 243 127.931 243C135.08 243 140.862 248.782 140.862 255.931Z" fill="#F580F7"/>
<path d="M100.772 285.518C100.772 288.191 99.9765 290.653 98.5839 292.705C89.6441 291.524 81.7363 289.858 75.1091 287.744C74.9723 287.023 74.9102 286.277 74.9102 285.506C74.9102 278.369 80.7043 272.575 87.8412 272.575C94.9782 272.587 100.772 278.369 100.772 285.518Z" fill="#F580F7"/>
<path d="M81.1639 243.803C81.1639 250.94 75.3698 256.734 68.2328 256.734C65.1741 256.734 62.3765 255.677 60.1758 253.912C64.3659 247.72 70.359 241.03 77.6327 234.913C79.8086 237.213 81.1639 240.347 81.1639 243.803Z" fill="#F580F7"/>
<path d="M131.135 213.154C131.135 220.291 125.341 226.085 118.204 226.085C112.745 226.085 108.058 222.703 106.168 217.904C114.076 214.945 122.506 213.154 131.135 213.154Z" fill="#F580F7"/>
<path d="M185.793 237.201C183.593 241.142 179.353 243.803 174.516 243.803C167.379 243.803 161.585 238.009 161.585 230.872C161.585 227.602 162.803 224.593 164.805 222.33C172.564 226.471 179.651 231.693 185.793 237.201Z" fill="#F580F7"/>
<path d="M177.438 285.518C177.438 287.582 176.953 289.559 176.071 291.288C169.68 292.494 162.505 293.352 154.685 293.911C152.745 291.661 151.576 288.726 151.576 285.518C151.576 278.382 157.37 272.587 164.507 272.587C171.644 272.587 177.438 278.369 177.438 285.518Z" fill="#F580F7"/>
<path d="M208.671 271.916C207.826 275.584 205.55 278.779 202.069 281.49C197.518 279.5 194.348 274.95 194.348 269.665C194.348 263.896 198.14 259.01 203.337 257.356C207.366 263.635 209.355 268.969 208.671 271.916Z" fill="#F580F7"/>
<path d="M376.825 344.914C372.337 360.518 347.631 373.399 308.987 373.399C270.343 373.399 227.658 373.399 227.658 344.267C227.658 316.378 266.538 312.213 280.066 256.038C297.623 183.126 277.729 101.014 299.836 101.014C338.48 101.027 398.671 268.969 376.825 344.914Z" fill="#F580F7"/>
<path d="M298.642 294.234C302.571 279.761 305.431 261.409 299.773 246.949C296.23 237.897 291.157 232.264 285.039 228.124C283.858 237.449 282.279 246.824 280.054 256.05C266.526 312.226 227.646 316.391 227.646 344.28C227.646 349.763 229.225 354.177 231.948 357.795C262.945 352.474 290.485 324.286 298.642 294.234Z" fill="#F580F7"/>
<path d="M299.836 101.027C281.782 101.027 291.742 155.847 286.42 215.678C320.625 233.048 348.402 265.239 345.977 305.226C344.436 330.64 333.531 356.9 313.314 373.313C349.459 372.38 372.511 359.922 376.838 344.914C398.671 268.969 338.48 101.027 299.836 101.027Z" fill="#ED56F0"/>
<path d="M511.743 156.581C509.63 165.732 503.96 173.69 495.269 180.466C481.119 191.532 458.85 199.527 430.427 204.898C414.487 207.895 396.595 210.058 377.074 211.426C358.809 212.756 339.076 213.391 318.275 213.391C288.894 213.391 261.503 211.687 237.157 208.442C214.851 205.483 195.131 201.33 178.607 196.083C147.523 186.26 128.002 172.658 125.005 156.581C123.053 146.012 129.171 129.65 141.356 111.67C151.8 96.2278 166.745 79.5417 184.886 64.2731C205.203 47.1644 229.498 31.8087 256.094 21.8618C275.826 14.4513 296.839 10 318.349 10C348.029 10 376.614 19.1139 402.339 32.8905C421.686 43.2104 439.379 56.241 454.697 69.9678C473.385 86.7782 488.443 104.683 498.439 120.237C508.498 135.941 513.459 149.22 511.743 156.581Z" fill="#543EFA"/>
<path d="M342.506 116.253C342.506 134.071 328.071 148.506 310.253 148.506C292.436 148.506 278 134.071 278 116.253C278 98.4355 292.436 84 310.253 84C328.058 83.9876 342.506 98.4355 342.506 116.253Z" fill="#F580F7"/>
<path d="M242.603 190.5C242.603 197.165 240.614 203.319 237.157 208.442C214.851 205.483 195.131 201.33 178.607 196.083C178.271 194.292 178.109 192.415 178.109 190.5C178.109 172.683 192.545 158.247 210.362 158.247C228.167 158.247 242.603 172.683 242.603 190.5Z" fill="#F580F7"/>
<path d="M193.702 86.4547C193.702 104.272 179.254 118.708 161.449 118.708C153.827 118.708 146.839 116.084 141.344 111.67C151.788 96.2276 166.733 79.5415 184.874 64.2729C190.333 70.0173 193.702 77.8381 193.702 86.4547Z" fill="#F580F7"/>
<path d="M318.349 10C318.349 27.8175 303.914 42.253 286.096 42.253C272.494 42.253 260.794 33.8106 256.094 21.8618C275.814 14.4637 296.827 10 318.349 10Z" fill="#F580F7"/>
<path d="M454.685 69.9802C449.19 79.8028 438.621 86.4672 426.548 86.4672C408.73 86.4672 394.295 72.0193 394.295 54.2142C394.295 46.0577 397.329 38.5726 402.327 32.9028C421.686 43.2104 439.38 56.2409 454.685 69.9802Z" fill="#F580F7"/>
<path d="M433.834 190.5C433.834 195.66 432.628 200.571 430.415 204.898C414.475 207.895 396.583 210.058 377.062 211.426C372.238 205.806 369.328 198.483 369.328 190.5C369.328 172.683 383.764 158.247 401.581 158.247C419.399 158.247 433.834 172.683 433.834 190.5Z" fill="#F580F7"/>
<path d="M511.744 156.581C509.63 165.732 503.96 173.69 495.269 180.466C483.905 175.517 475.997 164.153 475.997 150.961C475.997 136.563 485.447 124.365 498.427 120.25C508.499 135.941 513.46 149.22 511.744 156.581Z" fill="#F580F7"/>
<path d="M280.203 419.578C279.146 423.246 273.34 426.268 264.263 426.268C255.186 426.268 245.152 426.268 245.152 419.417C245.152 412.864 254.291 411.882 257.462 398.677C261.59 381.544 256.915 362.247 262.112 362.247C271.201 362.271 285.338 401.736 280.203 419.578Z" fill="#F580F7"/>
<path d="M261.839 407.667C262.759 404.26 263.43 399.958 262.1 396.551C261.267 394.425 260.073 393.095 258.643 392.125C258.37 394.313 257.997 396.527 257.474 398.69C254.291 411.895 245.165 412.877 245.165 419.429C245.165 420.723 245.538 421.755 246.172 422.6C253.446 421.357 259.911 414.742 261.839 407.667Z" fill="#F580F7"/>
<path d="M262.112 362.271C257.872 362.271 260.21 375.153 258.954 389.215C266.986 393.294 273.526 400.866 272.954 410.266C272.594 416.234 270.033 422.413 265.283 426.268C273.775 426.044 279.196 423.122 280.216 419.591C285.338 401.736 271.201 362.271 262.112 362.271Z" fill="#ED56F0"/>
<path d="M311.909 375.327C311.412 377.478 310.081 379.343 308.042 380.935C304.722 383.534 299.488 385.411 292.811 386.679C289.068 387.388 284.866 387.898 280.277 388.209C275.988 388.52 271.35 388.669 266.464 388.669C259.563 388.669 253.122 388.271 247.403 387.5C242.156 386.804 237.53 385.834 233.639 384.59C226.328 382.278 221.74 379.082 221.043 375.315C220.583 372.828 222.026 368.986 224.885 364.759C227.335 361.128 230.853 357.211 235.118 353.618C239.893 349.602 245.6 345.996 251.854 343.659C256.492 341.918 261.428 340.874 266.489 340.874C273.464 340.874 280.178 343.012 286.221 346.257C290.772 348.682 294.924 351.741 298.53 354.973C302.919 358.927 306.463 363.13 308.813 366.785C311.15 370.478 312.319 373.599 311.909 375.327Z" fill="#FBCCFC"/>
<path d="M293.744 391.591L293.741 391.592C289.768 392.344 285.366 392.875 280.627 393.196C276.2 393.517 271.444 393.669 266.464 393.669C259.381 393.669 252.716 393.261 246.741 392.456C241.295 391.733 236.369 390.711 232.123 389.355C228.182 388.108 224.66 386.531 221.924 384.545C219.218 382.581 216.797 379.851 216.127 376.224L293.744 391.591ZM293.744 391.591C300.668 390.276 306.851 388.215 311.12 384.876C313.822 382.766 315.959 379.988 316.777 376.467C317.324 374.141 316.711 371.782 316.087 370.076C315.394 368.179 314.327 366.148 313.038 364.111L313.028 364.096L313.019 364.082C310.401 360.01 306.556 355.474 301.877 351.258L301.868 351.251C298.02 347.8 293.543 344.494 288.579 341.848C282.008 338.321 274.484 335.874 266.489 335.874C260.74 335.874 255.209 337.059 250.1 338.976C243.221 341.548 237.028 345.478 231.9 349.792L231.897 349.794M293.744 391.591L231.897 349.794M231.897 349.794C227.321 353.649 223.479 357.903 220.742 361.96C219.154 364.308 217.862 366.688 217.026 368.967M231.897 349.794L217.026 368.967M217.026 368.967C216.223 371.153 215.664 373.72 216.127 376.224L217.026 368.967Z" fill="#543EFA" stroke="#402DD4" stroke-width="10"/>
<path d="M272.169 367.585C272.169 371.775 268.775 375.169 264.585 375.169C260.394 375.169 257 371.775 257 367.585C257 363.394 260.394 360 264.585 360C268.775 360 272.169 363.394 272.169 367.585Z" fill="#F580F7"/>
<path d="M248.671 383.297C248.671 384.864 248.199 386.306 247.391 387.512C242.144 386.816 237.518 385.846 233.627 384.603C233.552 384.18 233.515 383.745 233.515 383.297C233.515 379.107 236.909 375.712 241.099 375.712C245.277 375.712 248.671 379.107 248.671 383.297Z" fill="#F580F7"/>
<path d="M237.17 358.84C237.17 363.03 233.775 366.424 229.585 366.424C227.795 366.424 226.153 365.802 224.86 364.77C227.31 361.14 230.829 357.223 235.093 353.63C236.386 354.985 237.17 356.825 237.17 358.84Z" fill="#F580F7"/>
<path d="M266.464 340.885C266.464 345.075 263.069 348.47 258.879 348.47C255.684 348.47 252.936 346.48 251.829 343.683C256.467 341.93 261.415 340.885 266.464 340.885Z" fill="#F580F7"/>
<path d="M298.505 354.973C297.212 357.286 294.725 358.853 291.89 358.853C287.7 358.853 284.306 355.458 284.306 351.268C284.306 349.353 285.014 347.588 286.196 346.257C290.746 348.682 294.912 351.741 298.505 354.973Z" fill="#F580F7"/>
<path d="M293.607 383.297C293.607 384.516 293.321 385.66 292.799 386.679C289.056 387.388 284.854 387.898 280.266 388.209C279.134 386.891 278.45 385.162 278.45 383.285C278.45 379.095 281.845 375.7 286.035 375.7C290.212 375.713 293.607 379.107 293.607 383.297Z" fill="#F580F7"/>
<path d="M311.908 375.327C311.411 377.478 310.081 379.343 308.041 380.934C305.368 379.765 303.516 377.105 303.516 373.996C303.516 370.614 305.741 367.742 308.788 366.785C311.15 370.477 312.319 373.598 311.908 375.327Z" fill="#F580F7"/>
<path d="M399.417 359.4C400.686 363.814 407.661 367.444 418.59 367.444C429.507 367.444 441.568 367.444 441.568 359.213C441.568 351.33 430.576 350.161 426.759 334.283C421.798 313.681 427.418 290.479 421.176 290.479C410.247 290.492 393.25 337.939 399.417 359.4Z" fill="#F580F7"/>
<path d="M421.512 345.076C420.405 340.985 419.597 335.8 421.188 331.709C422.183 329.148 423.625 327.556 425.354 326.388C425.689 329.024 426.137 331.672 426.759 334.283C430.576 350.161 441.567 351.33 441.567 359.213C441.567 360.767 441.12 362.01 440.349 363.03C431.595 361.538 423.812 353.568 421.512 345.076Z" fill="#ED56F0"/>
<path d="M421.176 290.492C426.274 290.492 423.464 305.984 424.969 322.882C415.308 327.793 407.45 336.882 408.146 348.184C408.581 355.371 411.665 362.781 417.372 367.419C407.164 367.158 400.648 363.639 399.43 359.399C393.25 337.939 410.247 290.492 421.176 290.492Z" fill="#F580F7"/>
<path d="M361.296 306.183C361.892 308.769 363.496 311.02 365.946 312.935C369.949 316.068 376.241 318.318 384.261 319.835C388.762 320.681 393.822 321.29 399.33 321.675C404.49 322.048 410.061 322.235 415.942 322.235C424.247 322.235 431.981 321.75 438.857 320.83C445.161 319.997 450.731 318.816 455.406 317.336C464.184 314.563 469.705 310.721 470.551 306.171C471.098 303.187 469.369 298.561 465.925 293.488C462.978 289.124 458.751 284.412 453.628 280.097C447.884 275.26 441.02 270.921 433.511 268.111C427.94 266.022 421.997 264.754 415.917 264.754C407.537 264.754 399.455 267.328 392.181 271.219C386.71 274.141 381.712 277.822 377.385 281.701C372.1 286.451 367.848 291.511 365.026 295.9C362.216 300.352 360.811 304.107 361.296 306.183Z" fill="#BEF941"/>
<path d="M383.338 324.749L383.331 324.748C375.062 323.184 367.82 320.75 362.866 316.874L383.338 324.749ZM383.338 324.749C388.068 325.638 393.324 326.267 398.976 326.663C404.27 327.045 409.959 327.235 415.942 327.235C424.433 327.235 432.39 326.74 439.515 325.786C446.031 324.925 451.896 323.691 456.912 322.104C461.591 320.626 465.717 318.771 468.891 316.466C472.036 314.182 474.721 311.096 475.466 307.084L475.469 307.072M383.338 324.749L475.469 307.072M475.469 307.072C475.972 304.324 475.364 301.44 474.428 298.89C473.458 296.248 471.949 293.46 470.066 290.686C466.834 285.9 462.285 280.851 456.849 276.273L456.849 276.272M475.469 307.072L456.849 276.272M456.849 276.272C450.75 271.137 443.4 266.473 435.263 263.428M456.849 276.272L435.263 263.428M374.042 277.982L374.047 277.978C378.618 273.88 383.94 269.953 389.822 266.811L374.042 277.982ZM374.042 277.982C368.46 283 363.907 288.395 360.82 293.196L360.809 293.214M374.042 277.982L360.809 293.214M360.809 293.214L360.798 293.231M360.809 293.214L360.798 293.231M360.798 293.231C359.273 295.647 358.031 298.024 357.229 300.215C356.497 302.216 355.845 304.817 356.425 307.313C357.34 311.272 359.751 314.438 362.864 316.872L360.798 293.231ZM435.263 263.428C429.229 261.166 422.69 259.754 415.917 259.754M435.263 263.428L415.917 259.754M415.917 259.754C406.513 259.754 397.622 262.638 389.823 266.81L415.917 259.754Z" fill="#543EFA" stroke="#402DD4" stroke-width="10"/>
<path d="M409 295.114C409 300.15 413.078 304.228 418.114 304.228C423.15 304.228 427.228 300.15 427.228 295.114C427.228 290.078 423.15 286 418.114 286C413.078 286 409 290.078 409 295.114Z" fill="#F580F7"/>
<path d="M437.34 315.769C437.34 317.647 437.899 319.387 438.882 320.842C445.186 320.009 450.756 318.828 455.431 317.348C455.53 316.838 455.568 316.316 455.568 315.769C455.568 310.734 451.489 306.655 446.454 306.655C441.418 306.655 437.34 310.734 437.34 315.769Z" fill="#F580F7"/>
<path d="M451.154 286.376C451.154 291.412 455.233 295.49 460.268 295.49C462.419 295.49 464.396 294.744 465.95 293.501C463.004 289.137 458.776 284.424 453.653 280.11C452.112 281.726 451.154 283.939 451.154 286.376Z" fill="#F580F7"/>
<path d="M415.941 264.767C415.941 269.802 420.02 273.881 425.055 273.881C428.897 273.881 432.205 271.493 433.535 268.124C427.952 266.035 422.021 264.767 415.941 264.767Z" fill="#F580F7"/>
<path d="M377.422 281.713C378.976 284.486 381.96 286.376 385.367 286.376C390.403 286.376 394.481 282.298 394.481 277.262C394.481 274.962 393.623 272.836 392.206 271.244C386.747 274.154 381.749 277.834 377.422 281.713Z" fill="#F580F7"/>
<path d="M383.304 315.769C383.304 317.224 383.639 318.617 384.274 319.835C388.775 320.681 393.835 321.29 399.343 321.675C400.711 320.084 401.532 318.02 401.532 315.757C401.532 310.721 397.453 306.643 392.418 306.643C387.394 306.656 383.304 310.734 383.304 315.769Z" fill="#F580F7"/>
<path d="M361.295 306.184C361.892 308.77 363.496 311.02 365.946 312.935C369.154 311.53 371.392 308.322 371.392 304.604C371.392 300.539 368.718 297.095 365.05 295.926C362.216 300.352 360.811 304.107 361.295 306.184Z" fill="#F580F7"/>
<path d="M205.15 285.428L205.148 285.43C198.52 290.607 188.66 294 176.998 296.201C170.881 297.355 164.124 298.203 156.848 298.765C158.827 306.639 160.29 314.703 160.99 322.371C161.859 331.897 161.58 341.14 159.411 348.724C159.363 348.906 159.298 349.131 159.204 349.389C159.166 349.513 159.119 349.649 159.061 349.795C159.039 349.855 159.004 349.949 158.956 350.062C158.956 350.062 158.956 350.063 158.956 350.063C158.949 350.081 158.942 350.097 158.936 350.111L158.929 350.128C158.902 350.197 158.877 350.256 158.858 350.3C158.848 350.322 158.839 350.342 158.832 350.358L158.661 350.785L158.604 350.871C158.595 350.891 158.586 350.91 158.578 350.927V351.062L158.128 351.781L157.874 352.289L157.698 352.466C155.251 356.248 151.055 359.037 146.106 360.878C140.998 362.778 134.654 363.84 127.38 363.84H127.024C119.743 363.84 111.378 363.84 104.698 362.376C101.276 361.626 97.8093 360.398 95.0478 358.212C92.1114 355.888 90.1686 352.623 89.8326 348.462L89.8164 348.261V348.216C89.8162 348.212 89.8159 348.208 89.8157 348.204C89.8138 348.173 89.8117 348.137 89.8099 348.096C89.8082 348.075 89.8065 348.051 89.8048 348.027C89.802 347.985 89.7991 347.936 89.7968 347.882C89.7788 347.581 89.779 347.323 89.7791 347.192L89.7791 347.164C89.7791 343.027 91.2812 339.805 93.2875 337.107C94.7516 335.137 96.6808 333.222 98.4407 331.474C98.8726 331.045 99.2942 330.627 99.6963 330.22C103.945 325.921 108.518 320.648 110.931 310.621L110.933 310.612C111.773 307.145 112.378 303.581 112.833 299.974L112.941 299.122C107.708 298.78 102.691 298.294 97.9368 297.661L97.9346 297.661C88.7899 296.44 80.5845 294.721 73.6102 292.51C67.0913 290.447 61.4724 287.896 57.2195 284.805C52.9965 281.736 49.6488 277.776 48.7214 272.823L48.7192 272.811C48.0953 269.435 48.824 265.752 50.0916 262.295C51.3933 258.744 53.4453 254.937 56.0493 251.094L56.0502 251.093C60.5205 244.5 66.8323 237.461 74.4268 231.074L205.15 285.428ZM205.15 285.428C209.291 282.189 212.38 278.09 213.544 273.039M205.15 285.428L213.544 273.039M189.144 233.478L189.152 233.485C196.929 240.487 203.274 247.996 207.546 254.656L189.144 233.478ZM189.144 233.478C182.759 227.752 175.347 222.282 167.176 217.921M189.144 233.478L167.176 217.921M213.544 273.039C214.221 270.11 213.473 266.9 212.464 264.158M213.544 273.039L212.464 264.158M212.464 264.158C211.386 261.229 209.688 257.994 207.546 254.656L212.464 264.158ZM167.176 217.921C156.343 212.119 144.07 208.154 131.148 208.154C121.826 208.154 112.814 210.087 104.441 213.221L167.176 217.921ZM104.441 213.221C93.1468 217.446 82.9254 223.925 74.4272 231.074L104.441 213.221Z" stroke="#402DD4" stroke-width="10"/>
<mask id="path-54-outside-1_2124_4" maskUnits="userSpaceOnUse" x="114.644" y="0.012207" width="408" height="437" fill="black">
<rect fill="white" x="114.644" y="0.012207" width="408" height="437"/>
<path d="M498.439 120.249C488.455 104.682 473.385 86.7904 454.698 69.98C439.379 56.2532 421.699 43.2226 402.339 32.9027C376.614 19.1261 348.029 10.0122 318.35 10.0122C296.827 10.0122 275.814 14.4635 256.094 21.874C229.498 31.8209 205.203 47.1766 184.886 64.2853C166.745 79.5539 151.8 96.2524 141.356 111.683C129.158 129.662 123.041 146.025 125.005 156.593C128.002 172.658 147.523 186.26 178.607 196.095C195.131 201.342 214.851 205.495 237.157 208.454C252.538 210.506 269.124 211.936 286.668 212.719C286.594 213.714 286.507 214.696 286.42 215.691C286.42 215.691 286.42 215.691 286.432 215.691C286.233 217.966 286.009 220.241 285.761 222.529C285.388 222.579 285.015 222.641 284.642 222.716C262.51 227.067 259.053 254.198 259.053 254.198C259.053 254.198 243.225 240.372 233.216 249.684C223.219 258.997 231.202 277.809 231.202 277.809C231.202 277.809 222.697 272.127 215.523 282.845C212.526 287.321 212.626 293.886 213.77 299.991C208.162 296.957 199.682 294.11 193.664 300.041C193.54 300.165 193.416 300.29 193.304 300.414C184.227 310 192.259 327.843 192.421 328.203C192.085 327.93 176.655 315.459 169.866 326.251C168.15 328.974 167.628 331.896 167.802 334.743C167.815 334.98 167.839 335.203 167.864 335.44C168.71 343.422 175.648 349.39 183.668 349.39H228.155C228.74 352.3 229.822 354.849 231.363 357.099C228.777 359.673 226.589 362.309 224.898 364.808C222.038 369.036 220.596 372.878 221.056 375.364C221.764 379.144 226.353 382.34 233.651 384.64C237.53 385.871 242.168 386.853 247.415 387.549C251.033 388.034 254.925 388.37 259.053 388.556C259.028 388.793 259.016 389.017 258.991 389.253C258.904 390.223 258.805 391.205 258.68 392.187C258.68 392.187 258.68 392.187 258.668 392.175C258.394 394.363 258.021 396.564 257.499 398.74C254.316 411.944 245.19 412.927 245.19 419.479C245.19 419.579 245.19 419.666 245.202 419.753C245.202 419.79 245.202 419.827 245.214 419.877C245.214 419.927 245.214 419.964 245.227 420.001C245.227 420.063 245.239 420.113 245.239 420.175C245.911 426.318 255.547 426.318 264.313 426.318C270.94 426.318 275.814 424.701 278.375 422.413L278.388 422.401C278.487 422.314 278.587 422.227 278.674 422.128C278.686 422.115 278.698 422.103 278.711 422.09C278.798 422.003 278.873 421.916 278.96 421.841C278.972 421.817 278.997 421.804 279.009 421.779C279.084 421.705 279.146 421.618 279.221 421.543C279.246 421.518 279.258 421.493 279.283 421.456C279.345 421.382 279.395 421.307 279.457 421.232C279.482 421.195 279.507 421.158 279.532 421.133C279.581 421.058 279.631 420.996 279.668 420.921C279.693 420.884 279.718 420.834 279.743 420.797C279.78 420.735 279.817 420.673 279.855 420.611C279.88 420.561 279.905 420.511 279.929 420.461C279.954 420.399 279.992 420.349 280.016 420.287C280.041 420.225 280.066 420.163 280.091 420.101C280.116 420.051 280.128 420.014 280.153 419.964C280.19 419.852 280.228 419.74 280.265 419.628C282.54 411.708 281.024 399.523 277.828 388.42C278.674 388.37 279.507 388.32 280.315 388.258C284.903 387.935 289.105 387.425 292.848 386.729C299.525 385.46 304.759 383.595 308.079 380.984C310.118 379.393 311.449 377.528 311.946 375.377C312.071 374.855 312.046 374.196 311.884 373.437C346.599 372.853 369.514 361.7 375.818 347.749C375.918 347.525 376.017 347.301 376.117 347.065C376.117 347.053 376.117 347.053 376.129 347.04C376.166 346.941 376.216 346.841 376.253 346.742H394.755H398.161C398.025 351.479 398.41 355.831 399.442 359.449C399.467 359.511 399.479 359.586 399.504 359.648C399.517 359.673 399.529 359.71 399.542 359.735C399.554 359.772 399.567 359.81 399.579 359.847C399.591 359.884 399.604 359.922 399.616 359.959C399.629 359.984 399.641 360.021 399.654 360.046C399.666 360.083 399.691 360.133 399.703 360.17C399.716 360.195 399.728 360.22 399.741 360.245C399.765 360.295 399.778 360.332 399.803 360.382C399.815 360.407 399.815 360.419 399.828 360.444C399.853 360.494 399.877 360.543 399.902 360.593C399.915 360.606 399.915 360.618 399.927 360.643C399.952 360.693 399.989 360.755 400.014 360.804C400.014 360.817 400.027 360.829 400.027 360.829C400.064 360.891 400.089 360.941 400.126 361.003L400.138 361.016C400.176 361.078 400.213 361.14 400.263 361.202C402.663 364.796 409.165 367.519 418.603 367.519C429.233 367.519 440.946 367.519 441.555 359.922C441.555 359.872 441.568 359.822 441.568 359.76C441.568 359.71 441.568 359.661 441.58 359.611C441.58 359.499 441.592 359.387 441.592 359.275C441.592 354.227 437.079 351.927 432.839 346.754H482.251C490.283 346.754 497.221 340.799 498.054 332.804C498.079 332.568 498.104 332.344 498.116 332.107C498.303 329.26 497.78 326.338 496.052 323.615C489.263 312.823 473.833 325.294 473.497 325.567C473.659 325.207 481.691 307.364 472.615 297.778C472.503 297.654 472.378 297.529 472.254 297.405C470.476 295.664 468.499 294.682 466.435 294.234C466.286 294.011 466.137 293.774 465.975 293.551C463.028 289.186 458.801 284.474 453.678 280.159C447.934 275.323 441.07 270.983 433.56 268.173C429.979 266.83 426.249 265.836 422.432 265.289C422.818 259.88 421.922 253.862 417.471 249.722C407.474 240.409 391.634 254.235 391.634 254.235C391.634 254.235 388.55 230.114 369.651 223.723C368.656 219.856 367.599 216.001 366.505 212.172C370.086 211.973 373.617 211.737 377.099 211.488C396.62 210.12 414.512 207.957 430.452 204.96C458.875 199.589 481.144 191.607 495.294 180.528C503.997 173.752 509.655 165.794 511.768 156.643C513.472 149.22 508.511 135.941 498.439 120.249Z"/>
</mask>
<path d="M498.439 120.249C488.455 104.682 473.385 86.7904 454.698 69.98C439.379 56.2532 421.699 43.2226 402.339 32.9027C376.614 19.1261 348.029 10.0122 318.35 10.0122C296.827 10.0122 275.814 14.4635 256.094 21.874C229.498 31.8209 205.203 47.1766 184.886 64.2853C166.745 79.5539 151.8 96.2524 141.356 111.683C129.158 129.662 123.041 146.025 125.005 156.593C128.002 172.658 147.523 186.26 178.607 196.095C195.131 201.342 214.851 205.495 237.157 208.454C252.538 210.506 269.124 211.936 286.668 212.719C286.594 213.714 286.507 214.696 286.42 215.691C286.42 215.691 286.42 215.691 286.432 215.691C286.233 217.966 286.009 220.241 285.761 222.529C285.388 222.579 285.015 222.641 284.642 222.716C262.51 227.067 259.053 254.198 259.053 254.198C259.053 254.198 243.225 240.372 233.216 249.684C223.219 258.997 231.202 277.809 231.202 277.809C231.202 277.809 222.697 272.127 215.523 282.845C212.526 287.321 212.626 293.886 213.77 299.991C208.162 296.957 199.682 294.11 193.664 300.041C193.54 300.165 193.416 300.29 193.304 300.414C184.227 310 192.259 327.843 192.421 328.203C192.085 327.93 176.655 315.459 169.866 326.251C168.15 328.974 167.628 331.896 167.802 334.743C167.815 334.98 167.839 335.203 167.864 335.44C168.71 343.422 175.648 349.39 183.668 349.39H228.155C228.74 352.3 229.822 354.849 231.363 357.099C228.777 359.673 226.589 362.309 224.898 364.808C222.038 369.036 220.596 372.878 221.056 375.364C221.764 379.144 226.353 382.34 233.651 384.64C237.53 385.871 242.168 386.853 247.415 387.549C251.033 388.034 254.925 388.37 259.053 388.556C259.028 388.793 259.016 389.017 258.991 389.253C258.904 390.223 258.805 391.205 258.68 392.187C258.68 392.187 258.68 392.187 258.668 392.175C258.394 394.363 258.021 396.564 257.499 398.74C254.316 411.944 245.19 412.927 245.19 419.479C245.19 419.579 245.19 419.666 245.202 419.753C245.202 419.79 245.202 419.827 245.214 419.877C245.214 419.927 245.214 419.964 245.227 420.001C245.227 420.063 245.239 420.113 245.239 420.175C245.911 426.318 255.547 426.318 264.313 426.318C270.94 426.318 275.814 424.701 278.375 422.413L278.388 422.401C278.487 422.314 278.587 422.227 278.674 422.128C278.686 422.115 278.698 422.103 278.711 422.09C278.798 422.003 278.873 421.916 278.96 421.841C278.972 421.817 278.997 421.804 279.009 421.779C279.084 421.705 279.146 421.618 279.221 421.543C279.246 421.518 279.258 421.493 279.283 421.456C279.345 421.382 279.395 421.307 279.457 421.232C279.482 421.195 279.507 421.158 279.532 421.133C279.581 421.058 279.631 420.996 279.668 420.921C279.693 420.884 279.718 420.834 279.743 420.797C279.78 420.735 279.817 420.673 279.855 420.611C279.88 420.561 279.905 420.511 279.929 420.461C279.954 420.399 279.992 420.349 280.016 420.287C280.041 420.225 280.066 420.163 280.091 420.101C280.116 420.051 280.128 420.014 280.153 419.964C280.19 419.852 280.228 419.74 280.265 419.628C282.54 411.708 281.024 399.523 277.828 388.42C278.674 388.37 279.507 388.32 280.315 388.258C284.903 387.935 289.105 387.425 292.848 386.729C299.525 385.46 304.759 383.595 308.079 380.984C310.118 379.393 311.449 377.528 311.946 375.377C312.071 374.855 312.046 374.196 311.884 373.437C346.599 372.853 369.514 361.7 375.818 347.749C375.918 347.525 376.017 347.301 376.117 347.065C376.117 347.053 376.117 347.053 376.129 347.04C376.166 346.941 376.216 346.841 376.253 346.742H394.755H398.161C398.025 351.479 398.41 355.831 399.442 359.449C399.467 359.511 399.479 359.586 399.504 359.648C399.517 359.673 399.529 359.71 399.542 359.735C399.554 359.772 399.567 359.81 399.579 359.847C399.591 359.884 399.604 359.922 399.616 359.959C399.629 359.984 399.641 360.021 399.654 360.046C399.666 360.083 399.691 360.133 399.703 360.17C399.716 360.195 399.728 360.22 399.741 360.245C399.765 360.295 399.778 360.332 399.803 360.382C399.815 360.407 399.815 360.419 399.828 360.444C399.853 360.494 399.877 360.543 399.902 360.593C399.915 360.606 399.915 360.618 399.927 360.643C399.952 360.693 399.989 360.755 400.014 360.804C400.014 360.817 400.027 360.829 400.027 360.829C400.064 360.891 400.089 360.941 400.126 361.003L400.138 361.016C400.176 361.078 400.213 361.14 400.263 361.202C402.663 364.796 409.165 367.519 418.603 367.519C429.233 367.519 440.946 367.519 441.555 359.922C441.555 359.872 441.568 359.822 441.568 359.76C441.568 359.71 441.568 359.661 441.58 359.611C441.58 359.499 441.592 359.387 441.592 359.275C441.592 354.227 437.079 351.927 432.839 346.754H482.251C490.283 346.754 497.221 340.799 498.054 332.804C498.079 332.568 498.104 332.344 498.116 332.107C498.303 329.26 497.78 326.338 496.052 323.615C489.263 312.823 473.833 325.294 473.497 325.567C473.659 325.207 481.691 307.364 472.615 297.778C472.503 297.654 472.378 297.529 472.254 297.405C470.476 295.664 468.499 294.682 466.435 294.234C466.286 294.011 466.137 293.774 465.975 293.551C463.028 289.186 458.801 284.474 453.678 280.159C447.934 275.323 441.07 270.983 433.56 268.173C429.979 266.83 426.249 265.836 422.432 265.289C422.818 259.88 421.922 253.862 417.471 249.722C407.474 240.409 391.634 254.235 391.634 254.235C391.634 254.235 388.55 230.114 369.651 223.723C368.656 219.856 367.599 216.001 366.505 212.172C370.086 211.973 373.617 211.737 377.099 211.488C396.62 210.12 414.512 207.957 430.452 204.96C458.875 199.589 481.144 191.607 495.294 180.528C503.997 173.752 509.655 165.794 511.768 156.643C513.472 149.22 508.511 135.941 498.439 120.249Z" stroke="#402DD4" stroke-width="20" mask="url(#path-54-outside-1_2124_4)"/>
</svg>
