<svg width="133" height="133" viewBox="0 0 133 133" fill="none" xmlns="http://www.w3.org/2000/svg">
<path d="M121 66.5C121 96.5995 96.5995 121 66.5 121C36.4005 121 12 96.5995 12 66.5C12 36.4005 36.4005 12 66.5 12C96.5995 12 121 36.4005 121 66.5Z" fill="#FFC412" stroke="#FFE8A1" stroke-width="8"/>
<path fill-rule="evenodd" clip-rule="evenodd" d="M132.57 66.4997C132.57 102.989 102.989 132.57 66.4997 132.57C30.0102 132.57 0.429688 102.989 0.429688 66.4997C0.429688 30.0102 30.0102 0.429688 66.4997 0.429688C102.989 0.429688 132.57 30.0102 132.57 66.4997ZM66.4997 125C98.8083 125 125 98.8083 125 66.4997C125 34.191 98.8083 7.99969 66.4997 7.99969C34.191 7.99969 7.99969 34.191 7.99969 66.4997C7.99969 98.8083 34.191 125 66.4997 125Z" fill="#543EFA"/>
<path fill-rule="evenodd" clip-rule="evenodd" d="M65.1765 41.5532L70.4375 42.8216L71.7159 37.519L82.238 40.0558L80.9595 45.3584L85.7692 46.518L92.0847 56.9383L89.108 69.285L85.2772 71.6482L87.6101 75.4975L84.6334 87.8441L74.2631 94.2415L69.4535 93.0819L68.175 98.3845L57.653 95.8477L58.9315 90.5451L53.6704 89.2766L52.392 94.5792L41.87 92.0424L43.1484 86.7398L37.8874 85.4714L40.4443 74.8662L45.7053 76.1346L52.0975 49.6216L46.8365 48.3531L49.3934 37.7479L54.6544 39.0163L55.9329 33.7137L66.4549 36.2506L65.1765 41.5532ZM56.2273 78.6714L72.4618 82.5855L75.1704 80.9146L76.029 77.3533L74.3795 74.6316L58.145 70.7175L56.2273 78.6714ZM60.7019 60.1123L62.6196 52.1584L78.854 56.0725L80.5036 58.7943L79.645 62.3554L76.9364 64.0264L60.7019 60.1123Z" fill="#CA9313"/>
<path fill-rule="evenodd" clip-rule="evenodd" d="M132.57 66.4997C132.57 102.989 102.989 132.57 66.4997 132.57C30.0102 132.57 0.429688 102.989 0.429688 66.4997C0.429688 30.0102 30.0102 0.429688 66.4997 0.429688C102.989 0.429688 132.57 30.0102 132.57 66.4997ZM66.4997 125C98.8083 125 125 98.8083 125 66.4997C125 34.191 98.8083 7.99969 66.4997 7.99969C34.191 7.99969 7.99969 34.191 7.99969 66.4997C7.99969 98.8083 34.191 125 66.4997 125Z" fill="#543EFA"/>
<path fill-rule="evenodd" clip-rule="evenodd" d="M65.1765 41.5532L70.4375 42.8216L71.7159 37.519L82.238 40.0558L80.9595 45.3584L85.7692 46.518L92.0847 56.9383L89.108 69.285L85.2772 71.6482L87.6101 75.4975L84.6334 87.8441L74.2631 94.2415L69.4535 93.0819L68.175 98.3845L57.653 95.8477L58.9315 90.5451L53.6704 89.2766L52.392 94.5792L41.87 92.0424L43.1484 86.7398L37.8874 85.4714L40.4443 74.8662L45.7053 76.1346L52.0975 49.6216L46.8365 48.3531L49.3934 37.7479L54.6544 39.0163L55.9329 33.7137L66.4549 36.2506L65.1765 41.5532ZM56.2273 78.6714L72.4618 82.5855L75.1704 80.9146L76.029 77.3533L74.3795 74.6316L58.145 70.7175L56.2273 78.6714ZM60.7019 60.1123L62.6196 52.1584L78.854 56.0725L80.5036 58.7943L79.645 62.3554L76.9364 64.0264L60.7019 60.1123Z" fill="#FFE8A1"/>
</svg>
