<svg width="808" height="454" viewBox="0 0 808 454" fill="none" xmlns="http://www.w3.org/2000/svg">
<path d="M791.832 380.058C787.409 380.058 783.404 381.851 780.445 384.72L686.574 280.12L746.674 200.952L647.483 233.139L695.57 136.817L607.376 185.89L635.439 83.6804L558.304 151.82L564.311 41.5712L497.157 128.778L491.599 17.543L436.997 105.706L408.396 0L377.883 108.755L327.226 3.94493L310.729 117.75L244.592 25.5524L251.585 135.771L169.429 49.5806L199.225 165.837L101.23 103.704L155.114 207.169L41.9064 159.859L110.315 250.712C110.315 250.712 3.05477 232.034 0.0661826 233.139C-2.9224 234.245 96.2986 330.239 96.2986 330.239C96.2986 350.441 104.547 368.821 117.846 382.15C131.145 395.449 149.525 403.758 169.758 403.758H181.951C183.685 403.758 185.119 405.192 185.119 406.926V453.398H222.327V406.926C222.327 405.192 223.762 403.758 225.495 403.758H262.016C263.749 403.758 265.154 405.192 265.154 406.926V453.398H302.361V406.926C302.361 405.192 303.796 403.758 305.529 403.758H461.563C463.297 403.758 464.731 405.192 464.731 406.926V453.398H501.939V406.926C501.939 405.192 503.314 403.758 505.077 403.758H541.628C543.361 403.758 544.795 405.192 544.795 406.926V453.398H582.003V406.926C582.003 405.192 583.438 403.758 585.171 403.758H806.117C807.313 401.516 808 398.976 808 396.286C808 387.321 800.738 380.058 791.832 380.058ZM622.409 358.092C604.567 358.092 590.043 343.627 590.043 325.786C590.043 307.944 604.567 293.419 622.409 293.419C640.191 293.419 654.716 307.944 654.716 325.786C654.716 343.627 640.191 358.092 622.409 358.092Z" fill="#FBCCFC"/>
<path d="M641.266 325.783C641.266 336.183 632.808 344.641 622.408 344.641C611.978 344.641 603.49 336.183 603.49 325.783C603.49 315.353 611.948 306.865 622.408 306.865C632.808 306.865 641.266 315.353 641.266 325.783Z" fill="#FBCCFC"/>
<path d="M791.832 380.058C787.409 380.058 783.404 381.851 780.445 384.72L686.574 280.12L746.674 200.952L647.483 233.139L695.57 136.817L607.376 185.89L635.439 83.6804L558.304 151.82L564.311 41.5712L497.157 128.778L491.599 17.543L436.997 105.706L408.396 0L377.883 108.755L327.226 3.94493L310.729 117.75L244.592 25.5524L251.585 135.771L169.429 49.5806L199.225 165.837L101.23 103.704L155.114 207.169L41.9064 159.859L110.315 250.712C110.315 250.712 3.05477 232.034 0.0661826 233.139C-2.9224 234.245 96.2986 330.239 96.2986 330.239C96.2986 350.441 104.547 368.821 117.846 382.15C131.145 395.449 149.525 403.758 169.758 403.758H181.951C183.685 403.758 185.119 405.192 185.119 406.926V453.398H222.327V406.926C222.327 405.192 223.762 403.758 225.495 403.758H262.016C263.749 403.758 265.154 405.192 265.154 406.926V453.398H302.361V406.926C302.361 405.192 303.796 403.758 305.529 403.758H461.563C463.297 403.758 464.731 405.192 464.731 406.926V453.398H501.939V406.926C501.939 405.192 503.314 403.758 505.077 403.758H541.628C543.361 403.758 544.795 405.192 544.795 406.926V453.398H582.003V406.926C582.003 405.192 583.438 403.758 585.171 403.758H806.117C807.313 401.516 808 398.976 808 396.286C808 387.321 800.738 380.058 791.832 380.058ZM622.409 358.092C604.567 358.092 590.043 343.627 590.043 325.786C590.043 307.944 604.567 293.419 622.409 293.419C640.191 293.419 654.716 307.944 654.716 325.786C654.716 343.627 640.191 358.092 622.409 358.092Z" fill="#FBCCFC"/>
<path d="M269.396 228.508V264.73H252.899V234.246C252.899 232.782 252.84 230.899 252.66 228.628C252.511 226.356 252.033 224.025 251.196 221.724C250.329 219.393 248.954 217.45 247.072 215.896C245.189 214.342 242.499 213.565 239.062 213.565C237.658 213.565 236.163 213.804 234.549 214.253C232.995 214.701 231.501 215.508 230.096 216.763C228.692 218.018 227.586 219.871 226.66 222.292C225.793 224.713 225.345 227.97 225.345 232.005V264.73H208.848V188.342H225.345V204.809C226.331 203.942 227.347 203.165 228.453 202.388C232.637 199.668 237.867 198.264 244.232 198.264C249.283 198.264 253.407 199.13 256.575 200.834C259.773 202.567 262.254 204.719 264.047 207.349C265.78 210.009 267.065 212.729 267.842 215.598C268.56 218.407 269.068 221.037 269.187 223.368C269.307 225.729 269.396 227.432 269.396 228.508Z" fill="#F580F7"/>
<path d="M269.156 303.851C269.306 306.242 269.395 307.915 269.395 308.991V345.213H252.898V314.729C252.898 313.265 252.839 311.382 252.659 309.111C252.51 306.839 252.032 304.508 251.195 302.207C250.328 299.876 248.953 297.933 247.071 296.379C245.188 294.825 242.498 294.048 239.061 294.048C237.657 294.048 236.162 294.287 234.549 294.736C232.994 295.184 231.5 295.991 230.096 297.246C228.691 298.501 227.585 300.354 226.659 302.775C225.792 305.196 225.344 308.453 225.344 312.488V345.213H208.847V268.705H225.344V285.322C226.33 284.455 227.346 283.678 228.452 282.901C232.636 280.181 237.866 278.777 244.232 278.777C249.282 278.777 253.406 279.643 256.574 281.347C259.772 283.08 262.253 285.232 264.046 287.862C265.779 290.522 267.064 293.241 267.841 296.11C268.529 298.92 269.007 301.52 269.156 303.851Z" fill="#F580F7"/>
<path d="M341.777 216.613C339.506 210.845 336.009 206.362 331.228 203.164C326.476 199.996 320.738 198.412 313.954 198.412C307.588 198.412 301.969 199.877 297.068 202.746C292.167 205.645 288.342 209.679 285.502 214.879C282.723 220.109 281.318 226.236 281.318 233.319C281.318 239.774 282.723 245.453 285.592 250.473C288.461 255.464 292.376 259.409 297.427 262.278C302.478 265.147 308.305 266.552 314.91 266.552C321.126 266.552 326.864 264.908 332.094 261.651C337.324 258.393 341.18 253.791 343.6 247.903L327.343 243.241C326.117 245.871 324.444 247.903 322.142 249.248C319.871 250.653 317.151 251.34 313.924 251.34C308.873 251.34 305.048 249.696 302.418 246.439C300.535 244.018 299.31 240.85 298.831 237.025H344.138C344.856 229.195 344.019 222.381 341.777 216.613ZM299.34 224.921C299.967 221.962 300.983 219.482 302.448 217.539C305.078 214.192 309.142 212.489 314.671 212.489C319.423 212.489 322.83 213.953 324.922 216.822C326.267 218.705 327.163 221.484 327.641 224.921H299.34Z" fill="#F580F7"/>
<path d="M399.19 188.342V202.328C395.156 199.758 390.344 198.383 384.636 198.383C378.479 198.383 373.07 199.848 368.527 202.806C363.925 205.765 360.368 209.8 357.858 214.91C355.348 220.051 354.062 225.878 354.062 232.423C354.062 238.879 355.288 244.706 357.798 249.847C360.279 254.957 363.775 259.022 368.198 262.04C372.651 264.999 377.852 266.493 383.829 266.493C390.224 266.493 395.574 264.999 399.907 262.04C400.386 261.711 400.834 261.263 401.252 260.934V264.73H415.627V188.342H399.19ZM399.818 242.734C398.831 245.693 397.307 247.964 395.096 249.638C392.914 251.251 390.045 252.058 386.399 252.058C382.902 252.058 380.033 251.192 377.792 249.428C375.55 247.695 373.907 245.304 372.801 242.345C371.725 239.387 371.187 236.069 371.187 232.453C371.187 228.897 371.755 225.609 372.891 222.651C373.996 219.692 375.7 217.301 378.031 215.508C380.362 213.774 383.321 212.878 386.967 212.878C390.374 212.878 393.093 213.655 395.185 215.299C397.277 216.942 398.831 219.244 399.788 222.202C400.714 225.101 401.192 228.568 401.192 232.453C401.222 236.368 400.744 239.775 399.818 242.734Z" fill="#F580F7"/>
<path d="M475.938 200.206V203.792C475.549 203.493 475.221 203.164 474.772 202.865C470.588 199.907 465.448 198.412 459.321 198.412C453.105 198.412 447.756 199.877 443.153 202.835C438.581 205.794 435.054 209.829 432.514 214.939C429.944 220.08 428.688 225.907 428.688 232.452C428.688 238.908 429.944 244.735 432.424 249.876C434.935 254.986 438.401 259.051 442.854 262.069C447.307 265.028 452.507 266.522 458.455 266.522C464.581 266.522 469.722 265.118 473.906 262.398V268.913C473.995 271.304 473.368 273.336 472.053 274.92C470.798 276.534 469.034 277.729 466.912 278.566C464.791 279.403 462.459 279.792 460.009 279.792C457.767 279.792 455.646 279.313 453.703 278.297C451.82 277.341 450.296 275.876 449.28 273.964L434.217 281.256C435.831 284.035 437.953 286.456 440.583 288.578C443.153 290.67 446.112 292.254 449.429 293.419C452.776 294.645 456.213 295.213 459.919 295.213C464.671 295.213 469.034 294.585 473.129 293.33C477.193 292.075 480.6 290.162 483.409 287.592C486.219 285.081 488.161 281.824 489.177 277.879C489.506 276.474 489.805 275.07 489.895 273.665C490.044 272.26 490.134 270.766 490.134 269.152V200.206H475.938ZM474.474 242.733C473.547 245.692 471.963 247.963 469.811 249.637C467.63 251.251 464.701 252.057 461.085 252.057C457.588 252.057 454.719 251.191 452.478 249.427C450.236 247.694 448.592 245.303 447.517 242.345C446.441 239.386 445.903 236.069 445.903 232.452C445.903 228.896 446.441 225.608 447.546 222.65C448.652 219.691 450.415 217.3 452.747 215.507C455.078 213.774 458.036 212.877 461.682 212.877C465.089 212.877 467.809 213.654 469.901 215.298C471.993 216.942 473.547 219.243 474.474 222.201C475.43 225.1 475.938 228.567 475.938 232.452C475.938 236.367 475.46 239.774 474.474 242.733Z" fill="#F580F7"/>
<path d="M563.744 216.613C561.472 210.845 557.976 206.362 553.194 203.164C548.472 199.996 542.704 198.412 535.92 198.412C529.554 198.412 523.936 199.877 519.034 202.746C514.133 205.645 510.308 209.679 507.528 214.879C504.719 220.109 503.314 226.236 503.314 233.319C503.314 239.774 504.779 245.453 507.588 250.473C510.457 255.464 514.372 259.409 519.423 262.278C524.474 265.147 530.301 266.552 536.906 266.552C543.122 266.552 548.86 264.908 554.09 261.651C559.32 258.393 563.176 253.791 565.597 247.903L549.339 243.241C548.173 245.871 546.44 247.903 544.138 249.248C541.867 250.653 539.148 251.34 535.92 251.34C530.869 251.34 527.044 249.696 524.474 246.439C522.531 244.018 521.365 240.85 520.828 237.025H566.134C566.792 229.195 566.015 222.381 563.744 216.613ZM521.306 224.921C521.933 221.962 522.949 219.482 524.474 217.539C527.044 214.192 531.138 212.489 536.667 212.489C541.419 212.489 544.826 213.953 546.918 216.822C548.263 218.705 549.159 221.484 549.637 224.921H521.306Z" fill="#F580F7"/>
<path d="M342.614 295.336C339.835 290.195 336.009 286.221 331.108 283.292C326.147 280.393 320.469 278.928 313.954 278.928C307.588 278.928 301.969 280.333 297.068 283.202C292.167 286.071 288.342 290.106 285.502 295.186C282.723 300.327 281.318 306.244 281.318 312.968C281.318 319.633 282.663 325.55 285.383 330.631C288.162 335.771 291.928 339.746 296.829 342.675C301.73 345.574 307.409 347.038 313.924 347.038C320.379 347.038 326.057 345.574 331.019 342.705C335.92 339.806 339.745 335.801 342.525 330.661C345.304 325.55 346.709 319.633 346.709 312.939C346.738 306.304 345.334 300.416 342.614 295.336ZM325.669 326.537C323.099 330.093 319.214 331.826 313.954 331.826C308.903 331.826 305.078 330.123 302.448 326.716C299.877 323.309 298.562 318.706 298.562 312.939C298.562 309.203 299.1 305.945 300.176 303.076C301.282 300.267 302.986 298.026 305.227 296.471C307.498 294.858 310.427 294.051 313.954 294.051C319.094 294.051 322.979 295.784 325.609 299.191C328.179 302.628 329.494 307.2 329.494 312.939C329.494 318.467 328.239 323.04 325.669 326.537Z" fill="#F580F7"/>
<path d="M403.492 280.692V284.338C403.104 284.009 402.775 283.65 402.387 283.381C398.173 280.423 393.003 278.928 386.906 278.928C380.749 278.928 375.34 280.393 370.738 283.352C366.165 286.31 362.639 290.345 360.098 295.455C357.588 300.596 356.303 306.423 356.303 312.968C356.303 319.424 357.528 325.252 359.979 330.392C362.489 335.502 365.956 339.567 370.409 342.585C374.862 345.544 380.062 347.038 386.009 347.038C392.136 347.038 397.276 345.634 401.46 342.914V349.429C401.55 351.82 400.922 353.852 399.667 355.436C398.352 357.05 396.619 358.245 394.467 359.082C392.315 359.919 390.044 360.308 387.563 360.308C385.322 360.308 383.2 359.829 381.287 358.813C379.345 357.857 377.85 356.393 376.834 354.48L361.772 361.772C363.386 364.551 365.508 366.972 368.138 369.094C370.767 371.186 373.726 372.77 377.014 373.936C380.301 375.161 383.798 375.729 387.444 375.729C392.196 375.729 396.559 375.101 400.653 373.846C404.718 372.591 408.185 370.678 410.934 368.108C413.743 365.597 415.686 362.34 416.702 358.395C417.091 356.99 417.33 355.586 417.479 354.181C417.569 352.776 417.688 351.282 417.688 349.668V280.722H403.492V280.692ZM402.028 323.249C401.102 326.208 399.518 328.479 397.366 330.153C395.184 331.767 392.255 332.574 388.669 332.574C385.113 332.574 382.274 331.707 380.032 329.944C377.791 328.21 376.147 325.819 375.071 322.861C373.995 319.902 373.457 316.585 373.457 312.968C373.457 309.412 373.995 306.125 375.161 303.166C376.237 300.207 377.97 297.816 380.301 296.023C382.632 294.29 385.591 293.393 389.237 293.393C392.644 293.393 395.364 294.17 397.456 295.814C399.548 297.458 401.102 299.759 402.028 302.718C402.984 305.617 403.492 309.083 403.492 312.968C403.492 316.883 403.014 320.29 402.028 323.249Z" fill="#F580F7"/>
</svg>
