<svg width="417" height="431" viewBox="0 0 417 431" fill="none" xmlns="http://www.w3.org/2000/svg">
<path fill-rule="evenodd" clip-rule="evenodd" d="M304.232 123.172C304.023 125.684 306.116 127.986 308.627 127.986C313.44 128.195 326.624 131.962 339.808 138.24C347.552 142.007 355.085 146.402 360.526 151.843C365.34 156.656 368.479 161.888 368.27 167.329C368.27 169.212 367.642 171.305 366.595 173.607C364.503 177.792 356.969 175.281 347.97 172.351C339.181 169.422 329.554 166.282 319.928 167.538C309.673 168.794 302.139 172.979 296.489 177.792C288.537 184.908 284.77 193.906 283.723 199.975C283.723 200.185 283.723 200.394 283.723 200.394C282.049 205.626 281.421 210.648 281.212 215.671C281.003 222.577 282.049 229.064 283.723 234.715C283.723 234.924 283.723 235.133 283.723 235.342C284.351 239.528 286.653 245.388 290.629 251.038C291.257 251.875 291.676 252.712 292.094 253.34C292.513 253.758 292.931 254.177 293.35 254.386C294.396 255.433 295.233 256.479 296.489 257.525C302.139 262.548 309.673 266.524 319.928 267.78C329.345 269.035 339.181 265.896 347.97 262.966C356.969 260.037 364.503 257.525 366.595 261.711C367.642 263.804 368.06 265.896 368.27 267.78C368.479 273.221 365.34 278.662 360.526 283.266C355.085 288.498 347.552 293.102 339.808 296.869C326.624 303.147 313.44 306.704 308.627 307.123C306.116 307.332 304.023 309.425 304.232 311.936C304.441 314.448 306.534 316.54 309.045 316.331C314.486 316.122 329.554 312.146 343.785 305.24C352.365 301.263 360.736 296.032 366.805 289.963C373.501 283.475 377.896 275.941 377.478 267.361C377.268 264.222 376.431 260.874 374.966 257.525C369.316 246.015 358.224 249.573 345.04 253.968C337.297 256.479 328.508 259.409 321.183 258.362C313.022 257.316 307.162 254.177 302.767 250.201C301.093 248.736 299.837 247.271 298.582 245.597C295.024 239.946 290.211 228.646 290.629 215.462C290.839 206.254 293.768 195.999 301.512 186.373C301.93 185.954 302.139 185.326 302.349 184.698C302.558 184.489 302.767 184.28 302.976 184.071C307.371 180.094 313.44 176.955 321.392 175.909C328.717 174.863 337.506 177.792 345.25 180.304C358.434 184.698 369.525 188.256 375.176 176.746C376.85 173.398 377.478 170.259 377.687 167.12C378.105 158.539 373.92 151.006 367.014 144.518C360.736 138.449 352.365 133.427 343.994 129.45C329.763 122.544 314.905 118.568 309.255 118.359C306.325 118.568 304.232 120.661 304.232 123.172Z" fill="#402DD4"/>
<path fill-rule="evenodd" clip-rule="evenodd" d="M253.167 227.807C254.005 226.76 255.051 225.714 255.679 225.086C256.097 224.668 256.516 224.458 256.725 224.04C258.19 221.947 257.562 219.017 255.469 217.552C254.632 216.925 253.586 215.878 252.749 214.832C249.191 211.065 245.634 207.089 240.193 209.6C238.518 210.228 237.263 212.111 237.263 213.995C237.472 216.715 237.472 219.227 237.472 221.529C237.472 224.04 237.681 226.551 237.681 229.062C237.681 230.737 238.518 232.202 239.983 233.039C245.843 236.596 249.61 232.202 253.167 227.807Z" fill="#402DD4"/>
<path fill-rule="evenodd" clip-rule="evenodd" d="M230.985 278.449C230.985 275.938 228.892 273.845 226.381 273.845C219.684 273.845 215.708 271.334 214.034 268.404C213.406 267.358 213.197 266.311 213.197 265.265C213.197 264.219 213.406 263.172 214.034 262.126C215.499 259.196 219.265 256.894 225.334 256.894C227.846 256.894 229.938 254.801 229.938 252.29C229.938 249.779 227.846 247.686 225.334 247.686C215.289 247.686 208.802 252.081 205.663 257.731C204.407 260.033 203.779 262.754 203.779 265.265C203.779 267.776 204.407 270.497 205.663 272.799C208.802 278.658 215.499 283.053 225.962 283.262C228.892 283.262 230.985 281.17 230.985 278.449Z" fill="#402DD4"/>
<path fill-rule="evenodd" clip-rule="evenodd" d="M232.451 192.021C232.451 189.51 230.359 187.417 227.847 187.417C221.151 187.417 217.174 184.906 215.5 181.976C214.872 180.93 214.663 179.883 214.663 178.837C214.663 177.791 214.872 176.744 215.5 175.698C216.965 172.768 220.941 170.675 227.01 170.675C229.521 170.675 231.614 168.583 231.614 166.071C231.614 163.56 229.521 161.467 227.01 161.467C216.965 161.467 210.478 165.862 207.339 171.512C206.083 173.814 205.455 176.535 205.455 179.046C205.455 181.767 206.083 184.278 207.339 186.58C210.478 192.44 217.174 196.834 227.638 197.044C230.359 196.625 232.451 194.742 232.451 192.021Z" fill="#402DD4"/>
<path fill-rule="evenodd" clip-rule="evenodd" d="M271.585 238.272C271.585 238.272 277.654 222.367 271.167 204.788C270.329 202.277 267.609 201.231 265.307 202.068C263.005 202.905 261.749 205.625 262.586 207.927C267.818 222.367 263.005 234.924 263.005 234.924C262.168 237.226 263.423 239.946 265.725 240.992C268.027 241.83 270.539 240.574 271.585 238.272Z" fill="#402DD4"/>
<path fill-rule="evenodd" clip-rule="evenodd" d="M309.253 27.5342C322.018 17.0705 336.249 8.49037 352.154 1.37511C354.456 0.32872 357.176 1.37511 358.223 3.67711C358.85 4.93275 358.641 6.39763 358.223 7.65327C354.874 14.7685 352.363 22.0931 351.107 29.4176C350.27 34.0216 350.061 38.8349 350.27 43.6482C354.874 40.0905 359.897 36.9515 365.129 34.2309C373.081 30.2547 381.87 27.3249 391.288 25.4415C393.799 25.0229 396.31 26.6971 396.729 29.2084C396.938 30.2547 396.729 31.0918 396.31 31.9289C394.845 35.9051 393.799 39.672 393.38 43.2296C393.171 44.9038 392.962 46.7873 393.171 48.4614C401.542 46.7873 409.076 46.3687 416.191 46.9966C424.771 47.8336 432.305 50.5542 438.793 55.1582C440.885 56.6231 441.304 59.5529 439.839 61.6456C439.63 62.0642 439.42 62.2734 439.002 62.4827C435.863 65.4125 433.351 69.598 431.677 74.202C430.003 78.806 429.166 83.6192 429.585 88.014C439.42 93.6643 448.838 100.989 456.79 109.778C459.301 107.895 462.231 104.965 465.161 102.245C469.765 97.8498 474.16 93.4551 478.554 91.1531C484.833 87.8047 490.274 88.2233 494.25 95.7571C499.482 105.174 486.088 123.8 472.695 142.425C466.417 151.005 460.348 159.585 456.162 166.91C455.744 167.538 455.116 168.165 454.488 168.584C452.186 170.258 450.093 171.305 448.001 171.932C450.093 178.838 451.558 185.744 452.605 193.069C453.86 201.021 454.488 209.392 454.279 217.763C454.488 226.343 453.86 234.505 452.605 242.457C451.558 248.945 450.303 255.223 448.419 261.501C450.303 262.129 452.186 263.175 454.279 264.64C454.907 265.059 455.534 265.477 455.953 266.314C460.138 273.639 466.417 282.219 472.485 290.799C485.879 309.425 499.272 328.05 494.041 337.467C490.064 345.001 484.623 345.419 478.345 342.071C473.95 339.769 469.346 335.374 464.952 330.98C462.022 328.259 459.092 325.329 456.581 323.446C448.419 332.235 439.211 339.56 429.166 345.21C428.957 349.186 429.794 353.79 431.259 357.767C432.933 362.371 435.444 366.556 438.583 369.486C438.793 369.695 439.211 369.904 439.42 370.323C440.885 372.416 440.467 375.345 438.374 376.81C431.887 381.414 424.353 384.135 415.773 384.972C408.867 385.6 401.123 385.181 392.753 383.507C392.753 385.181 392.753 386.855 392.962 388.739C393.38 392.297 394.427 396.063 395.892 400.04C396.31 400.877 396.31 401.923 396.31 402.76C395.892 405.271 393.38 406.946 390.869 406.527C381.452 404.644 372.662 401.714 364.71 397.738C359.478 395.017 354.456 392.087 349.852 388.32C349.642 393.134 349.852 397.947 350.689 402.551C351.944 409.875 354.246 417.2 357.804 424.315C358.432 425.571 358.432 426.827 357.804 428.291C356.758 430.593 354.037 431.64 351.735 430.593C336.249 423.269 322.018 414.689 309.253 404.225C298.58 395.645 289.163 385.809 280.792 374.718C280.164 376.81 279.536 378.903 279.327 380.996C278.49 385.6 278.49 390.413 279.327 395.436C279.536 396.482 279.536 397.528 279.117 398.575C278.071 400.877 275.351 401.923 272.839 400.877C263.631 396.482 255.26 391.459 248.145 384.972C242.704 380.159 238.1 374.718 234.124 368.649C229.938 374.299 226.799 380.159 224.497 386.228C221.358 394.389 219.893 402.969 219.893 412.387C219.893 413.433 219.684 414.689 218.847 415.735C217.173 417.619 214.243 418.037 212.359 416.363C200.222 406.109 190.595 394.599 183.271 381.833C177.202 371.16 173.016 359.65 170.714 347.094C164.855 351.488 159.623 356.72 155.019 362.58C148.741 370.323 143.509 379.322 139.114 389.367C138.695 390.204 138.068 391.041 137.231 391.669C135.138 393.134 132.208 392.297 130.743 390.204C120.28 373.671 115.257 357.348 115.675 341.443C115.885 327.841 119.861 314.656 127.395 301.891C107.723 300.844 90.9813 296.659 77.3786 288.497C61.8924 279.289 50.3824 264.849 42.8486 243.713C42.0115 241.411 43.2671 238.69 45.5691 237.853C46.6155 237.435 47.6619 237.435 48.4989 237.853C63.7759 242.876 76.7508 245.806 88.0515 246.015C92.8648 246.015 97.2595 245.596 101.445 244.341C85.7495 242.667 70.6819 238.272 56.242 231.575C36.7797 222.576 18.5729 208.974 1.41258 191.604C-0.470874 189.721 -0.470874 186.791 1.41258 185.117C2.66822 183.861 4.55167 183.442 6.22585 184.07C23.3862 189.93 43.0579 193.278 62.5202 193.906C76.1229 194.325 89.7257 193.697 102.491 191.604C90.772 186.372 80.7269 179.048 72.7746 170.467C59.5904 156.446 51.0102 139.077 46.1969 121.288C45.5691 118.777 47.034 116.266 49.5453 115.638C51.2195 115.219 52.8937 115.638 53.94 116.894C67.9613 131.124 81.9826 129.45 95.7946 127.776C106.049 126.52 116.094 125.265 126.139 129.031C119.233 116.684 115.675 104.128 115.466 91.1531C115.257 75.2483 120.07 59.1344 130.534 42.3926C131.999 40.2998 134.719 39.4627 137.021 40.9276C137.858 41.5554 138.486 42.3925 138.905 43.2296C143.299 53.2747 148.531 62.2735 154.809 70.0166C159.413 75.8762 164.645 80.8987 170.505 85.5027C172.807 72.9464 177.202 61.4364 183.061 50.7635C190.177 37.9978 200.012 26.4878 212.15 16.2335C214.034 14.5593 216.963 14.7685 218.638 16.8613C219.475 17.9076 219.893 18.954 219.684 20.2096C219.684 29.4177 221.149 38.2071 224.288 46.3687C226.59 52.6469 229.938 58.5066 233.915 63.9476C237.681 57.6695 242.495 52.4376 247.936 47.6244C255.051 41.3462 263.422 36.1144 272.63 31.7197C274.932 30.6733 277.653 31.7197 278.908 34.0217C279.327 35.068 279.536 36.1144 279.117 36.9515C278.28 41.974 278.49 46.7872 279.117 51.3913C279.536 53.484 279.955 55.5767 280.582 57.6695C289.163 45.9502 298.58 36.1144 309.253 27.5342Z" fill="#402DD4"/>
<path fill-rule="evenodd" clip-rule="evenodd" d="M345.041 149.328C345.459 149.538 345.041 150.165 344.622 149.956C342.111 148.701 340.227 146.817 337.507 145.561C334.577 144.306 331.857 142.841 328.927 141.795C326.415 140.957 323.904 140.12 321.184 139.493C318.463 138.865 315.743 138.865 313.231 138.028C311.348 137.4 311.976 135.098 313.65 134.889C318.882 134.261 325.369 137.191 329.764 139.911C332.484 141.585 335.205 143.678 337.925 145.143C340.227 146.817 342.739 147.863 345.041 149.328Z" fill="#402DD4"/>
<path fill-rule="evenodd" clip-rule="evenodd" d="M354.246 154.769C354.246 158.327 348.805 158.327 348.805 154.769C348.595 151.211 354.246 151.211 354.246 154.769Z" fill="#402DD4"/>
<path fill-rule="evenodd" clip-rule="evenodd" d="M109.187 210.228C113.164 209.182 119.86 207.926 122.162 203.95C122.79 202.904 121.953 201.439 120.697 201.648C118.605 201.648 117.14 202.694 115.256 203.532C112.954 204.787 110.443 205.415 107.932 206.252C102.072 207.926 96.2124 208.554 90.1435 208.973C79.0521 209.81 67.9606 209.182 57.0784 207.298C55.195 207.089 54.3579 209.81 56.2413 210.228C67.7513 212.53 79.6799 213.158 91.3992 212.53C97.4681 212.321 103.537 211.484 109.187 210.228Z" fill="#402DD4"/>
<path fill-rule="evenodd" clip-rule="evenodd" d="M177.62 130.286C177.202 126.937 174.691 122.124 170.924 118.357C168.622 115.846 166.11 113.753 163.181 112.707C160.669 111.661 157.949 111.451 155.228 112.498C151.88 113.753 148.322 116.683 144.974 122.543C133.255 142.005 156.693 146.818 164.227 147.865C166.32 143.679 168.831 139.912 171.342 136.983C173.435 134.262 175.528 131.96 177.62 130.286Z" fill="#402DD4"/>
<path fill-rule="evenodd" clip-rule="evenodd" d="M177.411 304.609C175.737 301.679 172.807 296.238 169.877 288.914C162.552 289.751 132.836 294.355 145.183 314.654C148.531 320.305 152.089 323.234 155.228 324.49C157.739 325.327 160.46 325.118 162.971 324.072C165.692 323.025 168.412 320.932 170.714 318.421C174.69 313.608 177.411 307.958 177.411 304.609Z" fill="#402DD4"/>
<path fill-rule="evenodd" clip-rule="evenodd" d="M422.678 360.486C424.143 364.462 426.236 368.229 428.538 371.577C424.562 373.67 419.958 374.925 414.935 375.344C407.611 376.181 399.449 375.344 390.032 373.042L389.822 373.042C387.311 372.623 384.8 374.088 384.381 376.6C383.544 380.576 383.335 384.971 383.963 389.575C384.172 391.458 384.591 393.341 385.009 395.225C379.359 393.76 374.127 391.667 369.104 389.156C361.989 385.598 355.502 380.994 349.642 375.553C349.014 374.925 348.177 374.507 347.131 374.298C344.62 373.879 342.318 375.553 341.899 378.065C340.434 386.854 340.434 395.434 341.899 403.805C342.527 408.2 343.782 412.595 345.038 416.78C334.156 411.13 324.111 404.433 314.903 397.108C302.974 387.273 292.301 375.763 283.303 362.788C282.884 362.16 282.256 361.532 281.419 361.113C279.117 360.067 276.397 360.904 275.141 363.206C272.63 368.438 270.746 373.879 269.909 379.529C269.491 382.459 269.072 385.598 269.281 388.737C263.631 385.598 258.399 382.041 254.004 378.065C247.726 372.414 242.494 365.927 238.728 358.393C238.518 357.765 238.1 357.347 237.681 356.928C235.798 355.254 232.868 355.463 231.194 357.347C224.288 365.299 219.056 373.879 215.498 383.087C213.196 389.365 211.522 395.853 210.894 402.759C202.942 395.016 196.245 386.435 191.013 377.227C184.317 365.508 180.131 352.533 178.457 338.303C178.457 337.675 178.248 337.047 177.829 336.419C176.364 334.327 173.644 333.699 171.342 334.954C162.343 340.814 154.391 348.139 147.485 356.509C142.462 362.788 137.858 369.694 134.091 377.437C127.604 365.09 124.465 352.952 124.674 341.233C124.883 330.56 127.813 320.096 133.045 309.842C133.882 312.771 135.138 315.911 137.23 319.259C141.834 326.793 146.857 331.187 152.089 333.071C157.111 334.954 161.924 334.536 166.319 332.652C170.505 330.978 174.272 328.048 177.201 324.7C181.178 320.305 184.107 315.073 185.572 310.469C212.568 319.677 352.153 366.345 367.849 365.717C370.36 365.717 373.29 364.671 376.638 362.997C379.149 361.741 382.079 359.858 385.218 357.347C396.938 357.137 408.657 354.417 419.958 349.394C420.585 353.161 421.423 356.928 422.678 360.486Z" fill="#402DD4"/>
<path fill-rule="evenodd" clip-rule="evenodd" d="M452.398 118.987C453.863 120.662 456.165 121.08 458.049 120.034C462.443 117.732 467.047 113.337 471.651 108.942C475.628 104.966 479.813 100.99 482.952 99.3157C484.417 98.6879 485.463 98.6879 486.3 100.153L486.3 100.362C488.602 104.548 476.883 120.871 465.164 136.985C459.095 145.565 452.817 153.936 448.631 161.26C443.609 164.399 438.586 160.214 432.727 154.982C421.007 144.937 406.777 132.59 380.199 148.076C377.897 149.332 377.269 152.262 378.525 154.354C379.781 156.656 382.711 157.284 384.803 156.029C405.521 143.891 417.031 153.727 426.448 161.888C430.425 165.237 433.982 168.376 437.749 170.259C437.749 170.259 437.749 170.259 437.749 170.468C439.214 175.072 440.47 180.095 441.516 184.908C441.516 184.908 441.516 184.908 441.516 185.118C441.725 185.955 441.935 186.792 442.144 187.838C442.144 188.047 442.144 188.257 442.353 188.466C442.562 189.094 442.562 189.931 442.772 190.559C442.772 191.186 442.981 191.605 442.981 192.233C442.981 192.651 443.19 193.07 443.19 193.488C443.19 194.116 443.4 194.535 443.4 195.163C443.4 195.79 443.609 196.209 443.609 196.837C443.609 197.046 443.609 197.255 443.609 197.465C443.609 198.302 443.818 199.139 443.818 199.976L443.818 200.185C443.818 201.022 444.027 202.069 444.027 202.906L444.027 203.115C444.027 203.952 444.237 204.789 444.237 205.626C444.237 205.835 444.237 206.254 444.237 206.463C444.237 207.091 444.237 207.719 444.237 208.347C444.237 208.975 444.237 209.602 444.237 210.23C444.237 210.44 444.237 210.858 444.237 211.067C444.237 213.16 444.237 215.043 444.237 217.136C444.237 217.136 444.237 217.136 444.237 217.345C444.237 217.345 444.237 217.346 444.237 217.555C444.446 225.298 443.818 233.25 442.772 240.784C441.725 248.109 440.051 255.015 437.958 261.921C433.982 263.595 430.006 266.943 425.821 270.71C416.403 278.872 404.893 288.917 384.175 276.57C381.873 275.314 379.153 275.942 377.897 278.244C376.642 280.546 377.269 283.266 379.571 284.522C406.149 300.008 420.38 287.661 432.099 277.616C437.958 272.594 442.981 268.199 448.004 271.338C452.189 278.662 458.467 287.033 464.536 295.614C476.255 311.937 487.975 328.051 485.673 332.236L485.673 332.446C484.836 333.91 483.789 333.91 482.324 333.283C479.185 331.608 475 327.632 471.024 323.865C466.42 319.471 462.025 315.076 457.421 312.774C455.537 311.728 453.235 312.146 451.77 313.82C442.353 324.702 431.262 333.283 419.333 339.142C407.405 345.002 394.848 347.932 382.501 347.932C380.618 347.932 379.153 348.978 378.316 350.443C376.014 352.117 373.921 353.373 372.038 354.419C369.945 355.466 368.271 356.093 367.224 356.093C352.366 356.721 202.317 306.077 185.157 300.218C179.925 291.219 152.929 241.412 185.576 205.626C185.785 205.417 185.785 205.208 185.994 204.998L186.203 204.789C186.203 204.58 186.413 204.371 186.413 204.161L186.413 203.952C186.413 203.743 186.622 203.534 186.622 203.324L186.622 203.115C186.622 202.906 186.622 202.696 186.622 202.278C186.622 202.278 186.622 202.278 186.622 202.069C186.622 201.859 186.622 201.65 186.622 201.441L186.622 201.232C186.622 201.022 186.413 200.813 186.413 200.604L186.413 200.394C186.413 200.185 186.203 199.976 185.994 199.767C185.994 199.767 185.994 199.557 185.785 199.557C185.576 199.348 185.366 199.139 185.366 198.93C185.157 198.72 184.948 198.72 184.738 198.511C184.738 198.511 184.529 198.511 184.529 198.302C174.484 192.233 169.462 185.327 167.578 178.002C165.904 171.515 166.95 164.818 169.043 158.54C171.345 152.052 174.903 146.402 178.251 142.007C181.599 137.613 184.32 134.892 184.738 134.892C186.413 134.892 187.878 134.264 188.715 133.009C216.757 123.591 352.994 77.7606 367.224 78.3884C368.48 78.3884 369.736 78.5977 371.201 79.0163C372.875 79.6441 374.967 80.8997 377.897 83.2017C378.734 83.8296 379.781 84.2481 380.827 84.0388C381.246 84.2481 381.873 84.2481 382.292 84.2481C394.639 84.0388 407.195 87.1779 419.124 93.0375C431.89 99.525 442.981 108.105 452.398 118.987Z" fill="#402DD4"/>
<path fill-rule="evenodd" clip-rule="evenodd" d="M342.108 27.9514C340.643 36.3223 340.643 44.9025 342.108 53.692C342.527 56.2033 344.829 57.8775 347.34 57.4589C348.386 57.2496 349.223 56.8311 349.851 56.2033C355.711 50.7622 362.198 46.1582 369.314 42.6005C374.336 40.0893 379.568 37.9965 385.218 36.5316C384.8 38.4151 384.381 40.2985 384.172 42.182C383.544 46.786 383.754 50.9714 384.591 55.1569C385.218 57.6682 387.52 59.3423 390.032 58.7145L390.241 58.7145C399.658 56.4125 407.82 55.5754 415.144 56.4125C420.167 56.8311 424.771 58.296 428.747 60.1795C426.236 63.3185 424.352 67.2947 422.887 71.2709C421.423 75.2471 420.585 79.4325 420.167 83.618C408.238 78.3862 395.682 75.6656 383.335 75.6656C379.987 73.1544 377.475 71.6894 375.173 70.8523C372.453 69.806 370.36 69.5967 368.267 69.5967C352.363 68.9689 212.987 115.846 185.991 124.845C184.526 120.659 181.805 115.846 178.038 112.079C174.899 108.731 171.132 105.801 166.947 104.127C162.343 102.243 157.53 101.825 152.507 103.708C147.275 105.592 142.044 109.986 137.23 117.729C135.975 119.822 134.928 121.915 134.091 123.798C128.022 112.916 124.883 101.825 124.674 90.524C124.465 78.8047 127.604 66.8762 134.091 54.5291C138.067 62.2722 142.462 69.1782 147.485 75.4564C154.391 84.0365 162.343 91.1518 171.342 97.0114C173.434 98.4764 176.364 97.8485 177.829 95.5465C178.248 94.9187 178.457 94.2909 178.457 93.6631C180.131 79.4326 184.526 66.4576 191.013 54.7384C196.245 45.5304 202.733 37.1595 210.894 29.2071C211.731 36.1131 213.196 42.6005 215.498 48.8787C219.056 58.0867 224.288 66.6669 231.194 74.6193C232.868 76.5027 235.798 76.712 237.681 75.0378C238.1 74.6193 238.518 74.2007 238.728 73.5729C242.494 65.8298 247.726 59.3424 254.004 53.692C258.608 49.7158 263.631 46.1582 269.281 43.0191C269.281 46.1582 269.491 49.2973 269.909 52.2271C270.746 57.8775 272.63 63.3186 275.141 68.5504C276.187 70.8524 279.117 71.6895 281.419 70.6431C282.256 70.2246 282.884 69.5967 283.303 68.9689C292.301 55.994 302.974 44.484 314.903 34.6482C324.111 27.1143 334.156 20.6269 345.038 14.9765C343.782 19.162 342.736 23.5567 342.108 27.9514Z" fill="#402DD4"/>
<path fill-rule="evenodd" clip-rule="evenodd" d="M385.009 276.566C405.727 288.704 417.237 278.868 426.655 270.707C430.84 267.149 434.607 263.801 438.792 261.917C442.978 247.687 445.489 232.619 445.071 217.552L445.071 217.342C445.489 201.647 442.769 185.324 437.955 170.465C434.188 168.582 430.631 165.443 426.655 162.094C417.237 153.933 405.727 144.097 385.009 156.235C382.707 157.49 379.987 156.862 378.731 154.56C377.476 152.258 378.103 149.538 380.405 148.282C406.983 132.796 421.214 145.143 432.933 155.188C438.792 160.211 443.815 164.606 448.838 161.466C453.023 154.142 459.301 145.562 465.37 137.191C477.089 120.867 488.809 104.753 486.507 100.568L486.507 100.359C485.67 98.8939 484.623 98.8938 483.158 99.5217C476.462 103.079 466.626 115.845 458.255 120.24C456.371 121.286 454.069 120.868 452.604 119.193C435.026 98.8939 409.494 84.8726 383.335 85.0819C382.707 85.0819 382.289 85.0819 381.87 84.8726C380.824 84.8726 379.778 84.6633 378.94 84.0355C376.011 81.7335 373.918 80.4779 372.244 79.8501C370.779 79.2222 369.523 79.2222 368.268 79.2222C354.037 78.8037 217.8 124.425 189.758 133.842C188.921 135.098 187.456 135.935 185.782 135.726C185.363 135.726 182.852 138.446 179.294 142.841C171.97 152.258 165.482 166.07 168.621 178.836C170.505 185.951 175.527 193.067 185.572 199.136C188.293 200.6 188.712 204.158 186.619 206.251C154.182 241.827 180.968 291.843 186.2 300.842C203.361 306.702 353.409 357.136 368.268 356.718C369.314 356.718 370.988 356.09 373.081 355.044C374.964 353.997 377.057 352.742 379.359 351.067C380.196 349.603 381.661 348.556 383.544 348.556C409.913 348.765 435.444 334.744 452.814 314.445C454.279 312.771 456.581 312.352 458.464 313.398C467.044 317.793 476.671 330.559 483.368 334.116C484.832 334.744 485.879 334.744 486.716 333.279L486.716 333.07C489.018 328.885 477.299 312.561 465.579 296.447C459.51 287.867 453.232 279.496 449.047 272.172C444.024 269.033 439.002 273.218 433.142 278.45C421.423 288.495 407.192 300.842 380.615 285.356C378.313 284.1 377.685 281.17 378.94 279.078C379.987 276.148 382.707 275.311 385.009 276.566ZM374.755 177.371C369.105 188.881 358.013 185.324 344.829 180.929C337.086 178.418 328.296 175.488 320.972 176.534C312.81 177.58 306.951 180.72 302.556 184.696C302.347 184.905 302.137 185.114 301.928 185.324C301.719 185.951 301.51 186.37 301.091 186.998C293.348 196.624 290.418 206.879 290.209 216.087C289.79 229.271 294.604 240.572 298.161 246.222C299.417 247.687 300.672 249.361 302.347 250.826C306.741 254.802 312.81 257.941 320.763 258.988C328.087 260.034 336.877 257.104 344.62 254.593C357.804 250.198 368.895 246.64 374.546 258.15C376.22 261.499 376.848 264.638 377.057 267.986C377.476 276.566 373.29 284.1 366.384 290.588C360.106 296.657 351.735 301.679 343.364 305.865C329.134 312.771 314.275 316.747 308.625 316.956C306.114 317.165 303.812 315.073 303.812 312.561C303.602 310.05 305.695 307.748 308.206 307.748C313.02 307.539 326.204 303.772 339.388 297.494C347.131 293.727 354.665 289.332 360.106 283.891C366.803 277.404 370.151 270.288 366.175 262.127C364.082 257.941 356.548 260.452 347.55 263.382C338.76 266.312 329.134 269.451 319.507 268.196C309.253 266.94 301.719 262.754 296.068 257.941C295.022 256.895 293.976 255.848 292.929 254.802C292.511 254.593 292.092 254.174 291.674 253.756C291.255 253.128 290.627 252.291 290.209 251.454C286.023 245.803 283.931 239.944 283.303 235.758C283.303 235.549 283.303 235.34 283.303 235.13C281.629 229.48 280.582 222.993 280.792 216.087C281.001 211.064 281.629 206.042 283.303 200.81C283.303 200.6 283.303 200.391 283.303 200.391C284.349 194.322 288.116 185.324 296.068 178.208C301.719 173.186 309.253 169.209 319.507 167.954C328.924 166.698 338.76 169.837 347.55 172.767C356.548 175.697 364.082 178.208 366.175 174.023C367.221 171.93 367.64 169.837 367.849 167.745C368.477 154.77 350.27 143.888 339.388 138.656C326.204 132.378 313.02 128.82 308.206 128.401C305.695 128.192 303.602 126.099 303.812 123.588C304.021 121.077 306.114 118.984 308.625 119.193C314.066 119.403 329.134 123.379 343.364 130.285C351.944 134.261 360.315 139.493 366.384 145.352C373.081 151.84 377.476 159.374 377.057 167.954C377.266 170.884 376.429 174.023 374.755 177.371ZM271.165 204.786C277.443 222.365 271.584 238.27 271.584 238.27C270.746 240.572 268.026 241.827 265.515 240.99C263.213 240.153 261.957 237.432 262.794 234.921C262.794 234.921 267.607 222.155 262.376 207.925C261.538 205.414 262.794 202.902 265.096 202.065C267.607 201.019 270.328 202.275 271.165 204.786ZM255.679 225.085C255.051 225.713 254.005 226.76 253.168 227.806C249.401 232.201 245.843 236.595 239.983 233.247C238.518 232.41 237.681 230.736 237.681 229.271C237.681 226.76 237.472 224.248 237.472 221.737C237.472 219.226 237.263 216.924 237.263 214.203C237.263 212.11 238.309 210.436 240.193 209.808C245.634 207.297 249.191 211.064 252.749 215.04C253.795 216.087 254.842 217.133 255.47 217.761C257.562 219.226 258.19 222.156 256.725 224.248C256.516 224.458 256.097 224.876 255.679 225.085ZM226.381 273.846C228.892 273.846 230.985 275.939 230.985 278.45C230.985 280.961 228.892 283.054 226.381 283.054C215.917 283.054 209.011 278.45 206.081 272.59C203.57 267.777 203.57 262.127 206.081 257.313C209.22 251.663 215.708 247.268 225.753 247.268C228.264 247.268 230.357 249.361 230.357 251.872C230.357 254.384 228.264 256.476 225.753 256.476C219.684 256.476 215.917 258.778 214.452 261.708C213.406 263.801 213.406 266.103 214.452 268.196C215.708 271.335 219.684 273.846 226.381 273.846ZM227.846 187.416C230.357 187.416 232.45 189.509 232.45 192.02C232.45 194.532 230.357 196.624 227.846 196.624C217.382 196.624 210.476 192.02 207.546 186.161C205.035 181.347 205.035 175.697 207.546 170.884C210.685 165.233 217.173 160.839 227.218 160.839C229.729 160.839 231.822 162.931 231.822 165.443C231.822 167.954 229.729 170.047 227.218 170.047C221.149 170.047 217.382 172.349 215.708 175.069C214.661 177.162 214.661 179.464 215.708 181.557C217.173 184.905 221.358 187.416 227.846 187.416ZM337.714 145.771C334.784 144.515 332.063 143.05 329.134 142.004C326.622 141.167 324.111 140.33 321.39 139.702C318.67 139.074 315.949 139.074 313.438 138.237C311.555 137.609 312.182 135.307 313.857 135.098C319.088 134.47 325.576 137.4 329.971 140.121C332.691 141.795 335.412 143.888 338.132 145.352C340.434 146.608 343.155 147.864 345.248 149.329C345.666 149.538 345.248 150.166 344.829 149.956C342.108 148.91 340.225 146.817 337.714 145.771ZM354.246 154.77C354.246 158.327 348.805 158.327 348.805 154.77C348.596 151.212 354.246 151.212 354.246 154.77Z" fill="#F580F7"/>
<path fill-rule="evenodd" clip-rule="evenodd" d="M368.059 365.508C352.154 366.136 212.778 319.259 185.782 310.26C181.806 323.235 167.366 338.512 152.089 333.071C146.858 331.187 141.835 327.002 137.231 319.259C135.138 315.911 133.883 312.771 133.046 309.842C121.326 332.234 121.954 354.417 134.092 377.227C142.672 360.276 155.019 345.209 171.133 334.954C174.063 333.071 177.83 335.164 178.248 338.303C181.388 363.834 192.688 384.971 210.686 402.759C212.569 385.598 219.475 370.531 230.985 357.347C233.287 354.835 237.263 355.463 238.728 358.393C242.495 366.136 247.727 372.623 254.005 378.065C258.609 382.041 263.632 385.598 269.282 388.737C269.282 379.739 271.375 371.159 275.351 363.206C277.025 360.067 281.42 359.649 283.513 362.788C292.511 375.763 303.184 387.273 315.113 397.108C324.321 404.642 334.366 411.13 345.248 416.78C341.063 404.224 340.016 391.458 342.109 378.065C342.528 375.553 344.83 373.879 347.341 374.298C348.387 374.507 349.224 374.925 349.852 375.553C350.898 375.972 361.781 388.947 385.219 395.225C383.754 388.947 383.126 382.669 384.591 376.6C385.219 374.088 387.73 372.414 390.242 373.042C399.659 375.344 407.821 376.181 415.145 375.344C420.168 374.716 424.772 373.461 428.748 371.577C426.237 368.438 424.353 364.462 422.888 360.486C421.633 356.928 420.586 352.952 420.377 349.185C409.076 354.207 397.357 356.928 385.638 357.137C385.01 357.347 375.383 365.299 368.059 365.508Z" fill="#543EFA"/>
<path fill-rule="evenodd" clip-rule="evenodd" d="M185.575 124.845C212.571 115.637 352.156 68.9689 367.851 69.5967C369.944 69.5967 372.037 69.806 374.757 70.8523C377.059 71.6894 379.57 73.1544 382.919 75.6656C395.266 75.6656 407.822 78.3862 419.751 83.618C420.379 75.4564 423.308 66.8762 428.331 60.1795C424.355 58.0867 419.751 56.8311 414.728 56.4125C407.404 55.5754 399.242 56.4125 389.825 58.7145L389.615 58.7145C387.104 59.3423 384.593 57.6682 384.174 55.1569C382.919 49.088 383.337 42.8098 384.802 36.5316C361.573 43.0191 350.063 55.994 349.435 56.2033C349.226 56.2033 348.598 57.2496 346.924 57.4589C344.413 57.8775 342.111 56.2033 341.692 53.692C340.227 44.9025 340.227 36.3223 341.692 27.9514C342.32 23.5567 343.575 19.162 344.831 14.9765C333.949 20.6269 323.904 27.3236 314.696 34.6482C302.767 44.484 292.094 55.994 283.096 68.9689C281.003 72.108 276.608 71.6895 274.934 68.5504C270.958 60.598 268.865 51.8085 268.865 43.0191C255.89 50.3436 244.799 59.9702 238.311 73.5729C236.846 76.5027 232.87 77.1305 230.568 74.6193C219.058 61.4351 212.152 46.3675 210.269 29.2071C192.062 46.786 180.971 68.1318 177.831 93.6631C177.413 97.0115 173.646 98.8949 170.716 97.0114C154.393 86.5478 142.255 71.8987 133.466 54.5291C120.909 78.1769 120.7 100.988 133.466 124.008C134.303 122.124 135.349 120.031 136.605 117.939C141.209 110.196 146.441 105.801 151.882 103.917C166.949 98.4764 181.18 112.288 185.575 124.845Z" fill="#543EFA"/>
<path fill-rule="evenodd" clip-rule="evenodd" d="M175.739 203.742C158.579 191.604 154.603 174.444 160.672 156.447C154.184 155.4 143.093 152.47 136.815 145.983C135.978 145.774 135.141 145.355 134.513 144.727C111.493 122.544 87.0078 147.239 59.3838 132.171C63.9878 143.472 70.4753 154.354 79.0555 163.353C89.5191 174.235 102.913 182.815 120.073 187.419C125.095 188.465 124.886 195.162 120.282 196.418C89.5191 204.579 52.8964 204.37 21.0869 197.255C33.434 207.718 46.1996 216.299 59.3838 222.577C77.5905 231.157 96.8436 235.552 116.934 235.342C121.329 235.342 123.421 240.574 120.073 243.504C110.865 251.666 99.9827 254.805 87.2171 254.805C77.3813 254.805 66.4991 252.712 54.3613 249.154C61.058 263.176 70.0567 273.221 81.3575 280.127C95.1695 288.498 112.539 292.055 133.885 292.474C134.931 292.474 135.768 292.892 135.768 292.892C143.093 283.894 158.788 280.755 166.322 279.708C159.625 258.781 156.068 228.855 175.739 203.742ZM137.652 196.627C137.652 198.301 136.396 199.557 134.722 199.557C133.048 199.557 131.792 198.301 131.792 196.627C131.792 194.953 133.048 193.697 134.722 193.697C136.396 193.697 137.652 194.953 137.652 196.627Z" fill="#543EFA"/>
<path fill-rule="evenodd" clip-rule="evenodd" d="M144.974 122.334C133.255 141.797 156.693 146.61 164.227 147.656C167.575 141.169 172.389 134.681 177.411 130.287C176.993 126.938 174.481 122.125 170.714 118.358C168.412 115.847 165.901 113.754 162.971 112.708C155.856 109.778 149.787 114.591 144.974 122.334Z" fill="#FBCCFC"/>
<path fill-rule="evenodd" clip-rule="evenodd" d="M169.668 288.705C162.343 289.542 132.627 294.146 144.974 314.446C149.578 322.189 155.437 327.002 162.762 323.863C169.877 320.933 177.202 310.679 177.411 304.401C175.737 301.68 172.807 296.03 169.668 288.705Z" fill="#FBCCFC"/>
<path fill-rule="evenodd" clip-rule="evenodd" d="M385.011 276.567C405.729 288.705 417.239 278.869 426.657 270.708C430.842 267.15 434.609 263.802 438.794 261.918C442.98 247.688 445.491 232.62 445.073 217.552L445.073 217.343C445.491 201.648 442.771 185.324 437.957 170.466C434.19 168.583 430.633 165.443 426.657 162.095C417.239 153.933 405.729 144.098 385.011 156.235C382.709 157.491 379.989 156.863 378.733 154.561C378.315 153.933 378.105 153.306 378.105 152.469C376.431 152.887 375.176 153.306 373.92 153.724C376.431 157.91 377.687 162.723 377.478 167.536C377.268 170.675 376.431 174.024 374.966 177.163C369.316 188.673 358.224 185.115 345.04 180.72C337.297 178.209 328.508 175.279 321.183 176.326C313.022 177.372 307.162 180.511 302.767 184.487C302.558 184.697 302.349 184.906 302.139 185.115C301.93 185.743 301.721 186.161 301.302 186.789C293.559 196.416 290.629 206.67 290.42 215.878C290.002 229.062 294.815 240.363 298.372 246.013C299.628 247.478 300.884 249.153 302.558 250.617C306.953 254.594 313.022 257.733 320.974 258.779C328.298 259.825 337.088 256.896 344.831 254.384C358.015 249.99 369.107 246.432 374.757 257.942C376.431 261.29 377.059 264.429 377.268 267.778C377.478 272.382 376.431 276.777 374.129 280.753C375.385 281.381 376.85 281.799 378.105 282.218C377.687 280.962 377.896 279.706 378.524 278.451C379.989 276.149 382.709 275.312 385.011 276.567Z" fill="#FBCCFC"/>
<path fill-rule="evenodd" clip-rule="evenodd" d="M185.575 124.845C212.572 115.637 352.156 68.9689 367.852 69.5967C369.945 69.5967 372.037 69.806 374.758 70.8524C377.06 71.6894 379.571 73.1544 382.92 75.6656C395.267 75.6656 407.823 78.3862 419.752 83.618C420.379 75.4564 423.309 66.8762 428.332 60.1795C424.356 58.0867 419.752 56.8311 414.729 56.4125C407.404 55.5755 399.243 56.4125 389.826 58.7145L389.616 58.7145C387.105 59.3423 384.594 57.6682 384.175 55.1569C382.92 49.088 383.338 42.8098 384.803 36.5316C361.574 43.0191 350.064 55.994 349.436 56.2033C349.227 56.2033 348.599 57.2496 346.925 57.4589C344.413 57.8775 342.111 56.2033 341.693 53.692C340.228 44.9025 340.228 36.3224 341.693 27.9514C342.321 23.5567 343.576 19.162 344.832 14.9765C333.95 20.6269 323.905 27.3236 314.697 34.6482C302.768 44.484 292.095 55.994 283.096 68.9689C281.004 72.108 276.609 71.6895 274.935 68.5504C270.959 60.598 268.866 51.8085 268.866 43.0191C255.891 50.3436 244.8 59.9702 238.312 73.5729C236.847 76.5027 232.871 77.1305 230.569 74.6193C219.059 61.4351 212.153 46.3675 210.27 29.2071C209.851 29.6256 209.642 29.8349 209.223 30.2535C194.156 59.1331 185.366 95.7558 181.181 117.102C183.483 119.613 184.738 122.124 185.575 124.845Z" fill="#543EFA"/>
<path fill-rule="evenodd" clip-rule="evenodd" d="M368.06 365.508C352.784 366.136 223.662 323.026 189.551 311.516C189.969 326.793 194.155 353.161 211.734 397.527C214.245 382.459 220.942 369.066 231.405 357.347C233.707 354.835 237.683 355.463 239.148 358.393C242.915 366.136 248.147 372.623 254.425 378.065C259.029 382.041 264.052 385.598 269.702 388.737C269.702 379.739 271.795 371.159 275.771 363.206C277.445 360.067 281.84 359.649 283.933 362.788C292.931 375.763 303.604 387.273 315.533 397.108C324.741 404.642 334.786 411.13 345.668 416.78C341.483 404.224 340.436 391.458 342.529 378.065C342.948 375.553 345.25 373.879 347.761 374.298C348.807 374.507 349.644 374.925 350.272 375.553C351.319 375.972 362.201 388.947 385.639 395.225C384.174 388.947 383.547 382.669 385.011 376.6C385.639 374.088 388.151 372.414 390.662 373.042C400.079 375.344 408.241 376.181 415.565 375.344C420.588 374.716 425.192 373.461 429.168 371.577C426.657 368.438 424.773 364.462 423.308 360.486C422.053 356.928 421.006 352.952 420.797 349.185C409.496 354.207 397.777 356.928 386.058 357.137C385.011 357.347 375.385 365.299 368.06 365.508Z" fill="#543EFA"/>
<path fill-rule="evenodd" clip-rule="evenodd" d="M373.708 153.724C374.964 153.306 376.22 152.887 377.894 152.469C377.684 150.794 378.522 149.12 380.196 148.283C406.773 132.797 421.004 145.144 432.723 155.189C438.583 160.212 443.605 164.606 448.628 161.467C452.813 154.143 459.092 145.563 465.16 137.192C476.88 120.868 488.599 104.754 486.297 100.569L486.297 100.36C485.46 98.8949 484.414 98.8948 482.949 99.5227C476.252 103.08 466.416 115.846 458.045 120.241C456.162 121.287 453.86 120.868 452.395 119.194C434.816 98.8949 409.285 84.8736 383.126 85.0829C382.498 85.0829 382.079 85.0828 381.661 84.8736C380.614 84.8736 379.568 84.6643 378.731 84.0365C375.801 81.7345 373.708 80.4789 372.034 79.851C370.569 79.2232 369.314 79.2232 368.058 79.2232C361.152 79.0139 325.366 89.6869 287.279 101.825C286.232 109.358 291.464 116.055 305.695 120.659C306.532 119.822 307.787 119.194 309.252 119.194C314.693 119.404 329.761 123.38 343.992 130.286C352.572 134.262 360.943 139.494 367.012 145.353C369.523 147.655 372.034 150.585 373.708 153.724Z" fill="#F580F7"/>
<path fill-rule="evenodd" clip-rule="evenodd" d="M432.726 277.826C421.007 287.871 406.776 300.218 380.198 284.732C379.152 284.104 378.524 283.267 378.106 282.011C376.85 281.592 375.385 280.965 374.13 280.546C372.246 283.894 369.735 287.243 366.596 290.173C360.318 296.242 351.947 301.264 343.576 305.45C329.345 312.356 314.487 316.332 308.836 316.541C307.372 316.541 306.116 316.122 305.279 315.076C296.908 320.099 295.443 328.47 301.721 338.724C333.949 348.769 361.573 356.721 367.642 356.512C368.688 356.512 370.363 355.884 372.455 354.838C374.339 353.792 376.432 352.536 378.734 350.862C379.571 349.397 381.036 348.35 382.919 348.35C409.287 348.56 434.819 334.538 452.188 314.239C453.653 312.565 455.955 312.146 457.839 313.193C466.419 317.587 476.045 330.353 482.742 333.911C484.207 334.538 485.253 334.538 486.09 333.074L486.09 332.864C488.392 328.679 476.673 312.356 464.954 296.242C458.885 287.661 452.607 279.29 448.421 271.966C443.608 268.408 438.586 272.594 432.726 277.826Z" fill="#F580F7"/>
<path fill-rule="evenodd" clip-rule="evenodd" d="M79.0549 163.351C89.5186 174.233 102.912 182.813 120.072 187.417C121.119 187.626 121.956 188.045 122.584 188.673C131.164 186.162 144.139 180.72 139.116 178.209C134.931 176.116 103.749 184.278 63.9873 142.424C68.1728 149.957 72.986 157.073 79.0549 163.351Z" fill="#543EFA"/>
<path fill-rule="evenodd" clip-rule="evenodd" d="M128.233 230.737C128.233 230.737 59.3823 219.227 29.0377 198.927C26.5265 198.509 24.0152 197.881 21.5039 197.253C33.851 207.717 46.6166 216.297 59.8008 222.575C78.0075 231.155 97.2606 235.55 117.351 235.341C119.234 235.341 120.699 236.387 121.536 237.852L128.233 230.737Z" fill="#543EFA"/>
<path fill-rule="evenodd" clip-rule="evenodd" d="M147.068 285.149C129.489 282.847 92.6567 276.569 77.1705 265.059C68.7996 258.99 62.94 253.968 58.9638 250.201C57.4989 249.782 56.2432 249.364 54.7783 249.154C61.475 263.176 70.4738 273.221 81.7745 280.127C95.5865 288.498 112.956 292.055 134.302 292.474C135.348 292.474 136.185 292.892 136.185 292.892C138.697 289.753 142.673 287.033 147.068 285.149Z" fill="#543EFA"/>
<path fill-rule="evenodd" clip-rule="evenodd" d="M132.836 309.84C121.744 331.186 121.744 352.532 132.417 374.296C127.394 342.068 129.696 336.418 137.021 319.048C134.928 315.909 133.673 312.77 132.836 309.84Z" fill="#543EFA"/>
<path d="M130.742 190.765L130.742 201.438L141.415 201.438L141.415 190.765L130.742 190.765Z" fill="#543EFA"/>
<path fill-rule="evenodd" clip-rule="evenodd" d="M348.386 158.745C348.804 158.745 355.71 157.908 355.71 157.908L355.71 153.095C355.71 153.095 354.245 150.374 352.99 149.537C351.734 148.7 337.922 142.213 337.085 141.585C336.457 140.957 319.715 134.26 318.669 133.842C317.832 133.423 309.461 133.423 309.461 133.423C309.461 133.423 307.787 139.911 308.833 141.375C310.089 142.84 320.553 154.978 320.553 154.978" fill="#F580F7"/>
<path fill-rule="evenodd" clip-rule="evenodd" d="M353.409 183.649L369.523 183.649C365.128 185.951 359.478 185.323 353.409 183.649Z" fill="#402DD4"/>
<path d="M322.647 176.327C322.229 176.327 321.601 176.327 321.182 176.327C314.695 176.746 308.835 178.839 303.603 183.443C300.255 186.372 297.116 190.558 294.605 196.208C287.699 211.276 291.047 224.879 291.047 224.879L325.786 176.118C325.577 176.118 325.368 176.118 325.158 176.118C324.112 176.327 323.484 176.327 322.647 176.327Z" fill="#FBCCFC"/>
<path d="M421.635 213.366C421.635 213.366 376.641 262.127 328.927 339.349L285.189 324.909L258.402 275.311C258.402 275.311 314.697 178.418 361.365 148.283L405.103 162.722L421.635 213.366Z" fill="#98D517"/>
<path d="M258.194 275.31C258.194 275.31 314.489 178.417 361.157 148.282L372.876 152.258C347.344 159.164 297.747 199.135 282.261 289.332L265.519 289.332L258.194 275.31Z" fill="#98D517"/>
<path d="M385.848 157.07L356.969 181.765L382.5 156.024L385.848 157.07Z" fill="#D5E7AE"/>
<path d="M308 201.646L347.971 226.13L340.856 236.176L292.933 221.945C297.746 215.248 302.768 208.342 308 201.646Z" fill="#D5E7AE"/>
<path d="M291.886 274.682C291.886 274.682 308.837 246.221 334.159 210.226L329.136 208.552C329.346 208.761 312.185 233.037 291.886 274.682Z" fill="#D5E7AE"/>
<path d="M323.065 199.136C323.065 199.136 338.97 180.51 354.038 165.234C354.038 165.234 336.04 178.627 319.717 197.88L323.065 199.136Z" fill="#D5E7AE"/>
<path d="M382.29 168.163C382.499 169 382.29 169.837 381.662 170.465C333.111 214.621 304.859 270.288 304.65 270.916C304.022 272.171 302.557 272.59 301.511 271.962C300.255 271.334 299.836 269.869 300.464 268.823C300.673 268.195 329.344 211.901 378.523 167.116C379.569 166.279 381.034 166.279 381.871 167.326C381.871 167.326 382.081 167.744 382.29 168.163Z" fill="#402DD4"/>
<path d="M370.571 160.421C370.781 161.258 370.571 162.305 369.734 162.723C320.346 202.067 282.049 266.313 281.631 266.941C281.003 267.988 279.538 268.406 278.491 267.778C277.445 267.15 277.027 265.686 277.654 264.639C278.073 264.011 316.998 198.928 367.014 159.166C368.06 158.329 369.525 158.538 370.362 159.584C370.362 159.794 370.571 160.003 370.571 160.421Z" fill="#402DD4"/>
<path d="M333.533 331.815C331.858 334.326 330.393 336.837 328.719 339.349L284.981 324.909L258.194 275.311L314.698 293.936L333.533 331.815Z" fill="#D5E7AE"/>
<path d="M265.934 277.82L273.887 299.166L263.214 276.983L265.934 277.82Z" fill="#98D517"/>
<path d="M307.161 331.815L292.303 297.913L309.882 332.862L307.161 331.815Z" fill="#98D517"/>
<path d="M291.468 327.421L283.516 309.633L294.189 328.677L291.468 327.421Z" fill="#98D517"/>
<path d="M275.562 280.962L279.119 282.218L294.396 316.12L275.562 280.962Z" fill="#98D517"/>
<path d="M423.936 212.947C424.146 213.784 423.936 214.412 423.309 215.04C422.89 215.458 377.896 264.637 330.81 340.603C330.182 341.44 329.136 341.859 328.09 341.65L284.352 327.21C283.724 327 283.305 326.582 283.096 326.163L256.309 276.566C255.89 275.938 255.89 274.892 256.309 274.264C258.611 270.288 313.44 176.533 360.108 146.398C360.736 145.98 361.364 145.98 362.201 146.189L405.939 160.629C406.567 160.838 407.195 161.466 407.404 162.094L423.936 212.738C423.936 212.738 423.936 212.738 423.936 212.947ZM327.671 336.418C370.99 266.939 412.217 220.062 418.914 212.738L403.009 164.396L361.364 150.793C318.672 179.254 267.191 264.428 260.704 275.31L286.444 323.024L327.671 336.418Z" fill="#402DD4"/>
<path d="M304.232 289.122C304.232 289.541 304.232 289.959 304.232 290.378C303.813 291.634 302.558 292.261 301.302 291.843L276.608 283.681C275.352 283.263 274.724 282.007 275.143 280.751C275.561 279.496 276.817 278.868 278.073 279.286L302.767 287.448C303.604 287.657 304.022 288.285 304.232 289.122Z" fill="#402DD4"/>
<path d="M269.282 277.612C269.282 278.031 269.282 278.449 269.282 278.868C268.864 280.124 267.608 280.751 266.353 280.333L257.982 277.612C256.726 277.194 256.098 275.938 256.517 274.682C256.935 273.427 258.191 272.799 259.447 273.218L267.818 275.938C268.445 276.147 269.073 276.775 269.282 277.612Z" fill="#402DD4"/>
<path d="M328.716 339.349L301.929 289.751C301.929 289.751 358.223 192.858 404.891 162.722L421.423 213.366C421.633 213.366 376.639 262.127 328.716 339.349Z" fill="#98D517"/>
<path d="M374.13 272.381C373.502 273.218 372.665 274.264 372.038 275.31C371.41 276.147 370.782 277.194 370.154 278.031L369.945 278.24C369.317 279.077 368.689 279.914 368.061 280.751C367.852 280.961 367.852 280.961 367.643 281.17C367.015 282.216 366.178 283.053 365.55 284.1L330.602 245.175C330.602 245.175 330.602 244.966 330.811 244.966C331.857 243.501 334.159 240.362 337.089 235.967C351.947 215.04 370.154 192.229 387.942 176.115L374.13 272.381Z" fill="#98D517"/>
<path d="M423.938 212.947C424.147 213.784 423.938 214.412 423.31 215.04C422.892 215.458 377.898 264.637 330.812 340.603C330.393 341.231 329.556 341.65 328.719 341.65C327.882 341.65 327.045 341.231 326.626 340.394L299.839 290.796C299.421 290.169 299.421 289.331 299.839 288.494C301.932 284.727 349.228 194.322 403.639 160.629C404.266 160.21 405.103 160.21 405.731 160.419C406.359 160.629 406.987 161.257 407.196 161.884L423.729 212.528C423.938 212.738 423.938 212.738 423.938 212.947ZM328.928 334.744C371.829 266.311 412.219 220.271 418.915 212.947L403.639 166.488C354.459 198.716 310.303 279.496 304.653 289.959L328.928 334.744Z" fill="#402DD4"/>
<path d="M347.344 345.418L318.883 293.519C318.883 293.519 356.133 198.927 405.94 162.932L422.473 213.576C422.473 213.576 377.688 266.104 347.344 345.418Z" fill="#D5E7AE"/>
<path d="M403.01 239.735C401.126 242.455 399.243 245.385 397.15 248.315L376.851 191.183C380.827 186.37 384.803 181.766 388.988 177.581L403.01 239.735Z" fill="#DFFFA7"/>
<path d="M365.967 302.935C364.921 305.237 363.665 307.539 362.619 310.05C355.922 288.286 342.319 271.544 333.111 262.127C334.786 258.569 336.669 255.012 338.762 251.035L365.967 302.935Z" fill="#D5E7AE"/>
<path d="M411.382 227.804C409.499 230.315 407.406 233.245 405.104 236.384L392.129 174.23C394.012 172.347 396.105 170.463 397.989 168.789L411.382 227.804Z" fill="#DFFFA7"/>
<path d="M346.296 330.769C361.154 294.984 378.524 265.476 390.871 246.432C402.172 229.063 411.171 217.343 415.356 212.321L402.59 173.396C362.829 207.298 331.856 278.242 325.578 293.1L346.296 330.769Z" fill="#BEF941"/>
<path d="M408.241 207.505C408.869 210.225 408.241 212.946 406.567 215.248C402.172 221.108 395.057 230.734 386.686 243.709C376.641 259.195 361.574 284.099 347.762 314.862C347.343 315.699 346.506 316.327 345.669 316.327C344.832 316.327 343.995 315.908 343.576 315.071L332.275 294.562C331.648 293.516 331.648 292.26 332.066 291.214C340.856 270.705 364.922 219.224 395.894 186.996C396.731 185.95 398.196 185.74 399.452 185.95C400.708 186.159 401.754 187.205 402.172 188.461L408.241 206.668C408.241 206.877 408.241 207.086 408.241 207.505ZM334.159 292.888C334.159 293.097 334.159 293.097 334.368 293.307L345.669 313.815C359.69 283.052 374.758 257.94 384.803 242.453C393.174 229.478 400.289 219.852 404.893 213.992C406.358 212.109 406.776 209.807 405.939 207.505L399.87 189.298C399.661 188.88 399.452 188.461 398.824 188.461C398.406 188.252 397.778 188.461 397.568 188.88C366.178 221.735 341.065 276.356 334.159 292.47C334.159 292.26 334.159 292.679 334.159 292.888Z" fill="#98D517"/>
<path d="M385.711 220.372C380.781 217.357 369.451 226.902 360.405 241.692C351.358 256.482 348.021 270.916 352.951 273.931C357.881 276.947 369.211 267.401 378.258 252.612C387.304 237.822 390.641 223.387 385.711 220.372Z" fill="#98D517"/>
<path d="M351.529 227.804L377.27 281.378C376.014 283.47 374.968 285.563 373.712 287.656C368.271 278.448 350.274 247.894 345.042 238.895C347.135 235.128 349.437 231.571 351.529 227.804Z" fill="#5A713A"/>
<path d="M424.775 213.157C424.984 213.785 424.775 214.622 424.356 215.25C423.938 215.668 379.572 268.405 349.646 346.255C349.227 347.092 348.6 347.719 347.553 347.719C346.716 347.719 345.67 347.301 345.251 346.464L316.79 294.564C316.372 293.936 316.372 293.309 316.581 292.471C318.046 288.495 354.668 196.834 404.475 160.839C405.103 160.42 405.94 160.211 406.568 160.42C407.196 160.63 407.824 161.257 408.033 161.885L424.566 212.529C424.775 212.948 424.775 212.948 424.775 213.157ZM346.925 339.767C374.759 269.451 413.474 220.691 419.752 213.157L404.475 166.908C359.9 201.229 325.37 283.263 321.394 293.309L346.925 339.767Z" fill="#402DD4"/>
<path d="M294.604 217.342L349.015 235.34L375.593 287.03C375.593 287.03 388.149 273.218 391.079 260.243L364.502 207.925L314.695 191.602C314.485 191.602 308.626 194.532 294.604 217.342Z" fill="#FBCCFC"/>
<path d="M348.181 231.572L349.437 231.991C350.274 232.409 351.111 233.037 351.529 233.874L377.27 284.937C375.596 287.029 375.596 286.82 375.596 286.82L349.227 235.13L346.925 234.293L340.229 231.991L294.816 217.132C308.628 194.112 314.697 191.182 314.697 191.182L362.621 206.878C358.017 213.784 352.785 222.364 348.181 231.572Z" fill="#FBCCFC"/>
<path d="M377.479 242.034C381.873 250.824 386.477 259.823 389.407 265.473C388.779 266.938 388.152 268.403 387.314 269.868C376.223 247.685 360.946 217.34 358.435 213.573C354.877 212.318 329.764 204.156 308.628 197.25C309.674 195.994 310.721 194.948 311.348 194.111C330.183 200.18 359.272 209.806 360.318 210.225C361.155 210.853 361.783 211.062 377.479 242.034Z" fill="#F580F7"/>
<path d="M300.049 208.97C318.674 215.039 351.321 225.712 352.576 226.34C353.413 226.758 354.041 226.968 368.899 256.057C373.713 265.265 378.526 274.682 381.037 279.914C380.2 281.169 379.363 282.216 378.526 283.262C367.853 262.335 352.785 233.037 350.483 229.479C346.717 228.223 319.72 219.225 297.956 212.109C298.584 211.063 299.212 210.017 300.049 208.97Z" fill="#F580F7"/>
<path d="M393.384 259.615C393.384 260.033 393.384 260.243 393.384 260.661C390.245 274.055 377.898 288.076 377.27 288.494C376.852 289.122 376.015 289.332 375.177 289.332C374.34 289.332 373.713 288.704 373.294 288.076L347.344 237.223L293.77 219.644C293.143 219.434 292.515 218.807 292.305 218.179C292.096 217.551 292.096 216.714 292.515 216.086C306.327 193.275 312.605 189.508 313.442 189.299C314.07 189.09 314.698 188.881 315.325 189.09L365.132 205.413C365.76 205.622 366.179 206.041 366.597 206.669L393.175 258.987C393.175 259.196 393.384 259.406 393.384 259.615ZM376.015 282.635C379.572 278.24 386.269 269.032 388.571 260.243L362.83 209.599L315.116 193.903C313.442 195.368 308.001 200.6 298.374 215.877L350.065 232.828C350.693 233.037 351.111 233.456 351.53 234.084L376.015 282.635Z" fill="#402DD4"/>
<path fill-rule="evenodd" clip-rule="evenodd" d="M345.875 177.999L365.129 180.51C365.129 180.51 371.407 177.162 371.825 176.116C372.244 175.069 372.872 166.489 372.662 166.07C372.453 165.652 363.873 149.119 363.873 149.119L347.759 136.563L325.995 125.89L305.904 124.844L293.767 142.632L304.439 173.604L308.625 172.767" fill="#F580F7"/>
<path d="M304.233 123.173C304.024 125.684 306.116 127.986 308.628 127.986C313.441 128.195 326.625 131.962 339.809 138.24C347.552 142.007 355.086 146.402 360.527 151.843C365.341 156.656 368.48 161.888 368.27 167.329C368.27 169.213 367.643 171.305 366.596 173.607C364.504 177.793 356.97 175.282 347.971 172.352C339.182 169.422 329.555 166.283 319.928 167.539C309.883 168.794 302.14 172.98 296.49 178.002C294.397 179.886 292.514 181.978 291.049 183.862L303.396 183.862C309.046 178.839 315.743 176.956 322.649 176.747C323.486 176.747 324.114 176.747 324.951 176.747C325.16 176.747 325.37 176.747 325.579 176.747C331.857 177.165 338.554 179.258 344.832 181.351C347.762 182.397 350.482 183.234 353.203 183.862C359.481 185.536 364.922 186.164 369.317 183.862C371.41 182.606 373.293 180.723 374.758 177.584C376.432 174.235 377.06 171.096 377.269 167.957C377.688 159.377 373.502 151.843 366.596 145.356C360.318 139.287 351.947 134.264 343.576 130.288C329.346 123.382 314.487 119.406 308.837 119.197C306.535 118.569 304.233 120.661 304.233 123.173Z" fill="#402DD4"/>
<path d="M177.62 144.096C177.62 144.096 183.27 135.725 186.41 134.051C189.758 132.377 195.199 131.33 202.524 129.028C209.848 126.517 213.196 132.377 213.196 132.377L192.478 156.443L182.433 157.699" fill="#F580F7"/>
</svg>
