<svg width="1920" height="1588" viewBox="0 0 1920 1588" fill="none" xmlns="http://www.w3.org/2000/svg">
<path d="M2390.67 1330.6C2375.26 1330.6 2361.31 1336.88 2351 1346.92L2023.96 980.794L2233.35 703.689L1887.77 816.352L2055.3 479.202L1748.04 650.967L1845.81 293.21L1577.08 531.715L1598.01 145.818L1364.05 451.062L1344.69 61.7132L1154.46 370.305L1054.82 0.308594L948.51 380.975L772.028 14.1168L714.554 412.462L484.137 89.748L508.501 475.54L222.276 173.852L326.084 580.776L-15.3246 363.297L172.403 725.448L-222.002 559.854L16.3278 877.861C16.3278 877.861 -357.357 812.481 -367.769 816.352C-378.181 820.222 -32.5043 1156.22 -32.5043 1156.22C-32.5043 1226.94 -3.7673 1291.27 42.5659 1337.92C88.8992 1384.47 152.933 1413.56 223.422 1413.56H265.902C271.941 1413.56 276.939 1418.58 276.939 1424.64V1587.31H406.568V1424.64C406.568 1418.58 411.566 1413.56 417.605 1413.56H544.839C550.878 1413.56 555.771 1418.58 555.771 1424.64V1587.31H685.4V1424.64C685.4 1418.58 690.398 1413.56 696.437 1413.56H1240.05C1246.08 1413.56 1251.08 1418.58 1251.08 1424.64V1587.31H1380.71V1424.64C1380.71 1418.58 1385.5 1413.56 1391.64 1413.56H1518.98C1525.02 1413.56 1530.02 1418.58 1530.02 1424.64V1587.31H1659.65V1424.64C1659.65 1418.58 1664.65 1413.56 1670.68 1413.56H2440.44C2444.6 1405.71 2447 1396.82 2447 1387.4C2447 1356.02 2421.7 1330.6 2390.67 1330.6ZM1800.42 1253.72C1738.26 1253.72 1687.66 1203.09 1687.66 1140.63C1687.66 1078.18 1738.26 1027.34 1800.42 1027.34C1862.37 1027.34 1912.97 1078.18 1912.97 1140.63C1912.97 1203.09 1862.37 1253.72 1800.42 1253.72Z" fill="#DDFF96"/>
</svg>
