<svg width="187" height="187" viewBox="0 0 187 187" fill="none" xmlns="http://www.w3.org/2000/svg">
<path d="M132.269 55.4627C153.552 76.7463 153.552 111.254 132.269 132.537C110.985 153.821 76.4777 153.821 55.1942 132.537C33.9106 111.254 33.9106 76.7463 55.1942 55.4627C76.4777 34.1791 110.985 34.1791 132.269 55.4627Z" fill="#F580F7" stroke="#FEDDFF" stroke-width="8"/>
<path fill-rule="evenodd" clip-rule="evenodd" d="M140.156 46.719C165.958 72.5209 165.958 114.354 140.156 140.156C114.354 165.958 72.5205 165.958 46.7185 140.156C20.9166 114.354 20.9166 72.5209 46.7185 46.719C72.5205 20.917 114.354 20.917 140.156 46.719ZM134.803 134.803C157.649 111.958 157.649 74.9174 134.803 52.0718C111.957 29.2261 74.917 29.2261 52.0713 52.0718C29.2257 74.9174 29.2257 111.958 52.0713 134.803C74.917 157.649 111.957 157.649 134.803 134.803Z" fill="#543EFA"/>
<path d="M97.8132 111.266L102.412 128.43L115.122 93.218L97.8132 111.266Z" fill="#FEDDFF"/>
<path d="M84.0159 59.7742L114.047 89.2077L96.7386 107.256L72.5674 100.322" fill="#FEDDFF"/>
<path d="M84.0159 59.7742L90.8071 85.1192L72.5674 100.322M73.6419 104.332L97.8132 111.266L102.412 128.43" fill="#FEDDFF"/>
<path d="M90.8071 85.1192L96.7386 107.256L114.047 89.2077" fill="#FEDDFF"/>
<path d="M72.5674 100.322L90.8071 85.1192L96.7386 107.256" fill="#FEDDFF"/>
</svg>
