<svg width="686" height="440" viewBox="0 0 686 440" fill="none" xmlns="http://www.w3.org/2000/svg">
<path fill-rule="evenodd" clip-rule="evenodd" d="M128.115 357.896C168.839 356.263 200.528 321.927 198.895 281.203C197.262 240.48 162.926 208.791 122.203 210.424C81.4794 212.056 49.7903 246.393 51.4231 287.116C53.0558 327.839 87.3922 359.529 128.115 357.896ZM128.584 369.577C175.758 367.685 212.468 327.91 210.576 280.735C208.685 233.561 168.909 196.851 121.734 198.743C74.5599 200.634 37.8507 240.41 39.7421 287.584C41.6335 334.759 81.4093 371.468 128.584 369.577Z" fill="#4633DC"/>
<path d="M198.434 300.725C189.306 341.218 149.08 366.644 108.586 357.516C68.0932 348.387 42.6671 308.161 51.7956 267.668C60.9241 227.174 101.15 201.748 141.644 210.877C182.137 220.005 207.563 260.232 198.434 300.725Z" fill="#F580F7"/>
<path fill-rule="evenodd" clip-rule="evenodd" d="M127.758 348.989C163.562 347.553 191.424 317.365 189.988 281.561C188.553 245.756 158.364 217.895 122.56 219.331C86.7555 220.766 58.8943 250.955 60.3298 286.759C61.7653 322.563 91.9541 350.424 127.758 348.989ZM128.17 359.259C169.646 357.596 201.921 322.625 200.258 281.149C198.595 239.673 163.624 207.398 122.148 209.061C80.6718 210.724 48.3969 245.695 50.0599 287.171C51.7228 328.647 86.6939 360.922 128.17 359.259Z" fill="#FEDDFF"/>
<path d="M120.179 306.357L115.168 328.582L150.584 296.187L120.179 306.357Z" fill="#FEDDFF"/>
<path d="M135.209 239.682L151.755 290.994L121.349 301.164L98.0441 278.886" fill="#FEDDFF"/>
<path d="M135.209 239.682L127.811 272.5L98.0441 278.886M96.8735 284.079L120.179 306.357L115.168 328.582" fill="#FEDDFF"/>
<path d="M127.811 272.5L121.349 301.164L151.755 290.994" fill="#FEDDFF"/>
<path d="M98.0441 278.886L127.811 272.5L121.349 301.164" fill="#FEDDFF"/>
<path d="M434.035 418.871C432.011 421.668 429.336 423.805 427.637 424.995C427.637 424.995 427.637 424.995 427.627 424.995C414.128 426.744 396.174 413.724 394.16 412.218C389.725 408.78 385.544 405.006 381.668 400.845C375.86 394.589 370.875 387.733 366.827 380.236C365.474 377.703 365.87 375.323 367.681 373.848C370.448 371.59 373.368 371.142 375.575 372.698C376.002 372.994 376.429 373.37 376.918 373.472H376.958C376.969 373.482 376.969 373.492 376.969 373.502C377.121 373.929 377.274 374.346 377.436 374.814C379.308 380.012 386.856 393.216 398.737 404.019C398.737 404.019 398.992 404.263 399.48 404.68C402.847 407.6 417.271 419.217 433.598 419.349C433.761 419.196 433.903 419.044 434.035 418.871Z" fill="#BEF941"/>
<path d="M203.408 376.725C202.635 376.329 201.862 375.932 201.099 375.505C200.611 375.23 200.163 374.904 199.726 374.559C200.519 375.057 201.75 375.8 203.408 376.725Z" fill="#BEF941"/>
<path d="M494.123 282.957C493.889 282.886 493.625 282.916 493.34 282.967H493.33C459.303 283.486 426.67 295.815 419.082 298.877C418.767 298.999 418.522 298.602 418.767 298.378C429.641 288.267 448.633 258.645 456.119 246.652C456.272 246.408 456.425 246.174 456.567 245.94C457.34 244.75 458.083 243.56 458.795 242.349C459.12 241.81 459.293 241.525 459.293 241.525C460.544 239.399 461.724 237.242 462.782 235.015C463.25 234.059 463.861 233.214 464.379 232.299C468.428 225.229 472.202 218.006 475.691 210.642C478.336 205.067 480.767 199.401 483.046 193.684C490.726 171.458 505.293 125.224 500.695 106.466C497.257 107.524 493.94 108.928 490.594 110.312C479.74 114.757 469.221 119.945 459.364 126.333C450.047 132.386 441.288 139.13 433.028 146.576C423.334 155.314 414.382 164.754 406.153 174.886C401.921 180.104 398.076 185.607 394.516 191.304C394.19 191.823 393.915 192.382 393.62 192.942C401.809 197.784 408.116 205.79 410.547 215.758C415.338 235.381 403.305 255.166 383.682 259.947C364.06 264.738 344.274 252.704 339.493 233.082C334.702 213.459 346.736 193.674 366.358 188.893C370.041 187.988 373.733 187.683 377.324 187.917C377.457 186.757 377.202 185.607 377.05 184.458C376.775 182.2 376.297 179.962 375.819 177.734C373.327 176.839 370.712 176.686 367.986 177.215C365.738 177.602 363.632 178.212 361.689 179.118C361.476 179.219 361.232 179.321 361.028 179.443C360.316 179.809 359.624 180.196 358.963 180.643C358.383 181.03 357.814 181.457 357.254 181.925C357.132 182.027 356.99 182.139 356.878 182.261C356.786 182.352 356.705 182.424 356.603 182.515C355.82 183.237 355.098 184.041 354.426 184.926C354.294 185.079 354.192 185.221 354.07 185.343C352.911 186.686 351.954 186.706 350.245 185.801C348.17 184.692 347.743 183.146 349.167 181.203C350.052 180.003 351.008 178.884 352.036 177.866C352.727 177.164 353.46 176.534 354.233 175.934C354.599 175.649 354.986 175.364 355.352 175.11C356.074 174.601 356.807 174.153 357.59 173.726C358.282 173.34 358.994 172.973 359.736 172.668C359.777 172.658 359.818 172.628 359.838 172.617C359.889 172.607 359.909 172.597 359.95 172.567C360.062 172.516 360.143 172.475 360.255 172.444C360.459 172.373 360.652 172.282 360.825 172.211C365.402 170.43 369.98 169.871 374.568 170.746C374.537 170.481 374.507 170.207 374.476 169.942C374.486 169.871 374.435 169.779 374.446 169.708C373.235 163.137 371.831 156.616 370.285 150.126C363.744 123.749 344.579 61.2909 301.632 16.3901C300.716 17.7227 299.791 19.0553 298.875 20.3777C298.244 21.2525 297.644 22.1477 297.044 23.0327C296.8 23.409 296.556 23.8058 296.312 24.172C293.25 28.9632 290.442 33.8255 287.899 38.7795C287.584 39.3593 287.279 39.9595 286.994 40.5597C286.953 40.6207 286.943 40.6716 286.912 40.7224C285.336 43.9471 283.85 47.2124 282.426 50.5184C279.507 57.3848 276.913 64.3834 274.624 71.4633C261.42 114.157 262.417 157.267 265.255 184.6C265.428 186.391 265.621 188.11 265.815 189.748C266.039 191.579 266.262 193.328 266.486 194.966C271.176 193.969 275.865 194.315 280.585 196.268C281.867 196.797 283.118 197.387 284.166 198.303C284.288 198.445 284.42 198.557 284.542 198.689C285.346 199.727 285.498 201.11 284.807 202.239C283.993 203.613 282.589 204.172 281.073 203.674C280.544 203.491 280.005 203.257 279.527 202.972C276.313 201.11 272.864 200.581 269.223 201.303C268.633 201.405 268.053 201.517 267.493 201.649C267.748 203.287 268.002 204.772 268.236 206.095C268.785 209.157 269.243 211.344 269.497 212.503C289.12 207.743 308.885 219.766 313.676 239.379C318.457 259.001 306.423 278.786 286.8 283.567C267.178 288.359 247.393 276.325 242.612 256.702C238.97 241.779 245.073 226.775 256.822 218.322C256.751 218.302 256.69 218.291 256.619 218.271C245.002 214.873 233.833 210.072 222.226 206.654C211.942 203.623 201.536 201.741 190.967 201.151C185.545 200.856 180.072 200.897 174.558 201.303C171.324 201.537 168.119 201.812 164.935 202.341C163.745 202.524 162.555 202.758 161.375 203.033C161.019 203.124 160.673 203.155 160.327 203.124C160.297 203.124 160.256 203.124 160.226 203.114C161.467 207.142 162.972 211.14 164.701 215.077C167.967 222.981 172.687 232.685 179.421 243.305C181.048 245.869 182.778 248.473 184.639 251.128C184.639 251.138 184.649 251.138 184.649 251.138C193.031 263.101 203.926 275.908 218.025 288.44L217.984 288.491C218.005 288.501 218.015 288.521 218.025 288.532C225.471 295.164 233.813 301.715 243.161 308.032V308.042C243.161 308.042 256.68 317.523 271.043 325.142C271.511 325.111 271.969 325.081 272.407 325.081H272.569C272.864 325.081 273.139 325.091 273.414 325.101C273.495 325.101 273.556 325.132 273.607 325.183C273.759 325.315 273.739 325.61 273.515 325.681C270.881 326.424 265.255 328.173 258.247 331.113C250.912 334.185 242.072 338.559 233.64 344.419C231.361 346.036 229.093 347.664 226.844 349.322C220.344 354.103 214.088 359.209 208.239 364.773C206.072 366.839 204.058 369.015 202.004 371.141C199.969 373.664 199.237 373.888 199.023 373.888C199.023 373.888 198.972 373.898 198.911 373.878C198.972 373.949 199.043 374.03 199.125 374.091C230.985 388.77 269.629 382.789 273.79 382.077C275.011 381.863 276.231 381.639 277.452 381.405C280.951 380.744 284.42 380.063 287.869 379.228C292.171 378.17 296.312 376.614 300.523 375.251C304.978 373.796 309.342 372.159 313.655 370.439C320.98 367.54 328.171 364.326 335.272 360.908C346.828 355.354 357.742 348.65 369.085 342.74C375.87 339.21 382.716 335.853 389.745 332.822C394.984 330.554 400.344 328.601 405.705 326.627C408.391 325.63 411.229 324.837 413.955 323.891C423.588 320.503 433.466 318.123 443.374 315.895C446.975 315.092 450.616 314.329 454.319 314.074C455.55 313.983 456.547 313.525 457.493 312.559C463.199 306.71 469.588 301.644 476.098 296.7C481.428 292.631 486.911 288.816 492.577 285.226C493.35 284.747 494.978 284.615 494.713 283.618C494.612 283.222 494.398 283.028 494.123 282.957ZM288.458 302.976C278.235 305.469 269.202 304.451 268.287 300.708C267.381 296.954 274.929 291.899 285.152 289.406C295.376 286.914 304.409 287.931 305.314 291.675C306.23 295.428 298.682 300.484 288.458 302.976ZM345.363 297.707C338.008 300.555 330.979 300.128 324.347 295.693C320.044 292.824 317.572 288.593 315.934 283.852C314.713 280.322 313.879 276.701 313.157 273.059C313.035 272.347 313.025 271.625 312.964 270.893C312.872 269.743 313.432 269.072 314.52 268.807C315.771 268.482 317.023 268.126 318.274 267.821C328.7 265.237 339.158 262.663 349.584 260.09C350.378 259.896 351.161 259.734 351.954 259.561C353.908 259.184 354.141 259.266 354.711 261.219C355.383 263.457 355.871 265.766 356.43 268.034C357.478 271.767 358.424 275.531 358.302 279.458C358.007 287.819 353.165 294.676 345.363 297.707ZM390.121 278.186C379.898 280.678 370.875 279.661 369.959 275.918C369.044 272.174 376.592 267.109 386.815 264.616C397.038 262.124 406.071 263.141 406.987 266.885C407.902 270.638 400.355 275.694 390.121 278.186Z" fill="#BEF941"/>
<path d="M271.043 325.146C266.486 325.431 261.023 326.937 255.835 328.788C255.815 328.798 255.784 328.808 255.754 328.818C255.164 328.432 254.645 328.076 254.106 327.74C246.985 323.447 239.916 319.022 233.293 313.926C225.959 308.28 219.215 301.953 212.705 295.402C212.44 295.138 212.176 294.873 211.921 294.609C211.453 294.141 210.985 293.673 210.528 293.205C207.944 290.58 205.462 287.875 203.071 285.098C202.837 284.833 202.613 284.589 202.42 284.355C201.505 283.277 200.599 282.188 199.704 281.09C160.5 235.019 158.14 199.009 157.997 194.828C157.987 194.625 157.987 194.492 157.987 194.441C157.997 194.472 158.008 194.543 158.038 194.655C158.079 194.879 158.13 195.113 158.181 195.337C158.211 195.509 158.252 195.672 158.293 195.845C158.303 195.876 158.313 195.906 158.313 195.947C158.374 196.211 158.445 196.506 158.526 196.832C158.994 198.846 159.534 200.86 160.144 202.864C160.164 202.945 160.195 203.027 160.225 203.118C161.466 207.147 162.972 211.144 164.701 215.081C167.966 222.985 172.686 232.69 179.42 243.31C181.048 245.873 182.777 248.477 184.639 251.132C184.639 251.142 184.649 251.142 184.649 251.142C193.031 263.105 203.926 275.912 218.025 288.444L217.984 288.495C218.004 288.505 218.014 288.526 218.025 288.536C225.471 295.168 233.812 301.719 243.161 308.036V308.046C243.161 308.046 256.68 317.527 271.043 325.146Z" fill="#98D517"/>
<path d="M500.695 106.465C497.257 107.523 493.941 108.927 490.594 110.31C479.74 114.755 469.222 119.943 459.365 126.331C450.047 132.384 441.289 139.128 433.029 146.574C423.334 155.313 414.383 164.752 406.153 174.884C401.922 180.103 398.076 185.606 394.516 191.302C394.191 191.821 393.916 192.381 393.621 192.94C390.417 191.048 386.917 189.634 383.245 188.79C384.761 186.42 386.266 184.06 388.026 181.852C388.036 181.842 388.036 181.842 388.047 181.832C390.447 179.523 392.238 176.705 394.292 174.121C406.052 159.28 419.408 146.005 434.616 134.754C446.405 126.006 458.917 118.489 472.559 112.904C480.554 109.608 488.794 107.004 497.298 105.376C497.298 105.376 497.369 105.366 497.481 105.346C498.061 105.275 499.871 105.112 500.533 106.058C500.583 106.119 500.624 106.19 500.655 106.272C500.665 106.282 500.665 106.282 500.665 106.292C500.675 106.353 500.685 106.404 500.695 106.465Z" fill="#FCF7D3"/>
<path d="M356.43 268.039C355.871 265.771 355.383 263.462 354.711 261.224C354.142 259.271 353.908 259.189 351.955 259.566C351.161 259.739 350.378 259.901 349.584 260.095C339.158 262.668 328.7 265.242 318.274 267.826C317.023 268.131 315.771 268.487 314.52 268.812C313.432 269.077 312.872 269.748 312.964 270.898C313.025 271.63 313.035 272.352 313.157 273.064C313.879 276.706 314.713 280.327 315.934 283.857C317.572 288.598 320.044 292.829 324.347 295.698C330.979 300.133 338.008 300.56 345.363 297.712C353.165 294.681 358.007 287.825 358.302 279.463C358.424 275.536 357.478 271.773 356.43 268.039ZM352.26 283.501C351.68 285.76 350.429 287.601 348.842 289.289C342.952 295.606 331.834 296.034 325.812 290.144C325.455 289.798 325.12 289.472 324.804 289.096C324.123 288.272 324.164 287.519 325.018 286.807C326.32 285.719 327.632 284.63 329.148 283.857C331.752 282.474 334.509 281.579 337.011 280.877C341.406 280.073 345.475 279.412 349.625 279.778C352.473 280.012 352.962 280.663 352.26 283.501Z" fill="#543EFA"/>
<path d="M325.809 290.146C331.835 296.032 342.956 295.603 348.843 289.288C350.428 287.604 351.685 285.76 352.264 283.503C352.966 280.663 352.472 280.015 349.624 279.772C345.474 279.414 341.403 280.069 337.01 280.877C334.514 281.582 331.75 282.472 329.153 283.85C327.636 284.628 326.316 285.72 325.018 286.805C324.159 287.519 324.126 288.272 324.806 289.092C325.116 289.474 325.459 289.798 325.809 290.146Z" fill="#F580F7"/>
<path d="M301.633 16.3901C300.718 17.7227 299.792 19.0553 298.876 20.3777C298.246 21.2525 297.646 22.1476 297.045 23.0326C296.801 23.409 296.557 23.8057 296.313 24.1719C293.251 28.9631 290.443 33.8255 287.9 38.7795C287.585 39.3593 287.28 39.9595 286.995 40.5597C286.954 40.6207 286.944 40.6716 286.914 40.7224C285.337 43.947 283.852 47.2124 282.428 50.5184C279.508 57.3847 276.914 64.3833 274.625 71.4633C261.422 114.157 262.419 157.267 265.257 184.6C265.43 186.391 265.623 188.11 265.816 189.748C266.04 191.579 266.264 193.328 266.488 194.966C265.013 195.271 263.538 195.719 262.063 196.288C261.89 196.36 261.696 196.451 261.493 196.522C261.381 196.553 261.3 196.604 261.188 196.644C261.147 196.685 261.127 196.685 261.076 196.695C261.055 196.706 261.015 196.736 260.974 196.746C260.231 197.051 259.53 197.418 258.828 197.804C258.512 197.977 258.217 198.15 257.922 198.333C257.922 198.323 257.922 198.323 257.912 198.323C257.607 197.214 257.302 196.065 256.997 194.864C249.53 165.598 241.972 109.081 271.035 48.8705L271.055 48.8399C272.499 45.6051 273.985 42.411 275.612 39.2474C280.536 29.6549 285.968 20.398 292.62 11.9041C292.824 11.6396 293.027 11.3954 293.21 11.1411C293.922 10.0527 294.757 9.88995 295.865 10.6122C295.876 10.6122 295.876 10.6122 295.876 10.6122C297.839 12.5043 299.761 14.4269 301.633 16.3901Z" fill="#FCF4D0"/>
<path d="M269.498 212.506C269.498 212.516 269.488 212.516 269.477 212.516C264.788 213.655 260.536 215.669 256.833 218.324H256.823C256.752 218.304 256.691 218.294 256.62 218.273C245.003 214.876 233.833 210.074 222.227 206.656C211.943 203.625 201.536 201.743 190.967 201.153C185.545 200.858 180.073 200.899 174.559 201.306C171.324 201.54 168.12 201.814 164.936 202.343C163.746 202.526 162.556 202.76 161.376 203.035C161.02 203.127 160.674 203.157 160.328 203.127C160.297 203.127 160.257 203.127 160.226 203.116C160.196 203.025 160.165 202.944 160.145 202.862C159.535 200.858 158.995 198.844 158.527 196.83C158.446 196.504 158.375 196.209 158.314 195.945C158.314 195.904 158.304 195.874 158.294 195.843C158.253 195.67 158.212 195.508 158.182 195.335C158.131 195.111 158.08 194.877 158.039 194.653C158.009 194.541 157.998 194.47 157.988 194.439V194.419C158.039 193.849 158.487 193.738 159.707 193.422C164.834 192.12 170.012 191.133 175.23 190.472C175.23 190.472 175.23 190.472 175.241 190.472C180.408 189.821 185.627 189.496 190.886 189.516C202.798 189.547 214.292 191.337 225.523 194.602C225.543 194.602 225.543 194.623 225.574 194.623C226.397 194.826 238.94 198.051 251.188 204.286C251.198 204.286 251.198 204.286 251.198 204.286C250.933 204.622 250.669 204.948 250.414 205.293C248.98 207.226 249.407 208.783 251.483 209.881C253.192 210.786 254.148 210.766 255.318 209.433C255.429 209.301 255.531 209.159 255.663 209.006C256.07 208.467 256.508 207.979 256.955 207.501C258.613 208.487 260.221 209.556 261.746 210.675C261.767 210.695 261.767 210.695 261.797 210.715C261.767 210.675 261.757 210.644 261.746 210.603C261.197 209.047 260.556 207.165 259.865 204.968C259.976 204.886 260.088 204.805 260.2 204.724C260.861 204.276 261.563 203.89 262.265 203.534C262.479 203.401 262.713 203.3 262.926 203.198C264.361 202.526 265.887 202.028 267.494 201.652C267.748 203.289 268.002 204.775 268.236 206.097C268.786 209.159 269.243 211.346 269.498 212.506Z" fill="#FCF4D0"/>
<path d="M378.294 178.892C378.773 179.184 379.31 179.414 379.836 179.598C381.35 180.095 382.752 179.536 383.571 178.159C384.257 177.03 384.112 175.647 383.308 174.617C383.178 174.481 383.054 174.367 382.925 174.23C381.882 173.307 380.634 172.721 379.351 172.193C377.755 171.531 376.162 171.055 374.572 170.751C369.98 169.872 365.407 170.437 360.825 172.215C360.649 172.282 360.455 172.377 360.257 172.45C360.143 172.478 360.058 172.522 359.95 172.572C359.91 172.606 359.888 172.612 359.842 172.623C359.819 172.628 359.78 172.662 359.734 172.673C358.99 172.975 358.285 173.339 357.587 173.726C356.802 174.157 356.07 174.601 355.353 175.111C354.984 175.37 354.596 175.656 354.233 175.937C353.464 176.533 352.73 177.169 352.035 177.868C351.009 178.887 350.057 180.008 349.172 181.21C347.745 183.144 348.172 184.699 350.244 185.804C351.955 186.709 352.912 186.692 354.075 185.351C354.19 185.227 354.298 185.08 354.429 184.928C355.103 184.043 355.821 183.242 356.607 182.522C356.704 182.426 356.783 182.359 356.881 182.262C356.995 182.139 357.137 182.033 357.256 181.931C357.814 181.459 358.383 181.032 358.963 180.649C359.622 180.2 360.321 179.813 361.026 179.45C361.236 179.326 361.475 179.22 361.69 179.119C363.633 178.213 365.743 177.601 367.983 177.224C370.71 176.685 373.326 176.847 375.818 177.74C376.657 178.041 377.483 178.424 378.294 178.892Z" fill="#F580F7"/>
<path d="M537.479 286.822C536.736 294.289 519.982 441.9 384.059 368.272C384.059 368.272 384.059 368.272 384.029 368.252C381.831 366.94 379.573 365.729 377.315 364.478C377.101 364.356 376.878 364.447 376.745 364.62C376.735 364.62 376.725 364.62 376.705 364.63C373.826 366.512 376.888 373.287 376.888 373.287C376.908 373.338 376.928 373.399 376.959 373.47H376.918C376.43 373.369 376.003 372.992 375.575 372.697C373.368 371.141 370.449 371.588 367.682 373.847C365.871 375.322 365.474 377.702 366.827 380.235C370.876 387.732 375.86 394.588 381.669 400.844C385.544 405.005 389.725 408.779 394.16 412.217C396.174 413.722 414.129 426.743 427.627 424.993C427.638 424.993 427.638 424.993 427.638 424.993C427.638 424.993 419.032 433.803 401.342 426.041C401.24 425.99 401.139 425.949 401.037 425.909C400.945 425.858 400.854 425.827 400.752 425.787C400.681 425.746 400.61 425.715 400.538 425.685C400.111 425.492 399.684 425.288 399.267 425.075C399.175 425.034 399.084 424.983 398.992 424.942C398.799 424.841 398.606 424.749 398.423 424.647C395.656 423.213 393.418 421.728 391.627 420.253C383.174 413.814 377.111 405.381 371.73 396.368C367.458 389.217 364.091 381.618 361.141 373.836C359.503 369.595 357.753 365.383 355.912 361.192C355.699 360.694 354.936 360.918 355.037 361.446C355.17 362.169 355.302 362.901 355.404 363.623C356.085 368.598 356.319 373.592 356.838 378.556C357.153 381.751 356.116 384.599 354.519 387.315C350.46 394.324 345.414 400.458 339.311 405.767C332.404 411.749 324.744 416.53 316.148 419.612C310.116 421.779 303.809 422.928 297.34 422.511C294.898 422.359 294.634 422.165 294.644 419.856C294.766 407.822 299.161 397.67 308.041 389.522C308.804 388.8 309.699 388.251 310.533 387.589C310.869 387.315 311.327 387.132 311.612 386.796C311.917 386.46 311.561 385.901 311.113 386.053C310.981 386.104 310.849 386.165 310.727 386.247C307.98 387.874 304.918 388.627 301.866 389.41C293.342 391.597 284.777 392.747 276.171 393.052V393.062C241.778 395.677 214.069 382.666 203.408 376.725C201.75 375.8 200.519 375.057 199.726 374.559C199.125 374.182 198.769 373.948 198.698 373.897C198.83 373.969 198.983 374.02 199.125 374.091C230.985 388.77 269.63 382.788 273.791 382.076C275.011 381.862 276.232 381.639 277.453 381.405C280.952 380.743 284.421 380.062 287.869 379.228C292.172 378.17 296.312 376.613 300.524 375.25C304.979 373.796 309.343 372.158 313.656 370.439C320.98 367.54 328.172 364.325 335.273 360.907C346.828 355.353 357.743 348.65 369.085 342.74C375.87 339.21 382.716 335.853 389.746 332.821C394.984 330.553 400.345 328.6 405.706 326.626C408.392 325.63 411.23 324.836 413.956 323.89C423.589 320.503 433.466 318.122 443.374 315.895C446.975 315.091 450.617 314.328 454.32 314.074C455.551 313.982 456.547 313.524 457.494 312.558C463.2 306.709 469.588 301.643 476.099 296.699C481.429 292.63 486.912 288.816 492.578 285.225C493.351 284.747 494.979 284.615 494.714 283.618C494.613 283.221 494.399 283.028 494.124 282.956C493.89 282.885 493.626 282.916 493.341 282.967H493.331C459.304 283.485 426.671 295.814 419.083 298.876C418.767 298.998 418.523 298.602 418.767 298.378C429.642 288.266 448.633 258.645 456.12 246.651C456.273 246.407 456.425 246.173 456.568 245.939C457.341 244.749 458.084 243.559 458.796 242.348C459.121 241.809 459.294 241.524 459.294 241.524C460.545 239.398 461.725 237.242 462.783 235.014C463.251 234.058 463.861 233.214 464.38 232.298C468.429 225.228 472.203 218.006 475.692 210.641C478.337 205.067 480.768 199.401 483.047 193.684C490.727 171.457 505.294 125.224 500.696 106.466C500.685 106.405 500.675 106.354 500.665 106.293C500.685 106.344 500.706 106.405 500.726 106.466C501.164 107.992 501.794 110.413 502.425 113.678C502.435 113.688 502.435 113.709 502.435 113.729C505.161 127.665 508.02 156.738 496.647 195.098C496.026 197.244 495.386 199.38 494.694 201.517C493.605 204.863 492.395 208.149 491.113 211.394C490.971 211.76 490.849 212.126 490.696 212.503L490.686 212.492C485.864 224.486 479.802 235.869 472.864 246.865C466.028 257.688 458.195 267.739 449.966 277.535C447.464 280.505 445.002 283.506 441.879 285.876C441.696 285.947 441.482 286.14 441.35 286.374C441.269 286.537 441.269 286.751 441.421 286.883C441.645 287.086 441.93 286.995 442.133 286.924C448.094 284.584 454.279 282.926 460.515 281.675C469.131 279.956 477.787 278.399 486.617 277.952C493.809 277.565 500.96 277.219 508.152 277.942C517.989 278.928 527.418 281.319 536.238 285.825C536.563 286.008 536.919 286.191 537.255 286.374C537.418 286.456 537.489 286.649 537.479 286.822Z" fill="#98D517"/>
<path d="M434.768 417.731C434.728 417.833 434.656 417.975 434.575 418.107C434.473 418.29 434.331 418.474 434.178 418.687C434.127 418.748 434.087 418.799 434.036 418.87C433.904 419.043 433.761 419.196 433.598 419.348C417.272 419.216 402.847 407.599 399.48 404.68C398.992 404.263 398.738 404.019 398.738 404.019C386.856 393.216 379.308 380.012 377.437 374.814C377.274 374.346 377.121 373.929 376.969 373.502C376.969 373.491 376.969 373.481 376.959 373.471C376.928 373.4 376.908 373.339 376.887 373.288C376.887 373.288 373.826 366.513 376.704 364.631C376.725 364.621 376.735 364.621 376.745 364.621C376.776 364.611 376.806 364.621 376.806 364.652C377.264 365.628 382.045 375.587 392.655 387.346C398.87 394.009 405.869 399.939 413.457 405.331C419.672 409.725 426.152 413.652 433.344 416.297C433.893 416.5 434.3 416.693 434.534 416.866C434.809 417.121 434.87 417.365 434.768 417.731Z" fill="#DCFF93"/>
<path d="M390.126 278.19C400.351 275.697 407.9 270.639 406.986 266.892C406.072 263.145 397.043 262.129 386.817 264.622C376.593 267.115 369.044 272.174 369.958 275.92C370.872 279.667 379.901 280.683 390.126 278.19Z" fill="#F580F7"/>
<path d="M288.459 302.975C298.684 300.482 306.233 295.424 305.319 291.677C304.406 287.931 295.376 286.915 285.151 289.407C274.926 291.9 267.378 296.959 268.292 300.705C269.205 304.452 278.234 305.468 288.459 302.975Z" fill="#F580F7"/>
<path d="M410.548 215.761C408.117 205.792 401.81 197.787 393.621 192.944C390.417 191.052 386.918 189.638 383.245 188.794C381.313 188.347 379.339 188.041 377.325 187.919C373.734 187.685 370.042 187.991 366.359 188.896C346.737 193.677 334.703 213.462 339.494 233.085C344.275 252.707 364.06 264.741 383.683 259.95C403.305 255.169 415.339 235.384 410.548 215.761ZM382.411 254.711C365.556 258.821 348.558 248.486 344.448 231.64C340.338 214.785 350.673 197.787 367.529 193.677C384.375 189.567 401.373 199.902 405.482 216.758C409.592 233.614 399.257 250.601 382.411 254.711Z" fill="#543EFA"/>
<path d="M405.482 216.758C401.373 199.903 384.375 189.567 367.529 193.677C350.674 197.787 340.338 214.785 344.448 231.64C348.558 248.486 365.556 258.821 382.411 254.711C399.257 250.602 409.592 233.614 405.482 216.758ZM373.938 246.105C362.168 248.974 350.307 241.762 347.439 229.992C344.57 218.233 351.782 206.362 363.552 203.493C375.311 200.625 387.182 207.837 390.051 219.606C392.919 231.376 385.707 243.237 373.938 246.105Z" fill="#F580F7"/>
<path d="M390.051 219.607C387.182 207.837 375.311 200.625 363.552 203.494C351.782 206.363 344.57 218.234 347.439 229.993C350.307 241.762 362.168 248.975 373.938 246.106C385.707 243.237 392.919 231.376 390.051 219.607ZM363.562 221.784C360.246 222.598 356.889 220.563 356.085 217.237C355.271 213.921 357.306 210.574 360.632 209.76C363.948 208.956 367.295 210.991 368.109 214.307C368.913 217.623 366.878 220.98 363.562 221.784Z" fill="#543EFA"/>
<path d="M360.973 211.938C357.651 212.748 355.616 216.095 356.426 219.416C357.235 222.737 360.584 224.772 363.904 223.963C367.225 223.153 369.26 219.804 368.45 216.484C367.641 213.164 364.293 211.128 360.973 211.938Z" fill="#FEFEFE"/>
<path d="M313.676 239.382C308.885 219.77 289.12 207.746 269.497 212.507C269.497 212.517 269.487 212.517 269.477 212.517C264.787 213.656 260.535 215.671 256.833 218.326H256.822C245.073 226.779 238.97 241.783 242.612 256.706C247.393 276.328 267.178 288.362 286.8 283.571C306.423 278.79 318.457 259.005 313.676 239.382ZM285.529 278.332C268.673 282.442 251.675 272.117 247.566 255.261C243.466 238.406 253.791 221.418 270.647 217.298C287.502 213.188 304.49 223.524 308.6 240.379C312.709 257.235 302.384 274.223 285.529 278.332Z" fill="#543EFA"/>
<path d="M308.6 240.379C304.49 223.523 287.503 213.188 270.647 217.298C253.791 221.417 243.466 238.405 247.566 255.261C251.676 272.117 268.674 282.442 285.529 278.332C302.385 274.222 312.71 257.234 308.6 240.379ZM277.076 269.716C265.317 272.595 253.456 265.372 250.577 253.613C247.708 241.844 254.921 229.983 266.69 227.114C278.459 224.245 290.32 231.458 293.189 243.227C296.058 254.986 288.845 266.847 277.076 269.716Z" fill="#F580F7"/>
<path d="M293.188 243.227C290.32 231.458 278.459 224.245 266.689 227.114C254.92 229.983 247.708 241.844 250.576 253.613C253.455 265.372 265.316 272.595 277.075 269.716C288.845 266.847 296.057 254.986 293.188 243.227ZM266.679 245.404C263.363 246.218 260.016 244.183 259.203 240.857C258.389 237.541 260.433 234.194 263.75 233.38C267.066 232.577 270.423 234.611 271.226 237.927C272.04 241.254 270.006 244.6 266.679 245.404Z" fill="#543EFA"/>
<path d="M264.692 233.821C260.785 234.792 258.39 238.805 259.343 242.784C260.296 246.763 264.235 249.203 268.142 248.232C272.05 247.262 274.445 243.25 273.492 239.271C272.539 235.29 268.599 232.851 264.692 233.821Z" fill="#FEFEFE"/>
<path d="M295.864 10.6016C295.864 10.6016 295.864 10.6016 295.876 10.6137C295.876 10.6137 295.876 10.6137 295.864 10.6137V10.6016Z" fill="#98D517"/>
<path d="M388.048 181.833C388.038 181.843 388.038 181.843 388.027 181.853C386.268 184.06 384.762 186.42 383.246 188.791C381.314 188.343 379.34 188.038 377.326 187.916C377.458 186.756 377.204 185.607 377.051 184.457C376.777 182.199 376.299 179.961 375.821 177.733C376.655 178.038 377.489 178.415 378.292 178.893C378.771 179.178 379.31 179.412 379.839 179.595C381.354 180.093 382.758 179.534 383.572 178.15C384.254 177.021 384.111 175.648 383.307 174.61C383.175 174.478 383.053 174.366 382.931 174.224C381.883 173.298 380.632 172.718 379.35 172.189C377.753 171.528 376.167 171.05 374.569 170.745C374.539 170.48 374.508 170.206 374.478 169.941C374.488 169.87 374.437 169.778 374.447 169.707C373.237 163.136 371.833 156.615 370.287 150.125C363.746 123.748 344.581 61.29 301.634 16.3892C299.762 14.426 297.839 12.5034 295.876 10.6113C296.751 10.9877 340.573 30.7424 370.083 110.27C371.121 112.956 372.128 115.651 373.105 118.357C377.163 129.486 380.286 140.889 382.738 152.445C382.758 152.526 382.779 152.597 382.799 152.679L382.789 152.689C382.982 153.604 383.185 154.52 383.368 155.435C385.139 163.95 386.563 172.474 387.661 181.029C387.702 181.375 387.763 181.639 388.048 181.833Z" fill="#98D517"/>
<path d="M273.515 325.679C270.881 326.422 265.255 328.172 258.247 331.111C250.912 334.183 242.073 338.557 233.64 344.417C231.361 346.034 229.093 347.662 226.844 349.32C220.344 354.101 214.088 359.207 208.239 364.772C206.072 366.837 204.058 369.014 202.004 371.14C199.969 373.662 199.237 373.886 199.023 373.886C199.023 373.886 198.972 373.896 198.911 373.876C198.779 373.835 198.596 373.693 198.698 373.154L198.687 373.133C198.687 373.103 198.708 373.103 198.698 373.083V373.052C198.87 372.198 199.796 370.194 203.387 365.565C205.228 362.981 207.303 360.55 209.47 358.19C209.49 358.19 209.49 358.17 209.511 358.16C210.294 357.326 211.077 356.481 211.881 355.657C219.541 347.733 228.208 341.487 237.79 336.696C237.79 336.696 242.337 334.285 248.501 331.671C250.76 330.704 253.221 329.718 255.754 328.812C255.785 328.802 255.815 328.792 255.836 328.782C261.024 326.93 266.486 325.425 271.043 325.14C271.511 325.11 271.969 325.079 272.407 325.079H272.569C272.864 325.079 273.139 325.089 273.414 325.099C273.495 325.099 273.556 325.13 273.607 325.181C273.759 325.313 273.739 325.608 273.515 325.679Z" fill="#DCFF93"/>
<path d="M284.807 202.243C283.993 203.616 282.589 204.175 281.073 203.677C280.544 203.494 280.005 203.26 279.527 202.975C276.313 201.114 272.864 200.585 269.222 201.307C268.632 201.409 268.053 201.521 267.493 201.653C265.886 202.029 264.36 202.528 262.926 203.199C262.712 203.301 262.478 203.402 262.265 203.535C261.563 203.891 260.861 204.277 260.2 204.725C260.088 204.806 259.976 204.888 259.864 204.969C259.406 205.284 258.948 205.63 258.491 206.006C258.379 206.108 258.236 206.22 258.114 206.342C258.023 206.444 257.941 206.505 257.84 206.607C257.534 206.881 257.239 207.197 256.955 207.502C256.507 207.98 256.07 208.468 255.663 209.007C255.53 209.16 255.429 209.302 255.317 209.435C254.147 210.767 253.191 210.788 251.482 209.882C249.407 208.784 248.979 207.227 250.414 205.294C250.668 204.949 250.933 204.623 251.197 204.287C251.858 203.474 252.54 202.67 253.272 201.948C253.964 201.246 254.706 200.615 255.469 200.015C255.836 199.74 256.222 199.445 256.588 199.191C257.026 198.886 257.463 198.601 257.921 198.337C258.216 198.153 258.511 197.981 258.826 197.808C259.528 197.421 260.23 197.055 260.973 196.75C261.013 196.739 261.054 196.709 261.074 196.699C261.125 196.689 261.146 196.689 261.186 196.648C261.298 196.607 261.38 196.556 261.491 196.526C261.695 196.455 261.888 196.363 262.061 196.292C263.536 195.722 265.011 195.275 266.486 194.969C271.176 193.973 275.865 194.318 280.585 196.272C281.867 196.801 283.118 197.391 284.166 198.306C284.288 198.448 284.42 198.56 284.542 198.693C285.346 199.73 285.498 201.114 284.807 202.243Z" fill="#F580F7"/>
<path d="M294.644 10.1724C295.012 10.1724 295.416 10.3197 295.864 10.6117V10.6016C295.864 10.6016 295.864 10.6016 295.874 10.6117C296.749 10.9881 340.572 30.7429 370.082 110.27C371.119 112.956 372.126 115.652 373.103 118.357C377.162 129.486 380.285 140.889 382.736 152.445C382.757 152.526 382.777 152.598 382.797 152.679L382.787 152.689C382.98 153.605 383.184 154.52 383.367 155.436C385.137 163.95 386.561 172.474 387.66 181.029C387.7 181.375 387.761 181.64 388.046 181.833C390.447 179.524 392.237 176.706 394.292 174.122C406.051 159.281 419.408 146.006 434.615 134.755C446.405 126.007 458.917 118.49 472.558 112.905C480.554 109.609 488.793 107.005 497.297 105.378C497.297 105.378 497.369 105.367 497.481 105.347C497.673 105.323 498 105.29 498.376 105.29C499.134 105.29 500.09 105.427 500.532 106.059C500.583 106.12 500.624 106.191 500.654 106.273C500.664 106.283 500.664 106.283 500.664 106.293C500.685 106.344 500.705 106.405 500.726 106.466C501.163 107.992 501.794 110.413 502.424 113.678C502.435 113.688 502.435 113.709 502.435 113.729C505.161 127.665 508.019 156.738 496.646 195.098C496.026 197.244 495.385 199.38 494.693 201.517C493.605 204.863 492.394 208.149 491.113 211.394C490.97 211.76 490.848 212.126 490.696 212.503L490.685 212.493C485.864 224.486 479.801 235.869 472.863 246.865C466.028 257.688 458.195 267.739 449.965 277.535C447.463 280.505 445.001 283.506 441.878 285.876C441.695 285.947 441.482 286.141 441.349 286.375C441.268 286.537 441.268 286.751 441.421 286.883C441.523 286.976 441.637 287.007 441.751 287.007C441.887 287.007 442.022 286.963 442.133 286.924C448.094 284.584 454.278 282.926 460.514 281.675C469.13 279.956 477.787 278.399 486.616 277.952C490.752 277.73 494.875 277.521 498.999 277.521C502.047 277.521 505.095 277.635 508.151 277.942C517.988 278.928 527.418 281.319 536.237 285.825C536.563 286.008 536.919 286.191 537.254 286.375C537.417 286.456 537.488 286.649 537.478 286.822C536.883 292.805 525.992 388.792 451.754 388.792C433.348 388.792 411.062 382.9 384.059 368.272C384.059 368.272 384.059 368.272 384.028 368.252C381.831 366.94 379.573 365.729 377.314 364.478C377.247 364.439 377.178 364.422 377.111 364.422C376.968 364.422 376.835 364.502 376.745 364.62C376.752 364.618 376.76 364.617 376.767 364.617C376.789 364.617 376.806 364.628 376.806 364.651C377.263 365.627 382.044 375.586 392.654 387.345C398.87 394.008 405.868 399.939 413.457 405.33C419.672 409.725 426.152 413.651 433.344 416.296C433.893 416.5 434.3 416.693 434.534 416.866C434.809 417.12 434.87 417.364 434.768 417.73C434.727 417.832 434.656 417.975 434.575 418.107C434.473 418.29 434.33 418.473 434.178 418.687C434.127 418.748 434.086 418.798 434.035 418.87C432.011 421.667 429.336 423.803 427.637 424.993C427.637 424.993 423.489 429.239 415.036 429.239C411.311 429.239 406.752 428.415 401.341 426.041C401.24 425.99 401.138 425.95 401.036 425.909C400.945 425.858 400.853 425.828 400.751 425.787C400.68 425.746 400.609 425.716 400.538 425.685C400.111 425.492 399.683 425.288 399.266 425.075C399.175 425.034 399.083 424.983 398.992 424.943C398.798 424.841 398.605 424.749 398.422 424.648C395.655 423.213 393.417 421.728 391.627 420.253C383.174 413.814 377.111 405.381 371.73 396.368C367.457 389.217 364.09 381.618 361.14 373.837C359.502 369.595 357.753 365.383 355.912 361.192C355.829 360.999 355.663 360.914 355.497 360.914C355.236 360.914 354.975 361.123 355.037 361.447C355.169 362.169 355.301 362.901 355.403 363.624C356.085 368.598 356.319 373.592 356.837 378.557C357.153 381.751 356.115 384.599 354.518 387.315C350.459 394.324 345.414 400.458 339.31 405.768C332.403 411.749 324.744 416.53 316.148 419.612C310.939 421.483 305.524 422.596 299.977 422.596C299.101 422.596 298.222 422.568 297.339 422.511C294.898 422.359 294.633 422.166 294.643 419.856C294.766 407.822 299.16 397.67 308.04 389.522C308.803 388.8 309.699 388.251 310.533 387.59C310.868 387.315 311.326 387.132 311.611 386.796C311.881 386.499 311.634 386.028 311.264 386.028C311.215 386.028 311.164 386.036 311.112 386.054C310.98 386.104 310.848 386.165 310.726 386.247C307.979 387.874 304.918 388.627 301.866 389.41C293.341 391.598 284.776 392.747 276.17 393.052V393.062C273.095 393.296 270.068 393.405 267.107 393.405C236.953 393.405 213.115 382.135 203.407 376.726C202.634 376.329 201.861 375.932 201.098 375.505C200.61 375.23 200.162 374.905 199.725 374.559C199.125 374.182 198.769 373.948 198.698 373.898C198.83 373.969 198.983 374.02 199.125 374.091C199.044 374.03 198.972 373.948 198.911 373.877C198.779 373.837 198.596 373.694 198.698 373.155L198.687 373.135C198.687 373.104 198.708 373.104 198.698 373.084V373.053C198.871 372.199 199.796 370.195 203.387 365.566C205.228 362.983 207.303 360.551 209.47 358.191C209.491 358.191 209.491 358.171 209.511 358.161C210.294 357.327 211.077 356.483 211.881 355.659C219.541 347.734 228.208 341.488 237.79 336.697C237.79 336.697 242.337 334.286 248.502 331.672C250.76 330.706 253.222 329.719 255.755 328.814C255.164 328.427 254.646 328.071 254.107 327.735C246.986 323.443 239.916 319.018 233.294 313.921C225.96 308.276 219.215 301.948 212.705 295.397C212.441 295.133 212.176 294.868 211.922 294.604C211.454 294.136 210.986 293.668 210.528 293.2C207.944 290.576 205.462 287.87 203.072 285.093C202.838 284.828 202.614 284.584 202.421 284.35C201.505 283.272 200.6 282.184 199.705 281.085C160.5 235.014 158.14 199.004 157.998 194.823C157.988 194.62 157.988 194.488 157.988 194.437V194.416C158.039 193.847 158.486 193.735 159.707 193.419C164.834 192.117 170.012 191.131 175.23 190.469C175.23 190.469 175.23 190.469 175.24 190.469C180.255 189.838 185.319 189.512 190.421 189.512C190.576 189.512 190.73 189.513 190.885 189.513C202.797 189.544 214.292 191.334 225.522 194.599C225.543 194.599 225.543 194.62 225.573 194.62C226.397 194.823 238.94 198.048 251.187 204.284C251.197 204.284 251.197 204.284 251.197 204.284C251.858 203.47 252.54 202.666 253.272 201.944C253.964 201.242 254.707 200.611 255.47 200.011C255.836 199.736 256.222 199.441 256.589 199.187C257.026 198.882 257.463 198.597 257.921 198.333C257.921 198.322 257.921 198.322 257.911 198.322C257.606 197.214 257.301 196.064 256.995 194.864C249.529 165.598 241.971 109.08 271.033 48.87L271.054 48.8395C272.498 45.6047 273.983 42.4106 275.611 39.247C280.534 29.6544 285.966 20.3975 292.619 11.9036C292.823 11.6392 293.026 11.395 293.209 11.1407C293.633 10.4923 294.101 10.1724 294.644 10.1724ZM294.644 0C290.778 0 287.265 1.89236 284.943 5.20837L284.861 5.31169C284.772 5.42484 284.681 5.53948 284.591 5.65674C278.304 13.6877 272.574 22.8859 266.561 34.602C265.1 37.4413 263.613 40.5641 261.896 44.3997C261.888 44.4159 261.88 44.4321 261.872 44.4482C233.451 103.331 238.535 158.98 245.518 190.564C237.032 187.147 230.039 185.265 228.371 184.835C228.368 184.834 228.365 184.833 228.362 184.832C215.941 181.221 203.341 179.373 190.911 179.341L190.421 179.34C185.016 179.34 179.534 179.682 174.123 180.358C174.066 180.364 174.008 180.37 173.951 180.378C168.366 181.085 162.731 182.156 157.203 183.56C157.19 183.563 157.152 183.573 157.138 183.577C150.036 185.411 148.171 189.991 147.856 193.51C147.829 193.812 147.815 194.114 147.815 194.416C147.815 194.546 147.815 194.822 147.834 195.243C147.947 198.365 148.776 209.441 154.633 225.694C162.14 246.524 174.674 267.35 191.886 287.593C192.789 288.7 193.713 289.81 194.634 290.896C194.838 291.14 195.061 291.393 195.296 291.657L195.419 291.796C197.975 294.761 200.619 297.635 203.279 300.337C203.72 300.788 204.192 301.26 204.665 301.734C204.942 302.019 205.227 302.305 205.512 302.59C213.642 310.772 220.304 316.759 227.089 321.982C229.41 323.768 231.783 325.476 234.174 327.116C233.672 327.372 233.321 327.554 233.146 327.646C222.417 333.024 212.802 340.07 204.567 348.589C203.906 349.267 203.226 349.991 202.55 350.712L202.345 350.931C202.22 351.055 202.097 351.181 201.977 351.312C199.225 354.31 197.074 356.914 195.225 359.492C191.223 364.669 189.337 368.022 188.727 371.035C188.672 371.31 188.628 371.586 188.595 371.863C188.767 370.467 189.232 369.1 189.988 367.848C189.242 369.084 188.764 370.477 188.59 371.909C188.575 372.042 188.562 372.175 188.553 372.308C188.549 372.342 188.546 372.375 188.543 372.409C188.553 372.262 188.566 372.116 188.583 371.969C188.562 372.149 188.546 372.329 188.535 372.509C188.484 373.139 188.485 373.761 188.536 374.371C188.678 377.385 190.156 380.298 192.785 382.175C192.888 382.249 193.138 382.427 193.888 382.904C194.459 383.336 195.213 383.866 196.111 384.371C196.996 384.866 197.817 385.29 198.611 385.698C208.426 391.146 234.419 403.577 267.107 403.577C270.385 403.577 273.694 403.452 276.941 403.205C276.962 403.204 276.982 403.202 277.003 403.201C280.514 403.064 283.995 402.795 287.435 402.394C285.526 407.77 284.534 413.564 284.472 419.753C284.471 419.773 284.471 419.792 284.471 419.812C284.464 421.472 284.444 425.884 288.019 429.323C291.129 432.316 294.895 432.551 296.705 432.664C297.773 432.733 298.88 432.768 299.977 432.768C306.371 432.768 312.968 431.563 319.587 429.186C328.894 425.848 337.772 420.556 345.969 413.457C351.506 408.641 356.349 403.144 360.425 397.058C361.262 398.608 362.118 400.114 362.997 401.585C367.892 409.783 374.849 420.211 385.313 428.231C387.701 430.178 390.503 431.993 393.646 433.629C393.819 433.723 393.995 433.814 394.174 433.904L394.262 433.949C394.391 434.017 394.518 434.08 394.648 434.141C394.691 434.162 394.735 434.184 394.778 434.204C395.251 434.444 395.755 434.685 396.28 434.924C396.48 435.022 396.683 435.113 396.889 435.198C396.974 435.235 397.059 435.272 397.144 435.307C397.181 435.324 397.218 435.34 397.254 435.356C403.386 438.047 409.369 439.411 415.036 439.411C425.37 439.411 431.664 434.986 434.034 432.925C436.415 431.197 439.575 428.518 442.167 424.983C442.266 424.857 442.362 424.729 442.455 424.599L442.507 424.527C442.688 424.279 443.008 423.84 443.344 423.263C443.681 422.695 443.981 422.09 444.215 421.502C444.352 421.159 444.47 420.809 444.569 420.453C445.698 416.39 444.53 412.259 441.446 409.403C441.171 409.147 440.881 408.908 440.579 408.684C439.549 407.923 438.373 407.311 436.877 406.757C431.419 404.75 426.014 401.751 419.329 397.024C416.993 395.365 414.771 393.69 412.65 391.992C426.533 396.628 439.609 398.965 451.754 398.965C486.456 398.965 513.988 380.135 531.374 344.513C544.3 318.028 547.301 290.842 547.601 287.829C547.614 287.693 547.625 287.556 547.633 287.419C547.878 283.248 545.697 279.349 542.055 277.406C541.914 277.329 541.77 277.253 541.627 277.176C541.49 277.104 541.353 277.032 541.224 276.959C541.106 276.893 540.987 276.829 540.866 276.767C531.416 271.938 521.047 269.012 509.167 267.82C506.006 267.503 502.68 267.348 498.999 267.348C494.711 267.348 490.607 267.55 486.07 267.794C480.298 268.087 474.638 268.817 469.303 269.699C473.942 263.606 477.926 257.899 481.464 252.297C489.114 240.171 495.155 228.551 499.922 216.787C499.992 216.635 500.059 216.481 500.123 216.325C500.255 215.997 500.375 215.676 500.492 215.356C500.523 215.269 500.554 215.183 500.587 215.096C502.062 211.361 503.299 207.947 504.367 204.663C505.021 202.642 505.669 200.513 506.41 197.954C518.31 157.79 515.36 127.029 512.478 112.085C512.44 111.848 512.394 111.613 512.34 111.381C511.796 108.61 511.178 106.015 510.504 103.663C510.463 103.52 510.419 103.379 510.372 103.238C510.286 102.979 510.194 102.728 510.109 102.515C510.083 102.449 510.055 102.383 510.027 102.317C509.667 101.457 509.202 100.651 508.639 99.9134C507.19 97.9871 504.073 95.1174 498.376 95.1174C497.678 95.1174 496.958 95.1622 496.239 95.2507C496.09 95.269 495.942 95.2907 495.794 95.3156C495.623 95.3373 495.59 95.3474 495.385 95.3865C486.69 97.0507 477.705 99.7806 468.682 103.5C455.156 109.038 442.022 116.592 428.554 126.586C416.35 135.614 404.865 146.232 394.303 158.241C393.99 156.618 393.666 155.001 393.332 153.391C393.203 152.749 393.065 152.108 392.928 151.466L392.836 151.038C392.791 150.762 392.734 150.486 392.666 150.212L392.64 150.111C389.93 137.382 386.665 125.853 382.66 114.872C381.681 112.161 380.646 109.39 379.595 106.667C350.119 27.2799 306.6 4.41726 300.54 1.56075C298.668 0.524451 296.689 0 294.644 0Z" fill="#4633DC"/>
<path d="M399.369 200.36C378.202 217.557 350.34 220.216 339.054 219.395L343.823 209.165L350.794 198.85L370.54 189.594L387.777 192.975C391.933 194.928 400.07 199.138 399.369 200.36Z" fill="#543EFA"/>
<path d="M303.533 223.855C282.366 241.053 254.504 243.711 243.218 242.891L247.987 232.661L254.958 222.346L274.704 213.089L291.941 216.471C296.097 218.423 304.234 222.634 303.533 223.855Z" fill="#543EFA"/>
<path fill-rule="evenodd" clip-rule="evenodd" d="M560.111 251.113C599.876 251.113 632.112 218.877 632.112 179.111C632.112 139.346 599.876 107.11 560.111 107.11C520.345 107.11 488.109 139.346 488.109 179.111C488.109 218.877 520.345 251.113 560.111 251.113ZM560.111 262.519C606.176 262.519 643.519 225.176 643.519 179.111C643.519 133.047 606.176 95.7036 560.111 95.7036C514.046 95.7036 476.703 133.047 476.703 179.111C476.703 225.176 514.046 262.519 560.111 262.519Z" fill="#4633DC"/>
<path d="M630.901 198.128C620.418 237.248 580.207 260.464 541.087 249.982C501.967 239.5 478.751 199.289 489.233 160.168C499.715 121.048 539.926 97.832 579.047 108.314C618.167 118.797 641.383 159.008 630.901 198.128Z" fill="#543EFA"/>
<path fill-rule="evenodd" clip-rule="evenodd" d="M560.111 242.416C595.073 242.416 623.415 214.074 623.415 179.112C623.415 144.15 595.073 115.808 560.111 115.808C525.149 115.808 496.807 144.15 496.807 179.112C496.807 214.074 525.149 242.416 560.111 242.416ZM560.111 252.444C600.611 252.444 633.443 219.612 633.443 179.112C633.443 138.611 600.611 105.779 560.111 105.779C519.61 105.779 486.778 138.611 486.778 179.112C486.778 219.612 519.61 252.444 560.111 252.444Z" fill="#BEB6FF"/>
<path d="M585.224 169.708L528.435 154.492L546.715 143.738L603.504 158.955L585.224 169.708Z" fill="#BEB6FF"/>
<path d="M573.273 214.312L516.483 199.096L534.693 188.608L591.482 203.825" fill="#BEB6FF"/>
<path d="M536.826 180.645L593.616 195.861L583.09 177.674L526.301 162.458" fill="#BEB6FF"/>
</svg>
