<svg width="638" height="521" viewBox="0 0 638 521" fill="none" xmlns="http://www.w3.org/2000/svg">
<path d="M323.756 46.3487C347.368 49.0027 368.226 60.8287 385.71 76.5257C390.268 80.6146 394.699 84.9073 398.697 89.5587C421.901 114.245 441.665 149.394 453.662 181.101C464.183 210.185 479.355 260.516 465.475 290.262C465.052 291.195 464.591 292.095 464.085 292.983C463.579 293.87 463.058 294.729 462.491 295.576C461.925 296.423 461.343 297.242 460.716 298.048C460.089 298.855 459.447 299.633 458.765 300.377C458.118 297.169 458.588 295.103 457.291 291.478C453.735 281.555 442.751 272.794 434.703 266.46C430.052 262.799 425.313 259.281 420.465 255.9C415.617 252.519 410.689 249.259 405.673 246.142C400.657 243.026 395.532 240.046 390.343 237.216C385.153 234.385 379.899 231.704 374.557 229.167C376.931 227.383 381.895 217.457 383.38 214.214C397.459 183.569 393.113 146.06 381.664 115.314C373.095 92.2528 358.956 67.1404 337.868 53.3664C333.372 50.4401 328.591 48.5569 323.756 46.3487Z" fill="#4633DC" stroke="#4633DC" stroke-linejoin="round"/>
<path d="M286.882 243.123L288.514 243.785C293.885 246.212 297.836 249.036 302.025 253.167C303.063 254.43 304.078 255.687 304.962 257.075L306.526 259.555C308.104 262.589 309.237 265.596 310.28 268.84L311.241 273.518C311.91 279.261 311.03 283.602 309.632 289.136C309.245 290.724 308.635 292.514 308.476 294.14C307.812 297.084 306.984 300.103 306.587 303.12C301.499 327.949 302.364 353.002 304.891 378.082C306.113 390.252 309.177 406.841 307.182 418.821C306.131 425.095 303.161 430.27 297.784 433.784C284.354 442.558 261.899 438.909 246.959 435.697C241.436 434.517 236.077 432.738 230.595 431.498C238.061 426.72 244.052 420.01 248.72 412.556C261.344 392.441 264.18 367.209 265.792 344.004C266.575 332.789 267.038 321.438 268.863 310.342C272.638 287.515 279.711 265.019 286.882 243.123Z" fill="#ED56F0"/>
<path d="M284.319 242.373C285.169 242.581 286.069 242.78 286.882 243.123C279.711 265.019 272.638 287.515 268.903 310.281C267.079 321.378 266.616 332.728 265.833 343.943C264.221 367.149 261.363 392.374 248.761 412.496C244.071 419.943 238.102 426.659 230.636 431.437C224.97 430.17 219.267 428.082 213.842 426.023C201.177 421.215 183.232 413.122 177.474 400.091C171.849 387.358 181.676 374.66 189.15 365.065C192.876 360.264 196.739 355.572 200.449 350.743C206.225 343.163 211.594 335.328 216.545 327.189C224.739 313.662 230.849 298.944 236.53 284.227L239.831 275.229C242.273 268.669 244.42 261.884 247.879 255.793C248.746 254.455 249.707 253.215 250.695 251.959C253.041 249.667 255.417 247.789 258.28 246.14C259.992 245.202 261.745 244.465 263.549 243.718C270.614 241.36 276.996 241.32 284.319 242.373Z" fill="#F580F7"/>
<path d="M419.383 203.609C419.661 203.638 419.934 203.689 420.184 203.733C420.434 203.778 420.729 203.835 420.995 203.908C421.262 203.981 421.534 204.032 421.8 204.105C422.067 204.178 422.333 204.251 422.593 204.346C422.853 204.441 423.114 204.536 423.374 204.631C423.634 204.727 423.888 204.844 424.126 204.933C424.381 205.051 424.613 205.162 424.867 205.279C425.121 205.397 425.347 205.53 425.595 205.67C425.843 205.809 426.069 205.943 426.295 206.076C426.521 206.21 426.763 206.372 426.982 206.527C427.202 206.683 427.422 206.839 427.642 206.994C427.862 207.15 428.075 207.328 428.289 207.506C428.503 207.684 428.716 207.862 428.908 208.033C429.122 208.211 429.307 208.405 429.493 208.599C429.678 208.793 429.886 208.993 430.071 209.187C430.257 209.381 430.436 209.598 430.615 209.814C430.817 210.036 430.99 210.274 431.163 210.513C431.337 210.751 431.51 210.99 431.683 211.228C431.856 211.466 432.024 211.727 432.169 211.981C432.314 212.236 432.481 212.497 432.626 212.751C432.771 213.006 432.91 213.282 433.027 213.553C433.165 213.83 433.282 214.1 433.399 214.371C433.516 214.641 433.632 214.912 433.721 215.199C433.809 215.485 433.926 215.756 434.014 216.043C434.103 216.329 434.191 216.616 434.257 216.897C434.324 217.177 434.406 217.486 434.45 217.761C434.51 218.064 434.554 218.338 434.615 218.641C434.652 218.938 434.69 219.235 434.728 219.531C434.766 219.828 434.782 220.119 434.792 220.432C434.808 220.722 434.817 221.035 434.811 221.32C434.804 221.604 434.814 221.917 434.779 222.218C434.767 222.525 434.738 222.803 434.704 223.104C434.235 228.034 432.025 232.702 428.152 235.864C424.125 239.151 419.417 240.222 414.321 239.661C409.436 238.68 405.006 236.821 401.865 232.786C401.685 232.57 401.512 232.332 401.361 232.1C401.188 231.861 401.037 231.629 400.885 231.397C400.734 231.164 400.589 230.91 400.444 230.655C400.299 230.401 400.177 230.152 400.032 229.898C399.909 229.649 399.792 229.379 399.669 229.13C399.553 228.86 399.452 228.617 399.341 228.325C399.247 228.06 399.152 227.796 399.064 227.509C398.969 227.244 398.903 226.964 398.815 226.677C398.748 226.396 398.682 226.116 398.616 225.835C398.55 225.554 398.506 225.28 398.461 225.005C398.417 224.731 398.379 224.434 398.335 224.16C398.297 223.863 398.276 223.594 398.26 223.304C398.244 223.013 398.228 222.722 398.229 222.46C398.213 222.169 398.219 221.885 398.226 221.6C398.232 221.316 398.238 221.031 398.267 220.752C398.296 220.474 398.324 220.195 398.359 219.895C398.973 214.957 401.433 210.334 405.399 207.269C409.5 204.146 414.328 202.987 419.383 203.609Z" fill="#B0EE2C"/>
<path d="M398.704 89.5365C421.908 114.223 441.671 149.371 453.668 181.079C447.073 181.634 440.292 179.56 434.311 176.919C417.744 169.633 405.454 155.098 398.958 138.404C392.963 123.016 391.943 104.888 398.704 89.5365Z" fill="#B0EE2C"/>
<path d="M107.381 197.812C109.569 195.142 111.568 193.853 114.799 192.686C124.492 189.187 135.429 187.675 145.638 186.56C194.872 181.132 257.269 188.452 304.956 202.167C329.084 209.115 351.858 218.483 374.529 229.183C379.87 231.721 385.124 234.402 390.314 237.232C395.504 240.062 400.606 243.036 405.644 246.159C410.66 249.275 415.617 252.519 420.437 255.916C425.284 259.297 430.023 262.815 434.675 266.476C442.716 272.832 453.707 281.572 457.263 291.495C458.56 295.119 458.089 297.185 458.737 300.393C456.966 302.414 455.03 304.078 452.683 305.415C442.305 311.328 425.242 312.903 413.424 313.625C379.684 315.711 339.774 309.926 306.581 303.142C306.972 300.147 307.799 297.129 308.469 294.163C308.629 292.536 309.239 290.747 309.626 289.159C311.024 283.624 311.881 279.278 311.235 273.541L310.274 268.863C309.23 265.618 308.098 262.611 306.519 259.577L304.956 257.097C304.072 255.709 303.05 254.475 302.018 253.19C297.83 249.059 293.879 246.234 288.507 243.807L286.875 243.145C286.062 242.803 285.185 242.61 284.313 242.395C276.967 241.336 270.608 241.383 263.504 243.707C261.701 244.453 259.948 245.19 258.235 246.128C255.395 247.784 252.997 249.656 250.651 251.947C249.662 253.204 248.702 254.444 247.834 255.781C244.375 261.872 242.223 268.679 239.786 275.217L236.485 284.215C229.313 281.653 222.086 279.29 214.985 276.556C184.882 264.94 143.182 245.923 120.525 222.985C115.52 217.915 109.334 210.97 107.747 203.877C107.318 201.874 107.369 199.86 107.381 197.812Z" fill="#F580F7"/>
<path d="M241.548 200.106C258.831 202.171 276.261 205.875 293.143 210.097C290.049 220.774 286.786 231.548 284.32 242.373C276.974 241.314 270.614 241.361 263.511 243.685C261.11 241.476 259.452 237.251 258.004 234.349C254.552 227.532 251.262 220.642 248.137 213.676C246.055 209.169 244.126 204.368 241.548 200.106Z" fill="#543EFA"/>
<path d="M293.142 210.096C296.572 210.989 300.099 211.789 303.45 212.97C316.745 216.614 330.22 221.166 343.003 226.412C329.42 237.578 317.841 245.262 302.053 253.151C297.864 249.021 293.914 246.196 288.542 243.769L286.91 243.107C286.097 242.765 285.219 242.572 284.347 242.357C286.785 231.548 290.071 220.78 293.142 210.096Z" fill="#543EFA"/>
<path d="M293.142 210.096C296.572 210.989 300.099 211.789 303.45 212.97C301.457 212.495 299.504 211.959 297.529 211.418C294.889 222.267 291.759 233.078 288.536 243.791L286.904 243.129C286.091 242.787 285.213 242.594 284.341 242.379C286.785 231.548 290.071 220.78 293.142 210.096Z" fill="#F580F7"/>
<path d="M235.742 199.35C237.697 199.528 239.622 199.817 241.548 200.106C244.126 204.368 246.061 209.146 248.136 213.676C251.284 220.647 254.573 227.538 258.004 234.348C259.452 237.25 261.115 241.453 263.51 243.684C261.707 244.431 259.954 245.167 258.241 246.105C255.401 247.761 253.003 249.633 250.657 251.925C249.086 250.516 244.329 248.806 242.264 247.811C239.21 246.329 236.202 244.765 233.236 243.141C213.339 231.984 194.851 218.995 178.163 203.444C175.637 201.081 172.184 198.441 170.317 195.591C175.01 195.183 179.977 195.518 184.704 195.597C201.807 195.966 218.812 197.215 235.742 199.35Z" fill="#543EFA"/>
<path d="M235.741 199.35C237.697 199.528 239.622 199.817 241.547 200.106C244.125 204.368 246.061 209.146 248.136 213.676C251.284 220.647 254.573 227.538 258.004 234.348C259.451 237.25 261.115 241.453 263.51 243.684C261.706 244.431 259.954 245.167 258.241 246.105C254.61 238.286 250.601 230.625 246.919 222.815C243.445 215.468 240.231 207.954 236.622 200.665C236.382 200.146 236.179 199.756 235.741 199.35Z" fill="#F580F7"/>
<path d="M342.981 226.406C344.569 227.056 346.197 227.645 347.732 228.4C352.614 230.788 357.744 232.791 362.678 235.074C373.818 240.394 384.732 246.106 395.442 252.215C400.63 255.14 406.114 258.027 410.966 261.481C400.16 263.817 389.561 266.185 378.545 267.46C367.574 268.748 356.349 268.869 345.303 269.039C339.724 269.108 334.133 269.222 328.558 269.102C325.115 269.041 312.626 268.291 310.264 268.812C309.221 265.567 308.088 262.561 306.51 259.527L304.947 257.047C304.062 255.659 303.041 254.424 302.009 253.139C317.841 245.262 329.392 237.594 342.981 226.406Z" fill="#4633DC"/>
<path d="M342.981 226.406C344.568 227.055 346.196 227.645 347.731 228.4C352.613 230.788 357.743 232.79 362.677 235.073C350.671 244.835 321.726 255.895 306.531 259.533L304.968 257.052C304.084 255.665 303.062 254.43 302.03 253.145C317.84 245.261 329.391 237.594 342.981 226.406Z" fill="#543EFA"/>
<path d="M342.981 226.406C344.568 227.055 346.196 227.645 347.731 228.4C340.112 236.262 327.268 245.078 317.668 250.416C313.529 252.718 308.901 254.456 304.962 257.075C304.078 255.687 303.056 254.452 302.024 253.167C317.84 245.261 329.391 237.594 342.981 226.406Z" fill="#F580F7"/>
<path d="M410.982 261.509C412.297 262.37 413.646 263.194 414.887 264.154C422.037 269.407 438.529 282.016 440.048 290.927C440.328 292.603 440.108 294.189 439.045 295.544C434.738 301.069 420.063 302.463 413.299 303.115C386.617 305.656 358.826 302.668 332.463 298.472C327.567 297.703 322.696 296.845 317.815 295.936C314.73 295.353 311.61 294.546 308.498 294.146C308.658 292.52 309.268 290.73 309.655 289.142C311.053 283.608 311.91 279.261 311.264 273.524L310.303 268.846C312.665 268.325 325.138 269.047 328.597 269.136C334.172 269.256 339.763 269.142 345.341 269.073C356.382 268.925 367.612 268.782 378.584 267.494C389.584 266.191 400.161 263.816 410.982 261.509Z" fill="#4633DC"/>
<path d="M410.982 261.509C412.297 262.371 413.646 263.194 414.886 264.154C411.969 266.003 407.34 266.787 404.005 267.638C379.415 273.95 357.948 274.008 332.892 273.75C328.845 273.714 324.788 273.628 320.738 273.52C317.686 273.424 314.245 273.005 311.241 273.518L310.28 268.841C312.643 268.319 325.115 269.041 328.574 269.13C334.149 269.25 339.74 269.137 345.319 269.067C356.36 268.92 367.59 268.776 378.561 267.489C389.583 266.191 400.161 263.817 410.982 261.509Z" fill="#F580F7"/>
<path d="M164.373 195.776C166.359 195.581 168.363 195.581 170.339 195.598C172.229 198.454 175.659 201.088 178.185 203.451C194.873 219.002 213.361 231.991 233.258 243.148C236.225 244.773 239.232 246.337 242.286 247.818C244.352 248.814 249.109 250.523 250.679 251.932C249.691 253.188 248.73 254.428 247.863 255.765C244.404 261.856 242.251 268.664 239.815 275.202C232.124 272.879 224.514 269.91 217.044 266.956C207.546 263.303 198.212 259.313 189.026 254.958C179.84 250.602 170.846 245.894 162.016 240.849C152.725 235.486 143.502 229.785 135.611 222.444C131.805 218.919 126.004 213.272 125.918 207.665C125.89 205.94 126.566 204.431 127.776 203.235C134.225 196.771 155.34 195.996 164.373 195.776Z" fill="#543EFA"/>
<path d="M164.373 195.775C166.359 195.579 168.363 195.58 170.339 195.597C172.229 198.453 175.659 201.087 178.185 203.45C194.873 219.001 213.361 231.99 233.258 243.147C236.225 244.771 239.232 246.335 242.286 247.817C244.351 248.812 249.108 250.522 250.679 251.931C249.69 253.187 248.73 254.427 247.863 255.764C235.761 250.467 224.417 243.539 213.45 236.19C195.768 224.352 179.03 211.246 164.373 195.775Z" fill="#F580F7"/>
<path d="M323.756 46.349C328.591 48.5572 333.366 50.4626 337.861 53.3889C358.956 67.1407 373.089 92.2753 381.658 115.336C393.107 146.082 397.453 183.591 383.374 214.236C381.889 217.48 376.925 227.406 374.551 229.189C351.88 218.489 329.107 209.121 304.978 202.173C257.291 188.458 194.895 181.139 145.66 186.566C135.452 187.681 124.514 189.193 114.822 192.692C111.569 193.853 109.591 195.148 107.404 197.818C107.266 196.754 107.156 195.674 107.164 194.602C107.339 177.684 121.374 158.601 131.287 145.593C134.894 140.878 138.768 135.712 143.009 131.554C144.853 129.53 146.543 127.368 148.402 125.372C153.247 120.234 158.293 115.317 163.585 110.635C165.887 108.594 168.227 106.324 170.978 104.907C171.613 103.458 174.845 101.505 176.118 100.517C185.038 93.6561 194.298 87.2939 203.899 81.4307C207.856 79.0076 211.821 76.4675 216.004 74.4403C244.679 58.5339 276.264 47.5054 309.152 45.5674C313.987 46.0338 318.856 45.7695 323.756 46.349Z" fill="#543EFA"/>
<path d="M242.671 141.595C243.111 141.644 243.567 141.721 243.995 141.815C244.445 141.914 244.867 142.03 245.31 142.152C245.748 142.295 246.164 142.433 246.596 142.599C247.005 142.759 247.431 142.947 247.828 143.152C248.225 143.356 248.617 143.583 249.008 143.809C249.393 144.058 249.756 144.301 250.135 144.572C250.492 144.837 250.843 145.124 251.188 145.433C251.533 145.742 251.855 146.045 252.172 146.371C252.357 146.565 252.52 146.753 252.7 146.969C252.863 147.157 253.042 147.373 253.199 147.583C253.357 147.793 253.514 148.003 253.671 148.213C253.828 148.423 253.957 148.65 254.108 148.882C254.237 149.108 254.366 149.334 254.495 149.561C254.624 149.787 254.746 150.035 254.853 150.255C254.976 150.504 255.083 150.724 255.183 150.966C255.284 151.209 255.384 151.451 255.485 151.693C255.586 151.936 255.658 152.194 255.736 152.43C255.809 152.689 255.887 152.925 255.959 153.183C256.032 153.442 256.082 153.694 256.132 153.947C256.182 154.199 256.232 154.451 256.276 154.726C256.327 154.978 256.348 155.247 256.376 155.493C256.398 155.761 256.426 156.008 256.448 156.276C256.47 156.545 256.47 156.807 256.469 157.069C256.469 157.332 256.469 157.594 256.468 157.857C256.342 161.974 254.397 166.022 251.348 168.79C247.945 171.89 243.755 172.984 239.232 172.771C235.085 172.23 231.225 170.385 228.5 167.18C225.769 163.998 224.575 159.996 224.954 155.828C224.976 155.572 224.999 155.316 225.05 155.043C225.095 154.793 225.123 154.515 225.168 154.264C225.213 154.014 225.263 153.742 225.33 153.498C225.397 153.253 225.47 152.987 225.537 152.743C225.604 152.499 225.699 152.239 225.766 151.994C225.855 151.756 225.95 151.496 226.04 151.258C226.129 151.02 226.24 150.788 226.357 150.534C226.469 150.302 226.58 150.07 226.691 149.838C226.803 149.606 226.936 149.38 227.07 149.154C227.203 148.928 227.337 148.702 227.492 148.483C227.648 148.263 227.782 148.037 227.931 147.839C228.087 147.62 228.236 147.422 228.414 147.208C228.586 147.017 228.742 146.797 228.914 146.605C229.085 146.414 229.257 146.222 229.451 146.037C229.645 145.851 229.817 145.66 230.005 145.497C230.199 145.311 230.387 145.148 230.597 144.991C234.05 142.143 238.292 141.206 242.671 141.595Z" fill="#BEF941"/>
<path d="M170.934 104.894C178.709 104.735 185.452 106.774 191.144 112.295C191.445 112.592 191.739 112.911 192.033 113.231C192.328 113.55 192.6 113.863 192.888 114.205C193.154 114.54 193.42 114.875 193.686 115.211C193.952 115.546 194.19 115.898 194.45 116.255C194.687 116.607 194.919 116.98 195.157 117.332C195.388 117.706 195.598 118.073 195.807 118.441C196.017 118.809 196.22 119.198 196.401 119.582C196.582 119.966 196.763 120.349 196.938 120.755C197.114 121.161 197.266 121.561 197.419 121.961C197.572 122.361 197.719 122.783 197.85 123.177C197.974 123.593 198.099 124.008 198.201 124.418C198.304 124.828 198.4 125.26 198.502 125.67C198.599 126.102 198.679 126.506 198.753 126.932C198.827 127.358 198.879 127.778 198.925 128.22C198.977 128.64 199.023 129.082 199.047 129.518C199.07 129.954 199.1 130.368 199.101 130.798C199.175 137.666 196.494 144.925 191.621 149.817C186.446 155.032 179.713 157.744 172.382 157.763C171.88 157.769 171.405 157.758 170.915 157.719C170.418 157.702 169.928 157.663 169.444 157.602C168.953 157.563 168.475 157.48 167.968 157.412C167.49 157.329 166.99 157.24 166.512 157.156C166.039 157.051 165.545 156.939 165.073 156.833C164.607 156.706 164.119 156.572 163.659 156.422C163.199 156.272 162.716 156.116 162.262 155.944C161.809 155.772 161.332 155.593 160.885 155.399C160.437 155.205 159.989 155.01 159.547 154.794C159.105 154.577 158.664 154.361 158.228 154.122C157.792 153.883 157.357 153.645 156.949 153.39C156.52 153.129 156.112 152.874 155.711 152.597C155.31 152.32 154.908 152.043 154.513 151.744C154.118 151.445 153.723 151.145 153.356 150.83C152.989 150.515 152.6 150.193 152.239 149.856C151.878 149.518 151.517 149.181 151.185 148.827C146.806 144.429 143.545 137.785 143.01 131.553C144.853 129.529 146.544 127.368 148.403 125.372C153.248 120.233 158.294 115.317 163.586 110.635C165.843 108.581 168.183 106.312 170.934 104.894Z" fill="#DCFF93"/>
<path d="M215.976 74.456C244.652 58.5495 276.237 47.5211 309.125 45.583C311.453 59.2019 308.434 72.4769 300.441 83.7917C300.205 84.1325 299.968 84.4734 299.709 84.8081C299.473 85.1489 299.214 85.4836 298.961 85.7961C298.703 86.1308 298.45 86.4434 298.191 86.7781C297.938 87.0906 297.657 87.4192 297.405 87.7318C297.13 88.0382 296.849 88.3668 296.574 88.6733C296.299 88.9797 296.024 89.2862 295.727 89.5865C295.452 89.893 295.155 90.1933 294.864 90.4715C294.567 90.7718 294.276 91.05 293.979 91.3504C293.682 91.6507 293.369 91.9228 293.078 92.201C292.764 92.473 292.473 92.7512 292.138 93.0172C291.825 93.2893 291.512 93.5614 291.176 93.8274C290.863 94.0994 290.534 94.3432 290.198 94.6092C289.869 94.853 289.534 95.119 289.204 95.3628C288.875 95.6066 288.546 95.8504 288.194 96.0882C287.865 96.332 287.513 96.5697 287.168 96.7852C286.817 97.0229 286.471 97.2384 286.126 97.454C285.78 97.6695 285.429 97.9072 285.061 98.1167C284.716 98.3322 284.348 98.5416 283.981 98.7511C283.613 98.9605 283.251 99.1477 282.884 99.3572C282.522 99.5444 282.155 99.7539 281.771 99.935C281.409 100.122 281.026 100.303 280.642 100.485C280.258 100.666 279.881 100.825 279.519 101.012C279.141 101.171 278.758 101.352 278.38 101.511C278.002 101.67 277.603 101.823 277.225 101.982C276.825 102.135 276.454 102.272 276.054 102.424C275.66 102.555 275.26 102.708 274.873 102.817C274.479 102.947 274.085 103.078 273.697 103.186C273.304 103.317 272.894 103.42 272.506 103.528C272.096 103.63 271.709 103.739 271.299 103.841C270.889 103.944 270.485 104.024 270.075 104.126C269.671 104.207 269.262 104.309 268.858 104.389C268.454 104.469 268.05 104.55 267.624 104.624C254.639 106.815 242.387 104.244 231.623 96.5932C224.432 91.4009 217.864 83.3251 215.976 74.456Z" fill="#BEF941"/>
<path d="M346.001 114.32C346.067 114.338 346.14 114.334 346.206 114.352C355.995 116.248 364.827 122.94 370.412 131.033C370.601 131.299 370.784 131.588 370.974 131.855C371.157 132.144 371.324 132.404 371.507 132.693C371.691 132.982 371.852 133.265 372.013 133.548C372.174 133.831 372.335 134.113 372.49 134.418C372.651 134.701 372.806 135.006 372.967 135.289C373.123 135.594 373.261 135.87 373.416 136.175C373.571 136.48 373.704 136.779 373.837 137.078C373.97 137.377 374.103 137.676 374.23 137.997C374.362 138.296 374.489 138.617 374.6 138.91C374.727 139.231 374.837 139.524 374.964 139.845C375.068 140.16 375.195 140.481 375.3 140.796C375.404 141.111 375.509 141.426 375.613 141.741C375.718 142.056 375.8 142.365 375.899 142.702C376.003 143.017 376.08 143.348 376.162 143.657C376.238 143.988 376.321 144.297 376.397 144.628C376.473 144.959 376.556 145.268 376.61 145.593C376.686 145.924 376.74 146.249 376.794 146.574C376.848 146.899 376.902 147.224 376.956 147.549C377.01 147.874 377.064 148.199 377.09 148.541C377.144 148.866 377.17 149.207 377.202 149.526C377.234 149.845 377.26 150.186 377.292 150.505C377.317 150.846 377.349 151.165 377.353 151.5C377.379 151.841 377.388 152.154 377.392 152.489C377.396 152.824 377.399 153.159 377.409 153.472C377.413 153.807 377.416 154.142 377.398 154.471C377.401 154.806 377.383 155.135 377.364 155.464C377.345 155.793 377.327 156.122 377.308 156.451C377.29 156.78 377.271 157.109 377.23 157.432C377.212 157.761 377.171 158.084 377.124 158.429C377.083 158.752 377.036 159.097 376.996 159.419C376.955 159.742 376.908 160.087 376.845 160.404C376.804 160.727 376.735 161.066 376.672 161.383C376.609 161.7 376.54 162.039 376.477 162.356C376.414 162.672 376.323 163.005 376.26 163.322C376.175 163.633 376.106 163.972 376.021 164.282C375.935 164.593 375.844 164.926 375.759 165.237C375.674 165.548 375.56 165.874 375.475 166.185C375.368 166.49 375.277 166.823 375.169 167.127C375.062 167.432 374.948 167.759 374.841 168.063C374.734 168.368 374.598 168.689 374.491 168.993C374.361 169.292 374.226 169.613 374.096 169.911C373.966 170.21 373.837 170.508 373.679 170.823C373.549 171.122 373.398 171.414 373.246 171.707C373.094 171.999 372.942 172.291 372.791 172.584C372.639 172.876 372.487 173.169 372.313 173.455C372.162 173.748 371.988 174.034 371.814 174.321C371.64 174.607 371.466 174.893 371.298 175.157C371.124 175.444 370.956 175.708 370.76 175.988C370.586 176.275 370.396 176.533 370.2 176.813C370.004 177.093 369.814 177.352 369.624 177.61C369.434 177.868 369.237 178.148 369.025 178.4C368.835 178.658 368.617 178.932 368.404 179.184C368.192 179.437 367.98 179.689 367.768 179.941C367.555 180.193 367.343 180.445 367.109 180.691C366.897 180.943 366.662 181.189 366.434 181.412C366.199 181.658 365.971 181.882 365.736 182.128C365.502 182.374 365.274 182.598 365.023 182.815C364.795 183.039 364.538 183.279 364.288 183.496C364.037 183.714 363.809 183.938 363.558 184.156C363.308 184.373 363.057 184.591 362.806 184.809C362.556 185.026 362.289 185.216 362.039 185.433C361.766 185.645 361.521 185.84 361.255 186.03C360.988 186.219 360.715 186.431 360.449 186.62C360.182 186.809 359.915 186.999 359.626 187.182C350.283 193.498 339.37 195.183 328.391 193.105C318.31 191.057 309.203 184.672 303.437 176.195C297.283 167.135 295.423 156.245 297.496 145.551C299.448 135.467 305.665 125.933 314.18 120.201C323.751 113.924 334.973 112.156 346.001 114.32Z" fill="#DCFF93"/>
<path d="M458.328 179.371L458.341 179.406C463.638 194.053 470.177 214.225 473.627 234.59C477.044 254.763 477.601 276.05 470.005 292.354L469.993 292.38L469.981 292.406C469.539 293.326 469.031 294.379 468.427 295.439C467.876 296.406 467.291 297.37 466.646 298.336C466.026 299.262 465.374 300.18 464.662 301.097L464.648 301.114L464.634 301.131C464.008 301.923 463.281 302.824 462.487 303.694C460.416 306.049 458.069 308.08 455.185 309.723C449.247 313.105 441.709 315.096 434.467 316.352C427.149 317.621 419.71 318.208 413.762 318.575C413.761 318.575 413.761 318.575 413.76 318.575L413.453 313.584C379.738 315.674 339.809 309.881 306.618 303.096L458.328 179.371ZM458.328 179.371L458.315 179.337M458.328 179.371L458.315 179.337M245.936 440.547C253.471 442.167 263.188 443.971 272.832 444.204C282.365 444.434 292.565 443.156 300.542 437.935C307.255 433.55 310.89 427.056 312.137 419.615L312.138 419.609C313.244 412.968 312.925 405.302 312.251 398.048C311.91 394.382 311.467 390.726 311.039 387.267C310.988 386.855 310.937 386.447 310.887 386.042C310.511 383.016 310.159 380.176 309.892 377.548C307.549 354.353 306.69 331.521 310.592 308.994L246.987 435.659M245.936 440.547L246.987 435.659M245.936 440.547C245.938 440.548 245.94 440.548 245.942 440.549L246.987 435.659M245.936 440.547C243.021 439.924 240.176 439.155 237.466 438.412L236.801 438.23C234.298 437.543 231.914 436.888 229.515 436.335M246.987 435.659C243.995 435.02 241.05 434.211 238.109 433.404C235.62 432.721 233.134 432.038 230.624 431.459M229.515 436.335C229.521 436.336 229.528 436.338 229.534 436.339L230.624 431.459M229.515 436.335C223.488 434.986 217.467 432.773 212.057 430.719M229.515 436.335C229.51 436.334 229.505 436.333 229.501 436.332L230.624 431.459M230.624 431.459L212.057 430.719M212.057 430.719C212.057 430.719 212.058 430.719 212.058 430.719L213.832 426.044L212.057 430.719ZM212.057 430.719C205.617 428.275 197.597 424.91 190.389 420.394C183.26 415.928 176.352 409.984 172.893 402.13M212.057 430.719L177.468 400.112M172.893 402.13C172.894 402.13 172.894 402.131 172.895 402.132L177.468 400.112M172.893 402.13C172.893 402.129 172.893 402.128 172.892 402.127L177.468 400.112M172.893 402.13C169.307 394.007 170.81 386.087 173.837 379.37C176.793 372.811 181.467 366.81 185.128 362.112L185.202 362.017L185.207 362.01C186.847 359.912 188.45 357.9 190.037 355.91C192.197 353.198 194.327 350.526 196.477 347.727M177.468 400.112C171.844 387.38 181.672 374.684 189.146 365.09C190.717 363.081 192.304 361.089 193.89 359.097C196.09 356.335 198.29 353.575 200.445 350.769M196.477 347.727C196.475 347.73 196.473 347.732 196.471 347.735L200.445 350.769M196.477 347.727C196.478 347.726 196.479 347.724 196.48 347.723L200.445 350.769M196.477 347.727C202.138 340.312 207.411 332.606 212.268 324.623M200.445 350.769C206.215 343.213 211.59 335.357 216.542 327.218M216.542 327.218L212.266 324.626C212.267 324.625 212.267 324.624 212.268 324.623M216.542 327.218C223.865 315.141 229.531 302.075 234.711 288.922C233.158 288.367 231.582 287.815 229.991 287.262M216.542 327.218L212.27 324.619C212.269 324.621 212.269 324.622 212.268 324.623M212.268 324.623C219.343 312.954 224.865 300.265 229.991 287.262M229.991 287.262C229.186 286.982 228.378 286.701 227.567 286.42C222.806 284.769 217.954 283.085 213.232 281.267L213.229 281.266C183.161 269.662 140.515 250.328 117.022 226.542L117.021 226.541C114.46 223.946 111.457 220.734 108.868 217.175C106.305 213.655 103.931 209.506 102.926 205.018L120.58 223.029C143.234 245.966 184.929 264.985 215.029 276.601C219.678 278.391 224.381 280.022 229.087 281.655C229.994 281.969 230.901 282.284 231.809 282.6C231.207 284.157 230.602 285.712 229.991 287.262ZM458.315 179.337C446.166 147.221 426.131 111.5 402.403 86.2234C398.233 81.3812 393.657 76.9566 389.037 72.8126L389.036 72.8111M458.315 179.337L389.036 72.8111M389.036 72.8111C371.046 56.6856 349.265 44.1943 324.313 41.3874L389.036 72.8111ZM309.211 40.605L309.575 40.637C311.641 40.8188 313.715 40.8707 315.976 40.9274C316.171 40.9323 316.368 40.9372 316.566 40.9423C318.996 41.0042 321.629 41.0845 324.31 41.3872L309.211 40.605ZM309.211 40.605L308.846 40.6262M309.211 40.605L308.846 40.6262M308.846 40.6262C275.088 42.5911 242.812 53.9085 213.687 70.0445C209.749 71.9634 206.006 74.2809 202.53 76.4336C202.109 76.6941 201.692 76.9522 201.28 77.2068C191.516 83.131 182.113 89.5899 173.072 96.583C172.876 96.731 172.599 96.9243 172.173 97.2214C172.114 97.2629 172.051 97.3064 171.986 97.352C171.489 97.699 170.875 98.1311 170.266 98.5941C169.668 99.0488 168.981 99.6038 168.357 100.216C168.113 100.455 167.804 100.774 167.488 101.165C164.986 102.669 162.806 104.637 161.111 106.167C160.812 106.437 160.527 106.693 160.259 106.931L160.254 106.936M308.846 40.6262L160.254 106.936M160.254 106.936C154.878 111.717 149.704 116.729 144.756 121.976L144.746 121.987M160.254 106.936L144.746 121.987M144.746 121.987L144.736 121.998M144.746 121.987L144.736 121.998M144.736 121.998C143.718 123.091 142.762 124.212 141.88 125.25M144.736 121.998L141.88 125.25M141.88 125.25L141.71 125.451M141.88 125.25L141.71 125.451M141.71 125.451C140.904 126.4 140.16 127.277 139.396 128.12M141.71 125.451L139.396 128.12M139.396 128.12C135.129 132.324 131.261 137.399 127.878 141.838C127.685 142.091 127.494 142.343 127.304 142.591L139.396 128.12ZM127.304 142.592C122.335 149.086 116.149 157.352 111.189 166.203C106.271 174.979 102.243 184.87 102.154 194.583L102.154 194.594C102.146 195.866 102.262 197.084 102.392 198.141C102.392 198.143 102.392 198.144 102.392 198.145C102.378 200.024 102.36 202.498 102.925 205.015C102.925 205.015 102.925 205.014 102.924 205.013L127.304 142.592Z" stroke="#4633DC" stroke-width="10"/>
<path fill-rule="evenodd" clip-rule="evenodd" d="M484.732 209.484C523.725 217.85 562.118 193.022 570.484 154.028C578.85 115.035 554.022 76.6424 515.028 68.2763C476.035 59.9101 437.643 84.7383 429.276 123.732C420.91 162.725 445.738 201.118 484.732 209.484ZM482.332 220.669C527.503 230.36 571.977 201.599 581.669 156.428C591.36 111.258 562.599 66.783 517.428 57.0915C472.258 47.4 427.783 76.1614 418.092 121.332C408.4 166.503 437.162 210.977 482.332 220.669Z" fill="#4633DC"/>
<path d="M565.295 172.419C546.786 208.574 502.471 222.88 466.315 204.37C430.16 185.861 415.855 141.546 434.364 105.391C452.873 69.2352 497.188 54.93 533.343 73.4393C569.499 91.9486 583.804 136.263 565.295 172.419Z" fill="#F580F7"/>
<path fill-rule="evenodd" clip-rule="evenodd" d="M486.562 200.954C520.845 208.31 554.6 186.48 561.955 152.197C569.311 117.914 547.482 84.1591 513.198 76.8035C478.915 69.4479 445.16 91.2771 437.805 125.56C430.449 159.843 452.278 193.598 486.562 200.954ZM484.452 210.788C524.166 219.308 563.268 194.021 571.789 154.307C580.31 114.593 555.023 75.4907 515.308 66.9698C475.594 58.449 436.492 83.7362 427.971 123.45C419.45 163.165 444.737 202.267 484.452 210.788Z" fill="#FEDDFF"/>
<path d="M539.057 124.346C540.101 124.88 540.142 125.523 539.042 126.271L505.833 147.38L514.974 152.06C515.743 152.454 515.914 152.978 515.559 153.671L514.094 156.534C513.739 157.227 513.204 157.414 512.435 157.02L501.554 151.449L498.837 156.756L509.718 162.326C510.488 162.72 510.658 163.244 510.294 163.956L508.829 166.818C508.474 167.511 507.939 167.698 507.17 167.304L496.289 161.734L492.928 168.298C492.536 169.064 491.974 169.305 491.259 168.939L480.378 163.369C479.682 163.013 479.549 162.415 479.941 161.649L483.301 155.085L472.494 149.552C471.798 149.196 471.627 148.671 471.991 147.96L473.466 145.079C473.821 144.386 474.355 144.199 475.051 144.556L485.859 150.088L488.576 144.782L477.768 139.249C477.072 138.893 476.901 138.368 477.265 137.657L478.731 134.795C479.085 134.102 479.611 133.933 480.307 134.29L489.503 138.997L487.128 99.6949C487.102 98.3466 487.619 98.0131 488.682 98.557L500.9 104.812C501.596 105.168 502.06 105.843 502.217 106.89L502.565 133.533L524.446 118.293C525.158 117.76 526.133 117.707 526.902 118.147L539.047 124.364L539.057 124.346Z" fill="#FEDDFF"/>
<path fill-rule="evenodd" clip-rule="evenodd" d="M183.534 435.535C210.616 408.453 210.616 364.545 183.534 337.463C156.452 310.382 112.544 310.382 85.4625 337.463C58.3808 364.545 58.3808 408.453 85.4625 435.535C112.544 462.617 156.452 462.617 183.534 435.535ZM191.302 443.303C222.674 411.931 222.674 361.067 191.302 329.695C159.93 298.323 109.066 298.323 77.6944 329.695C46.3226 361.067 46.3226 411.931 77.6944 443.303C109.066 474.675 159.93 474.675 191.302 443.303Z" fill="#4633DC"/>
<path d="M195.658 351.238C215.162 385.019 203.587 428.215 169.806 447.719C136.025 467.222 92.8289 455.648 73.3252 421.867C53.8216 388.085 65.3959 344.889 99.1772 325.386C132.959 305.882 176.155 317.456 195.658 351.238Z" fill="#543EFA"/>
<path fill-rule="evenodd" clip-rule="evenodd" d="M177.612 429.611C201.423 405.8 201.423 367.196 177.612 343.386C153.802 319.575 115.198 319.575 91.3872 343.386C67.5768 367.196 67.5768 405.8 91.3872 429.611C115.198 453.421 153.802 453.421 177.612 429.611ZM184.442 436.44C212.024 408.858 212.024 364.138 184.442 336.556C156.86 308.974 112.14 308.974 84.5574 336.556C56.9751 364.138 56.9751 408.858 84.5574 436.44C112.14 464.023 156.86 464.023 184.442 436.44Z" fill="#BEB6FF"/>
<path d="M130.164 399.608C130.851 400.121 131.465 400.617 132.114 401.058C134.349 402.578 136.785 403.553 139.463 403.828C141.56 404.043 143.672 403.809 145.66 403.142C148.322 402.262 150.708 400.914 152.68 398.897C154.568 396.968 155.782 394.63 156.57 392.05C156.701 391.617 156.82 391.175 156.941 390.737C157.209 389.771 158.115 389.186 159.079 389.435C161.11 389.957 163.131 390.52 165.156 391.064C165.585 391.179 166.019 391.268 166.447 391.385C167.534 391.683 168.103 392.585 167.86 393.683C167.076 397.212 165.702 400.477 163.644 403.43C161.551 406.436 158.932 408.884 155.885 410.882C152.838 412.881 149.591 414.39 146.065 415.31C142.807 416.161 139.497 416.438 136.13 416.066C131.768 415.584 127.754 414.08 124.066 411.655C121.986 410.294 120.073 408.688 118.367 406.871C118.151 406.64 118.009 406.612 117.737 406.773C115.171 408.271 112.594 409.752 110.02 411.238C109.348 411.626 108.955 411.417 108.876 410.629C108.643 408.281 108.413 405.925 108.169 403.574C108.127 403.177 108.25 402.923 108.591 402.729C110.008 401.924 111.415 401.103 112.825 400.289L113.163 400.094L112 398.079L106.842 401.057C106.327 401.354 105.873 401.128 105.814 400.54C105.577 398.167 105.354 395.791 105.1 393.419C105.048 392.932 105.208 392.654 105.616 392.428C106.609 391.881 107.576 391.289 108.57 390.743C108.841 390.593 108.867 390.447 108.788 390.17C107.74 386.527 107.302 382.823 107.626 379.057C108.164 372.785 110.601 367.374 114.763 362.758C116.676 360.635 118.861 358.84 121.245 357.278C123.973 355.49 126.889 354.134 130.07 353.368C133.882 352.452 137.728 352.386 141.598 353.127C142.136 353.23 142.672 353.361 143.199 353.503C144.118 353.753 144.666 354.724 144.43 355.728C144.137 356.984 143.805 358.226 143.49 359.474C143.193 360.647 142.885 361.817 142.603 362.994C142.296 364.273 141.456 364.82 140.175 364.519C138.147 364.044 136.108 363.918 134.054 364.233C131.587 364.612 129.384 365.617 127.35 367.017C125.493 368.285 123.921 369.836 122.732 371.762C120.84 374.825 120.246 378.189 120.616 381.771C120.677 382.367 120.778 382.96 120.867 383.593C120.989 383.54 121.07 383.514 121.141 383.473C125.364 381.035 129.586 378.597 133.809 376.16C134.787 375.595 135.766 375.03 136.744 374.465C137.34 374.121 137.744 374.336 137.815 375.039C138.055 377.413 138.287 379.788 138.535 382.161C138.575 382.553 138.463 382.813 138.118 383.01C136.235 384.085 134.362 385.178 132.48 386.256C131.657 386.726 130.812 387.159 129.992 387.636C127.977 388.808 125.971 389.996 123.961 391.178C123.903 391.211 123.854 391.25 123.773 391.307L124.926 393.305L125.322 393.077C130.135 390.298 134.948 387.519 139.761 384.74C139.908 384.645 140.073 384.582 140.246 384.553C140.598 384.516 140.843 384.781 140.887 385.213C141.026 386.588 141.162 387.964 141.296 389.339C141.396 390.338 141.479 391.338 141.604 392.333C141.661 392.787 141.516 393.06 141.129 393.283C137.587 395.315 134.05 397.355 130.517 399.402L130.164 399.608Z" fill="#BEB6FF"/>
</svg>
