<svg width="155" height="87" viewBox="0 0 155 87" fill="none" xmlns="http://www.w3.org/2000/svg">
<path d="M123.019 62.4869C123.019 64.4817 121.397 66.104 119.402 66.104C117.402 66.104 115.774 64.4817 115.774 62.4869C115.774 60.4864 117.396 58.8584 119.402 58.8584C121.397 58.8584 123.019 60.4864 123.019 62.4869Z" fill="#BEF941"/>
<path d="M151.899 72.8971C151.05 72.8971 150.282 73.241 149.715 73.7913L131.71 53.7284L143.237 38.5437L124.212 44.7173L133.435 26.2423L116.519 35.6546L121.902 16.0503L107.107 29.1199L108.259 7.97357L95.3788 24.7003L94.3126 3.36484L83.8398 20.275L78.354 0L72.5014 20.8597L62.7852 0.756658L59.621 22.5851L46.9355 4.90108L48.2768 26.0416L32.5189 9.50981L38.2339 31.8083L19.4379 19.8909L29.7731 39.736L8.05934 30.6618L21.1805 48.0879C21.1805 48.0879 0.607404 44.5052 0.0341785 44.7173C-0.539047 44.9294 18.492 63.3414 18.492 63.3414C18.492 67.2164 20.0741 70.7418 22.625 73.2984C25.1759 75.8492 28.7012 77.4428 32.5819 77.4428H34.9207C35.2532 77.4428 35.5283 77.7179 35.5283 78.0504V86.9641H42.665V78.0504C42.665 77.7179 42.9401 77.4428 43.2726 77.4428H50.2774C50.6099 77.4428 50.8793 77.7179 50.8793 78.0504V86.9641H58.016V78.0504C58.016 77.7179 58.2911 77.4428 58.6236 77.4428H88.5517C88.8841 77.4428 89.1593 77.7179 89.1593 78.0504V86.9641H96.296V78.0504C96.296 77.7179 96.5596 77.4428 96.8978 77.4428H103.908C104.241 77.4428 104.516 77.7179 104.516 78.0504V86.9641H111.653V78.0504C111.653 77.7179 111.928 77.4428 112.26 77.4428H154.639C154.868 77.0129 155 76.5256 155 76.0097C155 74.29 153.607 72.8971 151.899 72.8971ZM119.403 68.6839C115.981 68.6839 113.195 65.9095 113.195 62.4873C113.195 59.0652 115.981 56.2793 119.403 56.2793C122.813 56.2793 125.599 59.0652 125.599 62.4873C125.599 65.9095 122.813 68.6839 119.403 68.6839Z" fill="#BEF941"/>
<path d="M151.899 72.8971C151.05 72.8971 150.282 73.241 149.715 73.7913L131.71 53.7284L143.237 38.5437L124.212 44.7173L133.435 26.2423L116.519 35.6546L121.902 16.0503L107.107 29.1199L108.259 7.97357L95.3788 24.7003L94.3126 3.36484L83.8398 20.275L78.354 0L72.5014 20.8597L62.7852 0.756658L59.621 22.5851L46.9355 4.90108L48.2768 26.0416L32.5189 9.50981L38.2339 31.8083L19.4379 19.8909L29.7731 39.736L8.05934 30.6618L21.1805 48.0879C21.1805 48.0879 0.607404 44.5052 0.0341785 44.7173C-0.539047 44.9294 18.492 63.3414 18.492 63.3414C18.492 67.2164 20.0741 70.7418 22.625 73.2984C25.1759 75.8492 28.7012 77.4428 32.5819 77.4428H34.9207C35.2532 77.4428 35.5283 77.7179 35.5283 78.0504V86.9641H42.665V78.0504C42.665 77.7179 42.9401 77.4428 43.2726 77.4428H50.2774C50.6099 77.4428 50.8793 77.7179 50.8793 78.0504V86.9641H58.016V78.0504C58.016 77.7179 58.2911 77.4428 58.6236 77.4428H88.5517C88.8841 77.4428 89.1593 77.7179 89.1593 78.0504V86.9641H96.296V78.0504C96.296 77.7179 96.5596 77.4428 96.8978 77.4428H103.908C104.241 77.4428 104.516 77.7179 104.516 78.0504V86.9641H111.653V78.0504C111.653 77.7179 111.928 77.4428 112.26 77.4428H154.639C154.868 77.0129 155 76.5256 155 76.0097C155 74.29 153.607 72.8971 151.899 72.8971ZM119.403 68.6839C115.981 68.6839 113.195 65.9095 113.195 62.4873C113.195 59.0652 115.981 56.2793 119.403 56.2793C122.813 56.2793 125.599 59.0652 125.599 62.4873C125.599 65.9095 122.813 68.6839 119.403 68.6839Z" fill="#BEF941"/>
<path d="M51.6931 43.8291V50.7766H48.5289V44.9297C48.5289 44.6489 48.5175 44.2877 48.4831 43.8521C48.4544 43.4164 48.3627 42.9693 48.2022 42.5279C48.036 42.0808 47.7723 41.7082 47.4111 41.4101C47.05 41.1121 46.5341 40.963 45.8749 40.963C45.6055 40.963 45.3189 41.0089 45.0093 41.0949C44.7113 41.1808 44.4246 41.3356 44.1552 41.5764C43.8858 41.8171 43.6737 42.1725 43.496 42.6368C43.3298 43.1012 43.2438 43.726 43.2438 44.4998V50.7766H40.0796V36.125H43.2438V39.2835C43.433 39.1172 43.6279 38.9682 43.8399 38.8192C44.6425 38.2975 45.6456 38.0281 46.8666 38.0281C47.8353 38.0281 48.6264 38.1943 49.234 38.5211C49.8474 38.8535 50.3231 39.2663 50.6671 39.7707C50.9995 40.2809 51.246 40.8025 51.3951 41.3528C51.5326 41.8916 51.6301 42.3961 51.653 42.8432C51.6759 43.2961 51.6931 43.6228 51.6931 43.8291Z" fill="#543EFA"/>
<path d="M51.6473 58.2802C51.6759 58.7388 51.6931 59.0598 51.6931 59.2661V66.2136H48.5289V60.3667C48.5289 60.0859 48.5175 59.7247 48.4831 59.2891C48.4544 58.8534 48.3627 58.4063 48.2022 57.9649C48.036 57.5178 47.7723 57.1452 47.4111 56.8471C47.05 56.5491 46.5341 56.4 45.8749 56.4C45.6055 56.4 45.3189 56.4459 45.0093 56.5319C44.7113 56.6178 44.4246 56.7726 44.1552 57.0134C43.8858 57.2541 43.6737 57.6095 43.496 58.0738C43.3298 58.5381 43.2438 59.163 43.2438 59.9368V66.2136H40.0796V51.5391H43.2438V54.7262C43.433 54.56 43.6279 54.4109 43.8399 54.2619C44.6425 53.7402 45.6456 53.4708 46.8666 53.4708C47.8353 53.4708 48.6264 53.6371 49.234 53.9638C49.8474 54.2963 50.3231 54.709 50.6671 55.2134C50.9995 55.7236 51.246 56.2452 51.3951 56.7955C51.5269 57.3344 51.6186 57.8331 51.6473 58.2802Z" fill="#543EFA"/>
<path d="M65.5763 41.5476C65.1407 40.4413 64.47 39.5814 63.5528 38.9681C62.6414 38.3605 61.5408 38.0566 60.2396 38.0566C59.0186 38.0566 57.941 38.3375 57.0009 38.8878C56.0608 39.4438 55.3271 40.2177 54.7825 41.2151C54.2494 42.2183 53.98 43.3934 53.98 44.7519C53.98 45.9901 54.2494 47.0792 54.7997 48.0422C55.35 48.9995 56.1009 49.7562 57.0697 50.3065C58.0384 50.8568 59.1562 51.1262 60.423 51.1262C61.6153 51.1262 62.7159 50.8109 63.7191 50.1861C64.7222 49.5613 65.4617 48.6785 65.926 47.5493L62.8077 46.655C62.5726 47.1595 62.2516 47.5493 61.8102 47.8072C61.3746 48.0766 60.853 48.2085 60.2339 48.2085C59.2651 48.2085 58.5314 47.8932 58.027 47.2684C57.6658 46.8041 57.4308 46.1964 57.3391 45.4627H66.0292C66.1668 43.9609 66.0063 42.6539 65.5763 41.5476ZM57.4365 43.1411C57.5569 42.5737 57.7518 42.0979 58.0327 41.7253C58.5371 41.0833 59.3167 40.7565 60.3772 40.7565C61.2886 40.7565 61.9421 41.0374 62.3433 41.5877C62.6013 41.9488 62.7733 42.4819 62.865 43.1411H57.4365Z" fill="#543EFA"/>
<path d="M76.5883 36.125V38.8077C75.8145 38.3147 74.8916 38.051 73.7967 38.051C72.6159 38.051 71.5783 38.3319 70.707 38.8994C69.8243 39.4669 69.1421 40.2408 68.6606 41.221C68.1791 42.2069 67.9326 43.3247 67.9326 44.5801C67.9326 45.8182 68.1676 46.936 68.6491 47.922C69.1249 48.9022 69.7956 49.6818 70.644 50.2607C71.4981 50.8282 72.4955 51.1149 73.6419 51.1149C74.8686 51.1149 75.8947 50.8282 76.7259 50.2607C76.8176 50.1977 76.9036 50.1117 76.9839 50.0486V50.7766H79.7411V36.125H76.5883ZM76.7087 46.5577C76.5195 47.1252 76.2272 47.5609 75.803 47.8819C75.3845 48.1914 74.8343 48.3462 74.1349 48.3462C73.4642 48.3462 72.9139 48.1799 72.484 47.8417C72.0541 47.5093 71.7388 47.0507 71.5267 46.4832C71.3204 45.9157 71.2172 45.2794 71.2172 44.5858C71.2172 43.9037 71.3261 43.2731 71.5439 42.7056C71.756 42.1381 72.0828 41.6796 72.5299 41.3356C72.977 41.0031 73.5445 40.8312 74.2438 40.8312C74.8973 40.8312 75.4189 40.9802 75.8202 41.2955C76.2215 41.6108 76.5195 42.0521 76.703 42.6196C76.8807 43.1757 76.9724 43.8406 76.9724 44.5858C76.9781 45.3367 76.8864 45.9902 76.7087 46.5577Z" fill="#543EFA"/>
<path d="M91.3088 38.4006V39.0884C91.2343 39.0311 91.1712 38.9681 91.0852 38.9107C90.2827 38.3433 89.2968 38.0566 88.1217 38.0566C86.9293 38.0566 85.9033 38.3375 85.0205 38.905C84.1435 39.4725 83.4671 40.2464 82.9798 41.2266C82.4869 42.2125 82.2461 43.3303 82.2461 44.5857C82.2461 45.8238 82.4868 46.9416 82.9626 47.9276C83.4441 48.9078 84.1091 49.6874 84.9632 50.2663C85.8173 50.8338 86.8147 51.1205 87.9554 51.1205C89.1305 51.1205 90.1165 50.851 90.919 50.3294V51.579C90.9362 52.0376 90.8158 52.4274 90.5636 52.7312C90.3228 53.0408 89.9846 53.27 89.5777 53.4305C89.1707 53.5911 88.7235 53.6656 88.2535 53.6656C87.8236 53.6656 87.4166 53.5739 87.044 53.379C86.6829 53.1955 86.3905 52.9147 86.1956 52.5478L83.3066 53.9465C83.6161 54.4796 84.0231 54.9439 84.5275 55.3509C85.0205 55.7521 85.588 56.0559 86.2243 56.2795C86.8663 56.5145 87.5255 56.6234 88.2363 56.6234C89.1477 56.6234 89.9846 56.503 90.77 56.2623C91.5495 56.0215 92.203 55.6547 92.7419 55.1617C93.2807 54.6802 93.6533 54.0554 93.8482 53.2987C93.9112 53.0293 93.9686 52.7599 93.9858 52.4905C94.0144 52.221 94.0316 51.9344 94.0316 51.6249V38.4006H91.3088ZM91.0279 46.5576C90.8502 47.1251 90.5464 47.5607 90.1337 47.8817C89.7152 48.1913 89.1535 48.346 88.4599 48.346C87.7892 48.346 87.2389 48.1798 86.809 47.8416C86.379 47.5091 86.0638 47.0506 85.8574 46.4831C85.6511 45.9156 85.5479 45.2793 85.5479 44.5857C85.5479 43.9035 85.6511 43.273 85.8631 42.7055C86.0752 42.138 86.4134 41.6794 86.8606 41.3355C87.3077 41.003 87.8752 40.8311 88.5745 40.8311C89.228 40.8311 89.7496 40.9801 90.1509 41.2954C90.5521 41.6106 90.8502 42.052 91.0279 42.6195C91.2113 43.1755 91.3088 43.8405 91.3088 44.5857C91.3088 45.3366 91.2171 45.9901 91.0279 46.5576Z" fill="#543EFA"/>
<path d="M108.151 41.5476C107.715 40.4413 107.044 39.5814 106.127 38.9681C105.221 38.3605 104.115 38.0566 102.814 38.0566C101.593 38.0566 100.515 38.3375 99.5752 38.8878C98.6351 39.4438 97.9014 40.2177 97.3683 41.2151C96.8295 42.2183 96.5601 43.3934 96.5601 44.7519C96.5601 45.9901 96.8409 47.0792 97.3798 48.0422C97.9301 48.9995 98.681 49.7562 99.6497 50.3065C100.618 50.8568 101.736 51.1262 103.003 51.1262C104.195 51.1262 105.296 50.8109 106.299 50.1861C107.302 49.5613 108.042 48.6785 108.506 47.5493L105.388 46.655C105.164 47.1595 104.832 47.5493 104.39 47.8072C103.955 48.0766 103.433 48.2085 102.814 48.2085C101.845 48.2085 101.111 47.8932 100.618 47.2684C100.246 46.8041 100.022 46.1964 99.9192 45.4627H108.609C108.735 43.9609 108.586 42.6539 108.151 41.5476ZM100.011 43.1411C100.131 42.5737 100.326 42.0979 100.618 41.7253C101.111 41.0833 101.897 40.7565 102.957 40.7565C103.869 40.7565 104.522 41.0374 104.923 41.5877C105.181 41.9488 105.353 42.4819 105.445 43.1411H100.011Z" fill="#543EFA"/>
<path d="M65.7368 56.647C65.2037 55.6611 64.47 54.8987 63.5299 54.3369C62.5784 53.7809 61.4892 53.5 60.2396 53.5C59.0186 53.5 57.941 53.7694 57.0009 54.3197C56.0608 54.87 55.3271 55.6439 54.7825 56.6183C54.2494 57.6043 53.98 58.7393 53.98 60.029C53.98 61.3073 54.2379 62.4423 54.7596 63.4168C55.2927 64.4028 56.0149 65.1651 56.955 65.7269C57.8951 66.2829 58.9842 66.5638 60.2339 66.5638C61.472 66.5638 62.5612 66.2829 63.5127 65.7326C64.4528 65.1766 65.1865 64.4085 65.7196 63.4225C66.2527 62.4423 66.5222 61.3073 66.5222 60.0233C66.5279 58.7507 66.2585 57.6215 65.7368 56.647ZM62.4866 62.6315C61.9937 63.3136 61.2485 63.6461 60.2396 63.6461C59.2709 63.6461 58.5371 63.3194 58.0327 62.6659C57.5397 62.0124 57.2875 61.1296 57.2875 60.0233C57.2875 59.3068 57.3907 58.682 57.597 58.1317C57.8091 57.5928 58.1359 57.1629 58.5658 56.8648C59.0014 56.5553 59.5632 56.4005 60.2396 56.4005C61.2255 56.4005 61.9707 56.733 62.4752 57.3865C62.9682 58.0457 63.2204 58.9227 63.2204 60.0233C63.2204 61.0838 62.9796 61.9608 62.4866 62.6315Z" fill="#543EFA"/>
<path d="M77.4135 53.8382V54.5375C77.339 54.4745 77.276 54.4057 77.2014 54.3541C76.3932 53.7866 75.4015 53.5 74.2321 53.5C73.0513 53.5 72.0137 53.7809 71.131 54.3484C70.2539 54.9159 69.5775 55.6897 69.0903 56.6699C68.6088 57.6559 68.3623 58.7737 68.3623 60.029C68.3623 61.2672 68.5973 62.385 69.0674 63.3709C69.5489 64.3512 70.2138 65.1307 71.0679 65.7097C71.922 66.2772 72.9194 66.5638 74.0602 66.5638C75.2353 66.5638 76.2212 66.2944 77.0237 65.7728V67.0224C77.0409 67.481 76.9206 67.8708 76.6798 68.1746C76.4276 68.4841 76.0951 68.7134 75.6824 68.8739C75.2697 69.0344 74.834 69.1089 74.3582 69.1089C73.9283 69.1089 73.5213 69.0172 73.1545 68.8223C72.7819 68.6389 72.4953 68.358 72.3004 67.9911L69.4113 69.3898C69.7208 69.9229 70.1278 70.3872 70.6323 70.7942C71.1367 71.1955 71.7042 71.4993 72.3348 71.7228C72.9653 71.9579 73.636 72.0668 74.3353 72.0668C75.2467 72.0668 76.0837 71.9464 76.869 71.7056C77.6486 71.4649 78.3135 71.098 78.8409 70.6051C79.3797 70.1235 79.7523 69.4987 79.9472 68.7421C80.0217 68.4727 80.0676 68.2032 80.0962 67.9338C80.1134 67.6644 80.1364 67.3778 80.1364 67.0682V53.8439H77.4135V53.8382ZM77.1327 62.0009C76.955 62.5684 76.6511 63.0041 76.2384 63.3251C75.82 63.6346 75.2582 63.7894 74.5703 63.7894C73.8882 63.7894 73.3436 63.6232 72.9137 63.285C72.4838 62.9525 72.1685 62.4939 71.9622 61.9264C71.7558 61.3589 71.6526 60.7226 71.6526 60.029C71.6526 59.3469 71.7558 58.7164 71.9794 58.1489C72.1857 57.5814 72.5182 57.1228 72.9653 56.7788C73.4124 56.4464 73.9799 56.2744 74.6792 56.2744C75.3327 56.2744 75.8544 56.4235 76.2556 56.7387C76.6569 57.054 76.955 57.4954 77.1327 58.0629C77.3161 58.6189 77.4135 59.2838 77.4135 60.029C77.4135 60.78 77.3218 61.4334 77.1327 62.0009Z" fill="#543EFA"/>
</svg>
