<svg width="47" height="28" viewBox="0 0 47 28" fill="none" xmlns="http://www.w3.org/2000/svg">
<path fill-rule="evenodd" clip-rule="evenodd" d="M0 13.7923C0 6.17603 6.20829 0.00195312 13.8677 0.00195312C17.4066 0.00195312 20.6362 1.32097 23.0865 3.49036C23.3639 3.73593 23.6307 3.99227 23.8873 4.259C23.9729 4.3479 24.0575 4.43814 24.1407 4.52928C23.8082 4.16497 23.4574 3.81758 23.0879 3.49036C25.5382 1.32097 28.7678 0.00195312 32.3067 0.00195312C39.9661 0.00195312 46.1744 6.17603 46.1744 13.7923C46.1744 21.4086 39.9661 27.5826 32.3067 27.5826C28.7678 27.5826 25.5382 26.2636 23.0879 24.0942C23.3474 23.8645 23.5968 23.6246 23.8381 23.3763C23.7777 23.4384 23.7166 23.4997 23.6551 23.5607C23.4706 23.7437 23.2813 23.9217 23.0865 24.0942C20.6362 26.2636 17.4066 27.5826 13.8677 27.5826C6.20829 27.5826 0 21.4086 0 13.7923ZM20.964 21.7278C21.0081 21.79 21.0526 21.852 21.0975 21.9135C21.0526 21.852 21.0082 21.7901 20.964 21.7278ZM21.2624 22.1346C21.2065 22.0615 21.1516 21.9878 21.0975 21.9135C21.1517 21.9879 21.2066 22.0616 21.2624 22.1346ZM20.2955 20.6889C20.503 21.0454 20.7262 21.3923 20.964 21.7278C20.7691 21.4528 20.5842 21.1696 20.4095 20.8803C20.256 20.6259 20.1104 20.3666 19.9732 20.1018C20.0128 20.1782 20.053 20.2542 20.0939 20.3298C19.9259 20.0204 19.7693 19.704 19.625 19.3809C19.8256 19.8302 20.0496 20.2663 20.2955 20.6889ZM20.2955 20.6889C20.3329 20.7531 20.3711 20.8167 20.4095 20.8803C20.3003 20.6994 20.195 20.5159 20.0939 20.3298C20.1594 20.4506 20.2265 20.5703 20.2955 20.6889ZM18.8786 17.2519C18.8477 17.1327 18.8181 17.0129 18.7903 16.8925L18.9392 16.0288C18.8928 16.0288 18.8363 16.0367 18.7761 16.0451C18.7271 16.052 18.6757 16.0592 18.6254 16.0627C18.6169 16.0123 18.6088 15.9617 18.6009 15.911C18.5825 15.7919 18.5655 15.6722 18.5499 15.5524L18.5533 15.5781L18.5446 15.5112C18.5416 15.4872 18.5388 15.4631 18.5359 15.4389C18.5387 15.463 18.5416 15.487 18.5446 15.5112C18.5678 15.6962 18.5947 15.8801 18.6252 16.0628C18.6051 16.0642 18.5851 16.065 18.5656 16.065C18.0609 16.065 18.0053 15.8358 18.0374 15.6662L18.4451 13.5178H19.2121L19.3973 12.3532H18.6741L18.8213 11.6289H18.6087C18.6331 11.475 18.6601 11.322 18.6896 11.1696L18.6998 11.1177C18.7099 11.0665 18.7203 11.0155 18.731 10.9645L18.7326 10.9565C18.7758 10.7513 18.8235 10.5478 18.8757 10.3461C18.9497 10.0599 19.0328 9.77729 19.1245 9.49865C19.1462 9.43295 19.1682 9.3669 19.1907 9.30156C19.2008 9.27235 19.211 9.2431 19.2214 9.21389C19.234 9.17838 19.2467 9.14297 19.2596 9.10729C19.2468 9.14268 19.234 9.17826 19.2214 9.21389C19.211 9.24298 19.2008 9.27214 19.1907 9.30156C19.168 9.367 19.1462 9.43277 19.1245 9.49865C19.0327 9.77749 18.9495 10.0598 18.8754 10.3461L18.8639 10.3909C18.7604 10.7966 18.6748 11.2096 18.6083 11.6289H17.3715C17.3395 11.6562 16.5156 15.7023 16.5156 16.195C16.5156 16.9244 16.995 17.2492 17.6708 17.244C18.1266 17.2407 18.4955 17.1475 18.682 17.1003C18.7121 17.0927 18.7375 17.0863 18.7577 17.0817L18.7903 16.8926C18.8185 17.0147 18.8484 17.1362 18.8799 17.2571L18.8802 17.2582C18.8906 17.2981 18.9012 17.338 18.912 17.3778C18.9008 17.3363 18.8897 17.2946 18.8789 17.2529L18.8786 17.2519ZM18.4672 12.897C18.4948 12.4687 18.5422 12.0457 18.6083 11.6289H18.6087C18.5768 11.8296 18.5494 12.0316 18.5263 12.2353C18.5213 12.2799 18.5165 12.3247 18.5119 12.3695C18.4938 12.5443 18.4788 12.7202 18.4672 12.897ZM18.4672 12.897C18.4647 12.9352 18.4624 12.9735 18.4602 13.0119C18.4624 12.9735 18.4648 12.9353 18.4672 12.897ZM18.4546 13.1194C18.4563 13.0835 18.4582 13.0477 18.4602 13.0119C18.4582 13.0476 18.4563 13.0835 18.4546 13.1194ZM18.5263 12.2353C18.5334 12.1734 18.541 12.1118 18.5488 12.0502C18.5357 12.1537 18.5236 12.2576 18.5127 12.3618C18.5171 12.3196 18.5216 12.2774 18.5263 12.2353ZM18.6252 16.0628L18.6254 16.0627C18.6508 16.2156 18.6788 16.3675 18.7093 16.5186C18.6788 16.3675 18.6507 16.2156 18.6252 16.0628ZM18.7903 16.8926L18.7834 16.8624L18.7903 16.8925L18.7903 16.8926ZM18.4996 15.1085H18.501C18.4743 14.8285 18.4557 14.5471 18.4461 14.2625C18.4435 14.1844 18.4419 14.1057 18.4405 14.0274L18.4404 14.0207C18.4392 13.9589 18.4382 13.8972 18.4378 13.8352C18.4382 13.8908 18.4391 13.9461 18.44 14.0015V14.0016V14.0017L18.4401 14.002C18.4389 13.9321 18.4377 13.8625 18.4377 13.7923C18.4377 13.871 18.439 13.949 18.4405 14.0274C18.4418 14.1059 18.4435 14.1843 18.4461 14.2625C18.4557 14.5465 18.473 14.8291 18.4996 15.1085ZM27.7311 13.4094C27.7347 13.5367 27.7367 13.6641 27.7367 13.7923C27.7367 13.8628 27.7355 13.9327 27.7342 14.0028V14.0028L27.7339 14.0189V14.0274L27.7339 14.0351L27.7339 14.0401V14.0527C27.7325 14.1226 27.7306 14.1928 27.7283 14.2625C27.7336 14.1063 27.7367 13.9497 27.7367 13.7923C27.7367 13.3619 27.7162 12.936 27.677 12.5158C28.3021 11.5942 29.3245 11.1152 30.3645 11.1152C31.1181 11.1152 31.9974 11.4192 31.9974 11.4192L31.7607 12.7313C31.7607 12.7313 31.1678 12.3769 30.429 12.3769C29.4439 12.3769 28.559 13.1814 28.559 14.6438C28.559 15.3646 28.9715 16.0356 30 16.0356C30.4882 16.0356 31.1996 15.7308 31.1996 15.7308L30.9402 17.0813C30.9402 17.0813 30.161 17.2511 29.6719 17.2509C27.9417 17.2509 27.0625 16.2306 27.0625 14.6857C27.0625 13.8035 27.2959 13.0775 27.6769 12.5159C27.7044 12.8111 27.7226 13.1091 27.7311 13.4094ZM27.6769 12.5159C27.6668 12.4078 27.6555 12.3001 27.643 12.1928C27.6555 12.3001 27.6669 12.4077 27.677 12.5158L27.6769 12.5159ZM18.4489 13.2321C18.4473 13.2653 18.4458 13.2986 18.4447 13.332C18.4458 13.2987 18.4473 13.2654 18.4489 13.2321ZM18.5085 12.4034C18.4995 12.494 18.4915 12.5848 18.4841 12.6759C18.4916 12.585 18.4996 12.494 18.5085 12.4034ZM18.4841 12.6759C18.4817 12.7051 18.4795 12.7343 18.4773 12.7635L18.4841 12.6759ZM19.3654 8.82543L19.3654 8.8255L19.3654 8.82558L19.3628 8.8324C19.377 8.79488 19.3912 8.75733 19.406 8.72016C19.3921 8.755 19.3788 8.7901 19.3655 8.82521L19.3655 8.82528L19.3655 8.82536L19.3654 8.82543ZM19.406 8.72016C19.3806 8.78405 19.3558 8.84859 19.3314 8.91302C19.3559 8.84861 19.3806 8.78411 19.406 8.72016ZM26.2448 7.5658C26.2966 7.66751 26.3475 7.76959 26.3968 7.87269C26.336 7.7457 26.2734 7.61973 26.2089 7.49486C26.1967 7.47064 26.1844 7.44646 26.1716 7.42221L26.1613 7.40292L26.1519 7.38561L26.149 7.38005C26.1329 7.34956 26.1166 7.31912 26.1003 7.28875C26.0728 7.23731 26.0451 7.18604 26.0168 7.13503C25.9901 7.08689 25.9627 7.03905 25.9353 6.99129C25.9915 7.08968 26.0465 7.18884 26.1003 7.28875L26.1294 7.34338L26.149 7.38005C26.1691 7.41822 26.1891 7.45649 26.2089 7.49486L26.2201 7.51692L26.2448 7.5658ZM21.3216 5.37534C21.5475 5.08418 21.7841 4.80132 22.0323 4.52928C21.784 4.80142 21.5462 5.08405 21.3201 5.37534C21.2249 5.49805 21.1324 5.62235 21.0415 5.7484C21.0169 5.78235 20.9923 5.81661 20.9679 5.85096C20.9473 5.88003 20.9267 5.90917 20.9063 5.93844C20.8617 6.00245 20.8177 6.06652 20.774 6.13131C20.8175 6.06677 20.8619 6.00224 20.9063 5.93844C20.9267 5.90929 20.9473 5.88009 20.9679 5.85096L20.9754 5.84048C20.9954 5.81246 21.0154 5.78452 21.0355 5.75661L21.0415 5.7484C21.1327 5.62225 21.2247 5.49825 21.3201 5.37534H21.3216ZM19.3216 8.93977C19.312 8.96509 19.3025 8.99043 19.2931 9.01581L19.3216 8.93977ZM19.2596 9.10729C19.2706 9.07677 19.2818 9.04626 19.2931 9.01581C19.2819 9.04625 19.2707 9.07674 19.2596 9.10729ZM21.7213 17.2413C20.5692 17.2413 19.2168 16.8254 19.2168 15.0748C19.2168 13.5581 20.2959 12.2161 21.7538 12.2158C23.3456 12.2158 23.8211 13.2103 23.8211 14.0265C23.8211 14.3536 23.6308 15.1562 23.6308 15.1562H20.6845C20.6845 15.1562 20.4118 16.148 21.9686 16.148C22.6992 16.148 23.5082 15.8435 23.5082 15.8435L23.2528 17.0382C23.2528 17.0382 22.7848 17.2413 21.7213 17.2413ZM22.429 14.1455C22.4447 13.9886 22.5112 13.3252 21.7593 13.3252C20.9691 13.3252 20.8169 14.0932 20.8169 14.1743H22.4266C22.4266 14.1692 22.4276 14.1593 22.429 14.1455V14.1455ZM9.02709 12.5074C9.02709 12.5074 9.7892 12.2344 10.7834 12.2344C11.2967 12.2344 12.7743 12.281 12.7743 13.7282L12.2048 17.1396H10.9281L10.9759 16.6663C10.9729 16.6665 10.9632 16.6759 10.9463 16.6921C10.8308 16.8031 10.3814 17.2351 9.4886 17.2351C8.95302 17.2351 8.08887 16.9859 8.08887 15.8997C8.08887 14.5213 9.40607 14.0641 10.66 14.0641C10.8571 14.0641 11.283 14.0946 11.283 14.0946C11.283 14.0946 11.3314 14.0105 11.3314 13.7828C11.3314 13.408 10.9364 13.3561 10.3965 13.3561C9.44572 13.3561 8.8167 13.5745 8.8167 13.5745L9.02709 12.5074ZM10.0681 16.1971C10.941 16.1971 11.1216 15.2204 11.094 15.012C11.0899 15.0114 11.086 15.0107 11.0821 15.0099L11.0672 15.0064C11.0311 14.9976 10.9734 14.9836 10.7787 14.9834C9.71635 14.9834 9.50074 15.3904 9.50074 15.7294C9.50074 15.9033 9.61784 16.1971 10.0681 16.1971ZM14.1308 17.2106L14.17 17.2107C14.5841 17.2134 16.3243 17.2246 16.3243 15.6356C16.3243 14.6938 15.6769 14.4423 15.1746 14.2471C14.8562 14.1235 14.5961 14.0224 14.5961 13.7826C14.5961 13.4748 14.8778 13.3779 15.3927 13.3779C15.5971 13.3779 16.3834 13.4335 16.3834 13.4335L16.5663 12.3397L16.566 12.3397L16.5651 12.3395C16.5369 12.3343 16.0336 12.2424 15.2287 12.2424C14.1561 12.2424 13.0675 12.6082 13.0675 13.8598C13.0675 14.7198 13.735 15.006 14.2605 15.2312C14.6015 15.3774 14.8827 15.498 14.8827 15.7331C14.8827 16.1319 14.3756 16.1643 13.9848 16.1643C13.4393 16.1643 12.9376 16.0354 12.7627 15.9904C12.7208 15.9796 12.6977 15.9737 12.6972 15.9755L12.5039 17.0583L12.5149 17.0616C12.5901 17.0851 12.9919 17.2106 14.1308 17.2106ZM18.4498 13.2171C18.4484 13.2464 18.4471 13.2758 18.4461 13.3052C18.4472 13.2759 18.4484 13.2465 18.4498 13.2171ZM42.6367 12.9119L42.9495 11.2539L44.4029 11.252L43.2953 17.1426H41.8851L41.9489 16.7008C41.9489 16.7008 41.4674 17.2181 40.5989 17.2181C39.3916 17.2181 38.801 16.2237 38.801 15.2087C38.801 13.6363 39.9083 12.2679 41.2367 12.2679C42.091 12.2679 42.6367 12.9119 42.6367 12.9119ZM41.111 16.0149C41.8971 16.0149 42.2762 15.1409 42.2762 14.4866C42.2762 13.7655 42.0085 13.4592 41.4866 13.4593C40.8496 13.4593 40.3448 14.093 40.3448 15.0533C40.3448 15.6407 40.5893 16.0149 41.111 16.0149ZM2.93304 17.1476L3.81563 12.7003L3.94519 17.1476H4.94411L6.8075 12.7003L5.98208 17.1476H7.46633L8.60941 11.249H6.31418L4.88479 14.8682L4.81041 11.249H2.69468L1.53516 17.1476H2.93304ZM25.468 16.1231L25.468 16.1231C25.4083 16.45 25.345 16.7972 25.2711 17.1562H23.7822L24.6866 12.3548H26.0366L25.9073 13.0509C25.9073 13.0509 26.3884 12.293 27.0377 12.293C27.227 12.293 27.3172 12.3091 27.3172 12.3091C27.1248 12.645 26.9547 12.952 26.7784 13.7456C25.9477 13.4942 25.749 14.5831 25.468 16.1231ZM34.2854 12.2343C33.2912 12.2343 32.5291 12.5073 32.5291 12.5073L32.3189 13.5744C32.3189 13.5744 32.9479 13.3561 33.8987 13.3561C34.4386 13.3561 34.8332 13.4079 34.8332 13.7828C34.8332 14.0105 34.7851 14.0945 34.7851 14.0945C34.7851 14.0945 34.3593 14.0641 34.162 14.0641C32.9082 14.0641 31.591 14.5213 31.591 15.8997C31.591 16.9858 32.455 17.235 32.9906 17.235C33.8838 17.235 34.3332 16.8027 34.4484 16.6919C34.4651 16.6758 34.4748 16.6665 34.4778 16.6662L34.4303 17.1396H35.7069L36.2763 13.7282C36.2765 12.2809 34.7987 12.2343 34.2854 12.2343ZM34.5964 15.0119C34.6241 15.2203 34.4434 16.1971 33.5701 16.1971C33.1199 16.1971 33.0031 15.9032 33.0031 15.7294C33.0031 15.3904 33.2187 14.9833 34.2809 14.9833C34.4752 14.9835 34.533 14.9975 34.5692 15.0063C34.5791 15.0087 34.5874 15.0107 34.5964 15.0119ZM37.6408 16.1216C37.5812 16.4486 37.5177 16.796 37.4438 17.1552H35.9551L36.8595 12.3538H38.2094L38.0802 13.0499C38.0802 13.0499 38.5612 12.292 39.2105 12.292C39.3998 12.292 39.4901 12.3081 39.4901 12.3081C39.2978 12.644 39.1275 12.951 38.9509 13.7446C38.1206 13.4932 37.9219 14.5819 37.6408 16.1216Z" fill="#AB27AD"/>
</svg>
