<svg width="47" height="29" viewBox="0 0 47 29" fill="none" xmlns="http://www.w3.org/2000/svg">
<path d="M34.8514 11.4928C34.5048 11.3833 34.0533 11.7692 33.8563 12.3602C33.6491 12.9513 33.7757 13.5193 34.1262 13.6263C34.4754 13.7371 34.9256 13.3487 35.1239 12.7589C35.3273 12.1692 35.2032 11.6011 34.8514 11.4928Z" fill="#AB27AD"/>
<path d="M31.5604 9.2207C31.4005 9.11626 31.1447 9.06658 30.7942 9.06658H29.7224L29.3361 10.9351H30.5998C30.9285 10.9351 31.1882 10.8587 31.3813 10.7071C31.5706 10.5556 31.696 10.3225 31.7651 10.0066C31.7766 9.94927 31.7817 9.89577 31.7919 9.84737C31.7945 9.80152 31.8022 9.75694 31.8022 9.71236C31.8022 9.48691 31.7228 9.32387 31.5604 9.2207Z" fill="#AB27AD"/>
<path d="M30.1944 20.5451L29.9424 21.4342H30.9286L31.1806 20.5451H30.1944Z" fill="#AB27AD"/>
<path d="M31.1755 17.1089L30.8391 18.2794C30.8391 18.2794 31.4134 18.0591 31.9109 17.9967C32.0209 17.5878 32.1629 17.1089 32.1629 17.1089H31.1755Z" fill="#AB27AD"/>
<path d="M30.683 18.8294L30.344 20.0535C30.344 20.0535 30.9836 19.7401 31.4184 19.7134C31.5476 19.2421 31.673 18.8294 31.673 18.8294H30.683Z" fill="#AB27AD"/>
<path d="M21.4826 11.3809C21.3585 11.2471 21.1833 11.1796 20.9556 11.1796C20.655 11.1796 20.4107 11.2854 20.2189 11.4955C20.0257 11.707 19.8889 12.0241 19.8019 12.4483C19.7904 12.5132 19.7801 12.5795 19.7725 12.6419C19.7661 12.7068 19.7635 12.768 19.7648 12.824C19.7648 13.0648 19.8275 13.2507 19.9528 13.3819C20.0756 13.5131 20.2508 13.5781 20.4811 13.5781C20.7829 13.5781 21.0273 13.4736 21.2191 13.266C21.411 13.0597 21.5466 12.7463 21.631 12.3311C21.6438 12.2661 21.654 12.1986 21.6604 12.1298C21.6655 12.0636 21.6693 12.0012 21.6693 11.9439C21.6693 11.7031 21.608 11.5146 21.4826 11.3809Z" fill="#AB27AD"/>
<path d="M44.6121 0.546408L33.7208 0.54386C33.7195 0.54386 33.7182 0.54386 33.7182 0.54386C33.7067 0.54386 33.699 0.545134 33.6913 0.545134C32.1948 0.590988 30.3312 1.78574 29.9923 3.25944L29.024 7.52259H28.1261L29.0943 3.25944C29.4346 1.78574 31.2982 0.590988 32.7947 0.545134C32.8024 0.545134 32.8113 0.54386 32.8203 0.54386L20.7228 0.540039C20.7036 0.540039 20.6844 0.541313 20.6639 0.542586C19.1636 0.573156 17.2757 1.77555 16.9367 3.26071L15.9684 7.52387H14.9222L15.8891 3.26071C16.2281 1.77683 18.1173 0.573156 19.6177 0.542586L9.62294 0.540039C8.11363 0.540039 6.17966 1.75645 5.83431 3.26071L0.682187 25.9559C0.65021 26.0935 0.632303 26.2298 0.62207 26.3622V26.7826C0.724397 27.8652 1.5558 28.6562 2.75046 28.6728H12.8066C11.3216 28.6499 10.3968 27.4398 10.737 25.9521L11.933 20.684H12.9818L11.7859 25.9521C11.4456 27.4411 12.3704 28.6499 13.8541 28.6728H26.0182C24.5319 28.6499 23.6097 27.4398 23.9486 25.9521L24.349 24.1867H25.2469L24.8465 25.9521C24.5076 27.4411 25.4311 28.6499 26.9161 28.6728H38.3574C39.822 28.6002 41.2417 27.4194 41.5756 25.9623L46.7264 3.26708C47.0692 1.76536 46.1201 0.545134 44.6121 0.546408ZM10.2331 13.8721C9.68945 14.2721 8.98596 14.4733 8.12514 14.4733C7.31421 14.4733 6.72071 14.2682 6.34211 13.8568C6.0799 13.5651 5.94815 13.1932 5.94815 12.7449C5.94815 12.5589 5.96989 12.3589 6.01466 12.1449L6.93176 7.7404H8.317L7.41141 12.094C7.38328 12.2163 7.37304 12.3284 7.37432 12.429C7.37304 12.6519 7.42804 12.834 7.5406 12.9767C7.70432 13.1894 7.97037 13.2951 8.34258 13.2951C8.76852 13.2951 9.11898 13.1919 9.39143 12.9818C9.66387 12.7742 9.84166 12.4799 9.92097 12.0953L10.8291 7.74167H12.2067L11.2896 12.1462C11.1361 12.8939 10.7818 13.4658 10.2331 13.8721ZM15.7689 11.6673L15.2317 14.3459H14.2251L14.7124 11.9182C14.7623 11.6673 14.7482 11.4801 14.6702 11.3603C14.5947 11.2393 14.4489 11.1795 14.2379 11.1795C13.9795 11.1795 13.762 11.2597 13.5842 11.4189C13.4065 11.5794 13.2888 11.8023 13.2312 12.0863L12.7823 14.3447H11.7756L12.5648 10.4127H13.5433L13.432 10.9795L13.5715 10.8177C13.8899 10.4802 14.2749 10.312 14.729 10.312C15.1409 10.312 15.4376 10.4318 15.6244 10.6712C15.8073 10.912 15.8572 11.2419 15.7689 11.6673ZM33.6133 10.8343C34.4575 10.4432 34.8962 10.6751 35.3759 11.0483L35.8338 10.7337L36.9197 10.6381L36.1011 14.3447L34.8502 14.3128L34.666 14.1001C31.4977 15.4452 32.4609 11.3654 33.6133 10.8343ZM35.853 16.7647L35.6279 17.5366H34.7133C34.3641 17.5557 34.1863 17.4258 34.1684 17.1379L34.1262 16.1368H35.3721L35.4245 16.5928C35.4155 16.71 35.4872 16.7647 35.6343 16.7647H35.853ZM28.6198 7.97477H31.4632C32.0081 7.97477 32.4289 8.09959 32.7218 8.3416C33.0122 8.58615 33.1567 8.9377 33.1567 9.39624V9.41025C33.1567 9.49687 33.1503 9.59622 33.1413 9.70193C33.1273 9.80638 33.1119 9.91337 33.0863 10.0242C32.961 10.6305 32.6706 11.117 32.2217 11.4877C31.7689 11.8558 31.2355 12.0418 30.6228 12.0418H29.0982L28.6275 14.3447H27.3087L28.6198 7.97477ZM23.7849 10.4139H24.7647L24.6534 10.9808L24.7902 10.819C25.1075 10.4815 25.495 10.3133 25.9478 10.3133C26.3571 10.3133 26.6551 10.4331 26.8419 10.6725C27.0222 10.912 27.0747 11.2431 26.9864 11.6673L26.4492 14.3459H25.4426L25.9299 11.9182C25.9798 11.6673 25.9683 11.4801 25.8902 11.3603C25.8097 11.2393 25.6677 11.1795 25.4579 11.1795C25.1995 11.1795 24.9821 11.2597 24.803 11.4189C24.6252 11.5794 24.5076 11.8023 24.4513 12.0863L24.0011 14.3447H22.9957L23.7849 10.4139ZM23.4728 16.6539L23.272 17.3927H21.3943C21.1781 17.7162 20.9121 17.8678 20.591 17.8487H19.6125L19.8261 17.0768H20.0154C20.1907 17.0768 20.3071 17.0195 20.3621 16.9048L20.8532 16.1712H22.1694L21.8944 16.6539H23.4728ZM17.3409 14.3434H16.2588L17.1068 10.4139H18.1915L17.3409 14.3434ZM18.3373 9.9363H17.2437L17.4471 8.98101H18.5419L18.3373 9.9363ZM18.7364 12.6824C18.7479 12.5818 18.762 12.4863 18.7799 12.3959C18.9103 11.7564 19.1828 11.2495 19.6049 10.8763C20.0257 10.5006 20.5348 10.312 21.1295 10.312C21.6181 10.312 22.0044 10.4483 22.2871 10.7196C22.5698 10.9922 22.7117 11.3616 22.7117 11.8291C22.7117 11.9093 22.7053 12.0023 22.6951 12.1016C22.681 12.2035 22.667 12.3003 22.6491 12.3959C22.5237 13.0238 22.2513 13.5257 21.8279 13.8925C21.4058 14.2631 20.8993 14.4466 20.3084 14.4466C19.8197 14.4466 19.4347 14.3128 19.1521 14.0466C18.8668 13.7753 18.7236 13.4123 18.7223 12.9499C18.7223 12.8684 18.7274 12.7793 18.7364 12.6824ZM21.9174 22.6621H19.8006C19.3977 22.6621 19.2608 22.4328 19.3861 21.9743L19.7878 20.5146H18.9231L19.1418 19.7096H20.0078L20.2188 18.9377H19.3925L19.61 18.1365H23.0686L22.8486 18.9377H21.4582L21.2459 19.7121H22.5992L22.3792 20.5146H21.0246L20.71 21.6571C20.6332 21.8469 20.7356 21.9335 21.017 21.9144H22.1195L21.9174 22.6621ZM27.4942 20.3681C27.3881 20.7515 27.1067 20.9502 26.6513 20.9706H26.0501L26.0476 21.801C26.0361 21.931 26.1576 21.9997 26.407 21.9997H26.9698L26.7843 22.6595H25.4311C25.0537 22.6735 24.8657 22.4952 24.8708 22.1144L24.9552 19.8828H26.0847L26.0616 20.3681H26.3622C26.5144 20.3681 26.5899 20.3184 26.5899 20.2242L26.6794 19.9096H27.6157L27.4942 20.3681ZM26.7754 19.679H24.2952L23.7145 21.7985C23.6813 21.9106 23.7273 21.9704 23.854 21.9704H24.3426L24.1622 22.629H22.9215C22.4444 22.629 22.2474 22.4888 22.3255 22.1997L23.9678 16.1648H25.1254L25.0729 16.6348C25.0729 16.6348 25.7265 16.147 26.3175 16.147H28.5072L27.6707 19.1644C27.6017 19.5109 27.3036 19.6803 26.7754 19.679ZM32.0784 22.2914L31.971 22.6633H30.6906L30.7981 22.2914H28.2693L28.5136 21.4329H28.7669L30.0025 17.1074H29.7479L30.0089 16.1916H31.3314L31.2739 16.5291C31.2739 16.5291 31.948 16.1916 32.4366 16.1916C32.9239 16.1916 34.0712 16.1916 34.0712 16.1916L33.8116 17.1074H33.5558L32.3202 21.4329H32.5773L32.3355 22.2914H32.0784ZM37.558 18.6218H36.2764L36.0551 19.3937H37.3367L37.0962 20.2216H35.6701L35.3478 20.7069H36.0423L36.2047 21.6826C36.2239 21.7794 36.3096 21.8252 36.4567 21.8252H36.6742L36.4452 22.6277H35.6765C35.28 22.6481 35.0753 22.5169 35.0574 22.2277L34.8707 21.3412L34.2362 22.2876C34.0879 22.5551 33.8538 22.6799 33.5443 22.6595H32.3701L32.6016 21.8571H32.9648C33.1145 21.8571 33.2437 21.7896 33.3549 21.6571L34.3488 20.2254H33.0646L33.3051 19.3975H34.6954L34.918 18.6269H33.5251L33.7643 17.7964H37.7933L37.558 18.6218ZM39.0673 15.1025C38.6529 15.9865 38.2551 16.5011 38.021 16.7405C37.7857 16.9787 37.3239 17.529 36.2073 17.4882L36.3045 16.8144C37.2421 16.5278 37.7499 15.2312 38.0402 14.6554L37.6949 10.4241L38.4175 10.4139H39.0251L39.0903 13.0684L40.2338 10.4139H41.3901L39.0673 15.1025Z" fill="#AB27AD"/>
<path d="M24.6739 18.3061L24.5089 18.906H26.274C26.4186 18.9264 26.5004 18.8691 26.5107 18.7341L26.6309 18.3061H24.6739Z" fill="#AB27AD"/>
<path d="M25.032 17.0184L24.798 17.8323C24.798 17.8323 25.1229 17.5992 25.6652 17.5903C26.2088 17.5827 26.8279 17.5903 26.8279 17.5903L26.9852 17.0184H25.032Z" fill="#AB27AD"/>
</svg>
