<svg width="69" height="22" viewBox="0 0 69 22" fill="none" xmlns="http://www.w3.org/2000/svg">
<path d="M28.2513 0.233398L24.8707 21.2709H30.2742L33.6528 0.233398H28.2513ZM44.5504 8.8029C42.6621 7.87041 41.5045 7.24105 41.5045 6.28732C41.5276 5.42017 42.4834 4.53177 44.6178 4.53177C46.3734 4.48767 47.6637 4.90024 48.6426 5.31073L49.133 5.5296L49.8676 1.12803C48.8003 0.715459 47.108 0.260871 45.0177 0.260871C39.6816 0.260871 35.9241 3.03526 35.9008 7.00325C35.8567 9.9314 38.5909 11.5563 40.6371 12.531C42.7275 13.5309 43.439 14.1792 43.439 15.0676C43.4159 16.4316 41.7488 17.061 40.1932 17.061C38.0378 17.061 36.8799 16.7368 35.1223 15.9768L34.4108 15.6526L33.6551 20.2269C34.9245 20.7912 37.2588 21.2878 39.6818 21.3132C45.3527 21.3132 49.0427 18.5808 49.0891 14.3519C49.1076 12.0321 47.6658 10.2553 44.5504 8.8029ZM63.7206 0.298504H59.54C58.2518 0.298504 57.2729 0.669054 56.7151 1.99103L48.6886 21.2709H54.3595L55.9213 17.0967H62.2659L63.0763 21.2878H68.0779L63.7206 0.298504ZM57.494 12.8843C57.6035 12.8949 59.6707 6.0703 59.6707 6.0703L61.3168 12.8843C61.3168 12.8843 58.5614 12.8843 57.494 12.8843ZM20.3555 0.233398L15.0614 14.5265L14.4847 11.7077C13.5058 8.45544 10.4368 4.92125 7.0118 3.1657L11.8597 21.2499H17.577L26.0728 0.235706H20.3555V0.233398Z" fill="#AB27AD"/>
<path d="M12.7037 2.94661C12.2912 1.34251 10.9754 0.260641 9.18847 0.237554H0.80412L0.717773 0.626803C7.25815 2.23921 12.7478 7.20065 14.5288 11.8675L12.7037 2.94661Z" fill="#AB27AD"/>
</svg>
